<svg xmlns="http://www.w3.org/2000/svg" xmlns:xlink="http://www.w3.org/1999/xlink" width="155" height="155" viewBox="0 0 155 155">
  <defs>
    <clipPath id="clip-path">
      <rect id="Rectangle_1" data-name="Rectangle 1" width="155" height="155" transform="translate(483 100)" fill="#fff"/>
    </clipPath>
  </defs>
  <g id="Mask_Group_1" data-name="Mask Group 1" transform="translate(-483 -100)" clip-path="url(#clip-path)">
    <g id="np_united-states_4514334_FFFFFF" transform="translate(503.75 120.75)">
      <path id="Path_1" data-name="Path 1" d="M53.29,94.7a49.518,49.518,0,0,0,26.1-7.509h-52.2a49.521,49.521,0,0,0,26.1,7.509Z" transform="translate(3.019 11.671)" fill="#fff"/>
      <path id="Path_2" data-name="Path 2" d="M19.159,81.258H91.386a42.851,42.851,0,0,0,6.079-7.509H13.438a29.822,29.822,0,0,0,5.721,7.509Z" transform="translate(1.036 9.733)" fill="#fff"/>
      <path id="Path_3" data-name="Path 3" d="M10,67.821h92.609a61.618,61.618,0,0,0,2.5-7.509H7.5A61.617,61.617,0,0,0,10,67.821Z" transform="translate(0.18 7.796)" fill="#fff"/>
      <path id="Path_4" data-name="Path 4" d="M32.145,10c-.715.358-1.43,1.073-2.145,1.43h2.145Z" transform="translate(3.425 0.541)" fill="#fff"/>
      <path id="Path_5" data-name="Path 5" d="M106.367,52.733H79.908V44.867h25.029a61.616,61.616,0,0,0-2.5-7.509H79.55V29.134H98.143a31.118,31.118,0,0,0-6.079-7.509H79.549V13.759h2.86a49.521,49.521,0,0,0-26.1-7.509,46.811,46.811,0,0,0-20.023,4.291l.358,1.43h2.145L37,13.044l.715,2.145-1.788-1.073L34.14,15.189l.715-2.145-1.788-1.073A50.455,50.455,0,0,0,15.189,27.7h1.43l.715-2.145L18.05,27.7h2.145l-2.145,1.43.715,2.145-1.43-1.43-1.788,1.43.715-2.145-1.43-1.073a39.08,39.08,0,0,0-2.86,5.363h1.788L11.971,34.5l.715,2.145L10.9,35.212a51.99,51.99,0,0,0-4.648,21.1v3.576H106.367V52.734ZM12.686,57.739,10.9,56.309,9.11,57.739l.715-1.788-1.788-1.43h2.145l.715-1.788.715,2.145h2.145l-1.788,1.43Zm-.715-12.515.715,2.145L10.9,45.939,9.11,47.369l.715-2.145-1.788-1.43h2.145l.715-1.788.715,2.145h2.145Zm6.794,7.151-1.788-1.43-1.788,1.43.715-2.145-1.43-1.073h2.145l.715-2.145.358,2.145h2.145L18.05,50.229ZM18.05,39.86,18.765,42l-1.788-1.43L15.547,42l.715-2.145-1.788-1.43h2.145l.715-2.145.358,2.145h2.145ZM25.2,57.738l-1.788-1.43-1.788,1.43.715-2.145L20.552,54.52H22.7l.715-1.788.715,1.788h2.145l-1.788,1.43Zm-.715-12.515.715,2.145-1.788-1.43-1.788,1.43.715-2.145-1.788-1.43H22.7L23.413,42l.715,1.788h2.145Zm0-10.727.715,2.145-1.788-1.43-1.788,1.43L22.34,34.5l-1.788-1.43H22.7l.715-1.788.715,2.145h2.145Zm0-10.727.715,2.145-1.788-1.43-1.788,1.43.715-2.145L20.552,22.7H22.7l.715-2.145.715,2.145h2.145Zm6.794,28.6-1.788-1.43L27.7,52.374l.715-2.145-1.43-1.073h2.145l.715-2.145.358,2.145h2.145l-1.788,1.073Zm-.715-12.515L31.279,42l-1.788-1.43L28.061,42l.715-2.145-1.788-1.43h2.145l.715-2.145.358,2.145h2.145Zm0-10.727.715,2.145-1.43-1.43-1.788,1.43.715-2.145L26.989,27.7h2.145l.715-2.145.715,2.145H32.71Zm0-10.727.715,2.145-1.43-1.43-1.788,1.43.715-2.145-1.788-1.073h2.145l.715-2.145.715,2.145H32.71Zm7.151,39.332-1.788-1.43-1.788,1.43.715-2.145-1.788-1.43h2.145l.715-2.145.715,2.145h2.145L37,55.591ZM37,45.221l.715,2.145-1.788-1.43-1.788,1.43.715-2.145-1.788-1.43h2.145l.715-2.145.715,2.145h2.145Zm0-10.727.715,2.145-1.788-1.43L34.14,36.64l.715-2.145-1.788-1.43h2.145l.715-1.788.715,2.145h2.145Zm0-10.727.715,2.145L35.928,24.84,34.14,25.913l.715-2.145-1.788-1.073h2.145l.715-2.145.715,2.145h2.145Zm6.794,28.6-1.788-1.43-1.788,1.43.715-2.145L39.5,49.155h2.145l.715-2.145.715,2.145h2.145l-1.788,1.073Zm-.715-12.515L43.794,42l-1.788-1.43L40.576,42l.715-2.145L39.5,38.427h2.145l.715-2.145.715,2.145h2.145Zm0-10.727.715,2.145-1.788-1.43-1.43,1.43.715-2.145L39.5,27.7h2.145l.715-2.145.715,2.145h2.145Zm0-10.727.715,2.145-1.788-1.43-1.43,1.43.715-2.145L39.5,17.331h2.145l.715-2.145.715,2.145h2.145ZM50.23,57.735l-1.788-1.43-1.788,1.43.715-2.145-1.788-1.073h2.145l.715-2.145.715,2.145H51.3l-1.788,1.43ZM49.515,45.22l.715,2.145-1.788-1.43-1.788,1.43.715-2.145-1.788-1.43h2.145l.715-2.145.715,2.145H51.3Zm0-10.727.715,2.145-1.788-1.43-1.788,1.43.715-2.145-1.788-1.43h2.145l.715-1.788.715,2.145H51.3Zm0-10.727.715,2.145-1.788-1.073-1.788,1.073.715-2.145-1.788-1.073h2.145l.715-2.145.715,2.145H51.3Zm0-10.727.715,2.145-1.788-1.073-1.788,1.073.715-2.145-1.788-1.073h2.145l.715-2.145.715,2.145H51.3Zm6.794,39.332-1.788-1.43-1.788,1.43.715-2.145-1.43-1.073h2.145l.715-2.145.715,2.145h2.145l-1.788,1.073Zm-.715-12.515L56.309,42l-1.788-1.43L53.091,42l.715-2.145-1.788-1.43h2.145l.715-2.145.715,2.145h2.145Zm0-10.727.715,2.145-1.788-1.43-1.43,1.43.715-2.145L52.018,27.7h2.145l.715-2.145.715,2.145h2.145Zm0-10.727.715,2.145-1.788-1.43-1.43,1.43.715-2.145L52.018,17.33h2.145l.715-2.145.715,2.145h2.145Zm7.151,39.332L60.957,56.3l-1.788,1.43.715-2.145L58.1,54.159h2.145l.715-2.145.715,2.145h2.145l-1.788,1.43ZM62.03,45.219l.715,2.145-1.788-1.43-1.788,1.43.715-2.145L58.1,43.789h2.145l.715-2.145.715,2.145h2.145Zm0-10.727.715,2.145-1.788-1.43-1.788,1.43.715-2.145L58.1,33.42h2.145l.715-2.145.715,2.145h2.145Zm0-10.727.715,2.145-1.788-1.073-1.788,1.073.715-2.145L58.1,22.693h2.145l.715-2.145.715,2.145h2.145Zm0-10.727.715,2.145-1.788-1.073-1.788,1.073.715-2.145L58.1,11.966h2.145l.715-2.145.715,2.145h2.145ZM68.823,52.37l-1.788-1.43-1.788,1.43.715-2.145-1.43-1.073h2.145l.715-2.145.715,2.145h2.145l-1.788,1.073Zm-.715-12.515L68.823,42l-1.788-1.43L65.605,42l.715-2.145-1.788-1.43h2.145l.715-2.145.715,2.145h2.145Zm0-10.727.715,2.145-1.788-1.43-1.43,1.43.715-2.145L64.533,27.7h2.145l.715-2.145.715,2.145h2.145Zm0-10.727.715,2.145-1.788-1.43-1.43,1.43L66.32,18.4l-1.788-1.073h2.145l.715-2.145.715,2.145h2.145Zm7.151,39.332L73.472,56.3l-1.788,1.43.715-2.145-1.788-1.073h2.145l.715-2.145.715,2.145h2.145l-1.788,1.43Zm-.715-12.515.715,2.145-1.788-1.43-1.788,1.43.715-2.145-1.788-1.43h2.145l.715-2.145.715,2.145h2.145Zm0-10.727.715,2.145-1.788-1.43-1.788,1.43.715-2.145-1.788-1.43h2.145l.715-1.788.715,2.145h2.145Zm0-10.727.715,2.145-1.788-1.073L71.684,25.91l.715-2.145-1.788-1.073h2.145l.715-2.145.715,2.145h2.145Zm0-10.727.715,2.145L73.472,14.11l-1.788,1.073.715-2.145-1.788-1.073h2.145l.715-2.145.715,2.145h2.145Z" fill="#fff"/>
    </g>
  </g>
</svg>
