<?xml version="1.0" encoding="utf-8"?>
<!-- Generator: Adobe Illustrator 27.0.0, SVG Export Plug-In . SVG Version: 6.00 Build 0)  -->
<svg version="1.1" id="OTR_Color__x28_RGB_x29_" xmlns="http://www.w3.org/2000/svg" xmlns:xlink="http://www.w3.org/1999/xlink"
	 x="0px" y="0px" viewBox="0 0 480 280" enable-background="new 0 0 480 280" xml:space="preserve">
<g id="Logo_Wordmark">
	<g id="Wordmark">
		<g>
			<g>
				<g>
					<path fill="#1C3A6B" d="M50.08,156.96c10.89,0,19.68,3.29,26.38,9.85c6.7,6.57,10.05,15.19,10.05,25.87
						c0,11.62-3.46,21.46-10.36,29.54c-6.73,7.89-16.01,11.84-27.84,11.84c-11.3,0-20.34-3.43-27.11-10.29
						c-6.77-6.86-10.15-16.02-10.15-27.5c0-4.92,0.85-9.82,2.56-14.69c1.71-4.87,4.03-8.95,6.96-12.25c3.38-3.87,7.68-6.9,12.9-9.09
						C38.68,158.06,44.22,156.96,50.08,156.96 M46.31,161.03c-7.01,0-12.49,2.7-16.43,8.09c-3.94,5.39-5.92,12.9-5.92,22.52
						c0,11.36,2.48,20.59,7.43,27.7c4.95,7.11,11.39,10.66,19.31,10.66c7.15,0,12.88-2.94,17.17-8.82
						c4.29-5.88,6.44-13.73,6.44-23.57c0-5.68-0.99-11.22-2.98-16.63c-1.99-5.41-4.64-9.7-7.95-12.88
						C58.56,163.38,52.87,161.03,46.31,161.03"/>
					<path fill="#1C3A6B" d="M92.57,238.86v-37l0.1-2.27l-0.26-2.38c-0.52-2.05-1.92-3.14-4.19-3.25c-0.38,0-0.75,0.02-1.1,0.06
						l-0.47,0.06c-0.7-0.04-1.05-0.46-1.05-1.27c0-0.78,0.35-1.24,1.05-1.38l2.46-0.38c4.47-0.76,7.83-1.99,10.1-3.69
						c1.73-1.27,2.76-1.9,3.07-1.9c0.5,0,0.78,0.4,0.85,1.2l0.05,1.58v4.37c0.21,0.77,0.56,1.17,1.05,1.2
						c0.17,0,0.47-0.16,0.89-0.49c3.41-2.77,5.95-4.56,7.6-5.36c1.66-0.8,3.68-1.21,6.09-1.21c5.26,0,9.55,1.89,12.88,5.67
						c3.33,3.77,4.99,8.64,4.99,14.6c0,8.63-2.61,15.57-7.84,20.81c-4.18,4.19-8.73,6.29-13.64,6.29c-4.57,0-8.02-0.59-10.35-1.76
						c-0.38-0.18-0.7-0.28-0.94-0.28c-0.52,0-0.78,0.67-0.78,2v4.77c0,3.21,0.55,5.47,1.65,6.77c1.1,1.3,3.15,2.13,6.15,2.49
						c1.33,0.15,1.99,0.65,1.99,1.49c0,1.17-0.56,1.73-1.68,1.65c-0.56-0.04-1.19-0.15-1.89-0.33c-2.76-0.69-5.12-1.03-7.08-1.03
						c-1.26,0-3.15,0.09-5.66,0.27l-4.51,0.38c-1.09,0.07-1.82,0.11-2.2,0.11c-1.33,0-1.99-0.52-1.99-1.55
						c0-0.66,0.45-1.16,1.36-1.49c1.43-0.54,2.34-1.31,2.72-2.32C92.38,244.29,92.57,242.15,92.57,238.86 M103.14,199.69v21.01
						c0,2.34,1.42,4.54,4.26,6.59c2.85,2.05,5.91,3.08,9.19,3.08c3.45,0,6.21-1.42,8.27-4.26c2.06-2.85,3.09-6.64,3.09-11.4
						c0-5.8-1.55-10.7-4.66-14.72c-3.1-4.01-6.91-6.02-11.41-6.02c-2.4,0-4.46,0.56-6.17,1.68
						C104,196.76,103.14,198.11,103.14,199.69"/>
					<path fill="#1C3A6B" d="M151.81,193.53v26.48c0,3.22,0.46,5.46,1.39,6.73c0.92,1.27,2.55,1.9,4.89,1.9
						c0.91,0,2.12-0.24,3.64-0.73c1.52-0.49,2.57-0.98,3.17-1.47c0.38-0.3,0.66-0.45,0.84-0.45c0.42,0,0.68,0.37,0.78,1.11
						l0.11,0.55l-0.63,0.94c-3.85,3.65-8.3,5.48-13.37,5.48c-3.92,0-6.79-0.92-8.63-2.76c-1.84-1.84-2.75-4.7-2.75-8.56v-29.2h-3.19
						c-1.68,0-2.51-0.48-2.51-1.43c0-0.59,0.44-1.2,1.32-1.82c1.51-1.05,3.66-3.06,6.46-6.02c2.8-2.97,4.68-5.23,5.62-6.78
						c1.08-1.77,1.89-2.64,2.41-2.61c0.28,0.04,0.44,0.31,0.47,0.82v12.58h7.59c1.36,0,2.36-0.23,2.98-0.7l1.36-0.93
						c0.28-0.21,0.59-0.34,0.94-0.38c0.59-0.04,0.87,0.26,0.84,0.87c-0.04,0.33-0.16,0.73-0.37,1.2c-0.21,0.44-0.42,1.24-0.63,2.4
						c-0.38,1.86-1.34,2.79-2.88,2.79H151.81z"/>
					<path fill="#1C3A6B" d="M180.11,189.08v30.69c0,3.68,0.53,6.24,1.6,7.69c1.06,1.45,3.04,2.26,5.94,2.43
						c1.15,0.07,1.73,0.5,1.73,1.27c0,0.96-1.38,1.44-4.14,1.44c-0.35,0-1.1-0.05-2.25-0.15l-3.93-0.41c-2.17-0.2-3.6-0.31-4.3-0.31
						c-1.85,0-4.35,0.26-7.5,0.76c-0.77,0.15-1.36,0.22-1.78,0.22c-0.73,0-1.1-0.36-1.1-1.06c0-0.48,0.23-0.85,0.68-1.11l1.78-0.92
						c0.77-0.4,1.42-1.34,1.96-2.82c0.54-1.48,0.81-3.03,0.81-4.65l-0.05-2.27v-18.34c0-2.81-0.29-4.76-0.86-5.84
						c-0.58-1.08-1.61-1.62-3.11-1.62h-1.2c-0.66,0-1.12-0.15-1.36-0.44c-0.11-0.15-0.16-0.4-0.16-0.77c0-0.92,1.07-1.62,3.2-2.1
						c5.32-1.16,9.5-2.91,12.55-5.26c0.38-0.25,0.68-0.38,0.89-0.38c0.49,0.04,0.73,0.38,0.73,1.03l-0.05,0.49
						C180.13,186.96,180.11,187.78,180.11,189.08"/>
					<path fill="#1C3A6B" d="M261.48,206.85v15.12c0,2.78,0.43,4.72,1.28,5.82c0.86,1.1,2.5,1.8,4.95,2.09
						c1.22,0.19,1.83,0.68,1.83,1.49c0,0.96-0.52,1.44-1.57,1.44c-1.26,0-3.74-0.3-7.45-0.92c-1.92-0.29-3.43-0.43-4.51-0.43
						c-1.5,0-3.72,0.27-6.66,0.81c-0.98,0.18-1.7,0.27-2.15,0.27c-0.63,0-0.95-0.37-0.95-1.11c0-0.52,0.37-0.99,1.1-1.44
						c1.54-0.83,2.52-1.6,2.96-2.3c0.44-0.71,0.65-1.87,0.65-3.49l-0.05-2.6v-14.77c0-4.94-0.79-8.57-2.38-10.88
						c-1.59-2.31-4.08-3.46-7.46-3.46c-2.62,0-4.76,0.76-6.44,2.27c-1.67,1.52-2.51,3.46-2.51,5.84v19.53c0,3.54,0.5,5.99,1.49,7.36
						c0.99,1.37,2.85,2.2,5.57,2.49c1.29,0.11,1.94,0.57,1.94,1.38c0,1.03-0.65,1.55-1.94,1.55c-1.47,0-3.95-0.25-7.45-0.76
						c-2.2-0.29-4.04-0.43-5.51-0.43c-1.15,0-3.02,0.24-5.61,0.71c-0.88,0.14-1.66,0.23-2.36,0.27c-0.94,0.03-1.42-0.37-1.42-1.22
						c0-0.63,0.28-1.07,0.84-1.33c1.61-0.72,2.66-1.52,3.17-2.4c0.5-0.88,0.76-2.35,0.76-4.41l-0.05-2.27v-14.01
						c0-4.94-0.75-8.57-2.25-10.88c-1.5-2.31-3.84-3.46-7.01-3.46c-2.76,0-5.03,0.9-6.83,2.7c-1.8,1.8-2.7,4.08-2.7,6.82v19.58
						c0,2.6,0.47,4.4,1.41,5.41c0.94,1.01,2.95,1.91,6.02,2.7c1.08,0.26,1.64,0.74,1.67,1.44c0.03,0.85-0.56,1.27-1.78,1.27
						c-0.88,0-1.87-0.05-2.99-0.16l-4.72-0.54c-1.99-0.22-3.72-0.32-5.19-0.32c-2.24,0-4.32,0.23-6.24,0.7
						c-0.87,0.22-1.57,0.32-2.1,0.32c-0.98,0-1.47-0.44-1.47-1.33c0-0.48,0.33-0.87,0.99-1.17c1.4-0.68,2.37-1.52,2.93-2.52
						c0.56-0.99,0.84-2.39,0.84-4.19l0.05-2.87v-19.37c0-3.21-0.33-5.26-0.99-6.17c-0.66-0.9-2.18-1.35-4.56-1.35
						c-0.87,0-1.31-0.39-1.31-1.16c0-0.89,0.88-1.49,2.63-1.82l4.25-1.36l2.99-0.98c1.79-0.58,3.78-1.65,5.99-3.2
						c0.28-0.22,0.52-0.33,0.73-0.33c0.56-0.04,0.84,0.36,0.84,1.2l-0.05,1.35l-0.16,3.63c-0.03,0.4-0.05,0.82-0.05,1.25
						c0,1.41,0.3,2.13,0.89,2.17c0.21,0,0.45-0.16,0.73-0.49l2.15-2.55c2.97-3.44,6.64-5.16,11.01-5.16c2.3,0,4.73,0.81,7.26,2.44
						c2.53,1.63,4.15,3.4,4.85,5.32c0.42,1.16,0.72,1.74,0.89,1.74c0.18,0,0.53-0.36,1.05-1.09c1.75-2.53,3.97-4.56,6.66-6.1
						c2.69-1.54,5.36-2.31,8.02-2.31C256.33,186.26,261.48,193.12,261.48,206.85"/>
					<path fill="#1C3A6B" d="M291.72,206.66c0.38-1.65,0.58-3.06,0.58-4.24c0-3.62-0.84-6.57-2.52-8.86
						c-1.68-2.29-3.84-3.44-6.46-3.44c-3.36,0-5.04,1.44-5.04,4.32c0,0.54,0.03,1.06,0.11,1.56l0.16,1.03c0,2.45-2.7,3.67-8.1,3.67
						c-1.41,0-2.07-0.63-2-1.9c0-0.26,0.09-0.65,0.26-1.2c0.11-0.4,0.21-0.87,0.31-1.41c0.45-2.31,1.52-4.09,3.19-5.32
						c3.7-2.75,8.16-4.13,13.4-4.13c6.03,0,10.55,1.45,13.55,4.34c2.31,2.2,3.46,6.03,3.46,11.48c0,2.75-0.11,6.2-0.32,10.35
						c-0.21,4.77-0.32,7.95-0.32,9.54c0,3.72,1.43,5.58,4.29,5.58c1.01,0,1.76-0.13,2.25-0.38c0.56-0.25,0.96-0.38,1.2-0.38
						c0.49,0,0.73,0.25,0.73,0.76c0,0.9-0.68,1.75-2.04,2.55l-2.04,1.08l-1.78,1.09c-1.26,0.69-2.63,1.03-4.13,1.03
						c-3.07,0-5.65-2.06-7.75-6.18c-6.49,4.3-11.88,6.46-16.17,6.46c-2.96,0-5.28-0.89-6.96-2.67c-1.68-1.77-2.51-4.24-2.51-7.39
						c0-5.73,2.4-9.89,7.21-12.5C277.24,209.94,283.06,208.33,291.72,206.66 M290.68,209.81c-3-0.22-5.86,0.89-8.58,3.31
						c-2.72,2.43-4.08,5.08-4.08,7.98c0,4.77,1.85,7.16,5.55,7.16c2.3,0,4.31-0.56,6.02-1.68c0.94-0.58,1.58-1.57,1.93-2.99
						c0.35-1.41,0.52-3.74,0.52-7l0.05-4.18v-1.14l-0.32-1.2C291.6,209.94,291.24,209.85,290.68,209.81"/>
					<path fill="#1C3A6B" d="M343.16,174.6v40.85c0,6.11,0.85,10.45,2.57,13c1.71,2.55,4.73,3.97,9.05,4.26
						c1.26,0.11,1.88,0.75,1.88,1.93c0,0.85-0.54,1.27-1.62,1.27c-0.24,0-0.68-0.02-1.31-0.05l-3.92-0.16l-6.54-0.43
						c-0.53-0.04-1.22-0.05-2.09-0.05c-2.02,0-3.84,0.05-5.45,0.16l-11.57,0.71c-1.22,0.15-2.05,0.22-2.51,0.22
						c-1.08,0-1.6-0.48-1.57-1.43c0.04-0.81,0.21-1.33,0.52-1.57c0.31-0.24,0.99-0.39,2.04-0.47c2.72-0.18,4.82-1.2,6.31-3.07
						c1.48-1.86,2.22-4.4,2.22-7.62l-0.05-2.55V171.4c0-2.86-1.48-4.28-4.45-4.28c-6.97,0-11.74,0.53-14.28,1.58
						c-1.85,0.8-3.08,1.7-3.69,2.7c-0.61,1-1.44,3.47-2.49,7.43l-0.42,1.52c-0.38,1.49-0.98,2.23-1.78,2.23
						c-1.15,0-1.69-0.56-1.62-1.69c0.04-1.01,0.21-2.42,0.52-4.23l0.52-4.72l0.63-4.83l0.37-3.31c0.14-1.41,0.87-2.12,2.2-2.12
						c0.34,0,0.94,0.04,1.78,0.11c1.36,0.11,3.3,0.16,5.81,0.16l10.68,0.11l12.72,0.16c8.2,0,16.88-0.24,26.06-0.71
						c1.82-0.07,2.99-0.11,3.51-0.11c1.92,0,2.93,0.83,3.03,2.5l0.26,3.91c0.03,0.61,0.21,2.08,0.52,4.39
						c0.24,1.92,0.37,3.45,0.37,4.61c0,1.2-0.47,1.79-1.41,1.79c-0.8,0-1.36-0.69-1.67-2.07c-0.73-3.38-2.14-5.82-4.21-7.31
						c-2.08-1.49-5.09-2.24-9.03-2.24c-5.31,0-8.61,0.43-9.92,1.28C343.82,169.13,343.16,171.23,343.16,174.6"/>
					<path fill="#1C3A6B" d="M386.28,206.66c0.38-1.65,0.57-3.06,0.57-4.24c0-3.62-0.84-6.57-2.52-8.86
						c-1.68-2.29-3.83-3.44-6.47-3.44c-3.36,0-5.04,1.44-5.04,4.32c0,0.54,0.04,1.06,0.1,1.56l0.16,1.03c0,2.45-2.7,3.67-8.1,3.67
						c-1.4,0-2.07-0.63-2-1.9c0-0.26,0.09-0.65,0.26-1.2c0.1-0.4,0.21-0.87,0.31-1.41c0.45-2.31,1.52-4.09,3.19-5.32
						c3.7-2.75,8.16-4.13,13.4-4.13c6.03,0,10.55,1.45,13.55,4.34c2.31,2.2,3.46,6.03,3.46,11.48c0,2.75-0.11,6.2-0.31,10.35
						c-0.21,4.77-0.31,7.95-0.31,9.54c0,3.72,1.43,5.58,4.29,5.58c1.01,0,1.76-0.13,2.25-0.38c0.56-0.25,0.96-0.38,1.21-0.38
						c0.48,0,0.73,0.25,0.73,0.76c0,0.9-0.68,1.75-2.04,2.55l-2.04,1.08l-1.78,1.09c-1.25,0.69-2.63,1.03-4.13,1.03
						c-3.07,0-5.65-2.06-7.75-6.18c-6.49,4.3-11.88,6.46-16.17,6.46c-2.96,0-5.28-0.89-6.96-2.67c-1.68-1.77-2.51-4.24-2.51-7.39
						c0-5.73,2.41-9.89,7.21-12.5C371.8,209.94,377.61,208.33,386.28,206.66 M385.23,209.81c-3-0.22-5.86,0.89-8.58,3.31
						c-2.72,2.43-4.08,5.08-4.08,7.98c0,4.77,1.85,7.16,5.55,7.16c2.3,0,4.31-0.56,6.01-1.68c0.94-0.58,1.59-1.57,1.94-2.99
						c0.35-1.41,0.53-3.74,0.53-7l0.05-4.18v-1.14l-0.32-1.2C386.16,209.94,385.79,209.85,385.23,209.81"/>
					<path fill="#1C3A6B" d="M418.67,214.64l-6.54,6.76c-1.96,2.02-2.93,3.66-2.93,4.92c0,0.87,0.36,1.66,1.07,2.38
						c0.72,0.72,1.6,1.13,2.64,1.24c1.05,0.15,1.57,0.55,1.57,1.22c0,0.89-0.45,1.33-1.36,1.33c-0.18,0-0.7-0.04-1.57-0.11
						c-0.28-0.04-0.82-0.05-1.62-0.05c-0.24,0-1.33-0.06-3.25-0.17c-1.01-0.07-1.87-0.11-2.56-0.11c-1.33,0-2.42,0.03-3.3,0.11
						c-1.54,0.18-2.51,0.27-2.93,0.27c-0.59,0-0.89-0.33-0.89-1c0-0.66,0.4-1.17,1.2-1.5c1.92-0.83,4.73-3.15,8.43-6.98l10.15-10.6
						l-10.63-14.12c-3.31-4.4-6-6.93-8.06-7.58c-0.81-0.26-1.22-0.63-1.26-1.11l0.05-0.55l0.26-0.83c0.14-0.18,0.45-0.28,0.94-0.28
						c0.21,0,0.52,0.02,0.94,0.06c2.71,0.32,6.02,0.49,9.92,0.49c4.53,0,8.11-0.13,10.76-0.38c0.59-0.07,1.01-0.11,1.25-0.11
						c0.73,0,1.09,0.37,1.09,1.1c0,0.92-0.7,1.53-2.09,1.83c-2.06,0.43-3.09,1.39-3.09,2.87c0,1.19,0.83,2.84,2.48,4.97l4.85,6.21
						l4.87-5.35c2.93-3.24,4.39-5.53,4.39-6.87c0-1.54-1.18-2.33-3.56-2.33c-1.05,0-1.55-0.44-1.52-1.33
						c0.04-0.78,0.37-1.16,0.99-1.16c0.25,0,0.54,0.04,0.89,0.11c1.78,0.29,4.05,0.44,6.8,0.44c1.29,0,2.25-0.02,2.88-0.06
						l3.61-0.27c0.42-0.04,0.91-0.05,1.47-0.05c0.59,0,0.89,0.37,0.89,1.11c0,0.78-0.33,1.24-0.99,1.39
						c-2.76,0.58-5.57,2.36-8.42,5.36l-10.73,11.24l10.89,14.33c2.34,3.08,4,5.05,4.97,5.94c0.98,0.89,2.31,1.62,3.98,2.2
						c1.26,0.44,1.89,1.03,1.89,1.77c0,0.81-0.46,1.21-1.36,1.21c-0.49,0-0.98-0.02-1.47-0.05c-3.21-0.33-6.66-0.49-10.33-0.49
						c-3.32,0-6.42,0.11-9.28,0.33c-0.84,0.07-1.56,0.13-2.15,0.16c-0.91,0.04-1.36-0.33-1.36-1.11c0-0.66,0.52-1.17,1.57-1.5
						c2.16-0.68,3.24-1.77,3.24-3.25c0-0.69-0.16-1.28-0.47-1.79l-1.71-2.39L418.67,214.64z"/>
				</g>
			</g>
			<g>
				<path fill="#076FB0" d="M221.59,266.55c-0.12,0-0.26,0.02-0.41,0.06c-0.25,0.05-0.52,0.08-0.81,0.08
					c-0.71,0.01-1.33-0.22-1.86-0.67c-0.53-0.47-1.13-1.28-1.81-2.46l-1.97-3.49l-1.69-3.01c-0.24-0.41-0.41-0.71-0.52-0.89
					c-0.11-0.18-0.18-0.33-0.19-0.46c-0.01-0.15,0.11-0.28,0.36-0.38c1.22-0.54,2.18-1.33,2.88-2.37c0.7-1.04,1.04-2.19,1.04-3.44
					c-0.01-2-0.81-3.66-2.39-4.97c-1.59-1.31-3.58-1.96-5.98-1.95c-0.81,0-2.28,0.09-4.42,0.27c-1.81,0.15-3.36,0.23-4.63,0.23
					c-1.16,0.01-2.23-0.04-3.2-0.13c-0.32-0.04-0.55-0.06-0.69-0.06c-0.36,0-0.53,0.18-0.53,0.54c0,0.35,0.26,0.57,0.78,0.65
					c1.4,0.17,2.42,0.68,3.04,1.53c0.39,0.52,0.58,1.54,0.58,3.07l0.07,13.83l-0.02,0.75l0.01,1.82c0,0.93-0.15,1.62-0.48,2.08
					c-0.33,0.45-0.92,0.81-1.78,1.08c-0.25,0.08-0.38,0.26-0.38,0.54c0,0.34,0.23,0.52,0.68,0.52c0.14,0,0.39-0.02,0.74-0.06
					l1.27-0.12l1.59-0.15c0.66-0.06,1.41-0.09,2.26-0.09c1.01,0,2.06,0.04,3.14,0.12c0.38,0.04,0.64,0.05,0.78,0.05
					c0.43,0,0.65-0.18,0.65-0.53c0-0.36-0.27-0.56-0.8-0.61c-1.3-0.13-2.18-0.61-2.62-1.47c-0.45-0.86-0.68-2.5-0.69-4.91
					l-0.02-3.88c0-0.5,0.09-0.82,0.28-0.92l0.85-0.15l1.17-0.01c1,0,1.72,0.18,2.16,0.55c0.44,0.38,1.01,1.27,1.7,2.68
					c1.77,3.58,3.21,6,4.32,7.28c1.1,1.28,2.31,1.92,3.61,1.92c0.8-0.01,1.71-0.24,2.74-0.73c1.03-0.48,1.54-0.89,1.54-1.26
					C221.93,266.7,221.81,266.55,221.59,266.55 M209.52,254.91c-0.54,0.09-1.93,0.14-4.18,0.15c-0.78,0-1.27-0.11-1.49-0.32
					c-0.21-0.21-0.31-0.73-0.32-1.54l-0.03-6.61c0-0.98,0.15-1.64,0.47-2.01c0.32-0.36,0.91-0.55,1.77-0.55
					c1.92-0.01,3.51,0.61,4.76,1.86c1.25,1.25,1.88,2.84,1.89,4.76c0.01,1.48-0.45,2.64-1.37,3.48
					C210.56,254.56,210.06,254.82,209.52,254.91 M266.59,262.08c-0.07,0.01-0.13,0.1-0.22,0.25c-1.57,3.15-4.91,4.75-10.04,4.77
					c-0.61,0-1.05-0.1-1.35-0.3c-0.29-0.2-0.54-0.59-0.77-1.15c-0.29-0.8-0.43-2.09-0.43-3.88l-0.01-1.72c0-1.37,0.03-2.39,0.1-3.02
					c0.07-0.56,0.22-0.93,0.44-1.12c0.22-0.18,0.63-0.28,1.24-0.28l1.29-0.01c1.3-0.01,2.19,0.03,2.66,0.12
					c0.48,0.08,0.88,0.28,1.21,0.58c0.6,0.55,0.99,1.38,1.15,2.47c0.08,0.51,0.27,0.75,0.59,0.72c0.15-0.01,0.26-0.06,0.3-0.14
					c0.04-0.06,0.06-0.18,0.06-0.36l-0.02-0.98c-0.01-0.72-0.05-1.58-0.13-2.56c-0.12-1.51-0.18-2.46-0.18-2.87
					c0-0.23,0.01-0.51,0.04-0.84c0.03-0.46,0.05-0.74,0.05-0.84c0-0.36-0.14-0.53-0.42-0.51c-0.26,0.01-0.45,0.14-0.57,0.37
					l-0.43,0.93c-0.68,1.39-1.64,2.1-2.89,2.1l-1.61,0.01l-0.84,0.02l-0.57,0.02c-0.65,0-1.07-0.16-1.24-0.47
					c-0.18-0.32-0.27-1.07-0.27-2.26l-0.02-4.15l0.02-0.78c-0.01-1.08,0.31-1.72,0.95-1.94l1.29-0.15l2.31-0.02
					c2.05-0.01,3.53,0.26,4.45,0.83c0.92,0.57,1.38,1.48,1.39,2.74c0.01,0.58,0.13,0.86,0.37,0.84c0.49-0.02,0.74-0.52,0.73-1.49
					c0-0.49-0.06-1.29-0.16-2.39c-0.08-0.75-0.12-1.27-0.12-1.57c0-0.43-0.18-0.63-0.55-0.63c-0.08,0-0.16,0.01-0.26,0.02
					c-0.96,0.12-3.5,0.19-7.64,0.21l-7.18-0.04l-1.91-0.06c-0.39,0-0.7,0-0.93-0.01c-0.29-0.02-0.48-0.04-0.56-0.04
					c-0.42,0-0.63,0.15-0.63,0.45c0,0.32,0.17,0.5,0.51,0.55c1.46,0.19,2.42,0.55,2.88,1.06c0.47,0.5,0.7,1.47,0.71,2.9l0.07,15.15
					c0,1.16-0.06,2.08-0.19,2.75c-0.15,0.81-0.35,1.36-0.61,1.68c-0.26,0.31-0.75,0.61-1.47,0.9c-0.29,0.11-0.43,0.28-0.41,0.51
					c0.03,0.28,0.19,0.42,0.49,0.42c0.23-0.01,0.6-0.02,1.12-0.07c1.88-0.12,3.28-0.19,4.2-0.19c1.38-0.01,2.47,0.03,3.29,0.1
					l2.2,0.2c0.99,0.09,1.89,0.14,2.69,0.14c1.38-0.01,2.49-0.23,3.32-0.66c0.83-0.44,1.52-1.15,2.07-2.15
					c0.66-1.18,0.99-2.39,0.99-3.64c0-0.16-0.05-0.3-0.17-0.41C266.84,262.09,266.72,262.05,266.59,262.08 M312.9,261.72
					c-0.14,0-0.48,0.39-1.02,1.18c-1.78,2.55-4.82,3.84-9.11,3.86c-0.92,0.01-1.54-0.08-1.86-0.24c-0.57-0.29-0.86-1.63-0.87-4.01
					l-0.08-16.6c-0.01-1.68,0.63-2.57,1.9-2.67c0.54-0.02,0.81-0.19,0.81-0.5c0-0.36-0.39-0.54-1.14-0.53
					c-1.03,0-2.02,0.06-3.01,0.17c-1.32,0.16-2.29,0.24-2.9,0.24c-0.38,0-0.96-0.03-1.73-0.11l-0.82-0.05
					c-0.32-0.03-0.56-0.06-0.74-0.07c-0.24-0.04-0.43-0.06-0.55-0.06c-0.38,0-0.57,0.19-0.56,0.58c0,0.31,0.24,0.5,0.71,0.57
					l1.14,0.18c1.68,0.26,2.53,1.41,2.54,3.45l0.08,15.98c0.01,1.49-0.14,2.56-0.45,3.22c-0.31,0.66-0.86,1.11-1.67,1.34
					c-0.33,0.09-0.49,0.25-0.49,0.49c0,0.33,0.18,0.49,0.55,0.49c0.17,0,0.52-0.03,1.04-0.1c1.7-0.21,3.27-0.32,4.74-0.33
					c0.88-0.01,1.67,0.01,2.37,0.05l2.07,0.09c1.29,0.06,2.05,0.11,2.28,0.12c0.87,0.06,1.47,0.09,1.8,0.09
					c1.59-0.01,2.84-0.57,3.76-1.7c1.04-1.28,1.56-2.73,1.55-4.35C313.24,261.98,313.13,261.72,312.9,261.72 M348.97,267.22
					c-0.95,0-1.72-0.25-2.31-0.77c-0.59-0.52-0.97-1.27-1.12-2.26l-0.16-1.91l-0.08-16.26c-0.01-1.1,0.12-1.82,0.37-2.18
					c0.26-0.36,0.84-0.62,1.75-0.77c0.26-0.04,0.42-0.1,0.47-0.18c0.06-0.07,0.09-0.23,0.09-0.46c0-0.31-0.21-0.46-0.62-0.46
					c-0.7,0.01-1.7,0.06-3,0.18l-1.39,0.11c-1.05,0.1-1.92,0.15-2.63,0.15c-1.07,0-1.84-0.04-2.29-0.15
					c-0.46-0.08-0.81-0.13-1.03-0.14c-0.3-0.01-0.45,0.17-0.45,0.52c0,0.24,0.09,0.4,0.28,0.49c0.19,0.1,0.6,0.2,1.24,0.3
					c1.08,0.16,1.82,0.49,2.22,0.98c0.41,0.5,0.62,1.33,0.62,2.5l0.08,15.24l-0.01,1.7c0,1.11-0.14,1.91-0.44,2.38
					c-0.3,0.48-0.9,0.89-1.81,1.22l-0.54,0.45l0.04,0.15c0.08,0.27,0.25,0.4,0.53,0.4c0.28-0.01,0.73-0.07,1.36-0.21
					c0.73-0.14,1.73-0.22,3-0.22c1.02-0.01,2.36,0.08,4,0.24c0.66,0.07,1.16,0.09,1.52,0.09c0.83,0,1.23-0.19,1.23-0.56
					C349.9,267.4,349.58,267.21,348.97,267.22 M395.24,261.43c-0.06,0.01-0.13,0.1-0.22,0.25c-1.56,3.16-4.91,4.75-10.04,4.78
					c-0.61,0.01-1.05-0.1-1.35-0.3c-0.29-0.2-0.55-0.59-0.77-1.15c-0.28-0.8-0.43-2.09-0.43-3.88l-0.01-1.72
					c0-1.37,0.03-2.39,0.1-3.02c0.07-0.56,0.22-0.93,0.44-1.13c0.23-0.18,0.63-0.28,1.24-0.28l1.28-0.01
					c1.3-0.01,2.19,0.04,2.66,0.13c0.48,0.08,0.88,0.27,1.21,0.58c0.59,0.56,0.98,1.38,1.15,2.47c0.08,0.5,0.27,0.75,0.59,0.72
					c0.15-0.01,0.25-0.06,0.31-0.14c0.03-0.06,0.06-0.18,0.06-0.35l-0.03-0.98c0-0.72-0.04-1.58-0.13-2.56
					c-0.12-1.51-0.18-2.46-0.19-2.87c0-0.23,0.01-0.51,0.04-0.84c0.04-0.45,0.06-0.74,0.06-0.84c0-0.36-0.14-0.53-0.42-0.52
					c-0.26,0.02-0.45,0.14-0.56,0.37l-0.44,0.94c-0.68,1.39-1.64,2.09-2.89,2.1l-1.61,0.01l-0.83,0.03l-0.57,0.02
					c-0.65,0.01-1.07-0.15-1.23-0.46c-0.17-0.32-0.27-1.07-0.27-2.26l-0.02-4.15l0.01-0.78c0-1.08,0.32-1.72,0.96-1.94l1.29-0.16
					l2.31-0.01c2.05-0.01,3.53,0.26,4.45,0.83c0.91,0.56,1.38,1.48,1.39,2.74c0,0.58,0.13,0.85,0.37,0.84
					c0.49-0.03,0.73-0.53,0.73-1.49c0-0.49-0.06-1.28-0.16-2.39c-0.08-0.75-0.13-1.27-0.13-1.57c0-0.42-0.18-0.63-0.55-0.63
					c-0.08,0-0.16,0.01-0.27,0.02c-0.96,0.11-3.5,0.18-7.64,0.21l-7.19-0.04l-1.91-0.06c-0.39,0-0.7,0-0.93-0.01
					c-0.29-0.03-0.48-0.04-0.57-0.04c-0.42,0-0.62,0.15-0.62,0.44c0,0.32,0.17,0.5,0.52,0.55c1.45,0.2,2.41,0.55,2.87,1.06
					c0.46,0.51,0.7,1.47,0.7,2.9l0.08,15.15c0.01,1.16-0.06,2.08-0.2,2.75c-0.15,0.81-0.35,1.36-0.6,1.68
					c-0.26,0.31-0.75,0.61-1.47,0.9c-0.28,0.11-0.43,0.28-0.41,0.52c0.03,0.27,0.19,0.42,0.5,0.42c0.23,0,0.6-0.02,1.12-0.06
					c1.88-0.12,3.29-0.19,4.2-0.19c1.38,0,2.48,0.03,3.29,0.1l2.2,0.2c0.98,0.09,1.88,0.14,2.69,0.14c1.38-0.01,2.49-0.23,3.32-0.66
					c0.82-0.43,1.52-1.15,2.07-2.15c0.66-1.18,0.99-2.39,0.99-3.64c-0.01-0.16-0.05-0.3-0.16-0.41
					C395.49,261.44,395.38,261.41,395.24,261.43 M439.96,245.29l-0.2-1.45c-0.01-0.14-0.05-0.6-0.12-1.4
					c-0.04-0.66-0.21-0.99-0.52-0.99c-0.32,0-0.81,0.03-1.46,0.08c-1.77,0.15-3.52,0.23-5.22,0.24l-4.99,0.04l-3.26,0.08
					c-0.85,0.01-1.65-0.02-2.41-0.08c-0.51-0.04-0.85-0.06-0.98-0.06c-0.43,0-0.65,0.19-0.64,0.56c0,0.29,0.17,0.44,0.49,0.46
					c1.21,0.06,2.13,0.37,2.78,0.92c0.56,0.49,0.84,1.53,0.85,3.14l0.07,15.73c0.01,1.52-0.12,2.6-0.38,3.23
					c-0.26,0.62-0.77,1.07-1.53,1.32c-0.35,0.12-0.53,0.3-0.53,0.54c0,0.33,0.21,0.5,0.63,0.5c0.31,0,0.93-0.07,1.86-0.2
					c0.68-0.1,1.49-0.14,2.44-0.15l2.1-0.01c1.38-0.01,2.29,0.01,2.75,0.06c0.48,0.05,0.84,0.09,1.1,0.09
					c0.28,0,0.42-0.18,0.41-0.53c0-0.31-0.2-0.48-0.61-0.51c-1.43-0.11-2.4-0.48-2.88-1.12c-0.66-0.86-1-2.24-1-4.16l-0.02-2.26
					l-0.03-1.52c0-1.6,0.14-2.51,0.42-2.75c0.29-0.24,1.39-0.38,3.28-0.38c1.48-0.01,2.52,0.21,3.11,0.68
					c0.6,0.45,1.02,1.35,1.28,2.69c0.06,0.36,0.22,0.53,0.46,0.52c0.33-0.03,0.51-0.17,0.51-0.44c0-0.17-0.02-0.44-0.04-0.82
					l-0.3-3.62c-0.09-0.99-0.13-1.86-0.13-2.6c0-0.23,0-0.42,0.01-0.59c0.02-0.25,0.03-0.41,0.03-0.5c0-0.33-0.18-0.49-0.57-0.49
					c-0.16,0-0.3,0.15-0.41,0.44c-0.47,1.19-0.94,1.98-1.41,2.39c-0.48,0.41-1.18,0.62-2.12,0.62l-2.07,0.03l-0.72,0.02
					c-0.53,0-0.89-0.12-1.07-0.36c-0.19-0.24-0.28-0.72-0.29-1.44l-0.03-6.12c0-0.68,0.14-1.17,0.42-1.44
					c0.28-0.28,0.78-0.42,1.5-0.42l0.78-0.02l2.47,0.01c2.81-0.02,4.49,0.82,5.01,2.5c0.07,0.19,0.1,0.41,0.1,0.67v0.65
					c0,0.36,0.13,0.54,0.4,0.54c0.48,0,0.72-0.53,0.71-1.58C440.02,245.83,440,245.58,439.96,245.29"/>
				<path fill="#1C3A6B" d="M181.35,171.9c0,3.91-3.14,7.07-7.01,7.07c-3.87,0-7.01-3.16-7.01-7.07c0-3.91,3.14-7.07,7.01-7.07
					C178.21,164.82,181.35,167.99,181.35,171.9"/>
			</g>
			<g>
				
					<linearGradient id="SVGID_1_" gradientUnits="userSpaceOnUse" x1="-561.9389" y1="632.3038" x2="-561.9389" y2="632.3038" gradientTransform="matrix(41.8945 11.5274 11.5274 -41.8945 16559.0879 33140.5)">
					<stop  offset="0" style="stop-color:#0A5DA7"/>
					<stop  offset="1" style="stop-color:#16456A"/>
				</linearGradient>
				<path fill="url(#SVGID_1_)" d="M305.76,172.75"/>
			</g>
		</g>
		<g>
			<path fill="#1C3A6B" d="M465.12,184.38c0,4.26-3.34,7.6-7.69,7.6c-4.3,0-7.74-3.34-7.74-7.6c0-4.17,3.43-7.51,7.74-7.51
				C461.78,176.87,465.12,180.21,465.12,184.38z M451.62,184.38c0,3.34,2.47,6,5.86,6c3.3,0,5.72-2.66,5.72-5.95
				c0-3.34-2.43-6.04-5.77-6.04S451.62,181.08,451.62,184.38z M456.24,188.31h-1.74v-7.51c0.69-0.14,1.65-0.23,2.88-0.23
				c1.42,0,2.06,0.23,2.61,0.55c0.41,0.32,0.73,0.92,0.73,1.65c0,0.82-0.64,1.46-1.56,1.74v0.09c0.73,0.27,1.14,0.82,1.37,1.83
				c0.23,1.14,0.37,1.6,0.55,1.88h-1.88c-0.23-0.27-0.37-0.96-0.6-1.83c-0.14-0.82-0.59-1.19-1.56-1.19h-0.82V188.31z
				 M456.29,184.06h0.82c0.96,0,1.74-0.32,1.74-1.1c0-0.69-0.5-1.14-1.6-1.14c-0.46,0-0.78,0.05-0.96,0.09V184.06z"/>
		</g>
	</g>
	<g id="Dove">
		
			<linearGradient id="SVGID_00000108296830540456992240000009320175307973569700_" gradientUnits="userSpaceOnUse" x1="-576.3604" y1="639.849" x2="-575.2446" y2="639.849" gradientTransform="matrix(11.3868 39.2211 39.2211 -11.3868 -18268.4551 29960.0898)">
			<stop  offset="0" style="stop-color:#1FBBEE"/>
			<stop  offset="1" style="stop-color:#016899"/>
		</linearGradient>
		<path fill="url(#SVGID_00000108296830540456992240000009320175307973569700_)" d="M277.34,133.56
			C215.59,127.62,318.42,23.21,261.18,6C274.79,45.29,216.78,132.47,277.34,133.56z"/>
		
			<linearGradient id="SVGID_00000034065537065926965850000016903880044235082414_" gradientUnits="userSpaceOnUse" x1="-576.1158" y1="647.9714" x2="-575.0002" y2="647.9714" gradientTransform="matrix(8.4342 24.8808 24.8808 -8.4342 -11019.7441 19878.7305)">
			<stop  offset="0" style="stop-color:#1480C4"/>
			<stop  offset="1" style="stop-color:#0B529C"/>
		</linearGradient>
		<path fill="url(#SVGID_00000034065537065926965850000016903880044235082414_)" d="M267.45,135.44
			c-54.36-13.56,14.34-88.06-37.52-104.33C246.34,67.04,216.86,131.82,267.45,135.44z"/>
		
			<linearGradient id="SVGID_00000015337089027298968530000004658080984174191291_" gradientUnits="userSpaceOnUse" x1="-563.9659" y1="633.4001" x2="-562.8604" y2="633.4001" gradientTransform="matrix(41.8945 11.5274 11.5274 -41.8945 16559.0879 33140.5)">
			<stop  offset="0" style="stop-color:#0A5DA7"/>
			<stop  offset="1" style="stop-color:#16456A"/>
		</linearGradient>
		<path fill="url(#SVGID_00000015337089027298968530000004658080984174191291_)" d="M313.78,134.59
			c-11.39-0.28-15.8-11.53-26.89-5.5c-8.59,4.68-15.13,10.65-30.62,7.24c-7.05-1.55-12.14-4.41-17.91-11.44
			c-0.16-0.18-0.32-0.39-0.47-0.58c-13.58-17.54-6.59-56.42-6.59-56.42c-27.14,40.82-8.24,76.83,28.78,75.42
			c12.08-0.47,16.86-3.26,26.49-9.76c4.93-3.33,9.58-1.9,15.18-0.47C305.28,133.98,309.19,134.88,313.78,134.59z"/>
		<g>
			<path fill-rule="evenodd" clip-rule="evenodd" fill="#076FB0" d="M188.01,136.72C167.45,115.4,147.08,96,97,122.93
				C132.42,112.81,161.71,123.97,188.01,136.72"/>
			<path fill-rule="evenodd" clip-rule="evenodd" fill="#1C3A6B" d="M288.35,146.6c-33.24,28.51-63.92,7.79-100.34-9.88
				c29.01,30.83,73.61,52.7,106.92,10.87c4.74-5.95,9.85-11.28,20.07-11.7C315,135.89,303.97,133.2,288.35,146.6"/>
		</g>
	</g>
</g>
</svg>
