<?xml version="1.0" encoding="utf-8"?>
<!-- Generator: Adobe Illustrator 27.7.0, SVG Export Plug-In . SVG Version: 6.00 Build 0)  -->
<svg version="1.1" id="Layer_1" xmlns="http://www.w3.org/2000/svg" xmlns:xlink="http://www.w3.org/1999/xlink" x="0px" y="0px"
	 viewBox="0 0 624.3 418" style="enable-background:new 0 0 624.3 418;" xml:space="preserve">
<style type="text/css">
	.st0{fill:#005B85;}
	.st1{fill:#00B8E4;}
</style>
<g>
	<path class="st0" d="M543.9,393.9l0.7-0.8c1.1,0.9,2.1,1.4,3.5,1.4s2.2-0.7,2.2-1.7l0,0c0-0.9-0.5-1.5-2.6-1.9
		c-2.3-0.5-3.4-1.3-3.4-2.9l0,0c0-1.6,1.4-2.7,3.3-2.7c1.5,0,2.5,0.4,3.5,1.2l-0.7,0.9c-0.9-0.8-1.9-1.1-2.9-1.1
		c-1.3,0-2.1,0.7-2.1,1.6l0,0c0,0.9,0.5,1.5,2.7,2s3.3,1.3,3.3,2.8l0,0c0,1.7-1.4,2.8-3.4,2.8C546.5,395.5,545.1,394.9,543.9,393.9z
		"/>
	<path class="st0" d="M553.8,385.3h1.2l3.7,5.5l3.7-5.5h1.2v10.1h-1.1v-8.2l-3.7,5.4h-0.1l-3.7-5.4v8.1h-1.1v-10H553.8z"/>
</g>
<g>
	<polygon class="st0" points="163.9,197.5 57.1,197.5 53.3,210.2 81.7,210.2 87.1,227.8 133.9,227.8 139.3,210.2 167.8,210.2 	"/>
	<path class="st0" d="M74.6,125.8c-4,5.5-5.6,12.1-4.5,18.8s4.7,12.5,10.1,16.5l25.5,18.6c1.4,1,2.3,2.5,2.5,4.1
		c0.3,1.7-0.1,3.3-1.1,4.7l3.8,2.8l13.5-18.6c3.2-4.4,4.8-9.5,4.8-14.8c0-1.3-0.1-2.7-0.3-4c-1.1-6.7-4.7-12.5-10.1-16.5l-25.5-18.6
		c-1.4-1-2.3-2.5-2.5-4.1c-0.1-0.3-0.1-0.7-0.1-1c0-1.3,0.4-2.6,1.2-3.7l0,0l-3.8-2.8L74.6,125.8L74.6,125.8z"/>
	<path class="st0" d="M90,51.2c-4.6,6.3-7,13.8-7,21.4c0,1.9,0.2,3.9,0.5,5.8c1.5,9.7,6.7,18.1,14.7,23.9l32.1,23.3
		c4.2,3.1,7,7.6,7.9,12.8c0.2,1,0.2,2.1,0.2,3.1c0,4.1-1.3,8.1-3.7,11.5l0,0l3.1,2.2l25.3-35c5.7-7.9,8.1-17.6,6.5-27.2
		c-1.5-9.7-6.7-18.1-14.7-23.9L116,40.9c-2.4-1.8-4-4.4-4.5-7.4s0.2-6,2-8.4l-3.1-2.2L90,51.2L90,51.2z"/>
	<path class="st0" d="M54.3,289.3c6.1,0,9.8-2.2,9.8-6.8v-0.2c0-4.2-3.2-6.8-10.3-6.8h-16v13.9h16.5V289.3z M50.6,263.9
		c6.1,0,10-2,10-6.7V257c0-4.1-3.2-6.5-9.1-6.5H37.9v13.3h12.7V263.9z M24.4,238.5h29.2c7.2,0,12.9,2,16.5,5.6
		c2.9,2.9,4.3,6.4,4.3,10.7v0.2c0,7.1-3.8,11.1-8.3,13.6c7.3,2.8,11.8,7,11.8,15.5v0.2c0,11.5-9.4,17.3-23.6,17.3h-30L24.4,238.5
		L24.4,238.5z"/>
	<path class="st0" d="M113.9,289.3c6.1,0,9.8-2.2,9.8-6.8v-0.2c0-4.2-3.1-6.8-10.3-6.8h-16v13.9h16.5V289.3z M110.2,263.9
		c6.1,0,10-2,10-6.7V257c0-4.1-3.2-6.5-9.1-6.5H97.4v13.3h12.8V263.9z M83.9,238.5h29.2c7.2,0,12.9,2,16.5,5.6
		c2.9,2.9,4.3,6.4,4.3,10.7v0.2c0,7.1-3.8,11.1-8.3,13.6c7.3,2.8,11.8,7,11.8,15.5v0.2c0,11.5-9.4,17.3-23.6,17.3h-30L83.9,238.5
		L83.9,238.5z"/>
	<path class="st0" d="M173.5,289.3c6.1,0,9.8-2.2,9.8-6.8v-0.2c0-4.2-3.2-6.8-10.3-6.8h-16v13.9h16.5V289.3z M169.8,263.9
		c6.1,0,10-2,10-6.7V257c0-4.1-3.2-6.5-9.1-6.5H157v13.3h12.8V263.9z M143.5,238.5h29.2c7.2,0,12.9,2,16.5,5.6
		c2.9,2.9,4.3,6.4,4.3,10.7v0.2c0,7.1-3.8,11.1-8.3,13.6c7.3,2.8,11.8,7,11.8,15.5v0.2c0,11.5-9.4,17.3-23.6,17.3h-30v-63.1H143.5z"
		/>
</g>
<g>
	<path class="st1" d="M277.9,90.4v77.9h-21.5V90.4h-29.8V70.6h81v19.8C307.6,90.4,277.9,90.4,277.9,90.4z"/>
	<path class="st1" d="M377.7,146.1c-2,4.7-4.9,8.8-8.5,12.4c-3.6,3.5-7.9,6.3-12.9,8.4c-4.9,2-10.3,3.1-16.2,3.1
		c-5.8,0-11.1-1-16.1-3c-4.9-2-9.2-4.7-12.8-8.2c-3.6-3.5-6.4-7.6-8.5-12.3c-2-4.7-3.1-9.7-3.1-15.1V131c0-5.4,1-10.4,3.1-15.1
		c2-4.7,4.9-8.8,8.5-12.4c3.6-3.5,7.9-6.3,12.8-8.4c4.9-2,10.3-3.1,16.2-3.1c5.8,0,11.1,1,16.1,3c4.9,2,9.2,4.7,12.8,8.2
		c3.6,3.5,6.4,7.6,8.5,12.3c2,4.7,3.1,9.7,3.1,15.1v0.3C380.8,136.4,379.8,141.4,377.7,146.1z M359.8,131c0-2.8-0.5-5.4-1.4-7.9
		s-2.3-4.7-4.1-6.6c-1.8-1.9-3.9-3.4-6.3-4.5s-5.1-1.7-8-1.7c-3.1,0-5.8,0.5-8.2,1.6c-2.4,1.1-4.4,2.5-6.1,4.4s-3,4-3.8,6.5
		c-0.9,2.5-1.3,5.1-1.3,7.9v0.3c0,2.8,0.5,5.4,1.4,7.9s2.3,4.7,4.1,6.6c1.8,1.9,3.8,3.4,6.2,4.5c2.4,1.1,5,1.7,8,1.7
		c3.1,0,5.8-0.5,8.2-1.6c2.4-1.1,4.4-2.5,6.1-4.4s3-4,3.8-6.5c0.9-2.5,1.3-5.1,1.3-7.9L359.8,131L359.8,131z"/>
	<path class="st1" d="M435.1,114.2c-7.1,0-12.6,2.1-16.7,6.4s-6.1,10.9-6.1,20v27.6h-21.2V93.5h21.2v15.1c2.1-5.1,5.1-9.2,8.8-12.3
		c3.7-3.1,8.8-4.5,15.1-4.2v22.2h-1.1V114.2z"/>
	<path class="st1" d="M497.5,166.1c-4.7,2.6-10.7,3.8-18.2,3.8c-5.6,0-10.8-1-15.6-3.1c-4.8-2-8.9-4.8-12.4-8.3
		c-3.4-3.5-6.1-7.6-8.1-12.3s-2.9-9.7-2.9-15V131c0-5.3,1-10.3,2.9-15.1c2-4.7,4.7-8.9,8.1-12.4s7.6-6.3,12.4-8.4
		c4.8-2,10.1-3.1,15.9-3.1c7.1,0,12.9,1.1,17.6,3.3c4.7,2.2,8.8,5.3,12.3,9.2l-13,14c-2.4-2.5-4.9-4.5-7.5-6s-5.8-2.2-9.6-2.2
		c-2.7,0-5.1,0.5-7.3,1.6c-2.2,1.1-4.1,2.5-5.7,4.4s-2.9,4-3.8,6.5s-1.3,5.1-1.3,7.9v0.3c0,2.9,0.4,5.6,1.3,8.1s2.2,4.7,3.8,6.6
		c1.7,1.9,3.7,3.3,6,4.4c2.3,1.1,4.9,1.6,7.8,1.6c3.5,0,6.6-0.7,9.3-2.2c2.7-1.4,5.3-3.4,7.9-5.8l12.4,12.6
		C506.3,160.3,502.1,163.5,497.5,166.1z"/>
	<path class="st1" d="M565.2,168.3v-41.6c0-5-1.1-8.8-3.4-11.3c-2.2-2.6-5.4-3.8-9.5-3.8s-7.3,1.3-9.7,3.8
		c-2.4,2.6-3.6,6.3-3.6,11.3v41.6h-21.2V66.4H539v37.8c1.2-1.6,2.5-3.1,4-4.6c1.4-1.5,3-2.7,4.8-3.9c1.8-1.1,3.7-2,5.9-2.7
		c2.1-0.7,4.6-1,7.3-1c8.1,0,14.4,2.5,18.8,7.4c4.4,4.9,6.6,11.7,6.6,20.4v48.4L565.2,168.3L565.2,168.3z"/>
	<path class="st0" d="M254.7,183.3h4.8l20.5,45.3h-5.5l-5.3-11.9h-24.5l-5.3,11.9h-5.2L254.7,183.3z M267.2,212.1L257,189.2
		l-10.3,22.9L267.2,212.1L267.2,212.1z"/>
	<path class="st0" d="M292.2,183.6h5.5l12.9,37.4l12.3-37.6h4.2l12.3,37.6l12.9-37.4h5.3l-16.1,45.3h-4.3l-12.3-36.5l-12.4,36.5
		h-4.2L292.2,183.6z"/>
	<path class="st0" d="M390.4,183.3h4.8l20.5,45.3h-5.5l-5.3-11.9h-24.5l-5.3,11.9h-5.2L390.4,183.3z M402.9,212.1l-10.2-22.9
		l-10.3,22.9H402.9z"/>
	<path class="st0" d="M436,183.6h19.3c5.5,0,10,1.7,12.8,4.5c2.2,2.2,3.5,5.3,3.5,8.9v0.1c0,7.4-5.1,11.8-12.2,13.1l13.8,18.4H467
		l-13-17.5h-13v17.5h-5V183.6z M454.8,206.5c6.7,0,11.6-3.5,11.6-9.2v-0.1c0-5.5-4.2-8.9-11.5-8.9H441v18.2H454.8z"/>
	<path class="st0" d="M494.4,183.6H510c14.1,0,23.9,9.7,23.9,22.3v0.1c0,12.6-9.8,22.5-23.9,22.5h-15.6L494.4,183.6L494.4,183.6z
		 M499.5,188.3v35.6H510c11.4,0,18.6-7.7,18.6-17.7v-0.1c0-10-7.3-17.8-18.6-17.8L499.5,188.3L499.5,188.3z"/>
	<path class="st0" d="M552.4,222l3.1-3.7c4.7,4.2,9.2,6.4,15.4,6.4c6,0,10-3.2,10-7.6V217c0-4.2-2.2-6.5-11.7-8.5
		c-10.3-2.2-15.1-5.6-15.1-13v-0.1c0-7.1,6.2-12.3,14.8-12.3c6.6,0,11.2,1.9,15.8,5.5l-3,3.9c-4.2-3.4-8.4-4.9-13-4.9
		c-5.8,0-9.6,3.2-9.6,7.3v0.1c0,4.2,2.3,6.6,12.2,8.7c10,2.2,14.7,5.8,14.7,12.7v0.1c0,7.7-6.4,12.7-15.4,12.7
		C563.7,229.2,557.8,226.8,552.4,222z"/>
	<path class="st1" d="M242.4,272.6h-4.6l1.2-4.4h4.6l1.1-4c0.9-3.3,2.3-5.8,4.2-7.4s4.3-2.4,7.2-2.4c2.6,0,4.8,0.5,6.6,1.4l-1.2,4.2
		c-1-0.5-1.9-0.8-2.7-1c-0.8-0.2-1.7-0.3-2.7-0.3c-1.6,0-2.9,0.5-4.1,1.5c-1.1,1-2,2.6-2.6,4.8l-0.8,3.2h10.9l-1.2,4.4h-10.8
		l-7.8,28.8h-4.9L242.4,272.6z"/>
	<path class="st1" d="M266.7,301.1c-1.9-0.7-3.5-1.8-4.8-3.1c-1.3-1.3-2.3-2.9-3.1-4.7c-0.7-1.8-1.1-3.8-1.1-5.9
		c0-2.6,0.5-5,1.6-7.4c1-2.4,2.5-4.5,4.2-6.3c1.8-1.8,3.8-3.3,6.2-4.4c2.4-1.1,4.9-1.6,7.5-1.6c2.3,0,4.3,0.4,6.2,1.1
		c1.9,0.7,3.5,1.8,4.8,3.1c1.3,1.3,2.4,2.9,3.1,4.7c0.7,1.8,1.1,3.8,1.1,5.9c0,2.7-0.5,5.2-1.6,7.6s-2.5,4.5-4.3,6.3
		s-3.9,3.3-6.2,4.3c-2.4,1.1-4.8,1.6-7.5,1.6C270.6,302.2,268.5,301.8,266.7,301.1z M278.5,296.5c1.7-0.8,3.2-2,4.6-3.4
		c1.3-1.4,2.4-3,3.1-4.9c0.8-1.8,1.2-3.7,1.2-5.7c0-3.4-1-6-2.9-7.8c-1.9-1.9-4.4-2.8-7.5-2.8c-1.9,0-3.7,0.4-5.5,1.3
		c-1.7,0.9-3.2,2-4.5,3.4s-2.3,3-3.1,4.9c-0.8,1.8-1.2,3.7-1.2,5.6c0,3.4,1,6,2.9,7.8s4.4,2.8,7.5,2.8
		C275,297.7,276.8,297.3,278.5,296.5z"/>
	<path class="st1" d="M304.4,268.2h4.9l-2.2,8.7c1-1.5,2.1-2.8,3.2-3.9c1.1-1.2,2.4-2.2,3.7-3c1.3-0.8,2.7-1.4,4.2-1.8
		s3-0.6,4.7-0.5l-1.4,5.3h-0.3c-1.8,0-3.6,0.3-5.4,1s-3.4,1.6-4.9,2.9s-2.9,2.9-4,4.8c-1.2,1.9-2.1,4.1-2.8,6.6l-3.5,13.1h-4.9
		L304.4,268.2z"/>
	<path class="st1" d="M348.4,301.4v-59.6h44.9v11.7h-32v12.1h28.1v11.7h-28.1v12.5h32.4v11.7h-45.3V301.4z"/>
	<path class="st1" d="M422,301.5c-1.6,0.5-3.5,0.7-5.7,0.7c-2,0-3.8-0.2-5.4-0.6s-3-1.2-4.2-2.3c-1.2-1.1-2.1-2.5-2.7-4.2
		c-0.7-1.7-1-3.9-1-6.6v-21.6h-5.5v-11.1h5.5v-11.7h13v11.7h10.7v11.1H416v19.5c0,3,1.4,4.4,4.2,4.4c2.3,0,4.4-0.5,6.4-1.6v10.4
		C425.1,300.3,423.6,301,422,301.5z"/>
	<path class="st1" d="M462.8,301.4V276c0-3.1-0.7-5.4-2-6.9s-3.3-2.3-5.8-2.3s-4.5,0.8-5.9,2.3c-1.4,1.6-2.2,3.9-2.2,6.9v25.4h-13
		v-62.2h13v23c0.7-1,1.5-1.9,2.4-2.8s1.9-1.7,2.9-2.4c1.1-0.7,2.3-1.2,3.6-1.6c1.3-0.4,2.8-0.6,4.4-0.6c4.9,0,8.8,1.5,11.5,4.5
		s4,7.2,4,12.4v29.5h-12.9V301.4z"/>
	<path class="st1" d="M484.1,250.8v-11.5h13.6v11.5H484.1z M484.4,301.4v-45.6h13v45.6H484.4z"/>
	<path class="st1" d="M538.8,300.1c-2.8,1.6-6.5,2.3-11.1,2.3c-3.4,0-6.6-0.6-9.5-1.9c-2.9-1.2-5.4-2.9-7.5-5.1
		c-2.1-2.1-3.7-4.6-4.9-7.5c-1.2-2.9-1.8-5.9-1.8-9.2v-0.2c0-3.2,0.6-6.3,1.8-9.2c1.2-2.9,2.8-5.4,4.9-7.6c2.1-2.2,4.6-3.9,7.5-5.1
		c2.9-1.2,6.1-1.9,9.7-1.9c4.3,0,7.9,0.7,10.7,2c2.8,1.4,5.3,3.2,7.5,5.6l-7.9,8.5c-1.5-1.5-3-2.8-4.6-3.7c-1.6-0.9-3.5-1.4-5.8-1.4
		c-1.6,0-3.1,0.3-4.5,1c-1.3,0.7-2.5,1.5-3.5,2.7c-1,1.1-1.8,2.5-2.3,4s-0.8,3.1-0.8,4.8v0.2c0,1.8,0.3,3.4,0.8,4.9s1.3,2.9,2.3,4
		s2.2,2,3.7,2.7c1.4,0.7,3,1,4.8,1c2.2,0,4-0.4,5.7-1.3c1.6-0.9,3.2-2.1,4.8-3.5l7.6,7.7C544.1,296.5,541.6,298.5,538.8,300.1z"/>
	<path class="st1" d="M584.9,294.1c-0.9,1.8-2.1,3.4-3.7,4.6c-1.6,1.2-3.5,2.1-5.6,2.7s-4.4,0.9-6.9,0.9c-3.2,0-6.5-0.6-9.9-1.7
		s-6.6-2.9-9.7-5.2l5.5-8.5c2.5,1.8,5,3.2,7.5,4.1s4.8,1.4,6.9,1.4c1.9,0,3.3-0.3,4.1-0.9c0.9-0.6,1.3-1.4,1.3-2.5v-0.2
		c0-0.7-0.3-1.3-0.8-1.8s-1.2-1-2.1-1.3c-0.9-0.4-1.9-0.7-3-1.1c-1.1-0.3-2.3-0.7-3.6-1.1c-1.6-0.5-3.2-1-4.8-1.7s-3.1-1.5-4.4-2.6
		c-1.3-1-2.4-2.3-3.2-3.9c-0.8-1.5-1.2-3.4-1.2-5.6v-0.2c0-2.3,0.4-4.4,1.3-6.2s2.1-3.3,3.6-4.6c1.5-1.2,3.3-2.2,5.3-2.8
		c2-0.6,4.2-0.9,6.5-0.9c2.9,0,5.8,0.5,8.8,1.4c3,0.9,5.7,2.2,8.2,3.9l-4.9,8.9c-2.3-1.3-4.5-2.3-6.6-3.1c-2.2-0.8-4.1-1.1-5.7-1.1
		c-1.6,0-2.8,0.3-3.6,0.9s-1.2,1.3-1.2,2.3v0.2c0,0.6,0.3,1.2,0.8,1.7s1.2,0.9,2,1.4c0.9,0.4,1.8,0.8,2.9,1.2
		c1.1,0.4,2.3,0.8,3.5,1.2c1.6,0.5,3.2,1.1,4.9,1.8c1.6,0.7,3.1,1.6,4.4,2.6c1.3,1,2.4,2.3,3.2,3.7c0.9,1.5,1.3,3.3,1.3,5.4v0.2
		C586.2,290.1,585.8,292.3,584.9,294.1z"/>
</g>
<g>
	<path class="st0" d="M87.7,363.8c-1.4,0.9-3,2.2-4.7,4.1l-7.2-5c1.2-1.4,2.3-2.5,3.5-3.6c1.2-1,2.4-1.9,3.8-2.6s2.9-1.3,4.5-1.6
		c1.6-0.4,3.5-0.6,5.6-0.6c2.5,0,4.7,0.3,6.7,0.9s3.7,1.4,5.1,2.5s2.5,2.4,3.2,3.9s1.1,3.2,1.1,5.1c0,1.7-0.3,3.2-0.8,4.5
		s-1.3,2.6-2.3,3.8c-1,1.2-2.3,2.4-3.8,3.5c-1.6,1.2-3.4,2.4-5.4,3.8l-7.6,5.1h20.3v7.7H75.2v-7l15.5-11c1.5-1,2.7-2,3.7-2.8
		s1.9-1.6,2.5-2.4c0.6-0.7,1.1-1.5,1.4-2.2s0.4-1.5,0.4-2.3c0-1.7-0.6-3-1.7-3.9c-1.2-0.9-2.7-1.3-4.5-1.3
		C90.8,362.5,89.1,362.9,87.7,363.8z"/>
	<path class="st0" d="M155.9,383.4c-1,2.5-2.4,4.7-4.2,6.6s-4,3.4-6.6,4.4c-2.6,1.1-5.4,1.6-8.5,1.6s-6-0.5-8.5-1.6
		c-2.6-1.1-4.7-2.5-6.5-4.4s-3.2-4.1-4.2-6.6s-1.5-5.2-1.5-8.2c0-2.9,0.5-5.6,1.5-8.2s2.4-4.8,4.2-6.6c1.8-1.9,4-3.4,6.6-4.4
		c2.6-1.1,5.4-1.6,8.5-1.6s5.9,0.5,8.5,1.6s4.7,2.5,6.5,4.4s3.2,4.1,4.2,6.6s1.5,5.3,1.5,8.2S156.9,380.8,155.9,383.4z M146.2,370.1
		c-0.5-1.6-1.2-2.9-2.1-4.1c-0.9-1.2-2-2.1-3.2-2.7c-1.3-0.7-2.7-1-4.2-1c-1.6,0-3,0.3-4.2,0.9s-2.3,1.5-3.2,2.6s-1.6,2.5-2,4.1
		c-0.5,1.6-0.7,3.3-0.7,5.1c0,1.8,0.2,3.5,0.7,5.1s1.2,2.9,2.1,4.1c0.9,1.2,2,2.1,3.2,2.7c1.3,0.7,2.7,1,4.2,1c1.6,0,3-0.3,4.2-0.9
		s2.3-1.5,3.2-2.7s1.6-2.5,2-4.1c0.5-1.6,0.7-3.3,0.7-5.1C146.9,373.4,146.7,371.7,146.2,370.1z"/>
	<path class="st0" d="M174.5,363.8c-1.4,0.9-3,2.2-4.7,4.1l-7.2-5c1.2-1.4,2.3-2.5,3.5-3.6c1.2-1,2.4-1.9,3.8-2.6
		c1.4-0.7,2.9-1.3,4.5-1.6c1.6-0.4,3.5-0.6,5.6-0.6c2.5,0,4.7,0.3,6.7,0.9s3.7,1.4,5.1,2.5c1.4,1.1,2.5,2.4,3.2,3.9s1.1,3.2,1.1,5.1
		c0,1.7-0.3,3.2-0.8,4.5s-1.3,2.6-2.3,3.8c-1,1.2-2.3,2.4-3.8,3.5c-1.6,1.2-3.4,2.4-5.4,3.8l-7.6,5.1h20.3v7.7H162v-7l15.5-11
		c1.5-1,2.7-2,3.7-2.8s1.9-1.6,2.5-2.4c0.6-0.7,1.1-1.5,1.4-2.2c0.3-0.7,0.4-1.5,0.4-2.3c0-1.7-0.6-3-1.7-3.9
		c-1.2-0.9-2.7-1.3-4.5-1.3C177.5,362.5,175.9,362.9,174.5,363.8z"/>
	<path class="st0" d="M213.8,354.8h7v40.6h-10.1v-31.6l-8.1,1.7l-2.1-7.3L213.8,354.8z"/>
	<path class="st0" d="M303.9,395.6H295l-10.5-26.4L274,395.6h-8.9L249,355h11l9.7,27.3l10.5-27.4h8.8l10.5,27.4l9.7-27.3h10.7
		L303.9,395.6z"/>
	<path class="st0" d="M326.1,395.3V355h10.3v40.3H326.1z"/>
	<path class="st0" d="M380,395.3l-22.6-25.6v25.6h-10.1V355h9.5l21.9,24.8V355h10.1v40.3H380z"/>
	<path class="st0" d="M432.2,395.3l-22.6-25.6v25.6h-10.1V355h9.5l21.9,24.8V355H441v40.3H432.2z"/>
	<path class="st0" d="M451.7,395.3V355h35.2v7.9h-25v8.2h22v7.9h-22v8.5h25.4v7.9h-35.6V395.3z"/>
	<path class="st0" d="M524.6,395.3l-10-12.9h-8.1v12.9h-10.3V355h21.4c5.6,0,9.9,1.2,13,3.5s4.6,5.6,4.6,9.8v0.1
		c0,3.3-0.9,5.9-2.8,8c-1.8,2.1-4.3,3.6-7.2,4.5l11.4,14.4H524.6z M524.8,368.8c0-1.9-0.7-3.4-2.1-4.3c-1.4-1-3.4-1.4-5.9-1.4h-10.2
		v11.6H517c2.5,0,4.5-0.5,5.8-1.6c1.4-1,2-2.4,2-4.1V368.8z"/>
</g>
<rect x="24.4" y="327.1" class="st0" width="562.1" height="1.5"/>
</svg>
