<svg xmlns="http://www.w3.org/2000/svg" width="156" height="155" viewBox="0 0 156 155">
  <g id="ICO-taxdebt-blue" transform="translate(0.301)">
    <g id="np_loan_1057813_000000" transform="translate(24.785 28.034)">
      <path id="Path_71" data-name="Path 71" d="M100.706,86.736H96.987L66.216,96.9a9.275,9.275,0,0,1-8.88-.112l-.041-.024L15.123,73.315a1.95,1.95,0,0,1-.4-.307c0-.024-3.761-3.808-1.458-8.1,0-.024,2.521-5.379,7.392-4.027C32.906,64.27,40.8,71.308,48.09,73.126c9.5,1.706,16.142,1.1,25.087-2.68a98.494,98.494,0,0,0-11.466.177c-1.352.065-2.722.112-4.074.154-13.461.354-14.081-4.05-11.224-7.262,2.769-3.1,5.16-3.165,8.679-3.165H68.578c2.149-.974,13.2-5.886,19.153-6.949H87.8a54.952,54.952,0,0,1,8.945-.62c1.441,0,2.81.024,3.985.065V86.782Z" transform="translate(-12.522 0.822)" fill="#0e71c3"/>
      <path id="Path_72" data-name="Path 72" d="M74.765,47.606H85.386A2.4,2.4,0,0,1,87.3,48.757a5.058,5.058,0,0,1,.809,2.787V93.186a5.023,5.023,0,0,1-.792,2.787A2.442,2.442,0,0,1,85.4,97.147H74.782a2.369,2.369,0,0,1-1.845-1.039A.62.62,0,0,0,72.848,96a5.022,5.022,0,0,1-.809-2.81V51.544a4.994,4.994,0,0,1,.809-2.81,2.383,2.383,0,0,1,1.918-1.175Z" transform="translate(17.916 -1.849)" fill="#0e71c3"/>
      <path id="Path_73" data-name="Path 73" d="M45.133,58.757a5.5,5.5,0,0,1-.708.041c-.354,0-.644-.024-.862-.041a1.737,1.737,0,0,1-.508-.153.5.5,0,0,1-.242-.242.633.633,0,0,1-.024-.331l.354-3.454a11.05,11.05,0,0,1-1.37-.266,10.4,10.4,0,0,1-1.175-.354,7.7,7.7,0,0,1-.909-.4,2.52,2.52,0,0,1-.573-.4,1.212,1.212,0,0,1-.289-.573,4.855,4.855,0,0,1-.089-1.128c0-.378.024-.708.041-.951a2.5,2.5,0,0,1,.112-.573.812.812,0,0,1,.218-.289.652.652,0,0,1,.289-.065,1.6,1.6,0,0,1,.644.242,10.088,10.088,0,0,0,1.086.555,9.738,9.738,0,0,0,1.594.555,8.093,8.093,0,0,0,2.19.242,4.831,4.831,0,0,0,2.946-.732,2.357,2.357,0,0,0,.974-1.972,1.94,1.94,0,0,0-.419-1.328,3.921,3.921,0,0,0-1.1-.927,9.624,9.624,0,0,0-1.571-.708c-.573-.218-1.175-.443-1.795-.661a16.839,16.839,0,0,1-1.795-.838,6.74,6.74,0,0,1-1.571-1.175,5.176,5.176,0,0,1-1.1-1.683,6.777,6.777,0,0,1,0-4.694,5.452,5.452,0,0,1,1.216-1.836,6.188,6.188,0,0,1,1.972-1.263A10.117,10.117,0,0,1,45.3,32.7l.331-3.407a1.26,1.26,0,0,1,.065-.218.641.641,0,0,1,.218-.177,1.763,1.763,0,0,1,.443-.112,5.5,5.5,0,0,1,.708-.041c.354,0,.644.024.862.041a1.931,1.931,0,0,1,.531.153.5.5,0,0,1,.242.242.91.91,0,0,1,.041.331l-.331,3.212c.307.041.661.112,1,.177a8.362,8.362,0,0,1,.974.289,5.906,5.906,0,0,1,.821.354,1.44,1.44,0,0,1,.508.331,1.165,1.165,0,0,1,.218.289,1.474,1.474,0,0,1,.112.354c.024.154.041.307.065.508a6.032,6.032,0,0,1,.024.685c0,.354,0,.644-.024.862a2.1,2.1,0,0,1-.089.508.477.477,0,0,1-.153.242.327.327,0,0,1-.2.065,1.476,1.476,0,0,1-.644-.218,9,9,0,0,0-1.039-.466,9.969,9.969,0,0,0-1.417-.466,6.414,6.414,0,0,0-1.771-.218,5.918,5.918,0,0,0-1.506.177,2.894,2.894,0,0,0-1.016.466,1.813,1.813,0,0,0-.573.732,2.539,2.539,0,0,0-.177.927,2.023,2.023,0,0,0,.419,1.328,3.6,3.6,0,0,0,1.128.927,11.2,11.2,0,0,0,1.594.708c.6.218,1.193.443,1.813.685a17.775,17.775,0,0,1,1.813.821,7.512,7.512,0,0,1,1.594,1.151,5.039,5.039,0,0,1,1.1,1.659,5.814,5.814,0,0,1,.419,2.344A6.669,6.669,0,0,1,52.9,50.58a6.064,6.064,0,0,1-1.458,2.013,7.223,7.223,0,0,1-2.279,1.352,11.073,11.073,0,0,1-2.964.644l-.354,3.631c-.024.089-.041.177-.065.242a.488.488,0,0,1-.218.177,1.763,1.763,0,0,1-.443.112Zm19.7-33.694a26.469,26.469,0,1,0,7.746,18.71,26.384,26.384,0,0,0-7.746-18.71Z" transform="translate(-8.868 -17.316)" fill="#0e71c3" fill-rule="evenodd"/>
    </g>
    <rect id="Rectangle_17" data-name="Rectangle 17" width="156" height="155" transform="translate(-0.301 0)" fill="none"/>
  </g>
</svg>
