<svg xmlns="http://www.w3.org/2000/svg" xmlns:xlink="http://www.w3.org/1999/xlink" width="94" height="94" viewBox="0 0 94 94">
  <defs>
    <clipPath id="clip-path">
      <rect id="Rectangle_9" data-name="Rectangle 9" width="75" height="75" transform="translate(-0.195)" fill="none" stroke="#0e71c3" stroke-width="3"/>
    </clipPath>
    <clipPath id="clip-ICO-consultation-bl">
      <rect width="94" height="94"/>
    </clipPath>
  </defs>
  <g id="ICO-consultation-bl" clip-path="url(#clip-ICO-consultation-bl)">
    <g id="ICO-csr" transform="translate(-986 -761.861)">
      <g id="Group_19" data-name="Group 19" transform="translate(997.646 774.451)">
        <g id="Group_18" data-name="Group 18" transform="translate(-0.451 -0.451)" clip-path="url(#clip-path)">
          <path id="Path_61" data-name="Path 61" d="M21.488,12.361c-5.682,0-9.429,4.4-9.429,9.828S10.569,37.5,21.488,37.5s9.682-9.877,9.682-15.308a9.552,9.552,0,0,0-9.682-9.828" transform="translate(6.176 6.353)" fill="none" stroke="#0e71c3" stroke-linecap="round" stroke-linejoin="round" stroke-width="3"/>
          <path id="Path_62" data-name="Path 62" d="M34.265,30.573h8.872v7.674l7.67-7.674h10.04a2.992,2.992,0,0,0,2.991-2.991V3.991A2.992,2.992,0,0,0,60.846,1H20.991A2.992,2.992,0,0,0,18,3.991V17.265" transform="translate(9.052 0.915)" fill="none" stroke="#0e71c3" stroke-linecap="round" stroke-linejoin="round" stroke-width="3"/>
          <line id="Line_7" data-name="Line 7" x2="25" transform="translate(37.805 12)" fill="none" stroke="#0e71c3" stroke-linecap="round" stroke-linejoin="round" stroke-width="3"/>
          <line id="Line_8" data-name="Line 8" x2="14" transform="translate(48.805 20)" fill="none" stroke="#0e71c3" stroke-linecap="round" stroke-linejoin="round" stroke-width="3"/>
          <path id="Path_63" data-name="Path 63" d="M1,56.658V44.829A11.886,11.886,0,0,1,12.943,33h6.37l6.824,6.759L32.961,33h6.37A11.886,11.886,0,0,1,51.273,44.829V56.658Z" transform="translate(0.915 16.231)" fill="none" stroke="#0e71c3" stroke-linecap="round" stroke-linejoin="round" stroke-width="3"/>
          <line id="Line_9" data-name="Line 9" y2="9" transform="translate(11.805 64)" fill="none" stroke="#0e71c3" stroke-linecap="round" stroke-linejoin="round" stroke-width="3"/>
          <line id="Line_10" data-name="Line 10" y2="9" transform="translate(41.805 64)" fill="none" stroke="#0e71c3" stroke-linecap="round" stroke-linejoin="round" stroke-width="3"/>
        </g>
      </g>
    </g>
  </g>
</svg>
