<svg xmlns="http://www.w3.org/2000/svg" xmlns:xlink="http://www.w3.org/1999/xlink" width="94" height="94" viewBox="0 0 94 94">
  <defs>
    <clipPath id="clip-path">
      <rect id="Rectangle_8" data-name="Rectangle 8" width="74.86" height="74.861" transform="translate(0 0.001)" fill="none"/>
    </clipPath>
    <clipPath id="clip-ICO-resolution-bl">
      <rect width="94" height="94"/>
    </clipPath>
  </defs>
  <g id="ICO-resolution-bl" clip-path="url(#clip-ICO-resolution-bl)">
    <g id="ICO-resolution" transform="translate(-4.363 -3.431)">
      <g id="Group_17" data-name="Group 17" transform="translate(13.933 13)">
        <g id="Group_16" data-name="Group 16" clip-path="url(#clip-path)">
          <path id="Path_55" data-name="Path 55" d="M33.088,66.176A33.088,33.088,0,1,1,66.176,33.088,33.125,33.125,0,0,1,33.088,66.176M33.088,3A30.088,30.088,0,1,0,63.176,33.088,30.122,30.122,0,0,0,33.088,3" fill="#0e71c3"/>
          <path id="Path_56" data-name="Path 56" d="M33.331,50.368c-7.084,0-10.065-3.692-10.189-3.85a1.5,1.5,0,0,1,2.35-1.865c.111.135,2.33,2.715,7.839,2.715,5.551,0,7.808-2.676,7.829-2.7a1.5,1.5,0,1,1,2.359,1.853c-.123.158-3.1,3.85-10.188,3.85" fill="#0e71c3"/>
          <path id="Path_57" data-name="Path 57" d="M29.628,28.905a1.5,1.5,0,0,1-1.335-.816,4.437,4.437,0,0,0-7.944,0A1.5,1.5,0,1,1,17.68,26.72a7.436,7.436,0,0,1,13.282,0,1.5,1.5,0,0,1-1.334,2.185" fill="#0e71c3"/>
          <path id="Path_58" data-name="Path 58" d="M47.513,28.905a1.5,1.5,0,0,1-1.336-.816,4.435,4.435,0,0,0-7.942,0,1.5,1.5,0,0,1-2.67-1.369,7.436,7.436,0,0,1,13.282,0,1.5,1.5,0,0,1-1.334,2.185" fill="#0e71c3"/>
          <path id="Path_59" data-name="Path 59" d="M60.636,46.413A14.224,14.224,0,1,0,74.86,60.637,14.24,14.24,0,0,0,60.636,46.413" fill="#0e71c3"/>
          <path id="Path_60" data-name="Path 60" d="M59.328,70.489V68.657a8.69,8.69,0,0,1-2.032-.518,6.21,6.21,0,0,1-1.844-1.1,4.629,4.629,0,0,1-1.092-1.376,3.126,3.126,0,0,1-.354-1.4,1.19,1.19,0,0,1,.474-.913,1.753,1.753,0,0,1,1.181-.407,1.918,1.918,0,0,1,.96.221,1.183,1.183,0,0,1,.543.624,12.091,12.091,0,0,0,.594,1.325,2.648,2.648,0,0,0,.764.84,3.1,3.1,0,0,0,.806.418V61.49a16.1,16.1,0,0,1-2.278-.738,4.606,4.606,0,0,1-1.844-1.367A3.55,3.55,0,0,1,54.5,57.1a3.717,3.717,0,0,1,1.383-2.978,7.053,7.053,0,0,1,3.446-1.607V50.784a1.157,1.157,0,0,1,2.278,0v1.671h.058a7.034,7.034,0,0,1,2.483.731,3.814,3.814,0,0,1,1.339,1.109,4.532,4.532,0,0,1,.878,1.109,2.232,2.232,0,0,1,.309,1.046,1.161,1.161,0,0,1-.461.914,1.686,1.686,0,0,1-1.118.385,1.527,1.527,0,0,1-1.6-1.119,2.6,2.6,0,0,0-1.887-1.719V59.3q1.479.342,2.37.626a5.426,5.426,0,0,1,1.661.855,4.071,4.071,0,0,1,1.206,1.389,3.755,3.755,0,0,1,.423,1.769,4.088,4.088,0,0,1-.675,2.255,4.948,4.948,0,0,1-1.99,1.716,6.743,6.743,0,0,1-2.5.814l-.491.047v1.721a1.159,1.159,0,0,1-2.282,0m2.278-3.871a3.629,3.629,0,0,0,1.845-.833,1.989,1.989,0,0,0,.7-1.5,1.665,1.665,0,0,0-.676-1.421,5.737,5.737,0,0,0-1.869-.816ZM58.225,55.53a1.726,1.726,0,0,0-.038,2.572,4.463,4.463,0,0,0,1.141.59v-3.7a4.018,4.018,0,0,0-1.1.538" fill="#fff"/>
        </g>
      </g>
    </g>
  </g>
</svg>
