<svg id="ICO-yougov-blue" xmlns="http://www.w3.org/2000/svg" width="155" height="155" viewBox="0 0 155 155">
  <rect id="Rectangle_16" data-name="Rectangle 16" width="155" height="155" transform="translate(0 0)" fill="none"/>
  <g id="Group_26" data-name="Group 26" transform="translate(32.426 34.388)">
    <path id="Union_1" data-name="Union 1" d="M3.588,89.581V83.624H14.6V75.138H76.524v8.485H87.537v5.958Zm7.4,0h0ZM29.224,71.528V68.243A13.257,13.257,0,0,0,38.612,55.55a13.366,13.366,0,0,0-.3-2.8H53.531a13.362,13.362,0,0,0,.347,6.889A13.3,13.3,0,0,0,61.9,68v3.528H29.224ZM18.194,0H73.136c0,25.465-12.571,49.333-27.427,49.333S18.194,23.935,18.194,0Zm46.8,37.4h0c.8-1.335,1.564-2.771,2.28-4.269a31.122,31.122,0,0,0,5.905-2.643,27.628,27.628,0,0,0,4.644-3.4,27.426,27.426,0,0,0,3.533-3.9,29.5,29.5,0,0,0,2.575-4.137,34.177,34.177,0,0,0,2.879-7.963,36.5,36.5,0,0,0,.86-5.831H74.117c.061-1.168.095-2.341.1-3.489H91.291l.038,1.706a31.707,31.707,0,0,1-.366,4.542,42.468,42.468,0,0,1-.94,4.67,39.843,39.843,0,0,1-1.87,5.515,32.667,32.667,0,0,1-7.806,11.3,30.545,30.545,0,0,1-3.032,2.469,31.593,31.593,0,0,1-3.543,2.185A34.315,34.315,0,0,1,69.679,36,38.985,38.985,0,0,1,64.993,37.4Zm-38.656,0A38.985,38.985,0,0,1,21.651,36a34.315,34.315,0,0,1-4.095-1.831,31.592,31.592,0,0,1-3.543-2.185,30.544,30.544,0,0,1-3.032-2.469,32.667,32.667,0,0,1-7.806-11.3,39.853,39.853,0,0,1-1.87-5.515,42.469,42.469,0,0,1-.94-4.67A31.707,31.707,0,0,1,0,3.482L.039,1.775H17.113c.005,1.147.039,2.321.1,3.489H3.661a36.5,36.5,0,0,0,.86,5.831A34.177,34.177,0,0,0,7.4,19.057a29.5,29.5,0,0,0,2.575,4.137,27.425,27.425,0,0,0,3.533,3.9,27.627,27.627,0,0,0,4.644,3.4,31.122,31.122,0,0,0,5.905,2.643c.716,1.5,1.483,2.934,2.28,4.269h0Z" transform="translate(0)" fill="#0e71c3"/>
    <text id="_1" data-name="1" transform="translate(48.574 31.612)" fill="#0e71c3" font-size="30" font-family="Rockwell-Bold, Rockwell" font-weight="700"><tspan x="-9.448" y="0">1</tspan></text>
    <text id="_" data-name="#" transform="translate(34.574 23.612)" fill="#0e71c3" font-size="20" font-family="Montserrat-Bold, Montserrat" font-weight="700"><tspan x="-7.2" y="0">#</tspan></text>
  </g>
</svg>
