<svg xmlns="http://www.w3.org/2000/svg" width="155" height="155" viewBox="0 0 155 155">
  <g id="ICO-csr-blue" transform="translate(0.201)">
    <path id="np_customer-loyalty_5879299_000000" d="M103.219,92.418l7.553,15.355a.819.819,0,0,1-.854,1.214L97.876,106.83l-4.149,11.506a.817.817,0,0,1-1.478.129l-7.7-13.33a12.014,12.014,0,0,0,2.739-2.576c6.4,1.878,13.384-4.229,15.926-10.141ZM140.11,68.1,131.8,71.59l-.753,8.984-5.892-6.821-8.773,2.061,4.671-7.709L116.379,60.4l8.773,2.061,5.892-6.821.753,8.984ZM121.572,23.35l-3.4,8.346,5.817,6.889L115,37.927l-4.753,7.662-2.149-8.753-8.753-2.149L107,29.933l-.658-8.99,6.889,5.817ZM13.539,68.1l8.312-3.492.753-8.984L28.5,62.443l8.773-2.061L32.6,68.091,37.269,75.8,28.5,73.739,22.6,80.56l-.753-8.984ZM32.076,23.35l8.346,3.4,6.889-5.817-.658,8.99,7.662,4.753-8.753,2.149-2.149,8.753L38.66,37.92l-8.99.658,5.817-6.889ZM76.824,4.813l3.492,8.312,8.984.753-6.821,5.892,2.061,8.773-7.716-4.671-7.709,4.671,2.061-8.773-6.821-5.892,8.984-.753Zm0,48.482A17.078,17.078,0,0,0,64.614,82.314a13.789,13.789,0,0,1,24.422,0A17.078,17.078,0,0,0,76.825,53.295Zm0,19.331a7.458,7.458,0,1,1,7.458-7.458,7.458,7.458,0,0,1-7.458,7.458Zm29.609.556a4.817,4.817,0,0,1,0-5.607c2.848-4.082.692-10.706-4.007-12.333a4.819,4.819,0,0,1-3.3-4.536c-.095-4.977-5.729-9.065-10.489-7.621a4.818,4.818,0,0,1-5.329-1.729c-3-3.966-9.967-3.966-12.97,0a4.818,4.818,0,0,1-5.329,1.729c-4.76-1.444-10.394,2.651-10.489,7.621a4.819,4.819,0,0,1-3.3,4.536c-4.7,1.627-6.855,8.251-4.007,12.333a4.816,4.816,0,0,1,0,5.607c-2.848,4.082-.692,10.706,4.007,12.333a4.819,4.819,0,0,1,3.3,4.536c.095,4.977,5.729,9.065,10.489,7.621A4.818,4.818,0,0,1,70.343,99.4c3,3.966,9.967,3.966,12.97,0a4.818,4.818,0,0,1,5.329-1.729c4.76,1.444,10.394-2.651,10.489-7.621a4.819,4.819,0,0,1,3.3-4.536c4.7-1.627,6.855-8.258,4.007-12.333ZM76.824,92.538A22.161,22.161,0,1,1,98.982,70.373,22.157,22.157,0,0,1,76.824,92.538Zm-7.722,12.6-7.7,13.33a.819.819,0,0,1-1.478-.129l-4.149-11.506-12.041,2.156a.819.819,0,0,1-.854-1.214L50.437,94.7c2.542,5.905,9.519,9.743,15.933,7.872a11.967,11.967,0,0,0,2.732,2.57Z" transform="translate(0.556 8.676)" fill="#0e71c3" fill-rule="evenodd"/>
    <rect id="Rectangle_18" data-name="Rectangle 18" width="155" height="155" transform="translate(-0.201 0)" fill="none"/>
  </g>
</svg>
