<?xml version="1.0" encoding="utf-8"?>
<!-- Generator: Adobe Illustrator 29.1.0, SVG Export Plug-In . SVG Version: 9.03 Build 55587)  -->
<svg version="1.1" id="OTS_Logo__x28_White-V4_x29_"
	 xmlns="http://www.w3.org/2000/svg" xmlns:xlink="http://www.w3.org/1999/xlink" x="0px" y="0px" viewBox="0 0 1260 359.6"
	 style="enable-background:new 0 0 1260 359.6;" xml:space="preserve">
<style type="text/css">
	.st0{fill:#FFFFFF;}
</style>
<g>
	<g>
		<g>
			<g>
				<g>
					<path class="st0" d="M225.6,119.1C210.3,104.4,190.3,97,165.5,97v0c-13.4,0-26,2.5-37.9,7.4c-11.9,4.9-21.7,11.7-29.4,20.4
						c-6.7,7.4-12,16.5-15.9,27.5c-3.9,10.9-5.8,21.9-5.8,32.9c0,25.7,7.7,46.3,23.1,61.7c15.4,15.4,36,23.1,61.8,23.1
						c27,0,48.1-8.9,63.4-26.6c15.7-18.1,23.6-40.2,23.6-66.3C248.5,153.2,240.8,133.8,225.6,119.1z M206,241
						c-9.8,13.2-22.8,19.8-39.1,19.8c-18,0-32.7-8-44-23.9C111.6,221,106,200.2,106,174.8c0-21.6,4.5-38.4,13.5-50.5
						c9-12.1,21.5-18.1,37.4-18.1l0,0c14.9,0,27.9,5.3,38.9,15.8c7.6,7.1,13.6,16.8,18.1,28.9c4.5,11.9,6.8,24.6,6.8,37.3
						C220.7,210.2,215.8,227.9,206,241z"/>
					<path class="st0" d="M351.4,176.5c-7.6-8.5-17.4-12.7-29.3-12.7c-5.5,0-10.1,0.9-13.9,2.7c-3.8,1.8-9.5,5.8-17.3,12
						c-1,0.7-1.6,1.1-2,1.1c-1.1-0.1-1.9-1-2.4-2.7v-9.8l-0.1-3.5c-0.2-1.8-0.8-2.7-1.9-2.7c-0.7,0-3.1,1.4-7,4.3
						c-5.2,3.8-12.8,6.6-23,8.3l-5.6,0.9c-1.6,0.3-2.4,1.4-2.4,3.1c0,1.8,0.8,2.8,2.4,2.9l1.1-0.1c0.8-0.1,1.6-0.1,2.5-0.1
						c5.2,0.3,8.3,2.7,9.5,7.3l0.6,5.3l-0.2,5.1v83c0,7.4-0.4,12.2-1.3,14.4c-0.9,2.3-2.9,4-6.2,5.2c-2.1,0.7-3.1,1.9-3.1,3.3
						c0,2.3,1.5,3.5,4.5,3.5c0.9,0,2.5-0.1,5-0.2l10.3-0.9c5.7-0.4,10-0.6,12.9-0.6c4.5,0,9.8,0.8,16.1,2.3c1.4,0.4,2.9,0.6,4.3,0.7
						c2.5,0.2,3.8-1.1,3.8-3.7c0-1.9-1.5-3-4.5-3.4c-6.8-0.8-11.5-2.7-14-5.6c-2.5-2.9-3.8-8-3.8-15.2V270c0-3,0.6-4.5,1.8-4.5
						c0.7,0.1,1.5,0.3,2.1,0.6c5.3,2.6,13.2,4,23.6,4c11.2,0,21.5-4.7,31.1-14.1c11.9-11.8,17.9-27.3,17.9-46.7
						C362.8,195.9,359,185,351.4,176.5z M335.9,252.1c-4.7,6.4-11,9.6-18.8,9.6c-7.5,0-14.4-2.3-20.9-6.9c-6.5-4.6-9.7-9.5-9.7-14.8
						v-47.1l0,0c0-3.6,1.9-6.6,5.8-9.1c3.9-2.5,8.6-3.8,14.1-3.8c10.3,0,18.9,4.5,26,13.5c7.1,9,10.6,20,10.6,33
						C342.9,237.2,340.5,245.7,335.9,252.1z"/>
					<path class="st0" d="M422.3,179c3.5,0,5.7-2.1,6.6-6.3c0.5-2.6,1-4.4,1.4-5.4c0.4-0.9,0.7-1.8,0.8-2.7c0.1-1.4-0.6-2-1.9-2
						c-0.8,0.1-1.5,0.4-2.1,0.8l-3.1,2.1c-1.4,1.1-3.7,1.6-6.8,1.6h-17.3V139c-0.1-1.1-0.4-1.7-1.1-1.8c-1.2-0.1-3,1.9-5.5,5.8
						c-2.2,3.5-6.4,8.6-12.8,15.2c-6.4,6.7-11.3,11.2-14.7,13.5c-2,1.4-3,2.8-3,4.1c0,2.1,1.9,3.2,5.7,3.2h7.3v65.5
						c0,8.7,2.1,15.1,6.3,19.2c4.2,4.1,10.7,6.2,19.7,6.2c11.6,0,21.7-4.1,30.5-12.3l1.4-2.1l-0.2-1.2c-0.2-1.7-0.8-2.5-1.8-2.5
						c-0.4,0-1,0.3-1.9,1c-1.4,1.1-3.8,2.2-7.2,3.3c-3.5,1.1-6.2,1.6-8.3,1.6c-5.3,0-9-1.4-11.1-4.3c-2.1-2.8-3.2-7.9-3.2-15.1V179
						L422.3,179z"/>
					<path class="st0" d="M474.6,169c0-2.9,0-4.7,0.1-5.5l0.1-1.1c0-1.5-0.6-2.2-1.7-2.3c-0.5,0-1.2,0.3-2,0.9
						c-6.9,5.3-16.5,9.2-28.6,11.8c-4.9,1.1-7.3,2.6-7.3,4.7c0,0.8,0.1,1.4,0.4,1.7c0.6,0.7,1.6,1,3.1,1h2.7c3.4,0,5.8,1.2,7.1,3.6
						c1.3,2.4,2,6.8,2,13.1v41.1l0.1,5.1c0,3.6-0.6,7.1-1.9,10.4c-1.2,3.3-2.7,5.4-4.5,6.3l-4.1,2.1c-1,0.6-1.6,1.4-1.6,2.5
						c0,1.6,0.8,2.4,2.5,2.4c1.4,0,2.7-0.2,4.1-0.5c7.2-1.1,12.9-1.7,17.1-1.7c1.6,0,4.9,0.2,9.8,0.7l9,0.9c2.6,0.2,4.3,0.3,5.1,0.3
						c6.3,0,9.4-1.1,9.4-3.2c0-1.7-1.3-2.7-3.9-2.9c-6.6-0.4-11.1-2.2-13.5-5.5c-2.4-3.2-3.6-9-3.6-17.2L474.6,169"/>
					<path class="st0" d="M669.2,208.9c0-30.8-11.7-46.2-35.2-46.2c-6,0-12.1,1.7-18.3,5.2c-6,3.4-11.2,8-15.2,13.7
						c-1.2,1.6-2,2.4-2.4,2.4c-0.4,0-1.1-1.3-2-3.9c-1.6-4.3-5.3-8.3-11-11.9c-5.8-3.7-11.3-5.5-16.5-5.5c-10,0-18.3,3.9-25.1,11.6
						l-4.9,5.7c-0.6,0.7-1.2,1.1-1.7,1.1c-1.4-0.1-2-1.7-2-4.9c0-1,0-1.9,0.1-2.8l0.4-8.2l0.1-3c0-1.9-0.6-2.8-1.9-2.7
						c-0.5,0-1,0.2-1.7,0.7c-5,3.5-9.6,5.9-13.6,7.2l-6.8,2.2l-9.7,3c-4,0.7-6,2.1-6,4.1c0,1.7,1,2.6,3,2.6c5.4,0,8.9,1,10.4,3
						c1.5,2,2.3,6.6,2.3,13.8v43.4l-0.1,6.4c0,4-0.6,7.2-1.9,9.4c-1.3,2.2-3.5,4.1-6.7,5.6c-1.5,0.7-2.3,1.5-2.3,2.6
						c0,2,1.1,3,3.3,3c1.6-0.1,3.2-0.3,4.8-0.7c4.7-1.1,9.4-1.6,14.2-1.6c4,0,7.9,0.3,11.8,0.7l10.8,1.2c2.5,0.2,4.8,0.4,6.8,0.4
						c2.8,0,4.1-0.9,4.1-2.9c-0.1-1.6-1.4-2.6-3.8-3.2c-7-1.8-11.6-3.8-13.7-6.1c-2.1-2.3-3.2-6.3-3.2-12.1v-43.9
						c0-6.2,2-11.3,6.1-15.3c4.1-4,9.3-6.1,15.6-6.1c7.2,0,12.6,2.6,16,7.8c3.4,5.2,5.1,13.3,5.1,24.4v31.4l0.1,5.1
						c0,4.6-0.6,7.9-1.7,9.9c-1.2,2-3.6,3.8-7.2,5.4c-1.2,0.5-2,1.7-1.9,3c0,1.9,1.1,2.8,3.2,2.7c1.8-0.1,3.6-0.3,5.4-0.6
						c5.9-1.1,10.2-1.6,12.8-1.6c3.3,0,7.5,0.3,12.5,1c8,1.1,13.6,1.7,17,1.7c2.9,0,4.4-1.2,4.4-3.5c0-1.8-1.5-2.9-4.4-3.1
						c-6.2-0.6-10.4-2.5-12.7-5.6c-2.3-3.1-3.4-8.6-3.4-16.5v-43.8c0-5.3,1.9-9.7,5.7-13.1c3.8-3.4,8.7-5.1,14.7-5.1
						c7.7,0,13.4,2.6,17,7.8c3.6,5.2,5.4,13.3,5.4,24.4V242l0.1,5.8c0,3.6-0.5,6.2-1.5,7.8c-1,1.6-3.2,3.3-6.7,5.2
						c-1.7,1-2.5,2.1-2.5,3.2c0,1.7,0.7,2.5,2.2,2.5c1,0,2.7-0.2,4.9-0.6c6.7-1.2,11.8-1.8,15.2-1.8c2.5,0,5.9,0.3,10.3,1
						c8.4,1.4,14.1,2.1,17,2.1c2.4,0,3.6-1.1,3.6-3.2c0-1.8-1.4-2.9-4.2-3.4c-5.6-0.6-9.3-2.2-11.3-4.7c-1.9-2.5-2.9-6.8-2.9-13.1
						L669.2,208.9"/>
					<path class="st0" d="M787.7,254.7c-0.6,0-1.5,0.3-2.7,0.9c-1.1,0.6-2.8,0.9-5.1,0.9c-6.5,0-9.8-4.2-9.8-12.5
						c0-3.6,0.2-10.7,0.7-21.4c0.5-9.3,0.7-17.1,0.7-23.2c0-12.2-2.6-20.8-7.9-25.8c-6.8-6.5-17.1-9.7-30.9-9.7
						c-11.9,0-22.1,3.1-30.5,9.3c-3.8,2.8-6.2,6.7-7.3,11.9c-0.2,1.2-0.5,2.3-0.7,3.2c-0.4,1.2-0.6,2.1-0.6,2.7
						c-0.2,2.8,1.4,4.3,4.6,4.3c12.3,0,18.5-2.7,18.5-8.2l-0.4-2.3c-0.2-1.2-0.2-2.3-0.2-3.5c0-6.5,3.8-9.7,11.5-9.7
						c6,0,10.9,2.6,14.7,7.7c3.8,5.1,5.7,11.8,5.7,19.9c0,2.7-0.4,5.8-1.3,9.5l0,0c-19.8,3.7-33,7.4-39.7,10.9
						c-10.9,5.9-16.4,15.2-16.4,28c0,7.1,1.9,12.6,5.7,16.6c3.8,4,9.1,6,15.9,6c9.8,0,22.1-4.8,36.8-14.5
						c4.8,9.3,10.7,13.9,17.7,13.9c3.3,0,6.5-0.8,9.4-2.3l4.1-2.4l4.6-2.4c3.1-1.8,4.6-3.7,4.6-5.7
						C789.3,255.3,788.8,254.7,787.7,254.7z M747.5,221.4l-0.1,9.4c0,7.3-0.4,12.5-1.2,15.7c-0.8,3.2-2.3,5.4-4.4,6.7
						c-3.9,2.5-8.5,3.8-13.7,3.8c-8.4,0-12.6-5.4-12.6-16.1c0-6.5,3.1-12.5,9.3-17.9c6.2-5.4,12.7-7.9,19.6-7.4l0,0
						c1.3,0.1,2.1,0.3,2.5,0.6l0.7,2.7V221.4z"/>
					<path class="st0" d="M477.4,130.5c0.1-8.8-7-16-15.9-16.1c-8.8-0.1-16,7-16.1,15.9c-0.1,8.8,7,16,15.9,16.1c0,0,0.1,0,0.1,0
						C470.3,146.4,477.4,139.3,477.4,130.5"/>
				</g>
			</g>
			<g>
				<polygon class="st0" points="861.2,112.3 836.2,112.3 836.2,98.1 903.8,98.1 903.8,112.3 878.8,112.3 878.8,176.5 861.2,176.5 
									"/>
				<path class="st0" d="M944.4,98.1h-14.1l-36.6,78.4h17.7l7.6-17.3h37l7.6,17.3H981L944.4,98.1z M924.8,146.1l12.8-29.4l12.8,29.4
					H924.8z"/>
				<polygon class="st0" points="1056.5,176.5 1035.9,176.5 1016.2,149.5 996.3,176.5 975.8,176.5 1006.2,136.8 976.6,98.1 
					997.1,98.1 1016.2,124.2 1035.4,98.1 1055.8,98.1 1026.1,136.8 				"/>
				<path class="st0" d="M853.3,267.6c-5.6-1.6-10.2-3.8-13.9-6.6l5.6-12.3c7.7,5.3,16.3,7.9,25.9,7.9c5,0,8.8-0.8,11.5-2.4
					c2.7-1.6,4-3.8,4-6.6c0-2.5-1.2-4.5-3.7-5.9c-2.4-1.4-6.8-2.8-13-4.1c-7-1.4-12.6-3.1-16.8-5.1c-4.2-2-7.2-4.5-9.1-7.4
					c-1.9-2.9-2.9-6.5-2.9-10.8c0-4.7,1.3-9,4-12.7c2.7-3.7,6.4-6.6,11.2-8.7c4.8-2.1,10.4-3.2,16.7-3.2c5.5,0,11,0.8,16.3,2.4
					c5.2,1.6,9.4,3.8,12.5,6.6L896,211c-7.3-5.3-15-7.9-23-7.9c-4.6,0-8.2,0.9-10.8,2.6c-2.6,1.7-4,4.1-4,7.2c0,1.8,0.5,3.2,1.5,4.4
					c1,1.1,2.7,2.2,5.1,3.1c2.4,0.9,5.7,1.8,10.1,2.8c10.2,2.2,17.6,5.1,22.1,8.6c4.5,3.5,6.7,8.3,6.7,14.5c0,7.4-2.9,13.3-8.7,17.5
					c-5.8,4.3-13.9,6.4-24.3,6.4C864.8,270,859,269.2,853.3,267.6"/>
				<polygon class="st0" points="987.6,190.6 987.6,269 970.3,269 970.3,236.1 933.6,236.1 933.6,269 916.3,269 916.3,190.6 
					933.6,190.6 933.6,222.3 970.3,222.3 970.3,190.6 				"/>
				<rect x="1003.4" y="190.6" class="st0" width="17.6" height="78.4"/>
				<polygon class="st0" points="1036.8,190.6 1091.7,190.6 1091.7,204.1 1054,204.1 1054,222.4 1089.5,222.4 1089.5,235.9 
					1054,235.9 1054,255.6 1091.7,255.6 1091.7,269 1036.8,269 				"/>
				<polygon class="st0" points="1103.8,190.6 1121.4,190.6 1121.4,254.9 1157,254.9 1157,269 1103.8,269 				"/>
				<path class="st0" d="M1235.1,208.8c-3.3-5.9-8.1-10.3-14.3-13.5c-6.2-3.1-13.7-4.7-22.4-4.7h-30.9V269h31
					c8.7,0,16.2-1.6,22.5-4.7c6.3-3.1,11-7.6,14.3-13.5c3.3-5.9,4.9-12.9,4.9-21.1C1240,221.6,1238.4,214.6,1235.1,208.8z
					 M1197.1,255l-12.1,0v-50.4h12.1c16.9,0,25.4,8.4,25.4,25.1C1222.5,246.6,1214.1,255,1197.1,255z"/>
			</g>
		</g>
	</g>
	<g>
		<path class="st0" d="M228.4,52.6c-26-8.2-49.6-25.5-59.6-32.9c-1.7-1.3-3-2.2-3.8-2.7c-3.6-2.3-8.3-2.2-11.7,0.3
			c-39.9,29.5-126.4,59-130.1,60.3l-6.1,2.2v134.4c0,7.6,1.6,15.1,4.7,22c12.3,27.2,30,50.2,52.6,68.5c21.3,17.1,47.1,30.2,76.8,39
			l2.8,0.7c17.3-2.5,34-7.8,49.6-15.7l0.1-0.1c4.4-2.3,6-7.8,3.7-12.1c-2.4-4.4-7.9-6.1-12.3-3.8c-14.7,7.6-38.4,12.3-41.2,12.9
			c-68.9-21.2-100.8-64.2-115.4-96.7c-2.1-4.6-3.2-9.6-3.2-14.7V92.5c21.2-7.5,86.9-31.9,124.2-57.4c2.2,1.5,39.6,27.3,63.3,34.7
			c4.8,1.5,9.9-1.1,11.5-5.8l0.1-0.3v0C235.8,59,233.1,54,228.4,52.6z"/>
	</g>
</g>
<path class="st0" d="M792.7,163c-7.2,0-12.9,5.5-12.9,12.3c0,7,5.7,12.5,12.9,12.5c7.2,0,12.8-5.5,12.8-12.5v0
	C805.5,168.5,799.9,163,792.7,163z M792.7,185.2c-5.6,0-9.8-4.4-9.8-9.8l0,0c0-5.4,4.1-9.8,9.7-9.8c5.6,0,9.6,4.4,9.6,9.9
	C802.3,180.8,798.2,185.2,792.7,185.2z"/>
<path class="st0" d="M797.8,178.7c-0.4-1.7-1.1-2.6-2.3-3v-0.2c1.5-0.4,2.6-1.5,2.6-2.9c0-1-0.4-2-1.2-2.7c-0.9-0.5-2-0.9-4.3-0.9
	c-1.6,0-3.2,0.1-4.8,0.4v12.3h2.9l0-5h1.4c1.6,0,2.4,0.6,2.6,2c0.4,1.4,0.6,2.6,1,3h3.1C798.5,181.4,798.2,180.6,797.8,178.7z
	 M792.1,174.8h-1.4v-3.5c0.5-0.1,1.1-0.2,1.6-0.2c1.8,0,2.7,0.8,2.7,1.9C795,174.3,793.7,174.8,792.1,174.8z"/>
</svg>
