<?xml version="1.0" encoding="utf-8"?>
<!-- Generator: Adobe Illustrator 28.0.0, SVG Export Plug-In . SVG Version: 6.00 Build 0)  -->
<!DOCTYPE svg PUBLIC "-//W3C//DTD SVG 1.1//EN" "http://www.w3.org/Graphics/SVG/1.1/DTD/svg11.dtd" [
	<!ENTITY ns_extend "http://ns.adobe.com/Extensibility/1.0/">
	<!ENTITY ns_ai "http://ns.adobe.com/AdobeIllustrator/10.0/">
	<!ENTITY ns_graphs "http://ns.adobe.com/Graphs/1.0/">
	<!ENTITY ns_vars "http://ns.adobe.com/Variables/1.0/">
	<!ENTITY ns_imrep "http://ns.adobe.com/ImageReplacement/1.0/">
	<!ENTITY ns_sfw "http://ns.adobe.com/SaveForWeb/1.0/">
	<!ENTITY ns_custom "http://ns.adobe.com/GenericCustomNamespace/1.0/">
	<!ENTITY ns_adobe_xpath "http://ns.adobe.com/XPath/1.0/">
]>
<svg version="1.1" id="Layer_1" xmlns:x="&ns_extend;" xmlns:i="&ns_ai;" xmlns:graph="&ns_graphs;"
	 xmlns="http://www.w3.org/2000/svg" xmlns:xlink="http://www.w3.org/1999/xlink" x="0px" y="0px" viewBox="0 0 180 63"
	 style="enable-background:new 0 0 180 63;" xml:space="preserve">
<style type="text/css">
	.st0{fill:#FFFFFF;}
	.st1{fill:#005F86;}
</style>
<metadata>
	<sfw  xmlns="&ns_sfw;">
		<slices></slices>
		<sliceSourceBounds  bottomLeftOrigin="true" height="62.9" width="179.8" x="0.2" y="0.1"></sliceSourceBounds>
	</sfw>
</metadata>
<g>
	<path class="st0" d="M7.7,0.7h152.6c3.9,0,7,3.1,7,7v47.5c0,3.9-3.1,7-7,7H7.7c-3.9,0-7-3.1-7-7V7.7C0.7,3.9,3.9,0.7,7.7,0.7z"/>
	<path class="st1" d="M167,8.3c0-4.2-3.4-7.6-7.6-7.6H57.7v61.6h101.7c2,0,4-0.8,5.4-2.2c1.4-1.4,2.2-3.4,2.2-5.4V8.3z"/>
	<path class="st1" d="M159.4,62.9H57V0h102.3c4.6,0,8.3,3.7,8.3,8.3v46.4C167.6,59.2,163.9,62.9,159.4,62.9 M58.3,61.6h101
		c3.9,0,7-3.1,7-7V8.3c0-3.8-3.1-7-7-7h-101V61.6L58.3,61.6z M25.4,20.8l-2.7,3.7c-1.3,1.8-0.9,5.1,0.9,6.4l4.9,3.6
		c0.8,0.6,0.9,1.2,0.5,1.9l0.7,0.5l2.5-3.5c1.5-2.1,1.4-5-0.9-6.7l-5-3.6c-0.6-0.4-0.7-1-0.3-1.7L25.4,20.8 M29.7,4.6l-4.1,5.7
		c-1.9,2.7-1.2,7.3,1.4,9.2l6.8,5c1.4,1,1.6,3.6,0.6,4.9l0.6,0.4l4.7-6.6c2.1-3,2-7.3-1.3-9.7L31,8.2c-1-0.7-1.5-2-0.7-3.2L29.7,4.6
		 M18.8,40.5h5.5l1,3.3h9l1-3.3h5.5L39.9,38H19.5L18.8,40.5 M21.3,51.6c1-0.6,1.6-1.4,1.6-2.5c0-2.3-1.9-3.2-3.9-3.2h-5.7v12h5.6
		c2.4,0,4.9-1,4.5-3.8C23.2,52.5,22.6,52.1,21.3,51.6 M15.9,48.2h3c1.8,0,1.9,2.6,0.1,2.6h-3.1V48.2z M19.2,55.6h-3.3v-2.7h3.3
		C21.6,52.9,21.4,55.6,19.2,55.6L19.2,55.6z M32.6,51.6c1-0.6,1.6-1.4,1.6-2.5c0-2.3-1.9-3.2-3.9-3.2h-5.7v12h5.6
		c2.4,0,4.9-1,4.5-3.8C34.5,52.5,33.9,52.1,32.6,51.6 M27.1,48.2h2.9c1.8,0,1.9,2.6,0.1,2.6h-3L27.1,48.2L27.1,48.2z M30.4,55.6
		h-3.3v-2.7h3.3C32.8,52.9,32.7,55.6,30.4,55.6L30.4,55.6z M46,54.1c-0.2-1.6-0.9-2-2.1-2.5c1-0.6,1.6-1.4,1.6-2.5
		c0-2.3-1.9-3.2-3.9-3.2h-5.7v12h5.6C43.9,57.9,46.4,56.9,46,54.1 M38.4,48.2h2.9c1.8,0,1.9,2.6,0.1,2.6h-3.1L38.4,48.2L38.4,48.2z
		 M41.7,55.6h-3.3v-2.7h3.3C44.1,52.9,44,55.6,41.7,55.6C41.7,55.6,41.7,55.6,41.7,55.6z"/>
	<path class="st0" d="M73.7,28.9l-0.6-1.5h-3.8l-0.6,1.5h-2.2l3.5-9h2.4l3.5,9C75.9,28.9,73.7,28.9,73.7,28.9z M71.2,21.9l-1.4,3.9
		h2.8L71.2,21.9z M76.4,24.4c0-2.8,2.1-4.6,4.8-4.6c1.6,0,3,0.8,3.8,2.2l-1.6,0.8c-0.4-0.8-1.2-1.3-2.1-1.3c-1.6,0-2.8,1.2-2.8,2.9
		c0,1.7,1.2,2.9,2.8,2.9c0.9,0,1.7-0.5,2.1-1.3l1.6,0.8c-0.6,1.1-1.8,2.2-3.8,2.2C78.5,29.1,76.4,27.2,76.4,24.4z M85.7,24.4
		c0-2.8,2.1-4.6,4.8-4.6c1.6,0,3,0.8,3.8,2.2l-1.6,0.8c-0.4-0.8-1.2-1.3-2.1-1.3c-1.6,0-2.8,1.2-2.8,2.9c0,1.7,1.2,2.9,2.8,2.9
		c0.9,0,1.7-0.5,2.1-1.3l1.6,0.8C93.6,28,92.5,29,90.5,29C87.8,29.1,85.7,27.2,85.7,24.4z M100.6,28.9l-1.8-3.2h-1.4v3.2h-1.9v-9
		h4.2c1.9,0,3,1.2,3,2.9c0,1.6-1,2.4-2,2.7l2,3.4L100.6,28.9L100.6,28.9z M100.7,22.8c0-0.8-0.6-1.2-1.3-1.2h-2V24h2
		C100.2,24,100.7,23.6,100.7,22.8L100.7,22.8z M104.2,28.9v-9h6.4v1.7h-4.4v1.9h4.3v1.7h-4.3v2h4.4v1.7L104.2,28.9z M112.2,28.9v-9
		h3.5c2.8,0,4.8,1.8,4.8,4.5c0,2.7-2,4.5-4.8,4.5L112.2,28.9L112.2,28.9z M118.5,24.4c0-1.6-1-2.8-2.8-2.8h-1.6v5.6h1.6
		C117.5,27.2,118.5,26,118.5,24.4C118.5,24.4,118.5,24.4,118.5,24.4z M121.9,28.9v-9h1.9v9L121.9,28.9z M127.8,28.9v-7.3h-2.6V20
		h7.2v1.7h-2.6v7.3L127.8,28.9z M133.6,28.9v-9h6.4v1.7h-4.4v1.9h4.3v1.7h-4.3v2h4.4v1.7L133.6,28.9z M141.6,28.9v-9h3.5
		c2.8,0,4.8,1.8,4.8,4.5c0,2.7-2,4.5-4.8,4.5L141.6,28.9L141.6,28.9z M147.9,24.4c0-1.6-1-2.8-2.8-2.8h-1.6v5.6h1.6
		C146.9,27.2,147.9,26,147.9,24.4L147.9,24.4z M67.5,44.3v-9h4.7c1.7,0,2.6,1.1,2.6,2.3c0,1.1-0.7,1.9-1.5,2.1
		c1,0.1,1.7,1.1,1.7,2.2c0,1.3-0.9,2.4-2.6,2.4L67.5,44.3z M72.9,37.9c0-0.5-0.4-1-1-1h-2.5v2h2.4C72.5,38.9,72.9,38.5,72.9,37.9
		L72.9,37.9z M73,41.6c0-0.6-0.4-1-1.2-1h-2.5v2.1h2.5C72.6,42.6,73,42.2,73,41.6z M76.5,40.7v-5.4h2v5.3c0,1.2,0.7,2.1,2.1,2.1
		c1.4,0,2.1-0.9,2.1-2.1v-5.3h2v5.4c0,2.2-1.3,3.7-4,3.7C77.9,44.5,76.5,42.9,76.5,40.7z M85.9,43l1-1.5c0.7,0.8,1.8,1.2,2.9,1.2
		c1,0,1.6-0.5,1.6-1c0-0.7-0.8-0.8-1.8-1.1c-1.5-0.3-3.3-0.7-3.3-2.8c0-1.5,1.3-2.7,3.4-2.7c1.4,0,2.6,0.4,3.5,1.2L92,37.8
		c-0.7-0.6-1.6-1-2.6-1c-0.8,0-1.3,0.4-1.3,0.9c0,0.6,0.8,0.8,1.8,1c1.5,0.3,3.4,0.8,3.4,2.8c0,1.6-1.2,2.9-3.6,2.9
		C88,44.4,86.7,43.9,85.9,43z M94.6,44.3v-9h1.9v9H94.6z M104.6,44.3l-4.3-5.8v5.8h-1.9v-9h2l4.2,5.6v-5.6h1.9v9H104.6z M108.3,44.3
		v-9h6.4V37h-4.5v1.9h4.3v1.7h-4.3v2h4.4v1.7L108.3,44.3z M115.7,43l1-1.5c0.7,0.8,1.8,1.2,2.9,1.2c1.1,0,1.6-0.5,1.6-1
		c0-0.7-0.8-0.8-1.8-1.1c-1.5-0.3-3.3-0.7-3.3-2.8c0-1.5,1.3-2.7,3.4-2.7c1.4,0,2.6,0.4,3.5,1.2l-1,1.4c-0.7-0.6-1.6-1-2.6-1
		c-0.8,0-1.3,0.4-1.3,0.9c0,0.6,0.8,0.8,1.8,1c1.5,0.3,3.4,0.8,3.4,2.8c0,1.6-1.2,2.9-3.6,2.9C117.7,44.4,116.5,43.9,115.7,43z
		 M123.8,43l1-1.5c0.7,0.8,1.8,1.2,2.9,1.2c1.1,0,1.6-0.5,1.6-1c0-0.7-0.8-0.8-1.8-1.1c-1.5-0.3-3.3-0.7-3.3-2.8
		c0-1.5,1.3-2.7,3.4-2.7c1.4,0,2.6,0.4,3.5,1.2l-1.1,1.4c-0.7-0.6-1.6-1-2.6-1c-0.8,0-1.3,0.4-1.3,0.9c0,0.6,0.8,0.8,1.8,1
		c1.5,0.3,3.4,0.8,3.4,2.8c0,1.6-1.2,2.9-3.6,2.9C125.9,44.4,124.7,43.9,123.8,43z"/>
	<path class="st1" d="M169.4,57.6L169.4,57.6c0-3,2.4-5.3,5.3-5.3c2.9,0,5.3,2.4,5.3,5.3c0,0,0,0,0,0v0c0,2.9-2.4,5.3-5.3,5.3
		C171.8,62.9,169.4,60.5,169.4,57.6C169.4,57.6,169.4,57.6,169.4,57.6z M179.5,57.5L179.5,57.5c0-1.8-0.9-3.3-2.4-4.2
		c-1.5-0.9-3.3-0.9-4.8,0c-1.5,0.9-2.4,2.5-2.4,4.2v0c0,1.7,0.9,3.3,2.4,4.2c1.5,0.9,3.3,0.9,4.8,0
		C178.6,60.9,179.5,59.3,179.5,57.5L179.5,57.5z M172.6,54.7h2.4c0.6,0,1.2,0.2,1.6,0.6c0.3,0.3,0.4,0.7,0.4,1.1v0
		c0,0.9-0.6,1.4-1.4,1.6l1.7,2.2h-1l-1.6-2.1h-1.4v2.1h-0.8L172.6,54.7L172.6,54.7z M175,57.3c0.8,0,1.3-0.4,1.3-1v0
		c0-0.6-0.5-0.9-1.2-0.9h-1.6v1.9L175,57.3L175,57.3z M8.5,62.9c-4.6,0-8.3-3.7-8.3-8.3V8.3C0.2,3.7,3.9,0,8.5,0h49.9v62.9H8.5
		L8.5,62.9z M8.5,1.3c-3.8,0-7,3.1-7,7v46.4c0,3.8,3.1,7,7,7H57V1.3L8.5,1.3L8.5,1.3z"/>
</g>
</svg>
