<svg xmlns="http://www.w3.org/2000/svg" xmlns:xlink="http://www.w3.org/1999/xlink" width="75" height="75" viewBox="0 0 75 75">
  <defs>
    <linearGradient id="linear-gradient" x1="0.5" x2="0.5" y2="1" gradientUnits="objectBoundingBox">
      <stop offset="0" stop-color="#0a81e3"/>
      <stop offset="1" stop-color="#00c4ff"/>
    </linearGradient>
    <clipPath id="clip-path">
      <rect id="Rectangle_96" data-name="Rectangle 96" width="45.13" height="46.656" transform="translate(0 0)" fill="url(#linear-gradient)"/>
    </clipPath>
    <linearGradient id="linear-gradient-2" x1="0.581" y1="0.863" x2="0.58" y2="0.055" xlink:href="#linear-gradient"/>
    <clipPath id="clip-ICO-cbor-honesty-g">
      <rect width="75" height="75"/>
    </clipPath>
  </defs>
  <g id="ICO-cbor-honesty-g" clip-path="url(#clip-ICO-cbor-honesty-g)">
    <g id="Group_149" data-name="Group 149" transform="translate(14.935 14.172)">
      <g id="Group_148" data-name="Group 148" clip-path="url(#clip-path)">
        <path id="Union_4" data-name="Union 4" d="M1290.564-11159.64l-1.035-1.375a9.42,9.42,0,0,1-12.583-2.36,10.1,10.1,0,0,1-1.575-3.293.715.715,0,0,1,1.28-.591v.048a7.375,7.375,0,0,0,9.684,1.918l-1.08-1.426a.718.718,0,0,1,.588-1.131l7.276.1a.812.812,0,0,1,.737.886l-2.014,6.98a.766.766,0,0,1-.719.542A.671.671,0,0,1,1290.564-11159.64Zm-2.214-13.272c0-4.326,1.477-8.063,4.475-9.979a.361.361,0,0,1,.442,0,7.416,7.416,0,0,0,4.475,1.475,7.519,7.519,0,0,0,4.472-1.475.363.363,0,0,1,.444,0c3,1.916,4.472,5.653,4.472,9.979,0,1.5-4.695,2.249-9.39,2.249S1288.351-11171.413,1288.351-11172.912Zm-26.351,0c0-4.326,1.474-8.063,4.475-9.979a.361.361,0,0,1,.442,0,7.422,7.422,0,0,0,4.475,1.475,7.519,7.519,0,0,0,4.472-1.475.363.363,0,0,1,.444,0c3,1.916,4.472,5.653,4.472,9.979,0,1.5-4.695,2.249-9.39,2.249S1262-11171.413,1262-11172.912Zm30.137-16.077a5.6,5.6,0,0,1,5.605-5.605,5.6,5.6,0,0,1,5.6,5.605,5.6,5.6,0,0,1-5.6,5.605A5.6,5.6,0,0,1,1292.137-11188.989Zm-26.351,0a5.6,5.6,0,0,1,5.605-5.605,5.6,5.6,0,0,1,5.6,5.605,5.6,5.6,0,0,1-5.6,5.605A5.6,5.6,0,0,1,1265.786-11188.989Zm10.226-8.553a.767.767,0,0,1-.689-.934l2.014-6.983a.724.724,0,0,1,1.28-.245l1.032,1.378a9.309,9.309,0,0,1,12.536,2.408,10.093,10.093,0,0,1,1.575,3.293.715.715,0,0,1-1.28.591v-.051a7.378,7.378,0,0,0-9.684-1.915l1.08,1.426a.716.716,0,0,1-.588,1.128Z" transform="translate(-1262 11206)" stroke="rgba(0,0,0,0)" stroke-miterlimit="10" stroke-width="1" fill="url(#linear-gradient-2)"/>
      </g>
    </g>
  </g>
</svg>
