<svg xmlns="http://www.w3.org/2000/svg" xmlns:xlink="http://www.w3.org/1999/xlink" width="75" height="75" viewBox="0 0 75 75">
  <defs>
    <clipPath id="clip-path">
      <rect id="Rectangle_101" data-name="Rectangle 101" width="34.383" height="37.915" transform="translate(0 0)" fill="#0e71c3"/>
    </clipPath>
    <linearGradient id="linear-gradient" x1="0.5" x2="0.5" y2="1" gradientUnits="objectBoundingBox">
      <stop offset="0" stop-color="#00c4ff"/>
      <stop offset="1" stop-color="#0a81e3"/>
    </linearGradient>
    <clipPath id="clip-ICO-cbor-individual-g">
      <rect width="75" height="75"/>
    </clipPath>
  </defs>
  <g id="ICO-cbor-individual-g" clip-path="url(#clip-ICO-cbor-individual-g)">
    <g id="Group_159" data-name="Group 159" transform="translate(20.309 18.542)">
      <g id="Group_158" data-name="Group 158" clip-path="url(#clip-path)">
        <path id="Union_7" data-name="Union 7" d="M1019-11305.148a12.253,12.253,0,0,1,10.28-12.092,10.553,10.553,0,0,0,6.427,2.171h.967a10.551,10.551,0,0,0,6.424-2.171,12.256,12.256,0,0,1,10.283,12.092c0,3.349-7.7,6.063-17.191,6.063S1019-11301.8,1019-11305.148Zm7.986-22.646a9.217,9.217,0,0,1,9.2-9.207,9.217,9.217,0,0,1,9.2,9.207c0,5.073-4.128,10.462-9.2,10.462S1026.988-11322.721,1026.988-11327.794Z" transform="translate(-1019 11337)" stroke="rgba(0,0,0,0)" stroke-miterlimit="10" stroke-width="1" fill="url(#linear-gradient)"/>
      </g>
    </g>
  </g>
</svg>
