<svg xmlns="http://www.w3.org/2000/svg" xmlns:xlink="http://www.w3.org/1999/xlink" width="94" height="94" viewBox="0 0 94 94">
  <defs>
    <clipPath id="clip-ICO-asset-equity">
      <rect width="94" height="94"/>
    </clipPath>
  </defs>
  <g id="ICO-asset-equity" clip-path="url(#clip-ICO-asset-equity)">
    <g id="np_asset_6250488_000000" transform="translate(-2.499 -2.499)">
      <path id="Path_253" data-name="Path 253" d="M31.2,58.309c-.008-.039-.039-.066-.051-.105a1.422,1.422,0,0,0-.145-.3,1.531,1.531,0,0,0-.152-.227,1.574,1.574,0,0,0-.207-.187l-.023-.023c-.094-.059-.156-.121-.219-.152-.031-.012-.078-.023-.109-.031-.062-.023-.125-.051-.191-.07a1.48,1.48,0,0,0-.3-.059c-.035,0-.066-.016-.1-.02a.066.066,0,0,0-.02-.008c-.062,0-.125.031-.187.031h-.187a80.381,80.381,0,0,1-9.219,1.75c-.039.02-.074.039-.113.055l-.066.023a1.307,1.307,0,0,0-.3.105,1.466,1.466,0,0,0-.242.164c-.012.008-.02.02-.031.027a1.529,1.529,0,0,0-.184.156s0,.008-.008.016a1.466,1.466,0,0,0-.164.242,1.561,1.561,0,0,0-.1.2.726.726,0,0,0-.043.074c-.031.094-.031.188-.062.281,0,.094-.031.152-.031.215V79.688a1.547,1.547,0,0,0,1.563,1.563h9.375a1.547,1.547,0,0,0,1.563-1.562v-21c0-.062-.031-.125-.031-.187a.311.311,0,0,0-.012-.059.382.382,0,0,0,0-.133Z" fill="#0c71c3"/>
      <path id="Path_254" data-name="Path 254" d="M85.938,12.5a1.562,1.562,0,0,0-1.562,1.563V84.374H14.064a1.563,1.563,0,0,0,0,3.125H85.939A1.562,1.562,0,0,0,87.5,85.937V14.062A1.562,1.562,0,0,0,85.939,12.5Z" fill="#0c71c3"/>
      <path id="Path_255" data-name="Path 255" d="M62.406,43a.978.978,0,0,0-.156-.312.49.49,0,0,1-.059-.094.357.357,0,0,0-.035-.066.248.248,0,0,0-.051-.043l-.012-.012a.842.842,0,0,0-.25-.219.95.95,0,0,1-.219-.156c-.051-.016-.1-.023-.152-.035s-.086-.027-.133-.043a1.8,1.8,0,0,0-.32-.066c-.031,0-.055-.016-.086-.016h0c-.062,0-.121.031-.184.031-.121.031-.215.031-.309.063a.978.978,0,0,0-.312.156.49.49,0,0,1-.094.059.357.357,0,0,0-.066.035c-.848.676-1.742,1.293-2.617,1.934-1.082.785-2.172,1.547-3.293,2.277-1.082.7-2.16,1.418-3.273,2.063a.568.568,0,0,0-.113.1.153.153,0,0,1-.039.031l-.031.031a1.237,1.237,0,0,0-.2.18,1.221,1.221,0,0,0-.078.117,1.461,1.461,0,0,1-.1.113c-.035.09-.1.184-.129.277s-.031.219-.062.313c0,.063-.031.125-.031.188V79.687a1.547,1.547,0,0,0,1.563,1.563h9.375A1.547,1.547,0,0,0,62.5,79.687V43.5c0-.062-.031-.125-.031-.187-.031-.125-.031-.219-.062-.312Z" fill="#0c71c3"/>
      <path id="Path_256" data-name="Path 256" d="M76.562,31.25H71.906a1.11,1.11,0,0,1-.312.063c-.086.027-.172.059-.254.086-.008,0-.02,0-.027.008a1.293,1.293,0,0,0-.215.145.749.749,0,0,0-.086.07c-.066.043-.133.086-.2.133,0,.02-.012.027-.02.039l-.016.012c-.535.633-1.082,1.23-1.625,1.832-1.016,1.121-2.043,2.211-3.059,3.207a1.613,1.613,0,0,0-.125.191,1.52,1.52,0,0,0-.223.328,1.586,1.586,0,0,0-.121.6s0,0,0,.008V79.688a1.547,1.547,0,0,0,1.563,1.563h9.375a1.547,1.547,0,0,0,1.563-1.562V32.813a1.547,1.547,0,0,0-1.562-1.562Z" fill="#0c71c3"/>
      <path id="Path_257" data-name="Path 257" d="M46.734,52.547a.023.023,0,0,0,0-.016,1.454,1.454,0,0,0-.133-.184,1.569,1.569,0,0,0-.211-.289.61.61,0,0,0-.148-.1c-.039-.027-.07-.059-.113-.086-.023-.012-.059-.027-.086-.043a.761.761,0,0,0-.152-.094,1.081,1.081,0,0,0-.2-.039c-.055-.012-.1-.027-.16-.043a1.677,1.677,0,0,1-.2-.027c-.008,0-.016,0-.023,0h-.031a1.375,1.375,0,0,0-.312.063c-.094.031-.187.031-.281.063,0,0-.008.012-.012.012a.023.023,0,0,0-.016,0,93.18,93.18,0,0,1-9.219,3.66.5.5,0,0,0-.047.027,1.384,1.384,0,0,0-.285.164s-.008,0-.012.008h0a1.63,1.63,0,0,0-.219.145,1.461,1.461,0,0,0-.187.246,1.91,1.91,0,0,0-.16.234c-.008.02-.008.039-.016.059-.023.074-.047.145-.074.219a1.11,1.11,0,0,1-.062.313V79.688a1.547,1.547,0,0,0,1.563,1.563h9.375a1.547,1.547,0,0,0,1.563-1.562V53.157a1.375,1.375,0,0,0-.062-.312c-.031-.094-.031-.187-.062-.281,0-.016-.012-.012-.016-.016Z" fill="#0c71c3"/>
      <path id="Path_258" data-name="Path 258" d="M14.062,56.25c.375,0,36.9-.406,59.168-32.824l1.512,3.07a1.567,1.567,0,0,0,1.4.871,1.541,1.541,0,0,0,.688-.16,1.564,1.564,0,0,0,.711-2.094l-2.7-5.492c-.008-.012-.02-.02-.023-.031s0-.02-.008-.031c-.02-.035-.059-.051-.082-.082a1.545,1.545,0,0,0-1.176-.7c-.039,0-.074-.027-.113-.027h-6.25a1.563,1.563,0,0,0,0,3.125h3.34c-21.324,30.832-56.1,31.25-56.465,31.25a1.563,1.563,0,1,0,0,3.125Z" fill="#0c71c3"/>
      <path id="Path_259" data-name="Path 259" d="M29.688,46.875A17.188,17.188,0,1,0,12.5,29.687,17.218,17.218,0,0,0,29.688,46.875Zm0-15.625a4.68,4.68,0,0,1-1.562-9.094V20.313a1.562,1.562,0,0,1,3.125,0v1.844a4.7,4.7,0,0,1,3.125,4.406,1.563,1.563,0,0,1-3.125,0,1.563,1.563,0,1,0-1.562,1.563,4.68,4.68,0,0,1,1.563,9.094v1.844a1.563,1.563,0,0,1-3.125,0V37.219A4.7,4.7,0,0,1,25,32.813a1.562,1.562,0,0,1,3.125,0,1.563,1.563,0,1,0,1.563-1.562Z" fill="#0c71c3"/>
    </g>
  </g>
</svg>
