<svg xmlns="http://www.w3.org/2000/svg" xmlns:xlink="http://www.w3.org/1999/xlink" width="75" height="75" viewBox="0 0 75 75">
  <defs>
    <clipPath id="clip-path">
      <rect id="Rectangle_98" data-name="Rectangle 98" width="37.357" height="36.381" transform="translate(0 0)" fill="#0e71c3"/>
    </clipPath>
    <linearGradient id="linear-gradient" x1="0.5" y1="0.925" x2="0.5" y2="0.088" gradientUnits="objectBoundingBox">
      <stop offset="0" stop-color="#0a81e3"/>
      <stop offset="1" stop-color="#00c4ff"/>
    </linearGradient>
    <clipPath id="clip-ICO-cbor-timely-g">
      <rect width="75" height="75"/>
    </clipPath>
  </defs>
  <g id="ICO-cbor-timely-g" clip-path="url(#clip-ICO-cbor-timely-g)">
    <g id="Group_153" data-name="Group 153" transform="translate(18.821 19.31)">
      <g id="Group_152" data-name="Group 152" clip-path="url(#clip-path)">
        <path id="Union_6" data-name="Union 6" d="M1023.465-11188.665a16.364,16.364,0,0,1,13.88-18.519v-1.59c0-.064,0-.127,0-.188a2.134,2.134,0,0,1,2.223-2.037,2.133,2.133,0,0,1,2.034,2.226v1.539a16.369,16.369,0,0,1,14.262,13.93,16.366,16.366,0,0,1-13.882,18.52,16.53,16.53,0,0,1-2.339.167A16.366,16.366,0,0,1,1023.465-11188.665Zm4.125-2.338a12.09,12.09,0,0,0,12.09,12.09,12.1,12.1,0,0,0,12.09-12.09,12.088,12.088,0,0,0-12.09-12.087A12.088,12.088,0,0,0,1027.59-11191ZM1046-11189.2h-6.331a1.276,1.276,0,0,1-1.263-1.286v-9.972a1.272,1.272,0,0,1,1.277-1.274,1.275,1.275,0,0,1,1.275,1.274v8.7H1046a1.22,1.22,0,0,1,.146,0,1.278,1.278,0,0,1,1.2,1.351,1.277,1.277,0,0,1-1.273,1.206Zm-24.293-10.148a1.281,1.281,0,0,1-.566-1.72,21.032,21.032,0,0,1,5.579-6.575,1.278,1.278,0,0,1,1.792.22,1.28,1.28,0,0,1-.222,1.795,18.438,18.438,0,0,0-4.9,5.782,1.278,1.278,0,0,1-1.106.635A1.282,1.282,0,0,1,1021.7-11199.345Zm34.27-.5a18.484,18.484,0,0,0-4.9-5.782,1.279,1.279,0,0,1-.222-1.792,1.276,1.276,0,0,1,1.792-.223,21.1,21.1,0,0,1,5.579,6.575,1.277,1.277,0,0,1-.5,1.683,1.265,1.265,0,0,1-.641.174A1.278,1.278,0,0,1,1055.973-11199.843Z" transform="translate(-1021 11211)" stroke="rgba(0,0,0,0)" stroke-miterlimit="10" stroke-width="1" fill="url(#linear-gradient)"/>
      </g>
    </g>
  </g>
</svg>
