<svg xmlns="http://www.w3.org/2000/svg" xmlns:xlink="http://www.w3.org/1999/xlink" width="75" height="75" viewBox="0 0 75 75">
  <defs>
    <clipPath id="clip-path">
      <rect id="Rectangle_103" data-name="Rectangle 103" width="46.585" height="43.664" transform="translate(0 0)" fill="#0e71c3"/>
    </clipPath>
    <linearGradient id="linear-gradient" x1="0.5" x2="0.5" y2="1" gradientUnits="objectBoundingBox">
      <stop offset="0" stop-color="#00c4ff"/>
      <stop offset="1" stop-color="#0a81e3"/>
    </linearGradient>
    <clipPath id="clip-ICO-cbor-experience-g">
      <rect width="75" height="75"/>
    </clipPath>
  </defs>
  <g id="ICO-cbor-experience-g" clip-path="url(#clip-ICO-cbor-experience-g)">
    <g id="Group_163" data-name="Group 163" transform="translate(14.208 15.668)">
      <g id="Group_162" data-name="Group 162" clip-path="url(#clip-path)">
        <path id="Path_248" data-name="Path 248" d="M29.28,38.161A1.243,1.243,0,0,1,28.039,39.4H18.306a1.242,1.242,0,0,1-.05-2.483h9.783a1.242,1.242,0,0,1,1.241,1.241m-9.193,3.553a3.416,3.416,0,0,0,6.171,0l.5-1.04H19.59Zm7.172-8.631H19.1l.01,2.564h8.156ZM23.172,5.671A11.4,11.4,0,0,0,16.915,26.6a4.781,4.781,0,0,1,2.18,4.042l.005,1.17h8.154l0-1.166a4.753,4.753,0,0,1,2.18-4.048A11.4,11.4,0,0,0,23.172,5.671M36.475,28.1a1.363,1.363,0,0,0-1.928,1.927l3.27,3.271a1.363,1.363,0,0,0,1.928-1.928Zm-26.364,0-3.27,3.27A1.363,1.363,0,1,0,8.769,33.3l3.27-3.271A1.363,1.363,0,1,0,10.111,28.1M35.511,6a1.351,1.351,0,0,0,.964-.4l3.27-3.27A1.363,1.363,0,0,0,37.817.4l-3.27,3.27A1.363,1.363,0,0,0,35.511,6ZM45.2,15.488H40.572a1.364,1.364,0,1,0-.052,2.727H45.2a1.364,1.364,0,0,0,.052-2.727H45.2M7.378,16.851a1.364,1.364,0,0,0-1.364-1.363H1.39a1.364,1.364,0,1,0-.052,2.727H6.014a1.365,1.365,0,0,0,1.364-1.364M10.111,5.6a1.363,1.363,0,0,0,1.928-1.928L8.769.4A1.363,1.363,0,0,0,6.841,2.327Z" fill="url(#linear-gradient)"/>
      </g>
    </g>
  </g>
</svg>
