<svg xmlns="http://www.w3.org/2000/svg" xmlns:xlink="http://www.w3.org/1999/xlink" width="75" height="75" viewBox="0 0 75 75">
  <defs>
    <linearGradient id="linear-gradient" x1="0.861" y1="0.624" x2="0" y2="0.623" gradientUnits="objectBoundingBox">
      <stop offset="0" stop-color="#00c4ff"/>
      <stop offset="1" stop-color="#0a81e3"/>
    </linearGradient>
    <clipPath id="clip-ICO-cbor-informed-g">
      <rect width="75" height="75"/>
    </clipPath>
  </defs>
  <g id="ICO-cbor-informed-g" clip-path="url(#clip-ICO-cbor-informed-g)">
    <path id="np_chat_1790688_000000" d="M11.068,33.267a5.079,5.079,0,1,0,5.079-5.079,5.084,5.084,0,0,0-5.079,5.079Zm5.081,6.383c-6.207,0-11.021,3.692-11.021,6.869,0,3.6,5.3,4.092,11.021,4.092s11.021-.5,11.021-4.092C27.17,43.343,22.356,39.651,16.149,39.651Zm18.981-6.3A5.079,5.079,0,1,0,40.21,28.27a5.084,5.084,0,0,0-5.079,5.079Zm5.079,6.383c-6.207,0-11.021,3.692-11.021,6.869,0,3.6,5.3,4.092,11.021,4.092s11.021-.5,11.021-4.092C51.231,43.425,46.416,39.733,40.21,39.733Zm7.323-29.268H32.516a.662.662,0,0,0-.662.662v12a.663.663,0,0,0,.662.662h5.23l1.708,2.91a.66.66,0,0,0,1.14,0l1.708-2.91h5.23a.662.662,0,0,0,.662-.662v-12a.661.661,0,0,0-.66-.662ZM45.132,15l-5.781,5.781a.625.625,0,0,1-.883,0l-2.956-2.956a.621.621,0,0,1,0-.879l1.216-1.216a.621.621,0,0,1,.879,0l1.3,1.3L43.037,12.9a.621.621,0,0,1,.879,0l1.216,1.216a.621.621,0,0,1,0,.879ZM23.769,10.449H8.722a.663.663,0,0,0-.662.662V23.137a.662.662,0,0,0,.662.662h5.239l1.712,2.916a.664.664,0,0,0,1.144,0L18.529,23.8h5.239a.663.663,0,0,0,.662-.662V11.113a.663.663,0,0,0-.662-.664Zm-10.7,7.7a.421.421,0,0,1-.421.421H10.681a.421.421,0,0,1-.421-.421V16.18a.421.421,0,0,1,.421-.421h1.971a.421.421,0,0,1,.421.421Zm4.523.008a.421.421,0,0,1-.421.421H15.2a.421.421,0,0,1-.421-.421V16.188a.421.421,0,0,1,.421-.421h1.971a.421.421,0,0,1,.421.421Zm4.525-.008a.421.421,0,0,1-.421.421H19.729a.421.421,0,0,1-.421-.421V16.18a.421.421,0,0,1,.421-.421H21.7a.421.421,0,0,1,.421.421Z" transform="translate(9.32 6.929)" fill="url(#linear-gradient)"/>
  </g>
</svg>
