<svg xmlns="http://www.w3.org/2000/svg" xmlns:xlink="http://www.w3.org/1999/xlink" width="906" height="450" viewBox="0 0 906 450">
  <defs>
    <clipPath id="clip-path">
      <rect id="Rectangle_36" data-name="Rectangle 36" width="434.834" height="191.383" fill="none"/>
    </clipPath>
  </defs>
  <g id="Group_24" data-name="Group 24" transform="translate(-57 -147)">
    <rect id="Rectangle_12" data-name="Rectangle 12" width="906" height="450" transform="translate(57 147)" fill="#fff"/>
    <g id="Group_63" data-name="Group 63" transform="translate(290.036 277.236)">
      <g id="Group_63-2" data-name="Group 63" clip-path="url(#clip-path)">
        <path id="Path_226" data-name="Path 226" d="M670.9,366.216l.359-.411a2.659,2.659,0,0,0,1.8.719c.719,0,1.13-.359,1.13-.873,0-.462-.257-.77-1.335-.976-1.181-.257-1.746-.668-1.746-1.489s.719-1.386,1.694-1.386a2.634,2.634,0,0,1,1.8.616l-.359.462a2.173,2.173,0,0,0-1.489-.565c-.668,0-1.078.359-1.078.822s.257.77,1.386,1.027,1.695.668,1.695,1.438c0,.873-.719,1.438-1.746,1.438a3.182,3.182,0,0,1-2.105-.822" transform="translate(-326.391 -176.015)" fill="#005981"/>
        <path id="Path_227" data-name="Path 227" d="M680.7,361.8h.616l1.9,2.824,1.9-2.824h.616v5.186h-.565v-4.211l-1.9,2.773h-.051l-1.9-2.773v4.159h-.565V361.8Z" transform="translate(-331.158 -176.015)" fill="#005981"/>
        <rect id="Rectangle_32" data-name="Rectangle 32" width="7.857" height="35.791" transform="translate(107.014 20.746)" fill="#00b5df"/>
        <path id="Path_228" data-name="Path 228" d="M253.505,83.635V68.384a6.1,6.1,0,0,0-1.232-4.159,4.452,4.452,0,0,0-3.492-1.386,4.641,4.641,0,0,0-3.543,1.386,5.853,5.853,0,0,0-1.284,4.159V83.635H236.2V56.265h7.754v3.9c.462-.565.924-1.13,1.438-1.695a11.821,11.821,0,0,1,1.746-1.438,10.257,10.257,0,0,1,2.157-.976,8.619,8.619,0,0,1,2.67-.359,8.82,8.82,0,0,1,6.881,2.722c1.643,1.8,2.413,4.313,2.413,7.446V83.583h-7.754Z" transform="translate(-114.911 -27.098)" fill="#00b5df"/>
        <path id="Path_229" data-name="Path 229" d="M305.086,77.6a11.71,11.71,0,0,1-3.44.411,12.742,12.742,0,0,1-3.235-.359,6.258,6.258,0,0,1-2.516-1.335,6.7,6.7,0,0,1-1.643-2.516,10.925,10.925,0,0,1-.565-3.954V56.808H290.4V50.184h3.286V43.2h7.754v6.984h6.419v6.624H301.44V68.516c0,1.8.822,2.67,2.516,2.67a7.81,7.81,0,0,0,3.851-.976v6.213a11.791,11.791,0,0,1-2.722,1.181" transform="translate(-141.279 -21.017)" fill="#00b5df"/>
        <path id="Path_230" data-name="Path 230" d="M355.756,71.621c0,.257-.051.616-.051.976H336.6a6.271,6.271,0,0,0,2.311,4.005,6.8,6.8,0,0,0,4.365,1.335,8.474,8.474,0,0,0,3.492-.668,13.41,13.41,0,0,0,3.184-2.157l4.467,3.954a13.432,13.432,0,0,1-4.724,3.749,15,15,0,0,1-6.47,1.335,15.837,15.837,0,0,1-5.7-1.027,12.924,12.924,0,0,1-4.57-2.927,13.9,13.9,0,0,1-2.978-4.467,14.719,14.719,0,0,1-1.078-5.751v-.1a14.91,14.91,0,0,1,.976-5.494,14.727,14.727,0,0,1,2.773-4.57,13.549,13.549,0,0,1,4.262-3.081,12.831,12.831,0,0,1,5.495-1.13,13.563,13.563,0,0,1,5.957,1.232,11.5,11.5,0,0,1,4.159,3.286,13.216,13.216,0,0,1,2.465,4.776,20.185,20.185,0,0,1,.77,5.6v1.13Zm-9.4-8.062a5.706,5.706,0,0,0-7.908,0,7.841,7.841,0,0,0-1.951,4.262h11.708a7.759,7.759,0,0,0-1.849-4.262" transform="translate(-160.009 -27.049)" fill="#00b5df"/>
        <path id="Path_231" data-name="Path 231" d="M405.024,63.853a7.97,7.97,0,0,0-6.111,2.362c-1.489,1.592-2.208,4.005-2.208,7.292V83.622H388.9V56.253h7.754v5.494a11.359,11.359,0,0,1,3.235-4.519,7.85,7.85,0,0,1,5.546-1.541V63.8h-.411Z" transform="translate(-189.199 -27.086)" fill="#00b5df"/>
        <path id="Path_232" data-name="Path 232" d="M443.505,83.635V68.384a6.1,6.1,0,0,0-1.232-4.159,4.452,4.452,0,0,0-3.492-1.386,4.641,4.641,0,0,0-3.543,1.386,5.853,5.853,0,0,0-1.284,4.159V83.635H426.2V56.265h7.754v3.9c.462-.565.924-1.13,1.438-1.695a11.822,11.822,0,0,1,1.746-1.438,10.257,10.257,0,0,1,2.157-.976,8.619,8.619,0,0,1,2.67-.359,8.819,8.819,0,0,1,6.881,2.722c1.643,1.8,2.413,4.313,2.413,7.446V83.583h-7.754Z" transform="translate(-207.345 -27.098)" fill="#00b5df"/>
        <path id="Path_233" data-name="Path 233" d="M499.365,83.829V80.851a10.457,10.457,0,0,1-3.44,2.516,11.484,11.484,0,0,1-4.878.924,12.038,12.038,0,0,1-3.646-.513,8.307,8.307,0,0,1-2.978-1.592,7.151,7.151,0,0,1-2-2.619,8.035,8.035,0,0,1-.719-3.595v-.1a8.56,8.56,0,0,1,.822-3.9,7.745,7.745,0,0,1,2.259-2.722,9.943,9.943,0,0,1,3.492-1.592,17.224,17.224,0,0,1,4.467-.514,18.946,18.946,0,0,1,3.646.308,20.29,20.29,0,0,1,3.03.822v-.462a4.758,4.758,0,0,0-1.489-3.749,6.48,6.48,0,0,0-4.416-1.284,18.211,18.211,0,0,0-3.954.359,28.077,28.077,0,0,0-3.595,1.078l-1.951-5.905a28.372,28.372,0,0,1,4.724-1.592,24.685,24.685,0,0,1,5.957-.616c4.262,0,7.343,1.027,9.294,3.132,1.951,2.054,2.927,4.981,2.927,8.678V83.778h-7.549Zm.154-11.04a9.712,9.712,0,0,0-2.259-.719,11.228,11.228,0,0,0-2.67-.257,6.83,6.83,0,0,0-3.954.976,3.184,3.184,0,0,0-1.438,2.824v.1a2.951,2.951,0,0,0,1.181,2.465,5.1,5.1,0,0,0,3.081.873,6.862,6.862,0,0,0,4.416-1.335,4.168,4.168,0,0,0,1.643-3.492Z" transform="translate(-234.346 -27.292)" fill="#00b5df"/>
        <path id="Path_234" data-name="Path 234" d="M550.586,77.6a11.711,11.711,0,0,1-3.44.411,12.742,12.742,0,0,1-3.235-.359,6.257,6.257,0,0,1-2.516-1.335,6.7,6.7,0,0,1-1.643-2.516,10.925,10.925,0,0,1-.565-3.954V56.808H535.9V50.184h3.286V43.2h7.754v6.984h6.419v6.624H546.94V68.516c0,1.8.822,2.67,2.516,2.67a7.81,7.81,0,0,0,3.851-.976v6.213a11.794,11.794,0,0,1-2.722,1.181" transform="translate(-260.714 -21.017)" fill="#00b5df"/>
        <path id="Path_235" data-name="Path 235" d="M578.1,37.5h8.165v6.881H578.1Zm.205,9.911h7.754V74.78h-7.754Z" transform="translate(-281.244 -18.244)" fill="#00b5df"/>
        <path id="Path_236" data-name="Path 236" d="M629.8,75.621a13.988,13.988,0,0,1-3.132,4.519,15.081,15.081,0,0,1-10.681,4.211,16.082,16.082,0,0,1-5.905-1.078,13.861,13.861,0,0,1-4.673-3.03A14.093,14.093,0,0,1,601.2,70.178v-.1a13.566,13.566,0,0,1,1.13-5.546,14.562,14.562,0,0,1,3.132-4.519A15.081,15.081,0,0,1,616.143,55.8a16.082,16.082,0,0,1,5.905,1.078,13.862,13.862,0,0,1,4.673,3.03,13.1,13.1,0,0,1,3.081,4.519,13.568,13.568,0,0,1,1.13,5.546v.1a14.463,14.463,0,0,1-1.13,5.546m-6.573-5.546a7.533,7.533,0,0,0-.513-2.876,7.14,7.14,0,0,0-3.8-4.057,6.79,6.79,0,0,0-2.927-.616,7.7,7.7,0,0,0-2.978.565,6.956,6.956,0,0,0-2.208,1.592,6.832,6.832,0,0,0-1.386,2.362,8.879,8.879,0,0,0-.462,2.876v.1a7.533,7.533,0,0,0,.513,2.876,7.314,7.314,0,0,0,1.489,2.413,7.1,7.1,0,0,0,2.259,1.643,6.79,6.79,0,0,0,2.927.616,7.7,7.7,0,0,0,2.978-.565,6.957,6.957,0,0,0,2.208-1.592,6.832,6.832,0,0,0,1.386-2.362,8.879,8.879,0,0,0,.462-2.876v-.1Z" transform="translate(-292.482 -27.147)" fill="#00b5df"/>
        <path id="Path_237" data-name="Path 237" d="M683.805,83.635V68.384a6.1,6.1,0,0,0-1.232-4.159,4.452,4.452,0,0,0-3.492-1.386,4.641,4.641,0,0,0-3.543,1.386,5.853,5.853,0,0,0-1.284,4.159V83.635H666.5V56.265h7.754v3.9c.462-.565.924-1.13,1.438-1.695a11.821,11.821,0,0,1,1.746-1.438,10.259,10.259,0,0,1,2.157-.976,8.619,8.619,0,0,1,2.67-.359,8.82,8.82,0,0,1,6.881,2.722c1.643,1.8,2.413,4.313,2.413,7.446V83.583h-7.754Z" transform="translate(-324.25 -27.098)" fill="#00b5df"/>
        <path id="Path_238" data-name="Path 238" d="M739.765,83.829V80.851a10.457,10.457,0,0,1-3.44,2.516,11.484,11.484,0,0,1-4.878.924,12.038,12.038,0,0,1-3.646-.513,8.306,8.306,0,0,1-2.978-1.592,7.152,7.152,0,0,1-2-2.619,8.035,8.035,0,0,1-.719-3.595v-.1a8.56,8.56,0,0,1,.822-3.9,7.745,7.745,0,0,1,2.259-2.722,9.943,9.943,0,0,1,3.492-1.592,17.223,17.223,0,0,1,4.467-.514,18.946,18.946,0,0,1,3.646.308,20.29,20.29,0,0,1,3.03.822v-.462a4.759,4.759,0,0,0-1.489-3.749,6.48,6.48,0,0,0-4.416-1.284,18.211,18.211,0,0,0-3.954.359,28.072,28.072,0,0,0-3.594,1.078l-1.951-5.905a28.374,28.374,0,0,1,4.724-1.592,24.686,24.686,0,0,1,5.957-.616c4.262,0,7.343,1.027,9.294,3.132,1.951,2.054,2.927,4.981,2.927,8.678V83.778h-7.549Zm.154-11.04a9.711,9.711,0,0,0-2.259-.719,11.228,11.228,0,0,0-2.67-.257,6.83,6.83,0,0,0-3.954.976,3.184,3.184,0,0,0-1.438,2.824v.1a2.951,2.951,0,0,0,1.181,2.465,5.1,5.1,0,0,0,3.081.873,6.862,6.862,0,0,0,4.416-1.335,4.168,4.168,0,0,0,1.643-3.492Z" transform="translate(-351.299 -27.292)" fill="#00b5df"/>
        <rect id="Rectangle_33" data-name="Rectangle 33" width="7.754" height="37.28" transform="translate(401.251 19.256)" fill="#00b5df"/>
        <path id="Path_239" data-name="Path 239" d="M221.543,136.992v28.5h-7.857v-28.5H202.8V129.7h29.68v7.24H221.543Z" transform="translate(-98.662 -63.099)" fill="#005981"/>
        <path id="Path_240" data-name="Path 240" d="M283.4,164.821a13.988,13.988,0,0,1-3.132,4.519,15.082,15.082,0,0,1-10.681,4.211,16.083,16.083,0,0,1-5.905-1.078,13.861,13.861,0,0,1-4.673-3.03,14.093,14.093,0,0,1-4.211-10.065v-.1a13.567,13.567,0,0,1,1.13-5.546,14.563,14.563,0,0,1,3.132-4.519A15.082,15.082,0,0,1,269.743,145a16.082,16.082,0,0,1,5.905,1.078,13.861,13.861,0,0,1,4.673,3.03,13.1,13.1,0,0,1,3.081,4.519,13.567,13.567,0,0,1,1.13,5.546v.1a14.078,14.078,0,0,1-1.13,5.546m-6.573-5.546a7.535,7.535,0,0,0-.514-2.876,7.14,7.14,0,0,0-3.8-4.057,6.79,6.79,0,0,0-2.927-.616,7.7,7.7,0,0,0-2.978.565,6.957,6.957,0,0,0-2.208,1.592,6.834,6.834,0,0,0-1.386,2.362,8.881,8.881,0,0,0-.462,2.876v.1a7.535,7.535,0,0,0,.513,2.876,7.314,7.314,0,0,0,1.489,2.413,7.1,7.1,0,0,0,2.259,1.643,6.79,6.79,0,0,0,2.927.616,7.7,7.7,0,0,0,2.978-.565,6.956,6.956,0,0,0,2.208-1.592,6.834,6.834,0,0,0,1.386-2.362,8.882,8.882,0,0,0,.462-2.876v-.1Z" transform="translate(-123.959 -70.542)" fill="#005981"/>
        <path id="Path_241" data-name="Path 241" d="M336.173,153.153a7.97,7.97,0,0,0-6.111,2.362c-1.489,1.592-2.208,4.005-2.208,7.292v10.116H320.1v-27.37h7.754v5.494a11.358,11.358,0,0,1,3.235-4.519,7.85,7.85,0,0,1,5.546-1.541V153.1h-.462Z" transform="translate(-155.728 -70.53)" fill="#005981"/>
        <path id="Path_242" data-name="Path 242" d="M376.1,172.164a13.792,13.792,0,0,1-6.624,1.386,14.337,14.337,0,0,1-10.219-4.159,13.583,13.583,0,0,1-2.978-4.519,13.982,13.982,0,0,1-1.078-5.494v-.1a13.982,13.982,0,0,1,1.078-5.494,14.35,14.35,0,0,1,2.978-4.57,14.69,14.69,0,0,1,4.519-3.081,14.269,14.269,0,0,1,5.8-1.13A14.747,14.747,0,0,1,376,146.232a15.139,15.139,0,0,1,4.519,3.389l-4.776,5.135a13.18,13.18,0,0,0-2.722-2.208,6.636,6.636,0,0,0-3.492-.822,6.366,6.366,0,0,0-2.67.565,7.127,7.127,0,0,0-2.105,1.592,6.834,6.834,0,0,0-1.386,2.362,8.881,8.881,0,0,0-.462,2.876v.1a9.285,9.285,0,0,0,.462,2.978,6.609,6.609,0,0,0,1.386,2.413,6.248,6.248,0,0,0,2.208,1.592,6.543,6.543,0,0,0,2.876.565,7.172,7.172,0,0,0,3.389-.77A13.258,13.258,0,0,0,376.1,163.9l4.57,4.622a19.3,19.3,0,0,1-4.57,3.646" transform="translate(-172.804 -70.542)" fill="#005981"/>
        <path id="Path_243" data-name="Path 243" d="M427.805,164.08V148.829a6.1,6.1,0,0,0-1.232-4.159,4.452,4.452,0,0,0-3.492-1.386,4.641,4.641,0,0,0-3.543,1.386,5.853,5.853,0,0,0-1.284,4.159V164.08H410.5V126.8h7.754v13.813c.462-.565.924-1.13,1.438-1.695a11.821,11.821,0,0,1,1.746-1.438,10.258,10.258,0,0,1,2.157-.976,8.619,8.619,0,0,1,2.67-.359,8.819,8.819,0,0,1,6.881,2.722c1.643,1.8,2.413,4.313,2.413,7.446v17.716h-7.754Z" transform="translate(-199.707 -61.688)" fill="#005981"/>
        <path id="Path_244" data-name="Path 244" d="M523.632,165.248l-3.286-8.011H505.2l-3.286,8.011H493.9L509.254,129.2h7.24l15.354,36.048ZM512.8,138.7,508.021,150.3h9.5Z" transform="translate(-240.281 -62.855)" fill="#005981"/>
        <path id="Path_245" data-name="Path 245" d="M598.218,173.578h-6.984l-5.289-16.792-5.392,16.792h-6.932L565.2,146h7.857l4.416,16.586,5.186-16.689h6.676l5.238,16.74L599.091,146h7.7Z" transform="translate(-274.968 -70.98)" fill="#005981"/>
        <path id="Path_246" data-name="Path 246" d="M664.465,173.129v-2.978a10.458,10.458,0,0,1-3.441,2.516,11.484,11.484,0,0,1-4.878.924,12.038,12.038,0,0,1-3.646-.514,8.306,8.306,0,0,1-2.978-1.592,7.152,7.152,0,0,1-2-2.619,8.035,8.035,0,0,1-.719-3.595v-.1a8.56,8.56,0,0,1,.822-3.9,7.745,7.745,0,0,1,2.259-2.722,9.943,9.943,0,0,1,3.492-1.592,17.224,17.224,0,0,1,4.467-.513,18.946,18.946,0,0,1,3.646.308,20.287,20.287,0,0,1,3.03.822v-.462a4.758,4.758,0,0,0-1.489-3.749,6.481,6.481,0,0,0-4.416-1.284,18.211,18.211,0,0,0-3.954.359,28.077,28.077,0,0,0-3.594,1.078l-1.951-5.905a28.374,28.374,0,0,1,4.724-1.592,24.686,24.686,0,0,1,5.957-.616c4.262,0,7.343,1.027,9.294,3.132,1.951,2.054,2.927,4.981,2.927,8.678v15.867h-7.548Zm.154-11.04a9.711,9.711,0,0,0-2.259-.719,11.228,11.228,0,0,0-2.67-.257,6.83,6.83,0,0,0-3.954.976,3.185,3.185,0,0,0-1.438,2.824v.1a2.951,2.951,0,0,0,1.181,2.465,5.1,5.1,0,0,0,3.081.873,6.862,6.862,0,0,0,4.416-1.335,4.168,4.168,0,0,0,1.643-3.492Z" transform="translate(-314.666 -70.737)" fill="#005981"/>
        <path id="Path_247" data-name="Path 247" d="M721.873,153.153a7.97,7.97,0,0,0-6.111,2.362c-1.489,1.592-2.208,4.005-2.208,7.292v10.116H705.8v-27.37h7.754v5.494a11.358,11.358,0,0,1,3.235-4.519,7.85,7.85,0,0,1,5.546-1.541V153.1h-.462Z" transform="translate(-343.369 -70.53)" fill="#005981"/>
        <path id="Path_248" data-name="Path 248" d="M762.1,164.032v-3.9a12.664,12.664,0,0,1-3.441,3.184,9.558,9.558,0,0,1-5.084,1.232A12.042,12.042,0,0,1,744.9,160.9a12.68,12.68,0,0,1-2.773-4.467,15.783,15.783,0,0,1-1.027-6.059v-.1a17.025,17.025,0,0,1,1.027-6.059,14.971,14.971,0,0,1,2.773-4.467,10.929,10.929,0,0,1,3.954-2.722,12.3,12.3,0,0,1,4.724-.924,9.749,9.749,0,0,1,5.135,1.232,14.175,14.175,0,0,1,3.389,2.824V126.7h7.754v37.28H762.1Zm.1-13.762a8.915,8.915,0,0,0-.513-3.132,7.537,7.537,0,0,0-1.438-2.413,6.354,6.354,0,0,0-4.673-2.105,6.067,6.067,0,0,0-2.568.565,6.2,6.2,0,0,0-2.105,1.54,7.535,7.535,0,0,0-1.438,2.413,8.531,8.531,0,0,0-.513,3.132v.1a8.912,8.912,0,0,0,.513,3.132,7.535,7.535,0,0,0,1.438,2.413,6.742,6.742,0,0,0,2.105,1.541,6.245,6.245,0,0,0,2.568.565,5.384,5.384,0,0,0,2.568-.565,6.2,6.2,0,0,0,2.105-1.541,7.537,7.537,0,0,0,1.438-2.413,8.721,8.721,0,0,0,.513-3.132Z" transform="translate(-360.543 -61.639)" fill="#005981"/>
        <path id="Path_249" data-name="Path 249" d="M824.913,168.716a7.193,7.193,0,0,1-2.208,2.722,10.053,10.053,0,0,1-3.338,1.592,15.267,15.267,0,0,1-4.108.514,19.073,19.073,0,0,1-11.759-4.108l3.338-5.135a19.359,19.359,0,0,0,4.468,2.465,11.711,11.711,0,0,0,4.159.822,4.36,4.36,0,0,0,2.465-.565,1.74,1.74,0,0,0,.77-1.489v-.1a1.478,1.478,0,0,0-.462-1.078,3.617,3.617,0,0,0-1.232-.77c-.513-.205-1.13-.411-1.8-.616s-1.386-.411-2.157-.668c-.976-.257-1.9-.616-2.876-.976a10.993,10.993,0,0,1-2.619-1.541,6.8,6.8,0,0,1-2.619-5.7v-.1a8.5,8.5,0,0,1,.77-3.7,7.475,7.475,0,0,1,2.157-2.722,8.639,8.639,0,0,1,3.184-1.695,13.785,13.785,0,0,1,3.9-.565,17.452,17.452,0,0,1,5.289.822,19.746,19.746,0,0,1,4.93,2.311l-2.978,5.34a25.144,25.144,0,0,0-4.005-1.849,10.137,10.137,0,0,0-3.44-.668,3.518,3.518,0,0,0-2.157.514,1.684,1.684,0,0,0-.719,1.335v.1a1.265,1.265,0,0,0,.462.976,4.673,4.673,0,0,0,1.232.822,11.192,11.192,0,0,0,1.746.719c.668.257,1.386.462,2.105.719q1.463.462,2.927,1.078a11.338,11.338,0,0,1,2.67,1.54,8.271,8.271,0,0,1,1.951,2.259,6.286,6.286,0,0,1,.77,3.235v.1a10.339,10.339,0,0,1-.822,4.057" transform="translate(-390.9 -70.688)" fill="#005981"/>
        <path id="Path_250" data-name="Path 250" d="M208.111,238.908h-2.465l.616-2.362h2.465l.565-2.157a7.576,7.576,0,0,1,2.259-4.005A5.724,5.724,0,0,1,215.4,229.1a7.382,7.382,0,0,1,3.543.77l-.616,2.259a6.727,6.727,0,0,0-1.489-.565,6.634,6.634,0,0,0-1.489-.154,3.1,3.1,0,0,0-2.208.822,5.089,5.089,0,0,0-1.386,2.568l-.462,1.746h5.957l-.668,2.362h-5.8l-4.211,15.508H203.9Z" transform="translate(-99.197 -111.456)" fill="#00b5df"/>
        <path id="Path_251" data-name="Path 251" d="M232.976,261.024a7.467,7.467,0,0,1-2.567-1.695,6.9,6.9,0,0,1-1.643-2.516,9.218,9.218,0,0,1-.565-3.184,9.1,9.1,0,0,1,.873-4.005,11.185,11.185,0,0,1,5.6-5.751,9.927,9.927,0,0,1,4.057-.873,8.778,8.778,0,0,1,3.338.616,8.166,8.166,0,0,1,2.568,1.643,6.9,6.9,0,0,1,1.643,2.516,8.156,8.156,0,0,1,.565,3.184,9.927,9.927,0,0,1-.873,4.057,11.029,11.029,0,0,1-2.311,3.389,11.443,11.443,0,0,1-3.338,2.311,9.852,9.852,0,0,1-7.343.308m6.367-2.516a8.452,8.452,0,0,0,2.465-1.8,8.828,8.828,0,0,0,1.695-2.619,7.859,7.859,0,0,0,.616-3.081,5.234,5.234,0,0,0-5.6-5.7,6.486,6.486,0,0,0-2.927.719,7.763,7.763,0,0,0-2.413,1.849,9.815,9.815,0,0,0-1.643,2.619,7.8,7.8,0,0,0-.616,3.03,5.234,5.234,0,0,0,5.6,5.7,6.967,6.967,0,0,0,2.824-.719" transform="translate(-111.019 -118.219)" fill="#00b5df"/>
        <path id="Path_252" data-name="Path 252" d="M272.524,243.344h2.67l-1.232,4.673a18.1,18.1,0,0,1,1.746-2.105,9.748,9.748,0,0,1,2-1.592,7.929,7.929,0,0,1,2.259-.976,8.067,8.067,0,0,1,2.516-.257l-.77,2.876h-.154a7.906,7.906,0,0,0-2.876.514,8.382,8.382,0,0,0-2.67,1.592,9.711,9.711,0,0,0-2.157,2.568,13.876,13.876,0,0,0-1.489,3.543l-1.9,7.035H267.8Z" transform="translate(-130.284 -118.255)" fill="#00b5df"/>
        <path id="Path_253" data-name="Path 253" d="M326.6,247.994V215.9h24.186v6.265h-17.2v6.521h15.148v6.265H333.584v6.727h17.408v6.265H326.6Z" transform="translate(-158.89 -105.035)" fill="#00b5df"/>
        <path id="Path_254" data-name="Path 254" d="M391.2,249.262a10.917,10.917,0,0,1-3.081.411,10.391,10.391,0,0,1-2.927-.359,5.116,5.116,0,0,1-2.259-1.232,5.987,5.987,0,0,1-1.489-2.259,9.942,9.942,0,0,1-.513-3.543V230.621H378v-5.957h2.927V218.4h6.984v6.265h5.8v5.957h-5.8V241.1c0,1.592.77,2.362,2.259,2.362a7.284,7.284,0,0,0,3.44-.873v5.6a9.347,9.347,0,0,1-2.413,1.078" transform="translate(-183.896 -106.251)" fill="#00b5df"/>
        <path id="Path_255" data-name="Path 255" d="M431.759,246.68V233.021a5.723,5.723,0,0,0-1.078-3.749,3.987,3.987,0,0,0-3.132-1.232,4.177,4.177,0,0,0-3.184,1.232,5.376,5.376,0,0,0-1.181,3.749V246.68H416.2V213.2h6.984v12.427a17.8,17.8,0,0,1,1.284-1.489,9.681,9.681,0,0,1,1.592-1.284,7.516,7.516,0,0,1,1.951-.873,8.487,8.487,0,0,1,2.362-.308,7.891,7.891,0,0,1,6.162,2.413,9.753,9.753,0,0,1,2.157,6.676V246.68Z" transform="translate(-202.48 -103.721)" fill="#00b5df"/>
        <path id="Path_256" data-name="Path 256" d="M468.8,213.2h7.343v6.213H468.8Zm.205,8.935h6.984V246.68h-6.984Z" transform="translate(-228.07 -103.721)" fill="#00b5df"/>
        <path id="Path_257" data-name="Path 257" d="M508.294,253.94a12.492,12.492,0,0,1-5.957,1.284A13.1,13.1,0,0,1,497.2,254.2a12.519,12.519,0,0,1-4.057-2.722,12.961,12.961,0,0,1-2.67-4.057,12.245,12.245,0,0,1-.976-4.93v-.1a12.245,12.245,0,0,1,.976-4.93,12.961,12.961,0,0,1,2.67-4.057,12.646,12.646,0,0,1,4.057-2.773,13.164,13.164,0,0,1,5.186-1.027,13.774,13.774,0,0,1,5.8,1.078,12.923,12.923,0,0,1,4.057,3.03l-4.262,4.57a9.587,9.587,0,0,0-2.465-1.951,5.9,5.9,0,0,0-3.132-.719,5.359,5.359,0,0,0-2.413.514,6.067,6.067,0,0,0-3.132,3.595,7.274,7.274,0,0,0-.411,2.568v.1a9.08,9.08,0,0,0,.411,2.67,6.508,6.508,0,0,0,1.284,2.157,6.626,6.626,0,0,0,1.951,1.438,6.041,6.041,0,0,0,2.568.513,6.29,6.29,0,0,0,3.03-.719,12.261,12.261,0,0,0,2.567-1.9l4.108,4.108a13.157,13.157,0,0,1-4.057,3.286" transform="translate(-238.14 -111.7)" fill="#00b5df"/>
        <path id="Path_258" data-name="Path 258" d="M556.256,250.8a6.649,6.649,0,0,1-2,2.465,9.2,9.2,0,0,1-3.03,1.438,14.3,14.3,0,0,1-3.7.462,16.89,16.89,0,0,1-10.527-3.7l2.978-4.57a17.284,17.284,0,0,0,4.005,2.208,10.283,10.283,0,0,0,3.749.719,3.591,3.591,0,0,0,2.208-.514,1.614,1.614,0,0,0,.719-1.335v-.1a1.5,1.5,0,0,0-.411-.976,3.894,3.894,0,0,0-1.13-.719,10.191,10.191,0,0,0-1.643-.565c-.616-.205-1.232-.359-1.951-.616-.873-.257-1.695-.565-2.568-.873a9.85,9.85,0,0,1-2.362-1.386,6.355,6.355,0,0,1-2.362-5.135v-.1a7.769,7.769,0,0,1,.719-3.338A7.053,7.053,0,0,1,540.9,231.7a7.844,7.844,0,0,1,2.824-1.489,11.049,11.049,0,0,1,3.492-.514,15.407,15.407,0,0,1,4.724.77,16.667,16.667,0,0,1,4.416,2.105l-2.67,4.827a20.526,20.526,0,0,0-3.594-1.695,9.6,9.6,0,0,0-3.081-.616,3.423,3.423,0,0,0-1.951.462,1.464,1.464,0,0,0-.616,1.232v.1a1.176,1.176,0,0,0,.411.873,3.58,3.58,0,0,0,1.078.719,16.612,16.612,0,0,0,1.592.668c.616.205,1.232.411,1.9.616a27.061,27.061,0,0,1,2.619.976,10.593,10.593,0,0,1,2.362,1.386,7.225,7.225,0,0,1,1.746,2,5.545,5.545,0,0,1,.667,2.876v.1a6.787,6.787,0,0,1-.565,3.7" transform="translate(-261.249 -111.748)" fill="#00b5df"/>
        <path id="Path_259" data-name="Path 259" d="M85.845,174.6H31l-2,6.521H43.635l2.773,9.038H70.44l2.773-9.038H87.8Z" transform="translate(-14.108 -84.942)" fill="#005981"/>
        <path id="Path_260" data-name="Path 260" d="M47.946,93.851a12.713,12.713,0,0,0-2.311,9.654,13.107,13.107,0,0,0,5.186,8.473l13.094,9.551a3.08,3.08,0,0,1,1.284,2.105,3.118,3.118,0,0,1-.565,2.413l1.951,1.438,6.932-9.551a12.794,12.794,0,0,0,2.465-7.6,13.828,13.828,0,0,0-.154-2.054,13.107,13.107,0,0,0-5.186-8.473L57.549,90.257a3.08,3.08,0,0,1-1.284-2.105,1.747,1.747,0,0,1-.051-.514,3.227,3.227,0,0,1,.616-1.9L54.878,84.3Z" transform="translate(-22.117 -41.012)" fill="#005981"/>
        <path id="Path_261" data-name="Path 261" d="M62.295,14.532A18.627,18.627,0,0,0,58.7,25.521a19.436,19.436,0,0,0,.257,2.978,18.509,18.509,0,0,0,7.548,12.273L82.989,52.737a10.278,10.278,0,0,1,4.057,6.573,8.3,8.3,0,0,1,.1,1.592,10.236,10.236,0,0,1-1.9,5.905l1.592,1.13L99.832,49.964a18.781,18.781,0,0,0-4.211-26.24L75.7,9.243a5.93,5.93,0,0,1-2.311-3.8A5.6,5.6,0,0,1,74.413,1.13L72.821,0Z" transform="translate(-28.557)" fill="#005981"/>
        <path id="Path_262" data-name="Path 262" d="M15.456,241.686c3.132,0,5.032-1.13,5.032-3.492v-.1c0-2.157-1.643-3.492-5.289-3.492H6.984v7.138h8.473Zm-1.9-12.992c3.132,0,5.135-1.027,5.135-3.44v-.1c0-2.105-1.643-3.338-4.673-3.338H6.984v6.83h6.573ZM.051,215.6H15.046c3.7,0,6.624,1.027,8.473,2.876a7.393,7.393,0,0,1,2.208,5.494v.1a7.534,7.534,0,0,1-4.262,6.984c3.749,1.438,6.059,3.595,6.059,7.959v.1c0,5.905-4.827,8.884-12.119,8.884H0V215.6Z" transform="translate(0 -104.889)" fill="#005981"/>
        <path id="Path_263" data-name="Path 263" d="M75.056,241.686c3.132,0,5.032-1.13,5.032-3.492v-.1c0-2.157-1.592-3.492-5.289-3.492H66.584v7.138h8.473Zm-1.9-12.992c3.132,0,5.135-1.027,5.135-3.44v-.1c0-2.105-1.643-3.338-4.673-3.338H66.584v6.83h6.573ZM59.651,215.6H74.646c3.7,0,6.624,1.027,8.473,2.876a7.393,7.393,0,0,1,2.208,5.494v.1a7.534,7.534,0,0,1-4.262,6.984c3.749,1.438,6.059,3.595,6.059,7.959v.1c0,5.905-4.827,8.884-12.119,8.884H59.6V215.6Z" transform="translate(-28.995 -104.889)" fill="#005981"/>
        <path id="Path_264" data-name="Path 264" d="M134.605,241.686c3.132,0,5.032-1.13,5.032-3.492v-.1c0-2.157-1.643-3.492-5.289-3.492h-8.216v7.138h8.473Zm-1.849-12.992c3.132,0,5.135-1.027,5.135-3.44v-.1c0-2.105-1.643-3.338-4.673-3.338h-7.035v6.83h6.573ZM119.251,215.6h14.994c3.7,0,6.624,1.027,8.473,2.876a7.393,7.393,0,0,1,2.208,5.494v.1a7.534,7.534,0,0,1-4.262,6.984c3.749,1.438,6.059,3.595,6.059,7.959v.1c0,5.905-4.827,8.884-12.119,8.884H119.2V215.6Z" transform="translate(-57.99 -104.889)" fill="#005981"/>
        <rect id="Rectangle_34" data-name="Rectangle 34" width="434.526" height="1.181" transform="translate(0.051 155.9)" fill="#005981"/>
        <path id="Path_265" data-name="Path 265" d="M190.605,338.03l-3.7-2.568c2.362-2.773,4.673-4.262,8.935-4.262,5.084,0,8.267,2.516,8.267,6.419,0,3.44-2.054,5.186-6.316,8.062l-3.9,2.619h10.475v3.954H186.6v-3.595l7.959-5.649c2.978-2.105,4.159-3.235,4.159-4.981s-1.335-2.67-3.235-2.67c-1.849-.1-3.132.77-4.878,2.67" transform="translate(-90.78 -161.128)" fill="#005981"/>
        <path id="Path_266" data-name="Path 266" d="M237.83,352.413c-6.419,0-10.63-4.622-10.63-10.681A10.343,10.343,0,0,1,237.881,331c6.419,0,10.63,4.622,10.63,10.681a10.285,10.285,0,0,1-10.681,10.732m0-17.305c-3.184,0-5.186,2.773-5.186,6.573s2.105,6.624,5.289,6.624,5.186-2.773,5.186-6.573-2.105-6.624-5.289-6.624" transform="translate(-110.532 -161.03)" fill="#005981"/>
        <path id="Path_267" data-name="Path 267" d="M277.305,338.03l-3.7-2.568c2.362-2.773,4.673-4.262,8.935-4.262,5.084,0,8.267,2.516,8.267,6.419,0,3.44-2.054,5.186-6.316,8.062l-3.9,2.619h10.475v3.954H273.3v-3.595l7.959-5.649c2.978-2.105,4.159-3.235,4.159-4.981s-1.335-2.67-3.235-2.67c-1.8-.1-3.081.77-4.878,2.67" transform="translate(-132.96 -161.128)" fill="#005981"/>
        <path id="Path_268" data-name="Path 268" d="M314.786,335.6v-3.9h16.227v3.44l-6.059,4.981c3.286.462,6.419,1.951,6.419,5.8,0,3.954-3.286,6.778-8.627,6.778a12.446,12.446,0,0,1-9.346-3.595l3.646-2.978a7.749,7.749,0,0,0,5.8,2.465c2,0,3.389-.976,3.389-2.568,0-1.695-1.695-2.67-4.673-2.67h-2.259l-.822-2.876,5.7-4.981h-9.4Z" transform="translate(-152.468 -161.371)" fill="#005981"/>
        <path id="Path_269" data-name="Path 269" d="M402.443,352.5h-4.57l-5.392-13.556L387.089,352.5h-4.57L374.2,331.651h5.648l4.981,14.019,5.392-14.07h4.519l5.392,14.07,4.981-14.019h5.494Z" transform="translate(-182.047 -161.322)" fill="#005981"/>
        <rect id="Rectangle_35" data-name="Rectangle 35" width="5.289" height="20.694" transform="translate(231.847 170.329)" fill="#005981"/>
        <path id="Path_270" data-name="Path 270" d="M489.392,352.394l-11.605-13.146v13.146H472.6V331.7h4.878l11.246,12.735V331.7h5.186v20.694Z" transform="translate(-229.918 -161.371)" fill="#005981"/>
        <path id="Path_271" data-name="Path 271" d="M541.692,352.394l-11.605-13.146v13.146H524.9V331.7h4.878l11.246,12.735V331.7h5.186v20.694Z" transform="translate(-255.362 -161.371)" fill="#005981"/>
        <path id="Path_272" data-name="Path 272" d="M577.1,352.394V331.7h18.075v4.057H582.338v4.211h11.3v4.057h-11.3v4.365h13.043v4.057H577.1Z" transform="translate(-280.757 -161.371)" fill="#005981"/>
        <path id="Path_273" data-name="Path 273" d="M636.183,352.394l-5.135-6.624h-4.159v6.624H621.6V331.7h10.989c5.649,0,9.038,2.568,9.038,6.83v.051c0,3.338-2.105,5.443-5.135,6.419l5.854,7.394Zm.1-13.608c0-1.951-1.592-2.978-4.159-2.978h-5.238v5.957h5.34c2.568,0,4.057-1.181,4.057-2.927Z" transform="translate(-302.406 -161.371)" fill="#005981"/>
      </g>
    </g>
  </g>
</svg>
