<svg xmlns="http://www.w3.org/2000/svg" xmlns:xlink="http://www.w3.org/1999/xlink" width="906" height="450" viewBox="0 0 906 450">
  <defs>
    <clipPath id="clip-path">
      <rect id="Rectangle_19" data-name="Rectangle 19" width="258.332" height="252.458" fill="none"/>
    </clipPath>
  </defs>
  <g id="Group_28" data-name="Group 28" transform="translate(-57 -2047)">
    <rect id="Rectangle_12" data-name="Rectangle 12" width="906" height="450" transform="translate(57 2047)" fill="#fff"/>
    <g id="Group_18" data-name="Group 18" transform="translate(381.834 2145.771)">
      <g id="Group_17" data-name="Group 17" transform="translate(0 0)" clip-path="url(#clip-path)">
        <path id="Path_118" data-name="Path 118" d="M246.336,163.369H221.049a107.515,107.515,0,1,0-183.766,0H11.993A11.907,11.907,0,0,0,0,175.161v65.5a11.908,11.908,0,0,0,11.993,11.793H246.336a11.908,11.908,0,0,0,12-11.793v-65.5a11.908,11.908,0,0,0-12-11.791" transform="translate(0 0)" fill="#004a84"/>
        <path id="Path_119" data-name="Path 119" d="M145.871,96.573,106.423,28.239a19.862,19.862,0,0,0-31.558-2.947s-.841,1.031-1.311,1.623c-.456.566-40.182,69.333-40.182,69.333a19.851,19.851,0,0,0,17.188,29.779H128.5a19.843,19.843,0,0,0,17.367-29.454" transform="translate(39.632 24.316)" fill="#fff"/>
        <path id="Path_120" data-name="Path 120" d="M121.064,57.806l-.878-1.515a11.246,11.246,0,0,0-9.708-5.606H63.125L47.731,77.1a17.941,17.941,0,0,1-1.62,2.34h62.46a14.419,14.419,0,0,0,12.492-21.632" transform="translate(59.565 65.474)" fill="#004a84"/>
        <path id="Path_121" data-name="Path 121" d="M51.375,29.925a11.217,11.217,0,0,0,0,11.209L62.045,59.615c.332.58.726,1.187,1.231,1.9l.126.2,11.871,20.55h30.343a17.678,17.678,0,0,1,3.007.257l-31.4-54.118a14.414,14.414,0,0,0-24.976,0Z" transform="translate(64.426 27.374)" fill="#0090da"/>
        <path id="Path_122" data-name="Path 122" d="M82.853,59.1c-1.07-1.785-4.373-7.341-4.719-7.934L67.459,32.686A17.2,17.2,0,0,1,66.3,30.25L35.008,84.205A14.42,14.42,0,0,0,47.5,105.837h1.755a11.25,11.25,0,0,0,9.708-5.6Z" transform="translate(42.697 39.076)" fill="#89bb2a"/>
        <path id="Path_123" data-name="Path 123" d="M25.173,53.332l.048-2.929a5.829,5.829,0,0,0-.236-1.872,3.451,3.451,0,0,0-.747-1.332,3.1,3.1,0,0,0-1.205-.8,4.626,4.626,0,0,0-1.593-.289,4.171,4.171,0,0,0-1.526.238,3,3,0,0,0-1.173.763,3.536,3.536,0,0,0-.754,1.3,6.207,6.207,0,0,0-.284,1.863l-.048,2.929Zm3.043.048,7.375.124-.066,3.9-20.949-.346.115-6.825a11.934,11.934,0,0,1,.552-3.628,6.925,6.925,0,0,1,1.419-2.514A5.415,5.415,0,0,1,18.8,42.644a7.9,7.9,0,0,1,5.48.121,5.84,5.84,0,0,1,2.157,1.558,7.171,7.171,0,0,1,1.377,2.558,11.371,11.371,0,0,1,.447,3.575Z" transform="translate(18.829 54.528)" fill="#fff"/>
        <path id="Path_124" data-name="Path 124" d="M26.1,43.717l.7-2.328a6.068,6.068,0,0,0,.291-1.918,3.68,3.68,0,0,0-.341-1.508,3.057,3.057,0,0,0-.875-1.091,3.988,3.988,0,0,0-1.325-.671,2.972,2.972,0,0,0-2.647.3,5.038,5.038,0,0,0-1.746,2.826l-.717,2.386Zm2.675.809,7.842,2.358-1.125,3.731L15.429,44.576l1.84-6.117a13.34,13.34,0,0,1,1.483-3.392,7.034,7.034,0,0,1,1.911-2.044A4.778,4.778,0,0,1,22.9,32.2a6.658,6.658,0,0,1,4.295,1.141,5.783,5.783,0,0,1,1.38,1.354,6.158,6.158,0,0,1,.873,1.774,7.584,7.584,0,0,1,.321,2.15,3.853,3.853,0,0,1,1.522-.875l8.917-2.791L39.195,38.31a1.705,1.705,0,0,1-.442.768,1.775,1.775,0,0,1-.729.408l-7.691,2.285a1.54,1.54,0,0,0-.669.364,1.89,1.89,0,0,0-.408.8Z" transform="translate(19.931 41.56)" fill="#fff"/>
        <path id="Path_125" data-name="Path 125" d="M35.045,26.532a9.747,9.747,0,0,0-2.833-1.313,6.557,6.557,0,0,0-2.668-.181,5.638,5.638,0,0,0-2.365.935,7.812,7.812,0,0,0-3.032,4.62,5.748,5.748,0,0,0,.073,2.555,6.619,6.619,0,0,0,1.219,2.386,10.546,10.546,0,0,0,5.17,3.392,6.543,6.543,0,0,0,2.668.167,5.788,5.788,0,0,0,2.365-.953,7.216,7.216,0,0,0,1.941-2.033,7.133,7.133,0,0,0,1.093-2.587,5.731,5.731,0,0,0-.076-2.537,6.518,6.518,0,0,0-1.219-2.37,9.748,9.748,0,0,0-2.338-2.081m2.2-3.341a11.568,11.568,0,0,1,3.144,2.984,10.056,10.056,0,0,1,1.657,3.669,9.718,9.718,0,0,1,.034,4.027,12.079,12.079,0,0,1-4.76,7.249A9.792,9.792,0,0,1,33.6,42.7a9.986,9.986,0,0,1-4.027-.053,12.2,12.2,0,0,1-7.134-4.684,9.993,9.993,0,0,1-1.652-3.674,9.825,9.825,0,0,1-.028-4.04,11.378,11.378,0,0,1,1.71-4.068,11.236,11.236,0,0,1,3.057-3.176,9.963,9.963,0,0,1,3.708-1.572,10.081,10.081,0,0,1,4.02.06,11.58,11.58,0,0,1,3.988,1.7" transform="translate(26.561 27.462)" fill="#fff"/>
        <path id="Path_126" data-name="Path 126" d="M45.376,30.639a5.214,5.214,0,0,0,1.352-1.547,4.207,4.207,0,0,0,.529-1.762,4.639,4.639,0,0,0-.282-1.882,6.815,6.815,0,0,0-1.091-1.909l-7.767-9.855,3.064-2.413,7.767,9.855a9.651,9.651,0,0,1,1.664,3.087,7.819,7.819,0,0,1,.339,3.222,7.93,7.93,0,0,1-1.043,3.108,10.505,10.505,0,0,1-5.69,4.485,7.691,7.691,0,0,1-6.3-.8A9.66,9.66,0,0,1,35.3,31.881l-7.767-9.857L30.6,19.613l7.755,9.841a6.788,6.788,0,0,0,1.6,1.508,4.778,4.778,0,0,0,1.76.724,4.1,4.1,0,0,0,1.836-.092,5.134,5.134,0,0,0,1.824-.956" transform="translate(35.569 14.56)" fill="#fff"/>
        <path id="Path_127" data-name="Path 127" d="M55.558,15.334A9.711,9.711,0,0,0,54.037,12.6a6.519,6.519,0,0,0-2.047-1.707,5.657,5.657,0,0,0-2.459-.635,7.151,7.151,0,0,0-2.762.493l-3.814,1.428,5.175,13.815,3.814-1.428a7.2,7.2,0,0,0,2.406-1.444,5.663,5.663,0,0,0,1.437-2.092,6.539,6.539,0,0,0,.417-2.636,9.433,9.433,0,0,0-.646-3.06m3.729-1.4a11.274,11.274,0,0,1,.765,4.233,9.768,9.768,0,0,1-.859,3.864,9.641,9.641,0,0,1-2.374,3.2,11.741,11.741,0,0,1-3.786,2.237l-7.494,2.807-7.35-19.622,7.492-2.805a11.654,11.654,0,0,1,4.329-.793A9.821,9.821,0,0,1,53.9,7.9a9.7,9.7,0,0,1,3.183,2.344,11.275,11.275,0,0,1,2.2,3.692" transform="translate(49.332 9.11)" fill="#fff"/>
        <path id="Path_128" data-name="Path 128" d="M65.459,18.413c.115.341.225.69.332,1.036.165-.335.328-.667.5-.992s.348-.637.539-.933L73.911,6.431a1.725,1.725,0,0,1,.266-.328.734.734,0,0,1,.289-.165,1.154,1.154,0,0,1,.344-.048q.189,0,.447.021l2.936.231L76.57,27.03l-3.424-.266,1.047-13.492q.027-.378.089-.825c.034-.3.08-.6.133-.9L67.183,22.9a1.7,1.7,0,0,1-.614.584,1.433,1.433,0,0,1-.827.16L65.21,23.6a1.456,1.456,0,0,1-.793-.286,1.661,1.661,0,0,1-.516-.671L58.428,10.256c.009.323.016.635.007.94s-.027.584-.046.848L57.34,25.535l-3.422-.266L55.541,4.38l2.931.229q.261.017.447.048a1.3,1.3,0,0,1,.335.1.8.8,0,0,1,.266.211,1.532,1.532,0,0,1,.222.364l5.338,12.085q.21.485.38,1" transform="translate(69.65 5.658)" fill="#fff"/>
        <path id="Path_129" data-name="Path 129" d="M86.568,11.835,85.381,14.7,76.8,11.155l-2.218,5.372,6.765,2.794L80.2,22.091,73.438,19.3l-2.264,5.48,8.587,3.543L78.572,31.2,66.357,26.157l8-19.366Z" transform="translate(85.718 8.773)" fill="#fff"/>
        <path id="Path_130" data-name="Path 130" d="M87.209,28.665c-.11.341-.227.688-.344,1.031q.5-.261.99-.506c.332-.16.658-.3.983-.433L101.109,24a1.449,1.449,0,0,1,.406-.108.734.734,0,0,1,.335.037,1.223,1.223,0,0,1,.3.167c.1.073.218.167.348.282l2.232,1.916L91.078,42.179l-2.6-2.237,8.819-10.265c.167-.19.351-.394.555-.612s.419-.435.646-.649L85.947,33.3a1.69,1.69,0,0,1-.839.11,1.452,1.452,0,0,1-.763-.36l-.406-.346a1.489,1.489,0,0,1-.47-.7,1.7,1.7,0,0,1-.018-.848l2.906-13.228c-.176.27-.362.52-.548.761s-.369.461-.539.66L76.452,29.611l-2.606-2.239L87.5,11.481l2.23,1.918c.133.112.243.215.332.3a1.218,1.218,0,0,1,.211.277.816.816,0,0,1,.092.325,1.365,1.365,0,0,1-.041.424L87.491,27.636c-.078.341-.172.683-.282,1.029" transform="translate(95.393 14.831)" fill="#fff"/>
        <path id="Path_131" data-name="Path 131" d="M95.132,30.516,96.7,33.2a5.2,5.2,0,0,0,2.147,2.237,2.623,2.623,0,0,0,2.509-.273,2.73,2.73,0,0,0,1.547-1.976,4.87,4.87,0,0,0-.862-2.856l-1.682-2.876Zm-2.326,1.357-5.305,3.1,1.994,3.415a5.468,5.468,0,0,0,1.141,1.439,3.181,3.181,0,0,0,1.2.662,2.537,2.537,0,0,0,1.194.039,3.752,3.752,0,0,0,1.164-.451,3.264,3.264,0,0,0,.946-.807,2.315,2.315,0,0,0,.458-1.054,3.254,3.254,0,0,0-.092-1.322,6.66,6.66,0,0,0-.71-1.618Zm-9.9,1.27L101,22.575l3.649,6.243a13.857,13.857,0,0,1,1.435,3.231,6.7,6.7,0,0,1,.241,2.626,4.264,4.264,0,0,1-.825,2.067,5.847,5.847,0,0,1-1.781,1.545,4.517,4.517,0,0,1-1.327.525,4.074,4.074,0,0,1-1.428.055,5.139,5.139,0,0,1-1.506-.463,7.074,7.074,0,0,1-1.545-1.038q1.337,4.218-1.852,6.082a5.987,5.987,0,0,1-2.386.807,5.458,5.458,0,0,1-2.425-.3,7.065,7.065,0,0,1-2.315-1.416A10.418,10.418,0,0,1,86.9,39.972Z" transform="translate(107.095 29.162)" fill="#fff"/>
        <path id="Path_132" data-name="Path 132" d="M110.795,45.364l-2.988.832-2.491-8.949-5.6,1.558,1.959,7.049-2.888.8-1.962-7.052L91.118,41.2l2.493,8.947-3,.836L87.066,38.251l20.186-5.619Z" transform="translate(112.47 42.152)" fill="#fff"/>
        <path id="Path_133" data-name="Path 133" d="M99.969,46.7,100,49.135a6.033,6.033,0,0,0,.3,1.916,3.739,3.739,0,0,0,.779,1.338,3.083,3.083,0,0,0,1.164.775,3.991,3.991,0,0,0,1.467.241,2.976,2.976,0,0,0,2.434-1.079,5.079,5.079,0,0,0,.814-3.225l-.034-2.491Zm-2.8.034-8.186.108-.053-3.9,20.951-.27.085,6.389a13.292,13.292,0,0,1-.4,3.676,7.061,7.061,0,0,1-1.205,2.526,4.8,4.8,0,0,1-1.886,1.458,6.353,6.353,0,0,1-2.436.488,6.258,6.258,0,0,1-2-.286,5.852,5.852,0,0,1-1.723-.875,5.944,5.944,0,0,1-1.364-1.432A7.614,7.614,0,0,1,98,52.666a3.845,3.845,0,0,1-1.183,1.29L89.145,59.3,89.1,55.8a1.623,1.623,0,0,1,.761-1.471l6.653-4.494a1.57,1.57,0,0,0,.527-.552,1.874,1.874,0,0,0,.149-.875Z" transform="translate(114.88 55.125)" fill="#fff"/>
        <path id="Path_134" data-name="Path 134" d="M9.25,73.408a7.037,7.037,0,0,0-7.127,6.928v65.5a7.037,7.037,0,0,0,7.127,6.928H243.594a7.039,7.039,0,0,0,7.13-6.928v-65.5a7.039,7.039,0,0,0-7.13-6.928Z" transform="translate(2.742 94.827)" fill="#fff"/>
        <path id="Path_135" data-name="Path 135" d="M10.026,86.545v5.2h3.227a4.971,4.971,0,0,0,1.485-.2,2.826,2.826,0,0,0,1.02-.557,2.2,2.2,0,0,0,.587-.853,3.093,3.093,0,0,0,.188-1.089,2.241,2.241,0,0,0-.818-1.829,3.841,3.841,0,0,0-2.473-.671Zm0-1.437h2.665a5.2,5.2,0,0,0,1.476-.186,3.022,3.022,0,0,0,1.038-.52,2.022,2.022,0,0,0,.607-.809,2.637,2.637,0,0,0,.2-1.034,2.28,2.28,0,0,0-.791-1.927,3.99,3.99,0,0,0-2.457-.614H10.026ZM8,93.342V78.423h4.758a9.037,9.037,0,0,1,2.367.273,4.6,4.6,0,0,1,1.636.77,3.054,3.054,0,0,1,.947,1.224,4.136,4.136,0,0,1,.307,1.627,3.232,3.232,0,0,1-.172,1.063,3.044,3.044,0,0,1-.52.947,3.665,3.665,0,0,1-.873.781,4.719,4.719,0,0,1-1.235.561,4.613,4.613,0,0,1,2.468,1.178,3.083,3.083,0,0,1,.834,2.248,4.2,4.2,0,0,1-.348,1.728,3.678,3.678,0,0,1-1.022,1.343,4.787,4.787,0,0,1-1.645.871,7.4,7.4,0,0,1-2.221.3Z" transform="translate(10.341 101.305)" fill="#004a84"/>
        <path id="Path_136" data-name="Path 136" d="M19.719,91.741a4.124,4.124,0,0,0,1.657-.314,3.4,3.4,0,0,0,1.233-.873,3.834,3.834,0,0,0,.77-1.341,5.333,5.333,0,0,0,.266-1.719V78.423h2.01v9.071a6.822,6.822,0,0,1-.413,2.393A5.533,5.533,0,0,1,24.064,91.8,5.377,5.377,0,0,1,22.2,93.063a6.364,6.364,0,0,1-2.477.458,6.38,6.38,0,0,1-2.477-.458,5.373,5.373,0,0,1-3.055-3.176,6.77,6.77,0,0,1-.413-2.393V78.423h2.01v9.062A5.339,5.339,0,0,0,16.05,89.2a3.86,3.86,0,0,0,.77,1.343,3.516,3.516,0,0,0,1.238.878,4.124,4.124,0,0,0,1.662.319" transform="translate(17.793 101.305)" fill="#004a84"/>
        <path id="Path_137" data-name="Path 137" d="M28.747,80.849a.812.812,0,0,1-.2.236.445.445,0,0,1-.27.078.727.727,0,0,1-.41-.176,6.131,6.131,0,0,0-.6-.392,4.639,4.639,0,0,0-.864-.39,3.729,3.729,0,0,0-1.222-.176,3.607,3.607,0,0,0-1.2.181,2.548,2.548,0,0,0-.871.5,2.01,2.01,0,0,0-.525.736,2.339,2.339,0,0,0-.179.908,1.682,1.682,0,0,0,.309,1.038,2.641,2.641,0,0,0,.814.7,6.2,6.2,0,0,0,1.144.5c.426.14.864.289,1.311.44s.887.328,1.311.518a4.54,4.54,0,0,1,1.146.722,3.3,3.3,0,0,1,.814,1.075,3.568,3.568,0,0,1,.3,1.561,5.03,5.03,0,0,1-.332,1.836,4.25,4.25,0,0,1-.974,1.5,4.515,4.515,0,0,1-1.572,1,5.778,5.778,0,0,1-2.118.364,6.511,6.511,0,0,1-2.64-.525A6.14,6.14,0,0,1,19.9,91.657l.582-.958a.734.734,0,0,1,.2-.193.482.482,0,0,1,.268-.078.828.828,0,0,1,.5.234,8,8,0,0,0,.7.516,5.28,5.28,0,0,0,1.02.516,4.033,4.033,0,0,0,1.462.234,3.877,3.877,0,0,0,1.281-.2,2.756,2.756,0,0,0,.953-.557,2.461,2.461,0,0,0,.6-.859,2.862,2.862,0,0,0,.209-1.114,1.872,1.872,0,0,0-.307-1.109,2.6,2.6,0,0,0-.807-.724,5.8,5.8,0,0,0-1.141-.493c-.426-.137-.864-.275-1.311-.417a12.575,12.575,0,0,1-1.313-.5,4.288,4.288,0,0,1-1.139-.726,3.381,3.381,0,0,1-.807-1.118,4.093,4.093,0,0,1,.889-4.5A4.289,4.289,0,0,1,23.18,78.7a5.286,5.286,0,0,1,1.976-.346,6.376,6.376,0,0,1,2.28.4,5.236,5.236,0,0,1,1.8,1.146Z" transform="translate(25.704 101.212)" fill="#004a84"/>
        <rect id="Rectangle_17" data-name="Rectangle 17" width="2.019" height="14.919" transform="translate(58.113 179.728)" fill="#004a84"/>
        <path id="Path_138" data-name="Path 138" d="M29.381,78.493a1.073,1.073,0,0,1,.3.275l8.64,11.243c-.018-.179-.034-.355-.041-.525s-.009-.335-.009-.5V78.424h1.769V93.341h-1.02a.875.875,0,0,1-.4-.08.99.99,0,0,1-.316-.282L29.667,81.745c.014.174.023.344.032.511s.009.319.009.458V93.341H27.937V78.424H28.98a.934.934,0,0,1,.4.069" transform="translate(36.088 101.306)" fill="#004a84"/>
        <path id="Path_139" data-name="Path 139" d="M43.955,78.424v1.648H36.791v4.955h5.8v1.581h-5.8V91.7h7.164v1.643H34.76V78.424Z" transform="translate(44.903 101.306)" fill="#004a84"/>
        <path id="Path_140" data-name="Path 140" d="M48.316,80.849a.812.812,0,0,1-.2.236.445.445,0,0,1-.27.078.727.727,0,0,1-.41-.176,6.357,6.357,0,0,0-.594-.392,4.779,4.779,0,0,0-.864-.39,3.753,3.753,0,0,0-1.224-.176,3.607,3.607,0,0,0-1.2.181,2.57,2.57,0,0,0-.871.5,1.977,1.977,0,0,0-.523.736,2.3,2.3,0,0,0-.181.908,1.682,1.682,0,0,0,.309,1.038,2.641,2.641,0,0,0,.814.7,6.2,6.2,0,0,0,1.144.5c.426.14.864.289,1.311.44s.887.328,1.311.518a4.54,4.54,0,0,1,1.146.722,3.3,3.3,0,0,1,.814,1.075,3.569,3.569,0,0,1,.3,1.561,5.03,5.03,0,0,1-.332,1.836,4.25,4.25,0,0,1-.974,1.5,4.526,4.526,0,0,1-1.57,1,5.8,5.8,0,0,1-2.12.364,6.511,6.511,0,0,1-2.64-.525,6.14,6.14,0,0,1-2.033-1.421l.582-.958a.712.712,0,0,1,.2-.193.469.469,0,0,1,.266-.078.828.828,0,0,1,.5.234,8,8,0,0,0,.7.516,5.279,5.279,0,0,0,1.02.516,4.033,4.033,0,0,0,1.462.234,3.877,3.877,0,0,0,1.281-.2,2.756,2.756,0,0,0,.953-.557,2.461,2.461,0,0,0,.6-.859,2.862,2.862,0,0,0,.209-1.114,1.872,1.872,0,0,0-.307-1.109,2.6,2.6,0,0,0-.807-.724,5.8,5.8,0,0,0-1.141-.493c-.426-.137-.864-.275-1.311-.417a12.576,12.576,0,0,1-1.313-.5,4.288,4.288,0,0,1-1.139-.726,3.381,3.381,0,0,1-.807-1.118,4.093,4.093,0,0,1,.889-4.5,4.289,4.289,0,0,1,1.442-.914,5.286,5.286,0,0,1,1.976-.346,6.376,6.376,0,0,1,2.28.4,5.236,5.236,0,0,1,1.8,1.146Z" transform="translate(50.983 101.212)" fill="#004a84"/>
        <path id="Path_141" data-name="Path 141" d="M53.086,80.849a.812.812,0,0,1-.2.236.445.445,0,0,1-.27.078.727.727,0,0,1-.41-.176,6.131,6.131,0,0,0-.6-.392,4.638,4.638,0,0,0-.864-.39,3.729,3.729,0,0,0-1.222-.176,3.607,3.607,0,0,0-1.2.181,2.548,2.548,0,0,0-.871.5,2.01,2.01,0,0,0-.525.736,2.339,2.339,0,0,0-.179.908,1.682,1.682,0,0,0,.309,1.038,2.641,2.641,0,0,0,.814.7,6.2,6.2,0,0,0,1.144.5c.426.14.864.289,1.311.44s.887.328,1.311.518a4.54,4.54,0,0,1,1.146.722,3.3,3.3,0,0,1,.814,1.075,3.6,3.6,0,0,1,.3,1.561,5.029,5.029,0,0,1-.332,1.836,4.25,4.25,0,0,1-.974,1.5,4.526,4.526,0,0,1-1.57,1,5.8,5.8,0,0,1-2.12.364,6.511,6.511,0,0,1-2.64-.525,6.14,6.14,0,0,1-2.033-1.421l.582-.958a.733.733,0,0,1,.2-.193.482.482,0,0,1,.268-.078.828.828,0,0,1,.5.234,8,8,0,0,0,.7.516,5.279,5.279,0,0,0,1.02.516,4.033,4.033,0,0,0,1.462.234,3.877,3.877,0,0,0,1.281-.2,2.756,2.756,0,0,0,.953-.557,2.462,2.462,0,0,0,.6-.859,2.862,2.862,0,0,0,.209-1.114,1.857,1.857,0,0,0-.309-1.109,2.566,2.566,0,0,0-.8-.724,5.8,5.8,0,0,0-1.141-.493c-.426-.137-.864-.275-1.311-.417a12.576,12.576,0,0,1-1.313-.5,4.288,4.288,0,0,1-1.139-.726,3.381,3.381,0,0,1-.807-1.118,4.289,4.289,0,0,1,0-3.19,3.944,3.944,0,0,1,.889-1.313,4.289,4.289,0,0,1,1.442-.914,5.286,5.286,0,0,1,1.976-.346,6.376,6.376,0,0,1,2.28.4,5.236,5.236,0,0,1,1.8,1.146Z" transform="translate(57.144 101.212)" fill="#004a84"/>
        <path id="Path_142" data-name="Path 142" d="M51.015,83.125a1.608,1.608,0,0,1,.119-.612,1.478,1.478,0,0,1,.332-.5,1.621,1.621,0,0,1,.5-.332,1.421,1.421,0,0,1,.594-.124,1.517,1.517,0,0,1,.614.124,1.49,1.49,0,0,1,.5.332,1.59,1.59,0,0,1,.458,1.114,1.45,1.45,0,0,1-.124.594,1.669,1.669,0,0,1-.335.5,1.425,1.425,0,0,1-.5.332,1.638,1.638,0,0,1-.614.119,1.538,1.538,0,0,1-1.089-.451,1.621,1.621,0,0,1-.332-.5,1.525,1.525,0,0,1-.119-.594" transform="translate(65.9 105.351)" fill="#004a84"/>
        <path id="Path_143" data-name="Path 143" d="M66.393,90.356a.418.418,0,0,1,.3.135l.793.864a6.431,6.431,0,0,1-2.223,1.655,7.6,7.6,0,0,1-3.149.594,7.412,7.412,0,0,1-2.927-.557,6.4,6.4,0,0,1-2.239-1.563,6.973,6.973,0,0,1-1.435-2.409A8.975,8.975,0,0,1,55,85.984a8.479,8.479,0,0,1,.545-3.094,7.1,7.1,0,0,1,1.535-2.413,6.882,6.882,0,0,1,2.37-1.568,8.1,8.1,0,0,1,3.046-.557,6.785,6.785,0,0,1,4.955,1.9l-.655.926a.748.748,0,0,1-.167.172.453.453,0,0,1-.27.069.538.538,0,0,1-.286-.1c-.1-.069-.22-.149-.36-.247s-.3-.2-.488-.309a4.336,4.336,0,0,0-.667-.312,5.607,5.607,0,0,0-.9-.248,6.174,6.174,0,0,0-1.176-.1,5.662,5.662,0,0,0-2.191.413,4.863,4.863,0,0,0-1.712,1.171,5.325,5.325,0,0,0-1.121,1.854,7.027,7.027,0,0,0-.4,2.445,7.188,7.188,0,0,0,.4,2.489,5.53,5.53,0,0,0,1.093,1.847A4.611,4.611,0,0,0,60.2,91.47a5.235,5.235,0,0,0,2.04.394,8.167,8.167,0,0,0,1.2-.078,4.881,4.881,0,0,0,.985-.243,4.267,4.267,0,0,0,.843-.422,6.83,6.83,0,0,0,.786-.61.518.518,0,0,1,.344-.156" transform="translate(71.052 101.213)" fill="#004a84"/>
        <path id="Path_144" data-name="Path 144" d="M73.828,85.983a7.625,7.625,0,0,0-.374-2.466,5.226,5.226,0,0,0-1.063-1.849,4.641,4.641,0,0,0-1.666-1.162,6.1,6.1,0,0,0-4.361,0,4.687,4.687,0,0,0-1.673,1.162,5.162,5.162,0,0,0-1.066,1.849,8.263,8.263,0,0,0,0,4.927,5.221,5.221,0,0,0,1.066,1.845,4.642,4.642,0,0,0,1.673,1.155,6.129,6.129,0,0,0,4.361,0,4.6,4.6,0,0,0,1.666-1.155,5.287,5.287,0,0,0,1.063-1.845,7.586,7.586,0,0,0,.374-2.461m2.072,0a8.564,8.564,0,0,1-.532,3.076,7.077,7.077,0,0,1-1.5,2.413,6.761,6.761,0,0,1-2.326,1.565,8.4,8.4,0,0,1-6,0,6.755,6.755,0,0,1-2.319-1.565,7.077,7.077,0,0,1-1.5-2.413,9.161,9.161,0,0,1,0-6.151,7.065,7.065,0,0,1,1.5-2.416,6.719,6.719,0,0,1,2.319-1.577,8.276,8.276,0,0,1,6,0,6.725,6.725,0,0,1,2.326,1.577,7.065,7.065,0,0,1,1.5,2.416,8.564,8.564,0,0,1,.532,3.076" transform="translate(79.043 101.212)" fill="#004a84"/>
        <path id="Path_145" data-name="Path 145" d="M70.21,78.493a1.04,1.04,0,0,1,.293.275l8.642,11.243c-.021-.179-.034-.355-.044-.525s-.009-.335-.009-.5V78.424h1.772V93.341h-1.02a.885.885,0,0,1-.4-.08,1.067,1.067,0,0,1-.316-.282L70.5,81.745c.011.174.023.344.032.511s.007.319.007.458V93.341H68.766V78.424h1.04a.946.946,0,0,1,.4.069" transform="translate(88.83 101.306)" fill="#004a84"/>
        <path id="Path_146" data-name="Path 146" d="M83.912,80.849a.812.812,0,0,1-.2.236.445.445,0,0,1-.27.078.727.727,0,0,1-.41-.176,6.131,6.131,0,0,0-.6-.392,4.638,4.638,0,0,0-.864-.39,3.728,3.728,0,0,0-1.222-.176,3.607,3.607,0,0,0-1.2.181,2.527,2.527,0,0,0-.871.5,2.009,2.009,0,0,0-.525.736,2.339,2.339,0,0,0-.179.908,1.682,1.682,0,0,0,.309,1.038,2.641,2.641,0,0,0,.814.7,6.2,6.2,0,0,0,1.144.5c.426.14.864.289,1.311.44s.887.328,1.311.518a4.54,4.54,0,0,1,1.146.722,3.3,3.3,0,0,1,.814,1.075,3.568,3.568,0,0,1,.3,1.561,5.029,5.029,0,0,1-.332,1.836,4.25,4.25,0,0,1-.974,1.5,4.526,4.526,0,0,1-1.57,1,5.8,5.8,0,0,1-2.12.364,6.511,6.511,0,0,1-2.64-.525,6.14,6.14,0,0,1-2.033-1.421l.582-.958a.712.712,0,0,1,.2-.193.469.469,0,0,1,.266-.078.839.839,0,0,1,.5.234,7.932,7.932,0,0,0,.7.516,5.281,5.281,0,0,0,1.02.516,4.033,4.033,0,0,0,1.462.234,3.877,3.877,0,0,0,1.281-.2,2.756,2.756,0,0,0,.953-.557,2.461,2.461,0,0,0,.6-.859,2.862,2.862,0,0,0,.209-1.114,1.857,1.857,0,0,0-.309-1.109,2.566,2.566,0,0,0-.8-.724,5.8,5.8,0,0,0-1.141-.493c-.426-.137-.864-.275-1.311-.417a12.576,12.576,0,0,1-1.313-.5,4.288,4.288,0,0,1-1.139-.726,3.381,3.381,0,0,1-.807-1.118,4.29,4.29,0,0,1,0-3.19,3.944,3.944,0,0,1,.889-1.313,4.289,4.289,0,0,1,1.442-.914,5.286,5.286,0,0,1,1.976-.346,6.376,6.376,0,0,1,2.28.4,5.236,5.236,0,0,1,1.8,1.146Z" transform="translate(96.965 101.212)" fill="#004a84"/>
        <path id="Path_147" data-name="Path 147" d="M86.24,91.741a4.124,4.124,0,0,0,1.657-.314,3.423,3.423,0,0,0,1.233-.873,3.834,3.834,0,0,0,.77-1.341,5.333,5.333,0,0,0,.266-1.719V78.423h2.01v9.071a6.822,6.822,0,0,1-.413,2.393A5.533,5.533,0,0,1,90.585,91.8a5.377,5.377,0,0,1-1.868,1.265,6.924,6.924,0,0,1-4.955,0,5.373,5.373,0,0,1-3.055-3.176,6.771,6.771,0,0,1-.413-2.393V78.423H82.3v9.062a5.339,5.339,0,0,0,.266,1.717,3.859,3.859,0,0,0,.77,1.343,3.517,3.517,0,0,0,1.238.878,4.124,4.124,0,0,0,1.662.319" transform="translate(103.723 101.305)" fill="#004a84"/>
        <path id="Path_148" data-name="Path 148" d="M94.541,88.477c.071.183.142.369.213.555.069-.193.142-.378.218-.555s.165-.355.261-.536l5.049-9.172a.585.585,0,0,1,.282-.291,1.213,1.213,0,0,1,.415-.055h1.49V93.342H100.7V82.381c0-.147,0-.3.011-.468s.018-.339.032-.511L95.63,90.73a.807.807,0,0,1-.731.468h-.291a.8.8,0,0,1-.729-.468l-5.225-9.36c.021.183.037.36.046.532s.016.332.016.479V93.342H86.946V78.423h1.49a1.246,1.246,0,0,1,.417.055.6.6,0,0,1,.28.291l5.154,9.183a4.114,4.114,0,0,1,.254.525" transform="translate(112.315 101.305)" fill="#004a84"/>
        <path id="Path_149" data-name="Path 149" d="M104.452,78.424v1.648H97.288v4.955h5.8v1.581h-5.8V91.7h7.164v1.643H95.258V78.424Z" transform="translate(123.052 101.306)" fill="#004a84"/>
        <path id="Path_150" data-name="Path 150" d="M102.592,85.65H104.7a5.243,5.243,0,0,0,1.558-.211,3.228,3.228,0,0,0,1.123-.605,2.5,2.5,0,0,0,.683-.93,3.089,3.089,0,0,0,.227-1.2,2.373,2.373,0,0,0-.88-2.008,4.255,4.255,0,0,0-2.617-.678h-2.207Zm0,1.469v6.224h-2.01V78.424H104.8a9.326,9.326,0,0,1,2.445.286,4.743,4.743,0,0,1,1.7.827,3.328,3.328,0,0,1,.995,1.309,4.362,4.362,0,0,1,.323,1.714,4.264,4.264,0,0,1-.25,1.476,3.887,3.887,0,0,1-.724,1.233,4.355,4.355,0,0,1-1.155.935,5.733,5.733,0,0,1-1.547.58,2.138,2.138,0,0,1,.667.637l4.352,5.922h-1.792a.878.878,0,0,1-.809-.426l-3.875-5.331a1.1,1.1,0,0,0-.385-.358,1.373,1.373,0,0,0-.623-.11Z" transform="translate(129.93 101.306)" fill="#004a84"/>
        <path id="Path_151" data-name="Path 151" d="M18.157,110.194H29.146l-4.2-11.468c-.193-.506-.4-1.107-.63-1.8s-.456-1.442-.681-2.251q-.333,1.214-.658,2.264c-.215.7-.424,1.311-.63,1.836Zm22.313,13.02H35.515a2.165,2.165,0,0,1-1.375-.417,2.4,2.4,0,0,1-.775-1.036l-2.574-7.036H16.509l-2.574,7.036a2.225,2.225,0,0,1-.752,1,2.09,2.09,0,0,1-1.37.454H6.831l13.54-34.478H26.93Z" transform="translate(8.824 114.627)" fill="#004a84"/>
        <path id="Path_152" data-name="Path 152" d="M29.474,117.922h13.8v5.292H23.059V88.736h6.415Z" transform="translate(29.788 114.627)" fill="#004a84"/>
        <path id="Path_153" data-name="Path 153" d="M40.23,117.922h13.8v5.292H33.815V88.736H40.23Z" transform="translate(43.682 114.627)" fill="#004a84"/>
        <rect id="Rectangle_18" data-name="Rectangle 18" width="6.438" height="34.478" transform="translate(102.94 203.363)" fill="#004a84"/>
        <path id="Path_154" data-name="Path 154" d="M60.975,110.194H71.969l-4.2-11.468q-.282-.76-.633-1.8c-.227-.69-.456-1.442-.681-2.251-.218.809-.438,1.563-.653,2.264s-.424,1.311-.63,1.836Zm22.317,13.02H78.333a2.165,2.165,0,0,1-1.37-.417,2.362,2.362,0,0,1-.775-1.036l-2.578-7.036H59.332l-2.574,7.036a2.294,2.294,0,0,1-.752,1,2.111,2.111,0,0,1-1.375.454H49.649L63.2,88.736h6.552Z" transform="translate(64.135 114.627)" fill="#004a84"/>
        <path id="Path_155" data-name="Path 155" d="M69.957,88.773a1.571,1.571,0,0,1,.953.454,5.333,5.333,0,0,1,.474.539l18.1,23.053q-.1-.832-.131-1.634c-.023-.532-.037-1.027-.037-1.49V88.736h5.649v34.478H91.653a2.894,2.894,0,0,1-1.263-.238,2.8,2.8,0,0,1-.981-.857L71.385,99.157c.05.511.085,1.015.108,1.513s.037.958.037,1.373v21.171H65.88V88.736h3.362a6.115,6.115,0,0,1,.715.037" transform="translate(85.102 114.627)" fill="#004a84"/>
        <path id="Path_156" data-name="Path 156" d="M106.437,115.3a1.194,1.194,0,0,1,.905.408l2.528,2.739a13.921,13.921,0,0,1-5.161,3.985,17.8,17.8,0,0,1-7.354,1.382,17.4,17.4,0,0,1-6.9-1.311,15.216,15.216,0,0,1-5.237-3.649,16.026,16.026,0,0,1-3.325-5.58,20.956,20.956,0,0,1-1.155-7.079,19.06,19.06,0,0,1,1.29-7.118,16.24,16.24,0,0,1,3.621-5.567,16.445,16.445,0,0,1,5.59-3.637,19.269,19.269,0,0,1,7.189-1.3A17,17,0,0,1,105.14,89.8a15.767,15.767,0,0,1,4.923,3.254l-2.147,2.979a1.949,1.949,0,0,1-.488.5,1.4,1.4,0,0,1-.825.213,1.872,1.872,0,0,1-1.118-.429,13.659,13.659,0,0,0-1.455-.928,11.758,11.758,0,0,0-2.228-.93,12.893,12.893,0,0,0-7.893.417A9.865,9.865,0,0,0,90.4,97.3a11.068,11.068,0,0,0-2.287,3.825,14.652,14.652,0,0,0-.825,5.067,15.033,15.033,0,0,0,.825,5.17,11.232,11.232,0,0,0,2.23,3.818,9.467,9.467,0,0,0,3.312,2.372,10.243,10.243,0,0,0,4.1.82,17.365,17.365,0,0,0,2.372-.142,10,10,0,0,0,1.957-.454,8.769,8.769,0,0,0,1.691-.8,10.813,10.813,0,0,0,1.584-1.205,2.4,2.4,0,0,1,.5-.346,1.269,1.269,0,0,1,.573-.133" transform="translate(104.292 114.413)" fill="#004a84"/>
        <path id="Path_157" data-name="Path 157" d="M117.3,88.736v5.1H102.018V103.4h12.041v4.939H102.018v9.749H117.3v5.127H95.56V88.736Z" transform="translate(123.442 114.627)" fill="#004a84"/>
        <path id="Path_158" data-name="Path 158" d="M108.035,103.94a1.345,1.345,0,0,0,.289-.032.538.538,0,0,0,.186-.089.37.37,0,0,0,.1-.149.707.707,0,0,0,.03-.2.738.738,0,0,0-.028-.195.33.33,0,0,0-.089-.135.46.46,0,0,0-.17-.083,1.231,1.231,0,0,0-.266-.025H107.7v.91Zm.053-1.322a1.683,1.683,0,0,1,.814.2.768.768,0,0,1,.264.587.908.908,0,0,1-.16.493.933.933,0,0,1-.486.291.494.494,0,0,1,.1.085.866.866,0,0,1,.078.117l.676,1.024h-.509a.2.2,0,0,1-.163-.087l-.587-.91a.231.231,0,0,0-.066-.066.252.252,0,0,0-.119-.023H107.7v1.086h-.539v-2.8Zm.032,3.39a2.154,2.154,0,0,0,.525-.073,1.985,1.985,0,0,0,.869-.5,1.959,1.959,0,0,0,.5-.875,2.242,2.242,0,0,0,.071-.534,2.3,2.3,0,0,0-.071-.534,2.4,2.4,0,0,0-.195-.479,2.2,2.2,0,0,0-.3-.4,1.912,1.912,0,0,0-.869-.511,1.957,1.957,0,0,0-1.045,0,2.276,2.276,0,0,0-.47.2,2.36,2.36,0,0,0-.392.312,2.127,2.127,0,0,0-.3.4,2.382,2.382,0,0,0-.195.479,2.055,2.055,0,0,0,.195,1.542,2.238,2.238,0,0,0,.3.4,2.268,2.268,0,0,0,.392.3,2.118,2.118,0,0,0,.47.2,2.091,2.091,0,0,0,.52.073m0-4.279a2.59,2.59,0,0,1,.894.179,2.685,2.685,0,0,1,.729.493,2.658,2.658,0,0,1,.493.729,2.543,2.543,0,0,1,.179.892,2.59,2.59,0,0,1-.179.894,2.655,2.655,0,0,1-.493.726,2.622,2.622,0,0,1-.729.49,2.521,2.521,0,0,1-.894.181,2.583,2.583,0,0,1-.61-.082,2.659,2.659,0,0,1-.545-.229,2.8,2.8,0,0,1-.463-.36,2.518,2.518,0,0,1-.358-.463,2.227,2.227,0,0,1-.314-1.157,2.639,2.639,0,0,1,.08-.607,2.6,2.6,0,0,1,.234-.55,2.71,2.71,0,0,1,.358-.463,2.8,2.8,0,0,1,.463-.36,2.733,2.733,0,0,1,.545-.231,2.618,2.618,0,0,1,.61-.08" transform="translate(136.709 131.41)" fill="#004a84" fill-rule="evenodd"/>
      </g>
    </g>
  </g>
</svg>
