<svg xmlns="http://www.w3.org/2000/svg" xmlns:xlink="http://www.w3.org/1999/xlink" width="906" height="450" viewBox="0 0 906 450">
  <defs>
    <clipPath id="clip-path">
      <path id="Path_218" data-name="Path 218" d="M12.7,0,27.612,25.836h13A3.477,3.477,0,0,0,43.622,24.1l10.9-18.879A3.48,3.48,0,0,0,51.509,0Z" transform="translate(-12.704)" fill="none"/>
    </clipPath>
    <linearGradient id="linear-gradient" x1="-0.383" y1="1.875" x2="-0.348" y2="1.875" gradientUnits="objectBoundingBox">
      <stop offset="0" stop-color="#ffb054"/>
      <stop offset="1" stop-color="#f23980"/>
    </linearGradient>
    <clipPath id="clip-path-2">
      <path id="Path_219" data-name="Path 219" d="M22.419,0,0,38.821H29.831l7.5-12.985Z" fill="none"/>
    </clipPath>
    <linearGradient id="linear-gradient-2" x1="0.107" y1="1.705" x2="0.144" y2="1.705" gradientUnits="objectBoundingBox">
      <stop offset="0" stop-color="#0061ff"/>
      <stop offset="1" stop-color="#0041ce"/>
    </linearGradient>
    <clipPath id="clip-path-3">
      <path id="Path_220" data-name="Path 220" d="M0,22,22.419,60.826,37.328,34.99,29.831,22Z" transform="translate(0 -21.998)" fill="none"/>
    </clipPath>
    <linearGradient id="linear-gradient-3" x1="0.152" y1="0.866" x2="0.185" y2="0.866" gradientUnits="objectBoundingBox">
      <stop offset="0" stop-color="#40c0c4"/>
      <stop offset="1" stop-color="#83c83f"/>
    </linearGradient>
    <clipPath id="clip-path-4">
      <path id="Path_221" data-name="Path 221" d="M27.612,29.36,12.7,55.2h44.83L42.618,29.36Z" transform="translate(-12.704 -29.36)" fill="none"/>
    </clipPath>
    <linearGradient id="linear-gradient-4" x1="-0.367" y1="0.778" x2="-0.333" y2="0.778" gradientUnits="objectBoundingBox">
      <stop offset="0" stop-color="#00b9bf"/>
      <stop offset="1" stop-color="#0061ff"/>
    </linearGradient>
    <clipPath id="clip-path-5">
      <path id="Path_222" data-name="Path 222" d="M39.16,22a3.482,3.482,0,0,0-3.014,1.74L29.655,34.99,44.571,60.826l19.4-33.609A3.48,3.48,0,0,0,60.956,22Z" transform="translate(-29.655 -21.998)" fill="none"/>
    </clipPath>
    <linearGradient id="linear-gradient-5" x1="-1.017" y1="0.904" x2="-0.979" y2="0.904" gradientUnits="objectBoundingBox">
      <stop offset="0" stop-color="#9b1578"/>
      <stop offset="1" stop-color="#f7257d"/>
      <stop offset="1" stop-color="#f23980"/>
    </linearGradient>
  </defs>
  <g id="comparably" transform="translate(-993 -2527)">
    <rect id="Rectangle_14" data-name="Rectangle 14" width="906" height="450" transform="translate(993 2527)" fill="#fff"/>
    <g id="Group_61" data-name="Group 61" transform="translate(0 -5)">
      <text id="_8x_Award_Recipent" data-name="8x Award Recipent" transform="translate(1450 2841.807)" fill="#6a6a6a" font-size="18" font-family="Montserrat-SemiBold, Montserrat" font-weight="600"><tspan x="-87.633" y="0">8x Award Recipent</tspan></text>
      <g id="Group_60" data-name="Group 60" transform="translate(-642.703 -2449.458)">
        <g id="Group_58" data-name="Group 58" transform="translate(2044.786 5102)">
          <g id="Group_45" data-name="Group 45" transform="translate(22.419)" clip-path="url(#clip-path)">
            <rect id="Rectangle_26" data-name="Rectangle 26" width="49.819" height="47.179" transform="translate(-12.618 10.149) rotate(-38.812)" fill="url(#linear-gradient)"/>
          </g>
          <g id="Group_47" data-name="Group 47" clip-path="url(#clip-path-2)">
            <rect id="Rectangle_27" data-name="Rectangle 27" width="47.505" height="48.463" transform="translate(-11.419 3.714) rotate(-18.017)" fill="url(#linear-gradient-2)"/>
          </g>
          <g id="Group_49" data-name="Group 49" transform="translate(0 38.82)" clip-path="url(#clip-path-3)">
            <rect id="Rectangle_28" data-name="Rectangle 28" width="53.656" height="53.429" transform="matrix(0.628, -0.779, 0.779, 0.628, -18.972, 23.533)" fill="url(#linear-gradient-3)"/>
          </g>
          <g id="Group_51" data-name="Group 51" transform="translate(22.419 51.812)" clip-path="url(#clip-path-4)">
            <rect id="Rectangle_29" data-name="Rectangle 29" width="51.692" height="45.862" transform="matrix(0.844, -0.537, 0.537, 0.844, -11.701, 7.445)" fill="url(#linear-gradient-4)"/>
          </g>
          <g id="Group_53" data-name="Group 53" transform="translate(52.333 38.82)" clip-path="url(#clip-path-5)">
            <rect id="Rectangle_30" data-name="Rectangle 30" width="46.259" height="48.242" transform="translate(-11.84 4.028) rotate(-18.79)" fill="url(#linear-gradient-5)"/>
          </g>
        </g>
        <path id="Path_224" data-name="Path 224" d="M76.466,47.566a19.877,19.877,0,0,1-7.777-1.474,18.8,18.8,0,0,1-6-4.068,18.471,18.471,0,0,1-3.865-6.05A20.33,20.33,0,0,1,57.454,28.5a19.547,19.547,0,0,1,1.424-7.523,18.048,18.048,0,0,1,3.964-6.05,17.776,17.776,0,0,1,6-4.017,19.8,19.8,0,0,1,17.333,1.068,16.947,16.947,0,0,1,3.865,2.9,18.169,18.169,0,0,1,2.947,3.711L85.21,23.521a9.962,9.962,0,0,0-3.457-3.914,9.139,9.139,0,0,0-5.236-1.475,9.906,9.906,0,0,0-4.066.814A9.516,9.516,0,0,0,69.3,21.183a9.99,9.99,0,0,0-2.084,3.3,11.665,11.665,0,0,0,0,8.031,9.646,9.646,0,0,0,5.134,5.441,9.914,9.914,0,0,0,4.068.812,9.053,9.053,0,0,0,5.591-1.676,11.117,11.117,0,0,0,3.406-4.371L93.6,37.094a19.9,19.9,0,0,1-2.9,4.218,19.539,19.539,0,0,1-3.914,3.357A18.062,18.062,0,0,1,82.007,46.8a19.558,19.558,0,0,1-5.541.762m34.1,0a15.592,15.592,0,0,1-5.947-1.119A14.09,14.09,0,0,1,99.988,43.4a14.223,14.223,0,0,1,0-20.13,13.713,13.713,0,0,1,4.627-3.1,15.592,15.592,0,0,1,5.947-1.119,15.089,15.089,0,0,1,5.847,1.119,14.283,14.283,0,0,1,4.677,3.1A13.982,13.982,0,0,1,125.3,33.332a13.826,13.826,0,0,1-1.117,5.541,13.307,13.307,0,0,1-3.049,4.525,14.089,14.089,0,0,1-4.627,3.049,15.35,15.35,0,0,1-5.947,1.119m.051-8.082A6.249,6.249,0,0,0,113,39.025a6.345,6.345,0,0,0,1.982-1.32,6,6,0,0,0,1.322-1.984,5.823,5.823,0,0,0,.508-2.441,5.7,5.7,0,0,0-.508-2.388,6.075,6.075,0,0,0-3.3-3.305,5.69,5.69,0,0,0-2.389-.508,6.063,6.063,0,0,0-2.441.508,5.965,5.965,0,0,0-1.982,1.324,6.356,6.356,0,0,0-1.324,1.982,6.252,6.252,0,0,0-.455,2.388,6.38,6.38,0,0,0,.457,2.441,7.215,7.215,0,0,0,1.322,1.984,7.259,7.259,0,0,0,1.982,1.322,6.673,6.673,0,0,0,2.441.457m18.634-19.876h8.591v3.3a9.037,9.037,0,0,1,3.152-2.847,9.138,9.138,0,0,1,4.322-1.016,9.451,9.451,0,0,1,4.879,1.168,7.68,7.68,0,0,1,3.152,3.254,9.49,9.49,0,0,1,3.406-3.252,9.779,9.779,0,0,1,4.779-1.17q4.828,0,7.371,2.847,2.541,2.8,2.541,7.828V47.059H162.7V31.452a6.1,6.1,0,0,0-.914-3.609,3.5,3.5,0,0,0-3.049-1.271,3.735,3.735,0,0,0-2.949,1.271,5.98,5.98,0,0,0-1.119,4.017v15.2h-8.742V31.4a5.636,5.636,0,0,0-.967-3.559,3.326,3.326,0,0,0-2.9-1.271,3.782,3.782,0,0,0-3.049,1.324,5.985,5.985,0,0,0-1.119,4.015V47.059h-8.642V19.607m63.133,28.01q-5.339,0-7.828-3.559v13.98h-8.541V19.607h8.49v3.406a8.5,8.5,0,0,1,3.1-2.9,9.546,9.546,0,0,1,4.677-1.068,11.643,11.643,0,0,1,4.779,1.016,11.473,11.473,0,0,1,4.017,2.847,13.722,13.722,0,0,1,2.846,4.474,15.772,15.772,0,0,1,1.068,5.947,15.929,15.929,0,0,1-1.068,6,13.7,13.7,0,0,1-2.846,4.472,12.4,12.4,0,0,1-4.017,2.847,11.9,11.9,0,0,1-4.677.967M190.3,39.482a6.28,6.28,0,0,0,2.389-.455,6.356,6.356,0,0,0,1.982-1.324,5.977,5.977,0,0,0,1.322-1.982,5.824,5.824,0,0,0,.508-2.441,5.7,5.7,0,0,0-.508-2.388,6.075,6.075,0,0,0-3.3-3.305,5.69,5.69,0,0,0-2.389-.508,6.063,6.063,0,0,0-2.441.508,5.966,5.966,0,0,0-1.982,1.324,6.3,6.3,0,0,0-1.322,1.982,6.234,6.234,0,0,0-.459,2.388,6.38,6.38,0,0,0,.459,2.441,7.215,7.215,0,0,0,1.322,1.984,7.286,7.286,0,0,0,1.982,1.322,6.673,6.673,0,0,0,2.441.457Zm26.623,8.135a12.519,12.519,0,0,1-3.863-.559,8.311,8.311,0,0,1-2.949-1.627,7.229,7.229,0,0,1-1.881-2.592,9.219,9.219,0,0,1,.2-7.32,7.868,7.868,0,0,1,2.492-2.9,12.05,12.05,0,0,1,3.914-1.881,18.463,18.463,0,0,1,5.134-.66h6.3v-.2a3.389,3.389,0,0,0-1.219-2.744,4.972,4.972,0,0,0-3.457-1.068,6.488,6.488,0,0,0-3.2.711,4.876,4.876,0,0,0-1.982,2.135L208.328,25.3a17.366,17.366,0,0,1,5.285-4.525,16.353,16.353,0,0,1,7.931-1.729q6.252,0,9.607,2.951,3.357,2.9,3.357,8.285V47.058h-8.185V43.4a9.7,9.7,0,0,1-3.814,3.1A13.292,13.292,0,0,1,216.919,47.617Zm2.9-6.761a7.23,7.23,0,0,0,2.084-.305,8.417,8.417,0,0,0,1.931-.916,7.758,7.758,0,0,0,1.576-1.371,5.7,5.7,0,0,0,.967-1.678v-.559h-5.236a6.185,6.185,0,0,0-3.508.762,2.17,2.17,0,0,0-1.068,1.881q0,2.187,3.254,2.187m19.241-21.249H247.5V23.47a6.723,6.723,0,0,1,3.049-3.406,10.129,10.129,0,0,1,4.677-1.016,9.777,9.777,0,0,1,2.492.305,12.076,12.076,0,0,1,2.135.762L256.9,28.657a5.118,5.118,0,0,0-1.678-.764,6.569,6.569,0,0,0-2.185-.355,5.667,5.667,0,0,0-4.017,1.371q-1.474,1.374-1.474,4.677V47.059h-8.49Zm30.184,28.01a12.527,12.527,0,0,1-3.863-.559,8.311,8.311,0,0,1-2.949-1.627,7.2,7.2,0,0,1-1.879-2.592,8.6,8.6,0,0,1-.662-3.457,8.508,8.508,0,0,1,.865-3.863,7.863,7.863,0,0,1,2.49-2.9,12.067,12.067,0,0,1,3.914-1.881,18.476,18.476,0,0,1,5.135-.66h6.3v-.2a3.39,3.39,0,0,0-1.221-2.744,4.965,4.965,0,0,0-3.455-1.068,6.489,6.489,0,0,0-3.2.711,4.879,4.879,0,0,0-1.984,2.135L260.651,25.3a17.394,17.394,0,0,1,5.287-4.525,16.353,16.353,0,0,1,7.931-1.729q6.252,0,9.607,2.951,3.354,2.9,3.355,8.285V47.058h-8.185V43.4a9.681,9.681,0,0,1-3.812,3.1A13.3,13.3,0,0,1,269.242,47.617Zm2.9-6.761a7.221,7.221,0,0,0,2.084-.305,8.4,8.4,0,0,0,1.932-.916,7.8,7.8,0,0,0,1.576-1.371,5.653,5.653,0,0,0,.965-1.678v-.559h-5.236a6.182,6.182,0,0,0-3.507.762,2.166,2.166,0,0,0-1.068,1.881Q268.887,40.856,272.139,40.856ZM307.7,47.617a10.042,10.042,0,0,1-4.728-1.068,8.932,8.932,0,0,1-3.2-3.051v3.561h-8.388V7h8.437V23.013a8.5,8.5,0,0,1,3.1-2.9,9.541,9.541,0,0,1,4.677-1.068,11.649,11.649,0,0,1,4.779,1.016,11.481,11.481,0,0,1,4.015,2.847,13.693,13.693,0,0,1,2.847,4.474,15.739,15.739,0,0,1,1.068,5.947,15.9,15.9,0,0,1-1.068,6,13.666,13.666,0,0,1-2.847,4.472,12.409,12.409,0,0,1-4.015,2.847A11.913,11.913,0,0,1,307.7,47.617Zm-8.285-14.335a6.37,6.37,0,0,0,.457,2.439,7.255,7.255,0,0,0,1.322,1.984,7.294,7.294,0,0,0,1.984,1.322,6.657,6.657,0,0,0,2.439.457A6.242,6.242,0,0,0,308,39.025a6.353,6.353,0,0,0,1.984-1.32,6,6,0,0,0,1.322-1.984,5.823,5.823,0,0,0,.508-2.441,5.7,5.7,0,0,0-.508-2.388A6.071,6.071,0,0,0,308,27.587a5.69,5.69,0,0,0-2.389-.508,6.405,6.405,0,0,0-4.422,1.832,6.381,6.381,0,0,0-1.322,1.982,6.254,6.254,0,0,0-.457,2.388ZM324.2,7h8.49V47.058H324.2Zm16.924,51.648a13.279,13.279,0,0,1-4.728-.865,14.6,14.6,0,0,1-3.964-2.084l4.879-6.71a5.69,5.69,0,0,0,1.627,1.218,4.2,4.2,0,0,0,2.084.51,4.569,4.569,0,0,0,2.8-.865,5.558,5.558,0,0,0,1.881-2.744l.406-1.016L335.324,19.607h9.1l6,15.554,5.591-15.554h8.847L353.421,48.634a29.384,29.384,0,0,1-2.287,4.728,11.5,11.5,0,0,1-2.644,3.1,8.756,8.756,0,0,1-3.252,1.677A14.981,14.981,0,0,1,341.119,58.648Z" transform="translate(1877.546 5201.268)" fill="#000514"/>
      </g>
    </g>
  </g>
</svg>
