<svg xmlns="http://www.w3.org/2000/svg" xmlns:xlink="http://www.w3.org/1999/xlink" width="105" height="105" viewBox="0 0 105 105">
  <defs>
    <clipPath id="clip-path">
      <rect id="Rectangle_91" data-name="Rectangle 91" width="64" height="70" transform="translate(-0.067 -0.164)" fill="#0e71c3"/>
    </clipPath>
    <clipPath id="clip-ICO-tax-resolution">
      <rect width="105" height="105"/>
    </clipPath>
  </defs>
  <g id="ICO-tax-resolution" clip-path="url(#clip-ICO-tax-resolution)">
    <g id="Group_138" data-name="Group 138">
      <path id="Line_18" data-name="Line 18" d="M0,12a1,1,0,0,1-1-1V0A1,1,0,0,1,0-1,1,1,0,0,1,1,0V11A1,1,0,0,1,0,12Z" transform="translate(36 30)" fill="#0e71c3"/>
      <path id="Line_19" data-name="Line 19" d="M9,1H0A1,1,0,0,1-1,0,1,1,0,0,1,0-1H9a1,1,0,0,1,1,1A1,1,0,0,1,9,1Z" transform="translate(31 30)" fill="#0e71c3"/>
      <path id="Path_217" data-name="Path 217" d="M25.613,20.612a1,1,0,0,1-.9-.553l-4.912-9.823-4.912,9.823a1,1,0,0,1-1.789-.894L18.912,7.553a1,1,0,0,1,1.789,0l5.806,11.612a1,1,0,0,1-.894,1.447Z" transform="translate(27.388 21.776)" fill="#0e71c3"/>
      <path id="Line_20" data-name="Line 20" d="M9,12a1,1,0,0,1-.775-.367l-9-11A1,1,0,0,1-.633-.774,1,1,0,0,1,.774-.633l9,11A1,1,0,0,1,9,12Z" transform="translate(57 30)" fill="#0e71c3"/>
      <path id="Line_21" data-name="Line 21" d="M0,12a1,1,0,0,1-.633-.226,1,1,0,0,1-.141-1.407l9-11A1,1,0,0,1,9.633-.774,1,1,0,0,1,9.774.633l-9,11A1,1,0,0,1,0,12Z" transform="translate(57 30)" fill="#0e71c3"/>
      <path id="Line_22" data-name="Line 22" d="M9,1H0A1,1,0,0,1-1,0,1,1,0,0,1,0-1H9a1,1,0,0,1,1,1A1,1,0,0,1,9,1Z" transform="translate(43 38)" fill="#0e71c3"/>
      <g id="Group_137" data-name="Group 137" transform="translate(21.067 18.164)">
        <g id="Group_136" data-name="Group 136" clip-path="url(#clip-path)">
          <path id="Path_218" data-name="Path 218" d="M18.418,68.769H1a1,1,0,0,1-1-1V1A1,1,0,0,1,1,0H53.254a1,1,0,0,1,1,1V23.99a1,1,0,0,1-2,0V2H2V66.769H18.418a1,1,0,1,1,0,2Z" transform="translate(0.451 0.452)" fill="#0e71c3"/>
          <path id="Ellipse_21" data-name="Ellipse 21" d="M11.612-1A23.868,23.868,0,0,1,20.194.432c2.6,1.039,4.03,2.536,4.03,4.213s-1.431,3.173-4.03,4.213a23.868,23.868,0,0,1-8.582,1.432A23.868,23.868,0,0,1,3.03,8.858C.431,7.818-1,6.322-1,4.645S.431,1.471,3.03.432A23.868,23.868,0,0,1,11.612-1Zm0,9.29A21.851,21.851,0,0,0,19.451,7c1.71-.684,2.772-1.587,2.772-2.356s-1.062-1.672-2.772-2.356A21.851,21.851,0,0,0,11.612,1a21.851,21.851,0,0,0-7.84,1.289C2.062,2.973,1,3.876,1,4.645S2.062,6.317,3.772,7A21.851,21.851,0,0,0,11.612,8.29Z" transform="translate(24.675 44.996)" fill="#0e71c3"/>
          <path id="Path_219" data-name="Path 219" d="M28.612,46.812A23.866,23.866,0,0,1,20.03,45.38c-2.6-1.04-4.03-2.536-4.03-4.213V34.2a1,1,0,0,1,2,0v6.967c0,.769,1.062,1.672,2.773,2.356a21.849,21.849,0,0,0,7.839,1.289,21.849,21.849,0,0,0,7.839-1.289c1.71-.684,2.773-1.587,2.773-2.356V34.2a1,1,0,0,1,2,0v6.967c0,1.677-1.431,3.173-4.03,4.213A23.866,23.866,0,0,1,28.612,46.812Z" transform="translate(7.675 15.441)" fill="#0e71c3"/>
          <path id="Path_220" data-name="Path 220" d="M28.612,51.612A23.866,23.866,0,0,1,20.03,50.18c-2.6-1.04-4.03-2.536-4.03-4.213V39a1,1,0,0,1,2,0v6.967c0,.769,1.062,1.672,2.773,2.356a21.849,21.849,0,0,0,7.839,1.289,21.849,21.849,0,0,0,7.839-1.289c1.71-.684,2.773-1.587,2.773-2.356V39a1,1,0,0,1,2,0v6.967c0,1.677-1.431,3.173-4.03,4.213A23.866,23.866,0,0,1,28.612,51.612Z" transform="translate(7.675 17.608)" fill="#0e71c3"/>
          <path id="Ellipse_22" data-name="Ellipse 22" d="M11.612-1A23.868,23.868,0,0,1,20.194.432c2.6,1.039,4.03,2.536,4.03,4.213s-1.431,3.173-4.03,4.213a23.868,23.868,0,0,1-8.582,1.432A23.868,23.868,0,0,1,3.03,8.858C.431,7.818-1,6.322-1,4.645S.431,1.471,3.03.432A23.868,23.868,0,0,1,11.612-1Zm0,9.29A21.851,21.851,0,0,0,19.451,7c1.71-.684,2.772-1.587,2.772-2.356s-1.062-1.672-2.772-2.356A21.851,21.851,0,0,0,11.612,1a21.851,21.851,0,0,0-7.84,1.289C2.062,2.973,1,3.876,1,4.645S2.062,6.317,3.772,7A21.851,21.851,0,0,0,11.612,8.29Z" transform="translate(39.19 30.481)" fill="#0e71c3"/>
          <path id="Line_23" data-name="Line 23" d="M0,6.806a1,1,0,0,1-1-1V0A1,1,0,0,1,0-1,1,1,0,0,1,1,0V5.806A1,1,0,0,1,0,6.806Z" transform="translate(39.19 35.126)" fill="#0e71c3"/>
          <path id="Path_221" data-name="Path 221" d="M35.792,36.789a1,1,0,0,1-.039-2,20.233,20.233,0,0,0,7.07-1.41c1.522-.668,2.43-1.495,2.43-2.212V24.2a1,1,0,0,1,2,0v6.967a3.44,3.44,0,0,1-1.1,2.409,8.121,8.121,0,0,1-2.529,1.634,22.243,22.243,0,0,1-7.8,1.577Z" transform="translate(16.16 10.926)" fill="#0e71c3"/>
          <path id="Path_222" data-name="Path 222" d="M35.951,41.58a1,1,0,0,1-.047-2,19.9,19.9,0,0,0,6.915-1.431c1.48-.662,2.363-1.478,2.363-2.183V29a1,1,0,0,1,2,0v6.967a3.428,3.428,0,0,1-1.072,2.384,7.978,7.978,0,0,1-2.475,1.625A21.911,21.911,0,0,1,36,41.579Z" transform="translate(16.232 13.093)" fill="#0e71c3"/>
          <path id="Path_223" data-name="Path 223" d="M36.2,46.36a1,1,0,0,1-.059-2A19.332,19.332,0,0,0,42.812,42.9c1.415-.652,2.259-1.45,2.259-2.135V33.8a1,1,0,0,1,2,0v6.967c0,1.084-.594,2.649-3.423,3.952a21.339,21.339,0,0,1-7.391,1.639Z" transform="translate(16.343 15.261)" fill="#0e71c3"/>
          <path id="Path_224" data-name="Path 224" d="M35.951,51.18a1,1,0,0,1-.047-2,19.9,19.9,0,0,0,6.915-1.432c1.48-.662,2.363-1.478,2.363-2.182V38.6a1,1,0,0,1,2,0v6.967A3.427,3.427,0,0,1,46.11,47.95a7.981,7.981,0,0,1-2.474,1.625A21.906,21.906,0,0,1,36,51.179Z" transform="translate(16.232 17.428)" fill="#0e71c3"/>
          <path id="Line_24" data-name="Line 24" d="M21,1H0A1,1,0,0,1-1,0,1,1,0,0,1,0-1H21a1,1,0,0,1,1,1A1,1,0,0,1,21,1Z" transform="translate(9.933 31.836)" fill="#0e71c3"/>
          <path id="Line_25" data-name="Line 25" d="M16,1H0A1,1,0,0,1-1,0,1,1,0,0,1,0-1H16a1,1,0,0,1,1,1A1,1,0,0,1,16,1Z" transform="translate(9.933 38.836)" fill="#0e71c3"/>
          <path id="Line_26" data-name="Line 26" d="M6,1H0A1,1,0,0,1-1,0,1,1,0,0,1,0-1H6A1,1,0,0,1,7,0,1,1,0,0,1,6,1Z" transform="translate(9.933 46.836)" fill="#0e71c3"/>
          <path id="Line_27" data-name="Line 27" d="M6,1H0A1,1,0,0,1-1,0,1,1,0,0,1,0-1H6A1,1,0,0,1,7,0,1,1,0,0,1,6,1Z" transform="translate(9.933 53.836)" fill="#0e71c3"/>
        </g>
      </g>
    </g>
  </g>
</svg>
