<svg xmlns="http://www.w3.org/2000/svg" xmlns:xlink="http://www.w3.org/1999/xlink" width="105" height="105" viewBox="0 0 105 105">
  <defs>
    <clipPath id="clip-ICO-tax-audit">
      <rect width="105" height="105"/>
    </clipPath>
  </defs>
  <g id="ICO-tax-audit" clip-path="url(#clip-ICO-tax-audit)">
    <g id="np_audit_4145472_000000" transform="translate(12.58 12.966)">
      <path id="Path_212" data-name="Path 212" d="M8.385,67.542H43.133A8.386,8.386,0,0,0,46.087,73H14.429a6.225,6.225,0,0,1-6.044-5.461ZM66.194,7.678a6.311,6.311,0,0,1,6.212,5.452H59.994A6.4,6.4,0,0,1,66.194,7.678ZM21.632,5.7a8.43,8.43,0,0,0-8.421,8.421V65.573H6.989a.98.98,0,0,0-.977.977,8.423,8.423,0,0,0,8.418,8.421H51.494a8.5,8.5,0,0,0,6.512-3.063A10.086,10.086,0,0,0,59,70.387a.985.985,0,1,0-1.756-.892,6.015,6.015,0,0,1-.761,1.158,6.454,6.454,0,0,1-11.429-3.861C45,65.833,44.637,65.57,43.9,65.57l-28.722,0V14.117A6.413,6.413,0,0,1,21.632,7.67H60.959a8.394,8.394,0,0,0-3.015,6.448v8.439a.986.986,0,1,0,1.97,0V15.1H73.806a.987.987,0,0,0,.983-.983A8.544,8.544,0,0,0,66,5.7Z" transform="translate(0 0)" fill="#0e71c3" fill-rule="evenodd"/>
      <path id="Path_213" data-name="Path 213" d="M69.166,63.953a2.839,2.839,0,0,1,1.946,1.014l6.836,8.075a2.858,2.858,0,1,1-4.365,3.69l-6.836-8.075a2.826,2.826,0,0,1,.33-4.026,2.866,2.866,0,0,1,2.089-.678ZM51.7,29.372a17.343,17.343,0,1,1-10.984,4.105A17.337,17.337,0,0,1,51.7,29.372Zm-.027-1.958A19.311,19.311,0,1,0,63.634,62.08l1.484,1.753a4.852,4.852,0,0,0,.116,6.1l6.842,8.075a4.827,4.827,0,1,0,7.37-6.237L72.611,63.7a4.842,4.842,0,0,0-5.986-1.127l-1.487-1.756a19.313,19.313,0,0,0-13.47-33.4Z" transform="translate(-5.801 -4.736)" fill="#0e71c3" fill-rule="evenodd"/>
      <path id="Path_214" data-name="Path 214" d="M53.442,38.614a10.587,10.587,0,1,0,11.444,9.508.985.985,0,0,0-1.961.2,8.613,8.613,0,1,1-3.787-6.323.985.985,0,0,0,1.09-1.64,10.5,10.5,0,0,0-6.787-1.741Z" transform="translate(-8.234 -7.17)" fill="#0e71c3" fill-rule="evenodd"/>
      <path id="Path_215" data-name="Path 215" d="M66.149,41.537a1,1,0,0,0-.583.284L55.542,51.5l-2.926-2.874a.986.986,0,1,0-1.377,1.408l2.987,2.941a1.891,1.891,0,0,0,2.624,0l10.083-9.731a.988.988,0,0,0-.782-1.7Z" transform="translate(-9.788 -7.816)" fill="#0e71c3" fill-rule="evenodd"/>
    </g>
  </g>
</svg>
