<svg xmlns="http://www.w3.org/2000/svg" xmlns:xlink="http://www.w3.org/1999/xlink" width="105" height="105" viewBox="0 0 105 105">
  <defs>
    <clipPath id="clip-path">
      <rect id="Rectangle_93" data-name="Rectangle 93" width="70" height="70" fill="#0e71c3"/>
    </clipPath>
    <clipPath id="clip-ICO-tax-settlement">
      <rect width="105" height="105"/>
    </clipPath>
  </defs>
  <g id="ICO-tax-settlement" clip-path="url(#clip-ICO-tax-settlement)">
    <g id="Group_143" data-name="Group 143">
      <g id="Group_142" data-name="Group 142" transform="translate(18 18)" clip-path="url(#clip-path)">
        <path id="Ellipse_21" data-name="Ellipse 21" d="M6.908-1A7.908,7.908,0,1,1-1,6.908,7.917,7.917,0,0,1,6.908-1Zm0,13.816A5.908,5.908,0,1,0,1,6.908,5.915,5.915,0,0,0,6.908,12.816Z" transform="translate(24.331 54.726)" fill="#0e71c3"/>
        <path id="Path_217" data-name="Path 217" d="M25.821,60.379a1,1,0,0,1-.915-1.4L46.217,10.6a1,1,0,0,1,1.4-.471c3.218,1.788,4.517,4.827,3.862,9.035-.526,3.375-2.2,6.934-3.548,9.795-.248.526-.482,1.023-.695,1.49l-.061.133c-1.252,2.744-2.434,5.336-4.248,7.24a9.671,9.671,0,0,1-3.41,2.346,12.355,12.355,0,0,1-4.513.845L26.737,59.782A1,1,0,0,1,25.821,60.379Zm21.75-47.9L35.908,38.962c5.458-.468,7.157-4.19,9.449-9.214l.061-.134c.218-.478.454-.98.7-1.511,1.292-2.744,2.9-6.16,3.381-9.25C49.959,15.928,49.344,13.876,47.572,12.484Z" transform="translate(11.835 5.042)" fill="#0e71c3"/>
        <path id="Ellipse_22" data-name="Ellipse 22" d="M6.908-1A7.908,7.908,0,1,1-1,6.908,7.917,7.917,0,0,1,6.908-1Zm0,13.816A5.908,5.908,0,1,0,1,6.908,5.915,5.915,0,0,0,6.908,12.816Z" transform="translate(54.726 54.726)" fill="#0e71c3"/>
        <path id="Path_218" data-name="Path 218" d="M35.364,34.6a10.845,10.845,0,0,1-7.782-2.749,20.271,20.271,0,0,1-4.12-6.427,1,1,0,0,1,1.814-.843,18.656,18.656,0,0,0,3.671,5.808,8.831,8.831,0,0,0,6.416,2.21,1,1,0,0,1,0,2Z" transform="translate(11.17 11.458)" fill="#0e71c3"/>
        <path id="Line_18" data-name="Line 18" d="M5.253,12.673a1,1,0,0,1-.912-.59L-.912.41A1,1,0,0,1-.41-.912a1,1,0,0,1,1.322.5L6.165,11.262a1,1,0,0,1-.911,1.411Z" transform="translate(43.288 36.459)" fill="#0e71c3"/>
        <path id="Line_19" data-name="Line 19" d="M8.683,21.59a1,1,0,0,1-.922-.612L-.921.389A1,1,0,0,1-.389-.921a1,1,0,0,1,1.31.533L9.6,20.2a1,1,0,0,1-.921,1.389Z" transform="translate(46.727 43.831)" fill="#0e71c3"/>
        <path id="Path_219" data-name="Path 219" d="M25.832,8A6.833,6.833,0,1,1,19,14.833,6.842,6.842,0,0,1,25.832,8Zm0,11.667A4.833,4.833,0,1,0,21,14.833,4.84,4.84,0,0,0,25.832,19.667Z" transform="translate(9.167 4.125)" fill="#0e71c3"/>
        <path id="Path_220" data-name="Path 220" d="M38.542,29.333H10.833a1,1,0,0,1-1-1A4.839,4.839,0,0,0,5,23.5a1,1,0,0,1-1-1V10.833a1,1,0,0,1,1-1A4.839,4.839,0,0,0,9.833,5a1,1,0,0,1,1-1H38.542a1,1,0,0,1,0,2H11.76A6.85,6.85,0,0,1,6,11.76v9.813a6.85,6.85,0,0,1,5.76,5.76H38.542a1,1,0,0,1,0,2Z" transform="translate(2.292 2.292)" fill="#0e71c3"/>
        <path id="Path_221" data-name="Path 221" d="M41.837,9.862a1,1,0,0,1-.75-.338A6.825,6.825,0,0,1,39.448,6H36a1,1,0,0,1,0-2h4.375a1,1,0,0,1,1,1,4.828,4.828,0,0,0,1.211,3.2,1,1,0,0,1-.749,1.662Z" transform="translate(16.5 2.292)" fill="#0e71c3"/>
        <path id="Path_222" data-name="Path 222" d="M52.042,37h-5.67a1,1,0,0,1,0-2h4.67V2H36a1,1,0,0,1,0-2H52.042a1,1,0,0,1,1,1V36A1,1,0,0,1,52.042,37Z" transform="translate(16.5 0.458)" fill="#0e71c3"/>
        <path id="Path_223" data-name="Path 223" d="M42.829,37H1a1,1,0,0,1-1-1V1A1,1,0,0,1,1,0H40.375a1,1,0,0,1,0,2H2V35H42.829a1,1,0,0,1,0,2Z" transform="translate(0.458 0.458)" fill="#0e71c3"/>
        <path id="Line_20" data-name="Line 20" d="M0,5A1,1,0,0,1-1,4V0A1,1,0,0,1,0-1,1,1,0,0,1,1,0V4A1,1,0,0,1,0,5Z" transform="translate(47 25)" fill="#0e71c3"/>
        <path id="Line_21" data-name="Line 21" d="M0,6A1,1,0,0,1-1,5V0A1,1,0,0,1,0-1,1,1,0,0,1,1,0V5A1,1,0,0,1,0,6Z" transform="translate(47 13)" fill="#0e71c3"/>
        <path id="Line_22" data-name="Line 22" d="M0,6A1,1,0,0,1-1,5V0A1,1,0,0,1,0-1,1,1,0,0,1,1,0V5A1,1,0,0,1,0,6Z" transform="translate(47 1)" fill="#0e71c3"/>
        <path id="Path_224" data-name="Path 224" d="M14.917,13.458A1.458,1.458,0,1,1,13.458,12a1.459,1.459,0,0,1,1.458,1.458" transform="translate(5.5 5.5)" fill="#0e71c3"/>
      </g>
    </g>
  </g>
</svg>
