<svg xmlns="http://www.w3.org/2000/svg" width="906" height="450" viewBox="0 0 906 450">
  <g id="inc-5000-accred" transform="translate(-993 -160)">
    <rect id="Rectangle_13" data-name="Rectangle 13" width="906" height="450" transform="translate(993 160)" fill="#fff"/>
    <g id="logo-inc5000" transform="translate(644.356 -559.5)">
      <g id="Group_23" data-name="Group 23" transform="translate(700.978 859.5)">
        <g id="Group_22" data-name="Group 22" transform="translate(0 0)">
          <g id="Group_27" data-name="Group 27">
            <path id="Path_1" data-name="Path 1" d="M105.291,199.137V186.791h7.659V155.72h-7.659V142.554h38.73v13.192h-7.659v31.071h7.659v12.321Zm75.743,0V186.791h5.1V174.034c0-3.842-2.562-5.532-6.379-5.532a7.937,7.937,0,0,0-8.094,7.223v11.066h5.533v12.346H147.428V186.791h5.1V168.5h-5.1V156.158H171.25v8.5l1.277-1.283a19.636,19.636,0,0,1,16.163-6.813c9.352,0,17.008,3.842,17.008,14.037v16.163h5.123v12.372Zm79.15-25.1-16.6,1.691c0-4.688-1.281-9.352-6.814-9.352-7.223,0-7.659,5.969-7.659,11.5h0c0,5.969.435,11.911,7.659,11.911A6.593,6.593,0,0,0,244,183.814v-.843h16.6v1.28C258.034,197.879,245.714,200,237.184,200c-13.627,0-27.228-6.813-27.228-22.131h0c0-15.318,13.627-22.131,27.228-22.131C236.772,156.158,258.494,154.875,260.184,174.034Zm12.757,18.289a6.813,6.813,0,1,1-6.814-6.814h0a6.73,6.73,0,0,1,6.813,6.814Z" transform="translate(-82.75 -142.554)" fill="#040505"/>
            <g id="Group_26" data-name="Group 26" transform="translate(0 68.573)">
              <path id="Path_2" data-name="Path 2" d="M89.806,310.54c-4.278-3.407-9.375-5.532-14.908-5.122-4.252,0-8.94,1.281-11.911,4.251l1.277-10.22H91.057V284.567H51.923l-4.252,29.79,11.5,5.968a15.637,15.637,0,0,1,10.22-4.251,8.917,8.917,0,0,1,5.533,2.126,11.223,11.223,0,0,1,2.973,8.1,8.11,8.11,0,0,1-.435,3.407,6.8,6.8,0,0,1-7.659,5.968c-7.223,0-6.813-8.939-5.1-12.347h0l-18.29,9.785c1.281,11.5,13.192,17.009,22.977,17.009,6.814,0,13.192-2.126,17.88-6.379a22.418,22.418,0,0,0,4.688-5.968,22.1,22.1,0,0,0,2.971-11.5A19.416,19.416,0,0,0,89.806,310.54Z" transform="translate(-46.414 -284.158)" fill="#e82418"/>
              <path id="Path_3" data-name="Path 3" d="M188.312,283.637c-16.6,0-25.948,11.066-25.948,32.761s9.352,32.761,25.948,32.761S214.26,338.094,214.26,316.4,204.477,283.637,188.312,283.637Zm0,52.331c-5.969,0-7.223-5.969-7.223-19.57s1.281-19.57,7.223-19.57,7.223,5.969,7.223,19.57-1.281,19.568-7.223,19.568Z" transform="translate(-111.314 -283.637)" fill="#ff9c00"/>
              <path id="Path_4" data-name="Path 4" d="M312.988,283.637c-16.6,0-25.948,11.066-25.948,32.761s9.352,32.761,25.948,32.761,25.948-11.066,25.948-32.761S329.15,283.637,312.988,283.637Zm0,52.331c-5.969,0-7.223-5.969-7.223-19.57s1.281-19.57,7.223-19.57c5.968,0,7.223,5.969,7.223,19.57s-1.281,19.568-7.223,19.568Z" transform="translate(-181.097 -283.637)" fill="#1e53a1"/>
              <path id="Path_5" data-name="Path 5" d="M437.664,283.637c-16.6,0-25.948,11.066-25.948,32.761s9.352,32.761,25.948,32.761,25.948-11.066,25.948-32.761S453.827,283.637,437.664,283.637Zm0,52.331c-5.969,0-7.224-5.969-7.224-19.57s1.281-19.57,7.224-19.57c5.968,0,7.223,5.969,7.223,19.57s-1.281,19.568-7.223,19.568Z" transform="translate(-250.88 -283.637)" fill="#003a81"/>
            </g>
          </g>
        </g>
      </g>
      <path id="_7x_Honoree" data-name="7x Honoree" d="M-142.016-8.189h2.736l-.019-2.071h-2.47l.38-3.04h-2.128l-.38,3.04h-2.793l.38-3.04h-2.128l-.38,3.04h-2.736v2.071h2.489l-.4,3.078H-152.2V-3.04h2.489L-150.09,0h2.128l.38-3.04h2.793l-.38,3.04h2.147l.38-3.04h2.717V-5.111h-2.47Zm-5.32,3.078.4-3.078h2.793l-.4,3.078Zm8.569-8.189v2.47h2.66V0h3.078V-13.3Zm24.32,2.47V-13.3H-124.5V0h3.078V-4.845h6.156v-2.47h-6.156V-10.83Zm3.173-.817a1.7,1.7,0,0,0,1.843-1.71,1.664,1.664,0,0,0-1.843-1.6,1.694,1.694,0,0,0-1.843,1.653A1.694,1.694,0,0,0-111.273-11.647ZM-112.756,0h2.964V-10.222h-2.964Zm11.932-10.374a4.475,4.475,0,0,0-3.382,1.349v-1.2h-2.831V0h2.964V-5.054c0-1.881,1.026-2.755,2.451-2.755,1.311,0,2.071.76,2.071,2.413V0h2.964V-5.852C-96.586-8.968-98.41-10.374-100.823-10.374Zm11.039,0a7.858,7.858,0,0,0-4.408,1.235l1.064,2.071a4.915,4.915,0,0,1,2.945-.95c1.6,0,2.356.741,2.356,2.014h-2.356C-93.3-6-94.572-4.75-94.572-2.945c0,1.767,1.425,3.1,3.819,3.1a3.355,3.355,0,0,0,3.116-1.425V0h2.774V-5.833C-84.863-8.93-86.668-10.374-89.785-10.374Zm-.228,8.531c-1.045,0-1.672-.494-1.672-1.235,0-.684.437-1.2,1.824-1.2h2.033V-3.23A2.184,2.184,0,0,1-90.012-1.843Zm14.041-8.531a4.475,4.475,0,0,0-3.382,1.349v-1.2h-2.831V0h2.964V-5.054c0-1.881,1.026-2.755,2.451-2.755,1.311,0,2.071.76,2.071,2.413V0h2.964V-5.852C-71.734-8.968-73.558-10.374-75.971-10.374ZM-64,.152a4.742,4.742,0,0,0,4.579-2.584l-2.3-1.254a2.515,2.515,0,0,1-2.3,1.406A2.616,2.616,0,0,1-66.7-5.111a2.616,2.616,0,0,1,2.679-2.831,2.549,2.549,0,0,1,2.3,1.406l2.3-1.235A4.7,4.7,0,0,0-64-10.374c-3.325,0-5.7,2.185-5.7,5.263S-67.326.152-64,.152Zm7.771-11.8a1.7,1.7,0,0,0,1.843-1.71,1.664,1.664,0,0,0-1.843-1.6A1.694,1.694,0,0,0-58.073-13.3,1.694,1.694,0,0,0-56.23-11.647ZM-57.712,0h2.964V-10.222h-2.964Zm9.842-10.374a7.858,7.858,0,0,0-4.408,1.235l1.064,2.071a4.915,4.915,0,0,1,2.945-.95c1.6,0,2.356.741,2.356,2.014h-2.356c-3.116,0-4.389,1.254-4.389,3.059,0,1.767,1.425,3.1,3.819,3.1a3.355,3.355,0,0,0,3.116-1.425V0h2.774V-5.833C-42.949-8.93-44.754-10.374-47.87-10.374ZM-48.1-1.843c-1.045,0-1.672-.494-1.672-1.235,0-.684.437-1.2,1.824-1.2h2.033V-3.23A2.184,2.184,0,0,1-48.1-1.843ZM-40.27,0h2.964V-14.1H-40.27ZM-24.6.228c3.8,0,5.643-1.9,5.643-4.123,0-4.883-7.733-3.192-7.733-5.643,0-.836.7-1.52,2.527-1.52a7.512,7.512,0,0,1,3.686,1.045l.95-2.337a8.922,8.922,0,0,0-4.617-1.178c-3.781,0-5.6,1.881-5.6,4.142,0,4.94,7.733,3.23,7.733,5.719,0,.817-.741,1.425-2.565,1.425a7.823,7.823,0,0,1-4.389-1.387L-30.01-1.311A9.48,9.48,0,0,0-24.6.228Zm17.556-5.3a5.06,5.06,0,0,0-5.32-5.3,5.2,5.2,0,0,0-5.453,5.263c0,3.04,2.3,5.263,5.833,5.263A5.354,5.354,0,0,0-7.762-1.5l-1.577-1.71a3.465,3.465,0,0,1-2.565.988A2.726,2.726,0,0,1-14.83-4.275H-7.1C-7.078-4.522-7.04-4.845-7.04-5.073Zm-5.3-3.059A2.429,2.429,0,0,1-9.833-6h-5.035A2.42,2.42,0,0,1-12.341-8.132Zm10.108-.741v-1.349H-5.064V0H-2.1V-4.826A2.511,2.511,0,0,1,.617-7.676c.228,0,.418.019.665.038v-2.736A4.125,4.125,0,0,0-2.233-8.873Zm12.939-1.349L7.78-3.268,4.949-10.222H1.89L6.184,0H9.243l4.313-10.222Zm5.548-1.425a1.7,1.7,0,0,0,1.843-1.71,1.664,1.664,0,0,0-1.843-1.6A1.694,1.694,0,0,0,14.411-13.3,1.694,1.694,0,0,0,16.254-11.647ZM14.772,0h2.964V-10.222H14.772ZM25.432.152a4.742,4.742,0,0,0,4.579-2.584l-2.3-1.254a2.515,2.515,0,0,1-2.3,1.406,2.616,2.616,0,0,1-2.679-2.831,2.616,2.616,0,0,1,2.679-2.831,2.549,2.549,0,0,1,2.3,1.406l2.3-1.235a4.7,4.7,0,0,0-4.579-2.6c-3.325,0-5.7,2.185-5.7,5.263S22.107.152,25.432.152ZM41.6-5.073a5.06,5.06,0,0,0-5.32-5.3,5.2,5.2,0,0,0-5.453,5.263c0,3.04,2.3,5.263,5.833,5.263A5.354,5.354,0,0,0,40.878-1.5L39.3-3.211a3.465,3.465,0,0,1-2.565.988A2.726,2.726,0,0,1,33.81-4.275h7.733C41.563-4.522,41.6-4.845,41.6-5.073ZM36.3-8.132A2.429,2.429,0,0,1,38.807-6H33.772A2.42,2.42,0,0,1,36.3-8.132ZM47.015.152c3.059,0,4.826-1.349,4.826-3.249,0-4.028-6.175-2.337-6.175-4.085,0-.532.57-.95,1.9-.95a5.87,5.87,0,0,1,2.945.76L51.5-9.481a8.4,8.4,0,0,0-3.933-.893c-2.983,0-4.731,1.368-4.731,3.306,0,4.085,6.175,2.375,6.175,4.047,0,.57-.513.931-1.881.931a6.994,6.994,0,0,1-3.553-.988L42.588-.95A8.775,8.775,0,0,0,47.015.152Zm18.6.076a6.834,6.834,0,0,0,5.491-2.375L69.132-3.971a4.238,4.238,0,0,1-3.344,1.577A4.08,4.08,0,0,1,61.531-6.65a4.08,4.08,0,0,1,4.256-4.256,4.279,4.279,0,0,1,3.344,1.558l1.976-1.824a6.866,6.866,0,0,0-5.472-2.356c-4.142,0-7.22,2.869-7.22,6.878S61.493.228,65.617.228ZM77.473.152c3.249,0,5.6-2.185,5.6-5.263s-2.356-5.263-5.6-5.263-5.624,2.185-5.624,5.263S74.224.152,77.473.152Zm0-2.432a2.594,2.594,0,0,1-2.622-2.831,2.594,2.594,0,0,1,2.622-2.831,2.58,2.58,0,0,1,2.6,2.831A2.58,2.58,0,0,1,77.473-2.28Zm20.672-8.094A4.6,4.6,0,0,0,94.459-8.7,3.816,3.816,0,0,0,91.1-10.374a4.14,4.14,0,0,0-3.211,1.33v-1.178H85.053V0h2.964V-5.13c0-1.824.931-2.679,2.242-2.679,1.235,0,1.938.76,1.938,2.413V0h2.964V-5.13c0-1.824.931-2.679,2.261-2.679,1.2,0,1.938.76,1.938,2.413V0h2.964V-5.852C102.325-8.968,100.576-10.374,98.145-10.374Zm12.882,0a3.972,3.972,0,0,0-3.211,1.33v-1.178h-2.831V3.686h2.964V-1.083A3.968,3.968,0,0,0,111.027.152a4.965,4.965,0,0,0,5.092-5.263A4.965,4.965,0,0,0,111.027-10.374Zm-.513,8.094a2.58,2.58,0,0,1-2.6-2.831,2.58,2.58,0,0,1,2.6-2.831,2.58,2.58,0,0,1,2.6,2.831A2.58,2.58,0,0,1,110.514-2.28Zm11.533-8.094a7.858,7.858,0,0,0-4.408,1.235L118.7-7.068a4.915,4.915,0,0,1,2.945-.95c1.6,0,2.356.741,2.356,2.014h-2.356c-3.116,0-4.389,1.254-4.389,3.059,0,1.767,1.425,3.1,3.819,3.1a3.355,3.355,0,0,0,3.116-1.425V0h2.774V-5.833C126.968-8.93,125.163-10.374,122.047-10.374Zm-.228,8.531c-1.045,0-1.672-.494-1.672-1.235,0-.684.437-1.2,1.824-1.2H124V-3.23A2.184,2.184,0,0,1,121.819-1.843Zm14.041-8.531a4.475,4.475,0,0,0-3.382,1.349v-1.2h-2.831V0h2.964V-5.054c0-1.881,1.026-2.755,2.451-2.755,1.311,0,2.071.76,2.071,2.413V0H140.1V-5.852C140.1-8.968,138.273-10.374,135.859-10.374Zm14.022.152-2.888,6.935-2.869-6.935h-3.059l4.427,10.3-.038.095c-.4.912-.855,1.273-1.672,1.273A2.628,2.628,0,0,1,142.111.8l-1.083,2.109a4.539,4.539,0,0,0,2.85.931c1.843,0,3.249-.741,4.237-3.211l4.617-10.849Z" transform="translate(801.843 1025.843)" fill="#0b0b0b"/>
    </g>
  </g>
</svg>
