<svg xmlns="http://www.w3.org/2000/svg" width="906" height="450" viewBox="0 0 906 450">
  <g id="Group_20" data-name="Group 20" transform="translate(-993 -1577)">
    <rect id="Rectangle_14" data-name="Rectangle 14" width="906" height="450" transform="translate(993 1577)" fill="#fff"/>
    <g id="Group_25" data-name="Group 25" transform="translate(-628.397 208.55)">
      <g id="Group_16" data-name="Group 16" transform="translate(2015.112 1495.606)">
        <ellipse id="Ellipse_9" data-name="Ellipse 9" cx="59.5" cy="58.5" rx="59.5" ry="58.5" transform="translate(0.285 -0.157)" fill="#173fa2"/>
        <path id="np_legal_3848990_000000" d="M97.9,46.923l-12.4-25.4a2.2,2.2,0,0,0-2.153-1.207H59.281a6.373,6.373,0,0,0-12.143,0H23.07a2.212,2.212,0,0,0-1.9,1.16L8.257,47.052A2.3,2.3,0,0,0,8,48.3a15.07,15.07,0,1,0,30.14,0,2.3,2.3,0,0,0-.516-1.379L26.556,24.62H47.138a6.371,6.371,0,0,0,4,4V76.288H44.6a6.459,6.459,0,0,0-6.458,6.457v4.307A2.153,2.153,0,0,0,40.293,89.2H66.127a2.153,2.153,0,0,0,2.153-2.153V82.746a6.459,6.459,0,0,0-6.457-6.458h-6.46V28.539a6.379,6.379,0,0,0,3.918-3.918H79.863L68.624,47.095a2.3,2.3,0,0,0-.516,1.379,15.07,15.07,0,1,0,30.14,0,2.267,2.267,0,0,0-.345-1.548ZM9.21,46.363l-.3.257Zm13.86,12.7a10.768,10.768,0,0,1-10.55-8.612H33.834A10.764,10.764,0,0,1,23.071,59.066ZM37.236,46.623l-.3-.257Zm-23.6-.475L23.07,27.29,32.5,46.149ZM61.821,80.594a2.153,2.153,0,0,1,2.153,2.153V84.9H42.446V82.746A2.151,2.151,0,0,1,44.6,80.594ZM53.21,24.62a2.153,2.153,0,1,1,1.522-.63A2.153,2.153,0,0,1,53.21,24.62Zm44.309,22-.3-.257ZM83.349,27.29l9.432,18.859H73.919ZM69.484,46.362l-.3.257Zm13.86,12.7A10.768,10.768,0,0,1,72.8,50.454H94.115a10.764,10.764,0,0,1-10.764,8.611Z" transform="translate(6.036 5.722)" fill="#fff"/>
      </g>
      <text id="IRS_Power_of_Attorney_In_all_50_states" data-name="IRS Power of  Attorney In all 50 states" transform="translate(2065.397 1663.449)" fill="#173fa2" font-size="30" font-family="ProximaNova-Extrabld, Proxima Nova" letter-spacing="0.03em"><tspan x="-200.07" y="0">IRS POWER OF ATTORNEY </tspan><tspan font-family="ProximaNova-Semibold, Proxima Nova" font-weight="600"><tspan x="-128.625" y="31">IN ALL 50 STATES</tspan></tspan></text>
    </g>
  </g>
</svg>
