<svg xmlns="http://www.w3.org/2000/svg" xmlns:xlink="http://www.w3.org/1999/xlink" width="906" height="450" viewBox="0 0 906 450">
  <defs>
    <clipPath id="clip-path">
      <path id="Path_53" data-name="Path 53" d="M228.3.456a1.555,1.555,0,0,0-1.345,0l-25.6,14.774a1.485,1.485,0,0,0-.676,1.166V45.946a1.485,1.485,0,0,1-.669,1.166L174.4,61.886a.412.412,0,0,0-.249.529.4.4,0,0,0,.249.249l25.583,14.774a1.555,1.555,0,0,0,1.345,0l25.575-14.774a1.485,1.485,0,0,0,.669-1.166V31.949a1.485,1.485,0,0,1,.676-1.166l25.591-14.774c.373-.218.373-.568,0-.778Z" transform="translate(-174.128 -0.303)" fill="none"/>
    </clipPath>
  </defs>
  <g id="sm-accred" transform="translate(-57 -1577)">
    <rect id="Rectangle_15" data-name="Rectangle 15" width="906" height="450" transform="translate(57 1577)" fill="#fff"/>
    <g id="supermoney-blue_03" transform="translate(335.956 1710.119)">
      <path id="Path_39" data-name="Path 39" d="M0,153.882l3.538-5.925a17.643,17.643,0,0,0,10.746,4.316c3.546,0,5.218-1.353,5.218-3.289,0-5.085-18.437-.9-18.437-13.134,0-5.218,4.5-9.79,12.745-9.79a19.782,19.782,0,0,1,12.5,4.253l-3.25,5.809a13.421,13.421,0,0,0-9.215-3.608c-2.963,0-4.891,1.291-4.891,3.033,0,4.572,18.483.708,18.483,13.266,0,5.731-4.9,9.914-13.522,9.914C8.5,158.711,3.281,156.907,0,153.882Z" transform="translate(0 -28.036)" fill="#06a9db"/>
      <path id="Path_40" data-name="Path 40" d="M62.425,158.164v-3.935a14.774,14.774,0,0,1-10.949,4.666c-6.827,0-10.047-3.732-10.047-9.79V127.06h8.219v18.864c0,4.316,2.255,5.731,5.731,5.731a9.16,9.16,0,0,0,7.084-3.538V127.06h8.18v31.1Z" transform="translate(-9.214 -28.259)" fill="#06a9db"/>
      <path id="Path_41" data-name="Path 41" d="M96.021,153.945v15.84H87.81V126.838h8.211v3.888a12.045,12.045,0,0,1,9.6-4.666c7.986,0,13.779,5.925,13.779,16.329s-5.793,16.33-13.779,16.33a11.975,11.975,0,0,1-9.6-4.774Zm14.907-11.6c0-5.342-3.219-9.012-7.916-9.012a9.028,9.028,0,0,0-7,3.569v10.925a9.191,9.191,0,0,0,7,3.608C107.685,151.433,110.928,147.786,110.928,142.343Z" transform="translate(-19.529 -28.036)" fill="#06a9db"/>
      <path id="Path_42" data-name="Path 42" d="M132.66,142.33c0-9.012,6.7-16.33,16.1-16.33s15.552,7,15.552,17.107v1.928H141.229c.575,3.8,3.67,7,8.95,7A13.051,13.051,0,0,0,158.422,149l3.67,5.443c-3.11,2.83-7.986,4.316-12.815,4.316C139.806,158.7,132.66,152.322,132.66,142.33Zm16.1-9.588a7.181,7.181,0,0,0-7.6,6.633h15.326C156.252,136.42,154.207,132.742,148.764,132.742Z" transform="translate(-29.504 -28.023)" fill="#06a9db"/>
      <path id="Path_43" data-name="Path 43" d="M179.68,157.941v-31.1h8.18v4.183a13.632,13.632,0,0,1,9.914-4.961v7.986a10.482,10.482,0,0,0-2.255-.194c-2.7,0-6.306,1.555-7.659,3.546v20.544Z" transform="translate(-39.962 -28.036)" fill="#06a9db"/>
      <path id="Path_44" data-name="Path 44" d="M246.177,157.941V138.3c0-2.9-1.291-4.961-4.666-4.961a8.266,8.266,0,0,0-6.439,3.608v21h-8.211V138.3c0-2.9-1.283-4.961-4.666-4.961a8.446,8.446,0,0,0-6.438,3.608v21H207.6v-31.1h8.18v3.989a13.935,13.935,0,0,1,10.171-4.767c4.572,0,7.535,2.123,8.631,5.606a13.328,13.328,0,0,1,10.692-5.606c5.731,0,9.145,3.025,9.145,9.4v22.48Z" transform="translate(-46.171 -28.036)" fill="#06a9db"/>
      <path id="Path_45" data-name="Path 45" d="M274.29,142.33c0-8.818,6.182-16.33,16.423-16.33s16.485,7.473,16.485,16.33-6.182,16.329-16.485,16.329S274.29,151.163,274.29,142.33Zm24.409,0c0-4.829-2.838-9.012-7.986-9.012s-7.924,4.191-7.924,9.012,2.83,9.09,7.893,9.09S298.7,147.236,298.7,142.33Z" transform="translate(-61.003 -28.023)" fill="#06a9db"/>
      <path id="Path_46" data-name="Path 46" d="M344.137,157.941v-18.81c0-4.316-2.247-5.793-5.731-5.793a9.113,9.113,0,0,0-7.084,3.608v21H323.15v-31.1h8.173v3.989a14.556,14.556,0,0,1,10.886-4.767c6.89,0,10.171,3.888,10.171,9.922v21.959Z" transform="translate(-71.87 -28.036)" fill="#06a9db"/>
      <path id="Path_47" data-name="Path 47" d="M367.09,142.33c0-9.012,6.7-16.33,16.1-16.33s15.552,7,15.552,17.107v1.928H375.659c.575,3.8,3.67,7,8.95,7A13.051,13.051,0,0,0,392.852,149l3.67,5.443c-3.11,2.83-7.986,4.316-12.815,4.316C374.236,158.7,367.09,152.322,367.09,142.33Zm16.1-9.6a7.181,7.181,0,0,0-7.6,6.633h15.326c-.28-2.947-2.333-6.625-7.722-6.625Z" transform="translate(-81.643 -28.023)" fill="#06a9db"/>
      <path id="Path_48" data-name="Path 48" d="M413.2,166.142l3.67-5.855c2.255,2.706,6.05,3.795,9.331,3.795,5.28,0,8.367-3.6,8.367-7.978v-3.227a14.774,14.774,0,0,1-10.941,4.666c-6.827,0-10.047-3.732-10.047-9.79V127.06h8.173v17.511c0,4.316,2.255,5.731,5.739,5.731a9.145,9.145,0,0,0,7.076-3.538v-19.7h8.18V156.1c0,9.331-6.633,14.681-16.547,14.681A18.739,18.739,0,0,1,413.2,166.142Z" transform="translate(-91.898 -28.259)" fill="#06a9db"/>
      <path id="Path_49" data-name="Path 49" d="M227.512,0,200.568,15.552v31.1L173.64,62.208,200.576,77.76,227.5,62.208V31.1l26.944-15.552Z" transform="translate(-38.618)" fill="rgba(255,255,255,0)"/>
      <g id="Group_9" data-name="Group 9" transform="translate(135.401 0.236)" clip-path="url(#clip-path)">
        <path id="Path_50" data-name="Path 50" d="M235.216,0,208.28,15.552,235.216,31.1l26.936-15.552Z" transform="translate(-181.724 -0.236)" fill="#06a9db"/>
        <path id="Path_51" data-name="Path 51" d="M200.576,60,173.64,75.552,200.576,91.1l26.936-15.552Z" transform="translate(-174.02 -13.58)" fill="#06a9db"/>
        <path id="Path_52" data-name="Path 52" d="M208.28,20l26.936,15.552v31.1L208.28,51.1Z" transform="translate(-181.724 -4.684)" fill="#06a9db" opacity="0.3" style="isolation: isolate"/>
      </g>
    </g>
    <path id="Path_225" data-name="Path 225" d="M-109.35,0l-2.9-4.14a4.028,4.028,0,0,0,2.682-3.978c0-2.79-2.052-4.482-5.364-4.482h-5.184V0h2.34V-3.672h2.844a4.386,4.386,0,0,0,.486-.018L-111.87,0Zm-2.574-8.118c0,1.584-1.062,2.52-3.114,2.52h-2.736V-10.62h2.736C-112.986-10.62-111.924-9.7-111.924-8.118Zm8.334-1.6a6.758,6.758,0,0,0-4.068,1.188l.882,1.638a4.759,4.759,0,0,1,2.916-.954c1.6,0,2.394.774,2.394,2.088v.144h-2.484c-2.916,0-4,1.26-4,2.862,0,1.674,1.386,2.88,3.582,2.88a3.406,3.406,0,0,0,3.024-1.3V0h2.124V-5.634C-99.216-8.406-100.818-9.72-103.59-9.72Zm-.306,8.208c-1.152,0-1.836-.522-1.836-1.332,0-.7.414-1.278,1.944-1.278h2.322v1.116A2.45,2.45,0,0,1-103.9-1.512Zm12.708-.612a2.023,2.023,0,0,1-1.26.4c-.864,0-1.332-.5-1.332-1.44V-7.74h2.574v-1.8H-93.78v-2.2h-2.25v2.2h-1.584v1.8h1.584v4.626c0,2.124,1.206,3.24,3.312,3.24a3.536,3.536,0,0,0,2.16-.648Zm11.2-2.628a4.687,4.687,0,0,0-4.86-4.968A4.78,4.78,0,0,0-89.82-4.806c0,2.862,2.088,4.932,5.31,4.932A4.872,4.872,0,0,0-80.64-1.44l-1.206-1.386a3.445,3.445,0,0,1-2.61,1.044,2.909,2.909,0,0,1-3.114-2.3h7.542C-80.01-4.3-79.992-4.572-79.992-4.752Zm-4.86-3.168a2.617,2.617,0,0,1,2.718,2.34h-5.454A2.657,2.657,0,0,1-84.852-7.92Zm14.184-5.436v4.932a3.936,3.936,0,0,0-3.1-1.3,4.663,4.663,0,0,0-4.86,4.914A4.678,4.678,0,0,0-73.764.126a3.963,3.963,0,0,0,3.186-1.368V0h2.16V-13.356ZM-73.494-1.8a2.809,2.809,0,0,1-2.862-3.006,2.809,2.809,0,0,1,2.862-3.006,2.809,2.809,0,0,1,2.862,3.006A2.809,2.809,0,0,1-73.494-1.8Zm22.14-4.752a3.021,3.021,0,0,0,1.62-2.772c0-2-1.62-3.276-4.644-3.276h-5.9V0h6.264c3.24,0,4.932-1.26,4.932-3.42A3.1,3.1,0,0,0-51.354-6.552Zm-3.276-4.212c1.62,0,2.538.576,2.538,1.746,0,1.152-.918,1.728-2.538,1.728h-3.312v-3.474Zm.468,8.928h-3.78V-5.472h3.78c1.764,0,2.718.558,2.718,1.818S-52.4-1.836-54.162-1.836Zm16.4-2.916a4.687,4.687,0,0,0-4.86-4.968,4.78,4.78,0,0,0-4.968,4.914c0,2.862,2.088,4.932,5.31,4.932a4.872,4.872,0,0,0,3.87-1.566l-1.206-1.386a3.445,3.445,0,0,1-2.61,1.044,2.909,2.909,0,0,1-3.114-2.3H-37.8C-37.782-4.3-37.764-4.572-37.764-4.752Zm-4.86-3.168a2.617,2.617,0,0,1,2.718,2.34H-45.36A2.657,2.657,0,0,1-42.624-7.92Zm9.99,8.046c2.7,0,4.356-1.17,4.356-2.97,0-3.762-5.94-2.034-5.94-3.978,0-.63.648-1.08,2.016-1.08a5.261,5.261,0,0,1,2.754.72l.864-1.71a7.65,7.65,0,0,0-3.6-.828c-2.592,0-4.23,1.188-4.23,3.006,0,3.834,5.94,2.106,5.94,3.942,0,.666-.594,1.062-2.016,1.062a6.467,6.467,0,0,1-3.348-.954L-36.7-.954A7.637,7.637,0,0,0-32.634.126Zm11.448-2.25a2.023,2.023,0,0,1-1.26.4c-.864,0-1.332-.5-1.332-1.44V-7.74H-21.2v-1.8h-2.574v-2.2h-2.25v2.2h-1.584v1.8h1.584v4.626c0,2.124,1.206,3.24,3.312,3.24a3.536,3.536,0,0,0,2.16-.648ZM-10.962,0h2.34V-10.62h4.176V-12.6H-15.138v1.98h4.176ZM.27-9.72A6.758,6.758,0,0,0-3.8-8.532l.882,1.638A4.759,4.759,0,0,1,0-7.848c1.6,0,2.394.774,2.394,2.088v.144H-.09c-2.916,0-4,1.26-4,2.862C-4.086-1.08-2.7.126-.5.126A3.406,3.406,0,0,0,2.52-1.17V0H4.644V-5.634C4.644-8.406,3.042-9.72.27-9.72ZM-.036-1.512c-1.152,0-1.836-.522-1.836-1.332,0-.7.414-1.278,1.944-1.278H2.394v1.116A2.45,2.45,0,0,1-.036-1.512ZM16.182,0,12.42-4.914l3.6-4.7H13.59l-2.358,3.15L8.874-9.612h-2.5L9.954-4.878,6.21,0H8.694l2.484-3.33L13.644,0Zm17.6,0-2.9-4.14A4.028,4.028,0,0,0,33.57-8.118c0-2.79-2.052-4.482-5.364-4.482H23.022V0h2.34V-3.672h2.844a4.386,4.386,0,0,0,.486-.018L31.266,0ZM31.212-8.118c0,1.584-1.062,2.52-3.114,2.52H25.362V-10.62H28.1C30.15-10.62,31.212-9.7,31.212-8.118ZM45-4.752A4.687,4.687,0,0,0,40.14-9.72a4.78,4.78,0,0,0-4.968,4.914c0,2.862,2.088,4.932,5.31,4.932a4.872,4.872,0,0,0,3.87-1.566L43.146-2.826a3.445,3.445,0,0,1-2.61,1.044,2.909,2.909,0,0,1-3.114-2.3h7.542C44.982-4.3,45-4.572,45-4.752ZM40.14-7.92a2.617,2.617,0,0,1,2.718,2.34H37.4A2.657,2.657,0,0,1,40.14-7.92ZM47.16,0h2.25V-13.356H47.16ZM53.5-11.2a1.381,1.381,0,0,0,1.44-1.4,1.34,1.34,0,0,0-1.44-1.3,1.371,1.371,0,0,0-1.44,1.35A1.371,1.371,0,0,0,53.5-11.2ZM52.362,0h2.25V-9.612h-2.25ZM66.6-4.752A4.687,4.687,0,0,0,61.74-9.72a4.78,4.78,0,0,0-4.968,4.914c0,2.862,2.088,4.932,5.31,4.932a4.872,4.872,0,0,0,3.87-1.566L64.746-2.826a3.445,3.445,0,0,1-2.61,1.044,2.909,2.909,0,0,1-3.114-2.3h7.542C66.582-4.3,66.6-4.572,66.6-4.752ZM61.74-7.92a2.617,2.617,0,0,1,2.718,2.34H59A2.657,2.657,0,0,1,61.74-7.92Zm10.926-3.744a2.216,2.216,0,0,1,1.242.4l.63-1.692a3.6,3.6,0,0,0-2.034-.522,3.106,3.106,0,0,0-3.438,3.33v.612H67.482v1.8h1.584V0h2.25V-7.74H73.89v-1.8H71.244v-.576C71.244-11.142,71.73-11.664,72.666-11.664Zm17.118,1.026V-12.6h-9.2V0h2.34V-4.824H89.01V-6.8H82.926v-3.834ZM92.79-11.2a1.381,1.381,0,0,0,1.44-1.4,1.34,1.34,0,0,0-1.44-1.3,1.371,1.371,0,0,0-1.44,1.35A1.371,1.371,0,0,0,92.79-11.2ZM91.656,0h2.25V-9.612h-2.25ZM99-8.208v-1.4H96.858V0h2.25V-4.662c0-1.962,1.08-2.97,2.79-2.97a2.856,2.856,0,0,1,.522.054V-9.72A3.782,3.782,0,0,0,99-8.208ZM116.46-9.72a4.486,4.486,0,0,0-3.6,1.6,3.6,3.6,0,0,0-3.24-1.6,3.981,3.981,0,0,0-3.15,1.332V-9.612h-2.142V0h2.25V-4.878c0-1.908,1.008-2.88,2.5-2.88,1.368,0,2.16.828,2.16,2.538V0h2.25V-4.878c0-1.908,1.026-2.88,2.5-2.88,1.368,0,2.16.828,2.16,2.538V0h2.25V-5.508C120.4-8.406,118.782-9.72,116.46-9.72Z" transform="translate(510 1888.881)" fill="#6a6a6a"/>
  </g>
</svg>
