<svg xmlns="http://www.w3.org/2000/svg" xmlns:xlink="http://www.w3.org/1999/xlink" width="906" height="450" viewBox="0 0 906 450">
  <defs>
    <linearGradient id="linear-gradient" x1="0.5" x2="0.5" y2="1" gradientUnits="objectBoundingBox">
      <stop offset="0" stop-color="#fff"/>
      <stop offset="1" stop-color="#b1b3b6"/>
    </linearGradient>
  </defs>
  <g id="stevie-accred" transform="translate(-993 -629)">
    <rect id="Rectangle_14" data-name="Rectangle 14" width="906" height="450" transform="translate(993 629)" fill="#fff"/>
    <g id="Stevie_Gold_Evergreen-S_CS" data-name="Stevie_Gold_Evergreen-S&amp;CS" transform="translate(1311.98 720.673)" style="isolation: isolate">
      <g id="a" transform="translate(0.02 0.006)">
        <path id="Path_54" data-name="Path 54" d="M171.36,97.09c.08.1.17.207.255.314a9.9,9.9,0,0,1,2.547,1.351,4.655,4.655,0,0,0-2.8-1.664" transform="translate(-80.251 -45.466)" fill="#f7d390"/>
        <path id="Path_55" data-name="Path 55" d="M166.767,93.589a5.119,5.119,0,0,0-.6-.191,6.8,6.8,0,0,0-3.212-.165c-.346.542.106,1.276,1.239,1.409a15.771,15.771,0,0,1,3.4.888c-.191-.25-.383-.484-.558-.7-.394-.574-.441-.973-.277-1.244" transform="translate(-76.264 -43.598)" fill="#f7d390"/>
        <path id="Path_56" data-name="Path 56" d="M189.292,56.554,223.308.843a1.754,1.754,0,0,1,2.983-.011l34.356,55.5a1.751,1.751,0,0,1-1.484,2.669l-68.372.207a1.753,1.753,0,0,1-1.5-2.664" transform="translate(-88.527 -0.006)" fill="#6590ab"/>
        <path id="Path_57" data-name="Path 57" d="M260.289,57.66,230.032,8.776a1.542,1.542,0,0,0-2.627.005L197.447,57.846a1.538,1.538,0,0,0,1.319,2.345l7.216-.021,23.083-23.227c4.85-5,11.959,1.824,6.929,7.248L220.158,60.127l4.2-.011L235.706,48.7c4.85-5,11.959,1.829,6.929,7.248l-4.1,4.126,20.44-.064a1.541,1.541,0,0,0,1.308-2.35" transform="translate(-92.358 -3.77)" fill="#a3dce4"/>
        <path id="Path_58" data-name="Path 58" d="M236.793,60.868,213.71,84.089h2.542l21.009-21.142c3.159-3.254,7.779,1.186,4.509,4.717L225.478,84.058h2.409l15.841-15.942c5.025-5.424-2.079-12.246-6.929-7.248" transform="translate(-100.081 -27.69)" fill="#ceebee"/>
        <path id="Path_59" data-name="Path 59" d="M239.5,65.323,218.49,86.46l9.22-.027L244,70.04c3.276-3.525-1.351-7.971-4.509-4.717" transform="translate(-102.319 -30.061)" fill="#ebf2f8"/>
        <path id="Path_60" data-name="Path 60" d="M259.617,82.964,248.27,94.381h2.515l9.848-9.912c3.159-3.254,7.779,1.186,4.509,4.711l-5.131,5.163h2.435l4.105-4.137c5.03-5.418-2.079-12.246-6.929-7.248" transform="translate(-116.264 -38.035)" fill="#ceebee"/>
        <path id="Path_61" data-name="Path 61" d="M262.838,86.332l-9.848,9.906,9.22-.027,5.131-5.163c3.276-3.531-1.351-7.971-4.509-4.717" transform="translate(-118.474 -39.898)" fill="#ebf2f8"/>
        <path id="Path_62" data-name="Path 62" d="M202.478,165.5c-6.253-12.251-10.22-28.257-11.491-34.218-2.068-9.763-2.308-15.527-1.377-19.217,1.021-4.031-2.143-5.839-4.344-6.471s-3.8-2.829-7.1-6.344a20.212,20.212,0,0,0-8.019-5.227c-.165.276-.112.675.276,1.244.106.122.218.255.33.393a4.669,4.669,0,0,1,2.8,1.664c2.17,2.4,8.439,9.343,10.965,12.1s2.425,6,3.159,11.278,3.217,18.51,4.8,25.71c1.478,6.721,5.1,18.122,7.875,21.477s5.291,2.749,7.168,1.117c0,0-2.7,1.069-5.041-3.51" transform="translate(-79.639 -44.029)" fill="#e6cc8f"/>
        <path id="Path_63" data-name="Path 63" d="M241.349,205.475c-.521-4.185-1.691-7.354-2.441-12.124-.707-4.5-.282-10.571,1.611-13.092a12.769,12.769,0,0,0-5.179,9.752c-.3,5.286,1.441,9.928,2.871,13.448,1.42,2.717,1.43,5.28-.144,5.924a5.373,5.373,0,0,1-2.122,1.186c2.712.452,5.876-1.244,5.4-5.1" transform="translate(-110.194 -84.411)" fill="#ac8822"/>
        <path id="Path_64" data-name="Path 64" d="M251.772,177.57c-.3.032-.59.08-.872.138.128.016.25.043.378.064a3.914,3.914,0,0,1,.5-.2" transform="translate(-117.496 -83.151)" fill="#f7d390"/>
        <path id="Path_65" data-name="Path 65" d="M261.461,188.13a16.02,16.02,0,0,1,.4,2.93c.261,5.4-1.712,12.8-1.866,18.382-.112,3.967,5.068,6.471,8.051,1.42.276-.468.521-.947.755-1.425-2.223,3.089-4.249,2.334-4.249,2.334-1.728-.473-1.42-2.558-.33-5.924,1.4-3.525,3.116-8.178,2.786-13.464a13.832,13.832,0,0,0-2.4-6.934c.378,1.553-1.1,2.563-3.153,2.68" transform="translate(-121.755 -86.841)" fill="#e6cc8f"/>
        <path id="Path_66" data-name="Path 66" d="M259.488,181.709a9.222,9.222,0,0,0-7.689-4.249,8.141,8.141,0,0,0-.893.053,4.882,4.882,0,0,0-.5.2c-2.483,1.2-1.26,4.078,1.276,5.53a8.589,8.589,0,0,0,4.653,1.138c2.058-.117,3.531-1.122,3.153-2.68" transform="translate(-116.629 -83.1)" fill="#e6cc8f"/>
        <path id="Path_67" data-name="Path 67" d="M259.6,181.732a6.452,6.452,0,0,0-5.381-2.972,5.92,5.92,0,0,0-.622.037,2.678,2.678,0,0,0-.351.144c-1.744.84-.883,2.855.893,3.871a6.012,6.012,0,0,0,3.254.8c1.441-.08,2.473-.787,2.207-1.877" transform="translate(-118.146 -83.708)" fill="#f9e2b9"/>
        <path id="Path_68" data-name="Path 68" d="M278.483,197.468a151.444,151.444,0,0,1,4.291-16.069c6.227-19.4,11.161-49.846,12.241-56.253s3.5-12.905,6.785-16.6c4.275-4.8,8.221-9.875,10.252-12.283.617-.915.394-1.4-.218-1.606-2.17,2.51-8.285,8.46-12.464,13.161-3.286,3.7-5.275,11.23-6.354,17.638s-8.5,36.563-14.724,55.961A150.99,150.99,0,0,0,274,197.478h4.483Z" transform="translate(-128.312 -44.328)" fill="#e6cc8f"/>
        <path id="Path_69" data-name="Path 69" d="M175.271,127.469c1.319,6.365,7.386,36.605,14.325,55.759a150.91,150.91,0,0,1,4.945,16.139H198.9a149.124,149.124,0,0,0-4.977-16.287c-4.828-13.31-9.949-31.947-13.07-44.215a40.712,40.712,0,0,1-1.122-4.073c-1.553-6.859-4.53-16.495-6.509-19.909s-7.189-8.285-10.949-12.608c-3.456-3.977-4.323-3.813-4.52-3.286,2.249,2.531,6.019,6.961,10.055,11.172,3.424,3.568,6.147,10.943,7.466,17.308" transform="translate(-73.878 -46.226)" fill="#ac8822"/>
        <path id="Path_70" data-name="Path 70" d="M162.918,95.7c.213-.516,1.085-.659,4.414,3.424,3.616,4.435,8.678,9.465,10.55,12.943s4.541,13.2,5.886,20.1a42.023,42.023,0,0,0,.994,4.105c2.738,12.363,7.28,31.15,11.688,44.608a153.01,153.01,0,0,1,4.376,15.968h20.7a151.323,151.323,0,0,1,4.291-16.059c6.227-19.4,13.645-49.548,14.729-55.961s3.063-13.942,6.354-17.638c4.18-4.7,10.295-10.646,12.464-13.161a6.721,6.721,0,0,0-3.238.175c-1.882.484-4.86,2.414-8.152,5.95s-4.85,5.621-7.051,6.269-5.424,2.074-4.382,6.1c.957,3.68,1.127,9.609-.883,19.382-1.228,5.966-5.158,20.908-12,33.192a12.171,12.171,0,0,1-.766,1.2c-.234.479-.479.957-.755,1.425-2.988,5.052-8.162,2.547-8.051-1.414.154-5.589,2.122-12.98,1.866-18.382a16.019,16.019,0,0,0-.4-2.93,8.552,8.552,0,0,1-4.653-1.138c-2.536-1.452-3.759-4.334-1.276-5.53-.128-.021-.245-.048-.372-.064a8.607,8.607,0,0,0-3.073,1.292c-1.893,2.515-2.324,8.582-1.617,13.092.75,4.775,1.92,7.939,2.441,12.124.479,3.855-2.685,5.557-5.4,5.1-1.494.388-3.212-.09-5.041-2.3-2.776-3.355-6.4-14.761-7.875-21.477-1.585-7.205-4.063-20.424-4.8-25.71s-.627-8.524-3.159-11.284-8.8-9.7-10.965-12.1a9.9,9.9,0,0,0-2.547-1.351l-.021-.011a16.123,16.123,0,0,0-3.409-.888c-1.133-.138-1.585-.872-1.239-1.414-.627.207-.877.691-.239,1.617.191.223.4.479.622.744" transform="translate(-75.84 -43.71)" fill="#d1a32c"/>
        <g id="Group_10" data-name="Group 10" transform="translate(114.847 133.359)" opacity="0.3">
          <rect id="Rectangle_11" data-name="Rectangle 11" width="40.413" height="7.678" fill="none"/>
          <path id="Path_71" data-name="Path 71" d="M216,250.8l2.127,7.678h35.627l2.659-7.678Z" transform="translate(-216 -250.8)" fill="none"/>
        </g>
        <path id="Path_72" data-name="Path 72" d="M216,250.91h40.413l-3.722,7.976h-33.5Z" transform="translate(-101.154 -117.493)" fill="url(#linear-gradient)"/>
        <path id="Path_73" data-name="Path 73" d="M78.974,283.61c-5.4-1.75-8-4.376-11.922-7.652-2.026-1.691-6.12-5.769-4.546-3.217a116.4,116.4,0,0,1-10.832-10.725,29.76,29.76,0,0,0,6.062-12.943c1.462-7.205-3.962-14.4-3.962-14.4S46.58,241.661,46.3,249.26c-.106,2.786,1.058,6.37,2.212,9.2a108.211,108.211,0,0,1-9.476-12.975,29.093,29.093,0,0,0,8.125-11.518c2.637-6.716-1.372-14.575-1.372-14.575s-8.136,5.514-9.694,12.8c-.585,2.7-.053,6.4.585,9.337a105.931,105.931,0,0,1-7.514-14.921,28.453,28.453,0,0,0,9.97-9.832c3.685-6.025,1.154-14.3,1.154-14.3s-8.79,3.946-11.544,10.709c-1.1,2.707-1.154,6.769-.989,9.816a116.166,116.166,0,0,1-4.834-16.995,27.987,27.987,0,0,0,11.257-7.779c4.584-5.19,3.547-13.607,3.547-13.607s-9.157,2.308-12.959,8.37c-1.473,2.35-2.217,6.083-2.584,9.013a125.135,125.135,0,0,1-1.7-17.314,27.243,27.243,0,0,0,12.177-5.589c5.307-4.233,5.738-12.523,5.738-12.523s-9.226.665-13.932,5.87c-1.835,2.026-3.19,5.541-4.041,8.311a126.888,126.888,0,0,1,1.234-17.431,26.74,26.74,0,0,0,12.959-3.318c5.844-3.18,7.668-11.113,7.668-11.113s-9.013-.925-14.442,3.3c-2.345,1.819-4.429,5.5-5.716,8.125a110.746,110.746,0,0,1,4.4-17.622,26.059,26.059,0,0,0,13.32-.947c6.184-2.074,9.3-9.423,9.3-9.423s-8.55-2.425-14.511.728c-2.818,1.489-5.727,5.2-7.359,7.519a86.964,86.964,0,0,1,3.573-8.4c1.388-3.089,2.845-5.982,4.328-8.7a25.58,25.58,0,0,0,12.98,1.335c6.312-.947,10.571-7.508,10.571-7.508s-7.843-3.791-14.123-1.765c-2.93.947-6.822,3.536-8.3,5.908A160.482,160.482,0,0,1,46.59,106.183,24.816,24.816,0,0,0,59.081,109.8c6.259.16,11.48-5.445,11.48-5.445s-6.923-4.993-13.326-4.11c-3.345.463-8.083,2.866-9.747,4.807,3.717-4.35,5.9-6.6,8.168-8.875,1.457,0,6.019-.245,8.955-3.175a19.227,19.227,0,0,0,5.254-9.194s-6.45.569-9.412,2.691c-3.706,2.664-5.041,7.822-5.3,9a96.944,96.944,0,0,0-6.588,7.163,19.764,19.764,0,0,0,3.664-10C52.44,86.2,46.755,79.84,46.755,79.84s-5.036,5.78-4.227,11.986a24.083,24.083,0,0,0,4.8,11.9A122.86,122.86,0,0,0,36.5,118.992c.9-2.632,2.175-7.072,1.733-10.172-.931-6.54-7.774-11.922-7.774-11.922s-4.031,6.695-2.127,12.794a25.348,25.348,0,0,0,7.024,11.2c-1.946,3.3-3.86,6.875-5.684,10.763-.84,1.654-1.638,3.382-2.4,5.163.372-2.818.638-6.732-.234-9.38-2.1-6.408-9.922-10.6-9.922-10.6s-2.871,7.45.128,13.235a26.1,26.1,0,0,0,8.768,9.848,107.989,107.989,0,0,0-4.924,16.931c-.149-2.85-.6-6.567-1.877-8.949-3.244-6.067-11.858-8.9-11.858-8.9S5.795,147,9.831,152.28a26.706,26.706,0,0,0,10.539,8.332,127.483,127.483,0,0,0-1.819,17.93c-.649-2.866-1.771-6.657-3.52-8.88-4.334-5.52-13.485-6.844-13.485-6.844s-.154,8.311,4.839,12.9a27.155,27.155,0,0,0,12.108,6.514A128.523,128.523,0,0,0,19.615,199.5c-1.154-2.659-2.84-5.865-4.828-7.641C9.459,187.088.02,187.386.02,187.386s1.319,8.375,7.152,12.1a27.717,27.717,0,0,0,13.118,4.387,119.077,119.077,0,0,0,3.839,15.9,22.019,22.019,0,0,0-5.615-5.961c-6.2-3.855-15.628-1.888-15.628-1.888s2.808,8.184,9.327,10.9a28.5,28.5,0,0,0,13.682,2.122,109.683,109.683,0,0,0,6.62,14.58,22.239,22.239,0,0,0-6.594-4.892C19,231.861,9.879,235.5,9.879,235.5s4.27,7.732,11.3,9.306A29.168,29.168,0,0,0,35.37,244.5,109.557,109.557,0,0,0,43.8,257.119a22.243,22.243,0,0,0-7.29-3.605c-7.444-1.563-15.968,3.722-15.968,3.722s5.663,7.008,13.012,7.338A29.7,29.7,0,0,0,47.649,261.8,119.253,119.253,0,0,0,58.3,272.635a23.029,23.029,0,0,0-8.077-2.388c-7.763-.25-15.389,6.572-15.389,6.572s6.929,6.041,14.373,5.073c6.87-.893,11.7-6.844,13.7-5.307,5.333,4.1,7.928,6.727,14.777,11.225-2.462-1.617,4.02-3.313,1.3-4.2Z" transform="translate(-0.02 -37.389)" fill="#d1a32c"/>
        <path id="Path_74" data-name="Path 74" d="M354.909,283.61c5.4-1.75,8-4.376,11.927-7.652,2.026-1.691,6.115-5.769,4.546-3.217a116.411,116.411,0,0,0,10.832-10.725,29.706,29.706,0,0,1-6.057-12.943c-1.462-7.205,3.962-14.4,3.962-14.4s7.195,6.987,7.476,14.586c.106,2.786-1.058,6.37-2.212,9.2a108.834,108.834,0,0,0,9.481-12.975,29.093,29.093,0,0,1-8.125-11.518c-2.637-6.716,1.372-14.575,1.372-14.575s8.136,5.514,9.694,12.8c.585,2.7.053,6.4-.585,9.337a105.926,105.926,0,0,0,7.514-14.921,28.453,28.453,0,0,1-9.97-9.832c-3.69-6.025-1.154-14.3-1.154-14.3s8.79,3.946,11.544,10.709c1.1,2.707,1.154,6.769.989,9.816a116.161,116.161,0,0,0,4.834-16.995,27.945,27.945,0,0,1-11.252-7.779c-4.584-5.19-3.547-13.607-3.547-13.607s9.157,2.308,12.959,8.37c1.478,2.35,2.217,6.083,2.584,9.013a125.954,125.954,0,0,0,1.7-17.314,27.244,27.244,0,0,1-12.177-5.589c-5.307-4.233-5.738-12.523-5.738-12.523s9.226.665,13.932,5.87c1.835,2.026,3.19,5.541,4.041,8.311a126.886,126.886,0,0,0-1.234-17.431,26.74,26.74,0,0,1-12.959-3.318c-5.844-3.18-7.668-11.113-7.668-11.113s9.013-.925,14.442,3.3c2.345,1.819,4.429,5.5,5.716,8.125a110.74,110.74,0,0,0-4.4-17.622,26.058,26.058,0,0,1-13.32-.947c-6.184-2.074-9.3-9.423-9.3-9.423s8.55-2.425,14.511.728c2.818,1.489,5.727,5.2,7.359,7.519a86.956,86.956,0,0,0-3.573-8.4c-1.388-3.089-2.845-5.982-4.328-8.7a25.58,25.58,0,0,1-12.98,1.335c-6.312-.947-10.571-7.508-10.571-7.508s7.843-3.791,14.123-1.765c2.93.947,6.822,3.536,8.3,5.908a160.474,160.474,0,0,0-10.279-15.272,24.816,24.816,0,0,1-12.491,3.621c-6.259.16-11.48-5.445-11.48-5.445s6.923-4.993,13.326-4.11c3.345.463,8.083,2.866,9.747,4.807-3.717-4.35-5.9-6.6-8.168-8.875-1.457,0-6.019-.245-8.955-3.175a19.228,19.228,0,0,1-5.254-9.194s6.45.569,9.412,2.691c3.706,2.664,5.041,7.822,5.3,9a96.945,96.945,0,0,1,6.588,7.163,19.764,19.764,0,0,1-3.664-10c-.213-6.471,5.472-12.831,5.472-12.831s5.036,5.78,4.233,11.986a24.083,24.083,0,0,1-4.8,11.9A121.761,121.761,0,0,1,397.4,118.992c-.9-2.632-2.175-7.072-1.734-10.172.931-6.54,7.774-11.922,7.774-11.922s4.031,6.695,2.127,12.794a25.348,25.348,0,0,1-7.024,11.2c1.946,3.3,3.86,6.875,5.684,10.763.84,1.654,1.638,3.382,2.4,5.163-.372-2.818-.638-6.732.234-9.38,2.1-6.408,9.922-10.6,9.922-10.6s2.871,7.45-.128,13.235a26.147,26.147,0,0,1-8.769,9.848,107.987,107.987,0,0,1,4.924,16.931c.149-2.85.6-6.567,1.877-8.949,3.244-6.067,11.858-8.9,11.858-8.9s1.558,7.992-2.478,13.272a26.706,26.706,0,0,1-10.539,8.332,127.484,127.484,0,0,1,1.819,17.93c.649-2.866,1.771-6.657,3.52-8.88,4.334-5.52,13.485-6.844,13.485-6.844s.154,8.311-4.839,12.9a27.155,27.155,0,0,1-12.108,6.514,128.508,128.508,0,0,1-1.122,17.271c1.154-2.659,2.84-5.865,4.828-7.641,5.328-4.775,14.767-4.477,14.767-4.477s-1.319,8.375-7.152,12.1a27.717,27.717,0,0,1-13.118,4.387,119.094,119.094,0,0,1-3.839,15.9,21.938,21.938,0,0,1,5.615-5.961c6.2-3.855,15.628-1.888,15.628-1.888s-2.808,8.184-9.327,10.9a28.5,28.5,0,0,1-13.682,2.122,109.694,109.694,0,0,1-6.62,14.58,22.307,22.307,0,0,1,6.594-4.892c6.918-2.776,16.043.867,16.043.867s-4.27,7.732-11.3,9.306a29.168,29.168,0,0,1-14.187-.314,109.555,109.555,0,0,1-8.434,12.624,22.294,22.294,0,0,1,7.29-3.605c7.444-1.563,15.968,3.722,15.968,3.722s-5.663,7.008-13.012,7.338a29.7,29.7,0,0,1-14.091-2.776A119.252,119.252,0,0,1,375.6,272.635a23.029,23.029,0,0,1,8.077-2.388c7.763-.25,15.389,6.572,15.389,6.572s-6.929,6.041-14.373,5.073c-6.87-.893-11.7-6.844-13.7-5.307-5.333,4.1-7.928,6.727-14.777,11.225,2.462-1.617-4.02-3.313-1.3-4.2Z" transform="translate(-165.884 -37.389)" fill="#d1a32c"/>
        <path id="Path_75" data-name="Path 75" d="M126,451.216A4.786,4.786,0,0,0,130.786,456H255.214A4.786,4.786,0,0,0,260,451.216V412.93H126Z" transform="translate(-57.947 -193.359)" fill="#2f547d"/>
        <path id="Path_76" data-name="Path 76" d="M180.671,348.817c-.372-.16-.441-.276-.441-.787,0-1.271.09-2.659.117-3.031.021-.346.09-.6.277-.6.207,0,.229.207.229.393a4.8,4.8,0,0,0,.207,1.18,3.185,3.185,0,0,0,3.307,2.334,2.808,2.808,0,0,0,3.1-2.637c0-1.133-.346-2.2-2.265-3.7l-1.063-.835c-2.547-1.989-3.424-3.611-3.424-5.482,0-2.547,2.127-4.371,5.344-4.371a11.119,11.119,0,0,1,3.079.393c.207.048.324.117.324.276,0,.3-.09.973-.09,2.776,0,.51-.069.691-.255.691-.16,0-.229-.138-.229-.415a2.813,2.813,0,0,0-.6-1.526,2.919,2.919,0,0,0-2.521-1.133c-1.712,0-2.754.994-2.754,2.382,0,1.064.532,1.872,2.451,3.329l.649.484c2.8,2.106,3.791,3.7,3.791,5.9a4.665,4.665,0,0,1-2.175,4.025,6.687,6.687,0,0,1-3.68.947,7.986,7.986,0,0,1-3.377-.6Z" transform="translate(-84.404 -155.126)" fill="#020000"/>
        <path id="Path_77" data-name="Path 77" d="M206.176,332.9l-3.446.09c-1.34.048-1.9.16-2.244.67a2.824,2.824,0,0,0-.393.808c-.048.186-.117.277-.255.277-.16,0-.207-.117-.207-.372,0-.372.441-2.473.484-2.659.069-.3.138-.441.277-.441a5.511,5.511,0,0,0,.994.277c.67.069,1.547.117,2.313.117h9.162a10.793,10.793,0,0,0,1.6-.117,5.8,5.8,0,0,1,.622-.117c.16,0,.186.138.186.484,0,.484-.069,2.079-.069,2.685-.021.229-.069.372-.207.372-.186,0-.234-.117-.255-.463l-.021-.255c-.048-.6-.67-1.25-2.728-1.3l-2.914-.069v9.481c0,2.127,0,3.956.117,4.951.069.649.207,1.159.9,1.25a9.484,9.484,0,0,0,1.18.09c.255,0,.372.069.372.186,0,.16-.186.234-.441.234-1.526,0-2.983-.069-3.632-.069-.532,0-1.989.069-2.914.069-.3,0-.463-.069-.463-.234,0-.117.09-.186.372-.186a4.109,4.109,0,0,0,.835-.09c.463-.09.6-.6.67-1.271.117-.973.117-2.8.117-4.929v-9.481Z" transform="translate(-93.488 -155.122)" fill="#020000"/>
        <path id="Path_78" data-name="Path 78" d="M232.37,338.446c0-3.515,0-4.164-.048-4.9-.048-.787-.234-1.154-.994-1.319a4.653,4.653,0,0,0-.9-.069c-.255,0-.394-.048-.394-.207s.16-.207.51-.207c.622,0,1.3.021,1.872.021.6.021,1.133.048,1.457.048.739,0,5.344,0,5.78-.021a9.224,9.224,0,0,0,.994-.138,2.369,2.369,0,0,1,.372-.09c.117,0,.138.09.138.207a14.473,14.473,0,0,0-.186,1.5c-.021.234-.069,1.25-.117,1.526-.021.117-.069.255-.229.255s-.207-.117-.207-.324a2.481,2.481,0,0,0-.138-.835c-.16-.415-.394-.7-1.547-.835-.394-.048-2.824-.09-3.286-.09-.117,0-.16.069-.16.229v5.855c0,.159.021.255.16.255.51,0,3.169,0,3.7-.048a1.643,1.643,0,0,0,1.111-.346c.16-.186.255-.3.372-.3.09,0,.16.048.16.186s-.09.51-.186,1.691c-.021.463-.09,1.388-.09,1.547,0,.186,0,.441-.207.441a.183.183,0,0,1-.207-.207,5.836,5.836,0,0,0-.09-.835c-.117-.463-.441-.808-1.3-.9-.441-.048-2.728-.069-3.286-.069-.117,0-.138.09-.138.229v1.829c0,.787-.021,2.914,0,3.584.048,1.6.415,1.941,2.776,1.941a5.892,5.892,0,0,0,2.175-.276c.6-.276.877-.766,1.042-1.712.048-.255.09-.346.255-.346.186,0,.186.186.186.415a18.758,18.758,0,0,1-.3,2.568c-.16.6-.372.6-1.25.6-1.734,0-3-.048-4-.069-.994-.048-1.712-.069-2.4-.069-.255,0-.766,0-1.319.021-.532,0-1.133.048-1.6.048-.3,0-.463-.069-.463-.234,0-.117.09-.186.372-.186a4.064,4.064,0,0,0,.835-.09c.463-.09.58-.6.67-1.271.117-.973.117-2.8.117-4.929v-4.073Z" transform="translate(-107.723 -155.258)" fill="#020000"/>
        <path id="Path_79" data-name="Path 79" d="M252.721,334.156c-.532-1.271-.925-1.526-1.76-1.76a3.655,3.655,0,0,0-.9-.09c-.207,0-.277-.069-.277-.207,0-.186.255-.207.6-.207,1.228,0,2.547.069,3.355.069.58,0,1.691-.069,2.845-.069.277,0,.532.048.532.207s-.138.207-.346.207a1.672,1.672,0,0,0-.9.16.556.556,0,0,0-.229.484,6.922,6.922,0,0,0,.532,1.781l3.977,10.5h.09c.994-2.547,4-9.992,4.557-11.518a2.826,2.826,0,0,0,.207-.856.44.44,0,0,0-.3-.441,3.132,3.132,0,0,0-.925-.117c-.207,0-.393-.021-.393-.186,0-.186.207-.234.649-.234,1.154,0,2.127.069,2.43.069.394,0,1.478-.069,2.175-.069.3,0,.484.048.484.207s-.138.207-.372.207a2,2,0,0,0-1.133.276c-.3.207-.649.6-1.271,2.084-.9,2.175-1.526,3.424-2.776,6.269-1.478,3.377-2.568,5.9-3.079,7.056-.6,1.34-.739,1.712-1.064,1.712-.3,0-.441-.324-.877-1.409l-5.828-14.134Z" transform="translate(-116.971 -155.407)" fill="#020000"/>
        <path id="Path_80" data-name="Path 80" d="M286.392,338.605c0-3.515,0-4.164-.048-4.9-.048-.787-.276-1.18-.787-1.3a3.3,3.3,0,0,0-.835-.09c-.229,0-.372-.048-.372-.229,0-.138.186-.186.553-.186.877,0,2.334.069,3.01.069.579,0,1.941-.069,2.824-.069.3,0,.484.048.484.186,0,.186-.138.229-.372.229a3.707,3.707,0,0,0-.691.069c-.622.117-.808.51-.856,1.319-.048.739-.048,1.388-.048,4.9v4.073c0,2.244,0,4.073.09,5.068.069.622.229,1.042.925,1.133a9.474,9.474,0,0,0,1.181.09c.255,0,.372.069.372.186,0,.16-.186.234-.441.234-1.526,0-2.983-.069-3.611-.069-.532,0-1.989.069-2.914.069-.3,0-.463-.069-.463-.234,0-.117.09-.186.372-.186a4.1,4.1,0,0,0,.835-.09c.463-.09.6-.484.67-1.159.117-.973.117-2.8.117-5.041v-4.073Z" transform="translate(-133.159 -155.417)" fill="#020000"/>
        <path id="Path_81" data-name="Path 81" d="M303.19,338.446c0-3.515,0-4.164-.048-4.9-.048-.787-.229-1.154-.994-1.319a4.653,4.653,0,0,0-.9-.069c-.255,0-.393-.048-.393-.207s.159-.207.51-.207c.622,0,1.3.021,1.872.021.6.021,1.133.048,1.457.048.739,0,5.344,0,5.78-.021a9.226,9.226,0,0,0,.994-.138,2.369,2.369,0,0,1,.372-.09c.117,0,.138.09.138.207a14.477,14.477,0,0,0-.186,1.5c-.021.234-.069,1.25-.117,1.526-.021.117-.069.255-.234.255s-.207-.117-.207-.324a2.482,2.482,0,0,0-.138-.835c-.16-.415-.393-.7-1.547-.835-.393-.048-2.824-.09-3.286-.09-.117,0-.16.069-.16.229v5.855c0,.159.021.255.16.255.51,0,3.169,0,3.7-.048a1.643,1.643,0,0,0,1.111-.346c.16-.186.255-.3.372-.3.09,0,.16.048.16.186s-.09.51-.186,1.691c-.021.463-.09,1.388-.09,1.547,0,.186,0,.441-.207.441a.183.183,0,0,1-.207-.207,5.848,5.848,0,0,0-.09-.835c-.117-.463-.441-.808-1.3-.9-.441-.048-2.728-.069-3.286-.069-.117,0-.138.09-.138.229v1.829c0,.787-.021,2.914,0,3.584.048,1.6.415,1.941,2.776,1.941a5.892,5.892,0,0,0,2.175-.276c.6-.276.877-.766,1.042-1.712.048-.255.09-.346.255-.346.186,0,.186.186.186.415a17.954,17.954,0,0,1-.3,2.568c-.159.6-.372.6-1.25.6-1.733,0-3.01-.048-4-.069-.994-.048-1.712-.069-2.4-.069-.255,0-.766,0-1.319.021-.532,0-1.133.048-1.6.048-.3,0-.463-.069-.463-.234,0-.117.09-.186.372-.186a4.109,4.109,0,0,0,.835-.09c.463-.09.58-.6.67-1.271.117-.973.117-2.8.117-4.929v-4.073Z" transform="translate(-140.885 -155.258)" fill="#020000"/>
        <path id="Path_82" data-name="Path 82" d="M323.49,332.286a2.205,2.205,0,1,1,2.2,2.079A2.088,2.088,0,0,1,323.49,332.286Zm3.946-.021a1.751,1.751,0,0,0-3.5,0,1.641,1.641,0,0,0,1.771,1.7,1.616,1.616,0,0,0,1.723-1.7Zm-2.659-.335v-.6c0-.144-.1-.165-.287-.165-.021,0-.048-.021-.048-.069,0-.069.048-.1.117-.1h.1c.048,0,.239.021.4.021.218,0,.308-.021.553-.021.4,0,1.053.069,1.053.643,0,.239-.1.431-.505.718l.431.505c.308.356.356.356.409.356s.069.021.069.069c0,.074-.021.1-.218.1a.929.929,0,0,1-.931-.457l-.335-.457H325.3v.218c0,.431.021.479.048.505a.834.834,0,0,0,.239.021c.048,0,.069,0,.069.069a.089.089,0,0,1-.1.1h-.1c-.048,0-.266-.021-.383-.021-.069,0-.308.021-.356.021h-.117c-.048,0-.17-.021-.17-.1,0-.048.021-.069.069-.069.218,0,.239,0,.266-.144a5.643,5.643,0,0,0,0-.622v-.526Zm.526.239a.756.756,0,0,0,.335.069.372.372,0,0,0,.218-.048.48.48,0,0,0,.218-.409.524.524,0,0,0-.553-.526c-.021,0-.17,0-.218.048v.861Z" transform="translate(-151.486 -154.611)" fill="#020000"/>
        <path id="Path_83" data-name="Path 83" d="M161.114,375.165a3.376,3.376,0,0,0-.856-1.643,2.083,2.083,0,0,0-.925-.207c-.229,0-.372-.021-.372-.207,0-.159.186-.207.51-.207,1.2,0,2.473.069,2.685.069s1.228-.069,2.568-.069c.324,0,.484.069.484.207,0,.186-.186.207-.415.207a1.256,1.256,0,0,0-.58.09c-.207.09-.255.255-.255.51a15.2,15.2,0,0,0,.51,2.127c.393,1.526,2.547,8.535,2.962,9.832h.069l4.488-12.049c.234-.649.394-.835.58-.835.255,0,.372.346.67,1.085l4.812,11.635h.069c.415-1.547,2.265-7.657,3.079-10.364a5.018,5.018,0,0,0,.234-1.34c0-.372-.207-.691-1.111-.691-.234,0-.393-.069-.393-.207,0-.16.186-.207.532-.207,1.228,0,2.2.069,2.4.069.16,0,1.159-.069,1.92-.069.255,0,.415.048.415.186,0,.159-.117.229-.324.229a2.461,2.461,0,0,0-.808.117c-.553.207-.808,1.133-1.3,2.451-1.063,2.914-3.494,10.268-4.626,13.74-.255.808-.372,1.085-.67,1.085-.229,0-.372-.277-.718-1.133l-4.812-11.587h-.048c-.441,1.18-3.515,9.369-4.509,11.5-.441.946-.553,1.228-.835,1.228-.234,0-.324-.255-.532-.856l-4.9-14.687Z" transform="translate(-74.444 -174.615)" fill="#020000"/>
        <path id="Path_84" data-name="Path 84" d="M210.542,379.605c0-3.515,0-4.164-.048-4.9-.048-.787-.277-1.181-.787-1.3a3.3,3.3,0,0,0-.835-.09c-.229,0-.372-.048-.372-.229,0-.138.186-.186.553-.186.877,0,2.334.069,3,.069.58,0,1.941-.069,2.824-.069.3,0,.484.048.484.186,0,.186-.138.229-.372.229a3.709,3.709,0,0,0-.691.069c-.622.117-.808.51-.856,1.319-.048.739-.048,1.388-.048,4.9v4.073c0,2.244,0,4.073.09,5.068.069.622.234,1.042.925,1.133a9.473,9.473,0,0,0,1.18.09c.255,0,.372.069.372.186,0,.16-.186.234-.441.234-1.526,0-2.983-.069-3.611-.069-.532,0-1.989.069-2.914.069-.3,0-.463-.069-.463-.234,0-.117.09-.186.372-.186a4.109,4.109,0,0,0,.835-.09c.463-.09.6-.484.67-1.159.117-.973.117-2.8.117-5.041v-4.073Z" transform="translate(-97.642 -174.615)" fill="#020000"/>
        <path id="Path_85" data-name="Path 85" d="M228.294,386.885c.048,1.8.346,2.4.808,2.568a3.692,3.692,0,0,0,1.2.159c.255,0,.393.048.393.186,0,.186-.207.234-.532.234-1.5,0-2.43-.069-2.866-.069-.207,0-1.3.069-2.5.069-.3,0-.51-.021-.51-.234,0-.138.138-.186.372-.186a3.968,3.968,0,0,0,1.042-.117c.6-.186.7-.856.718-2.866l.207-13.692c0-.463.069-.787.3-.787.255,0,.463.3.856.718.277.3,3.791,4.073,7.173,7.423,1.574,1.574,4.7,4.9,5.089,5.275h.117l-.229-10.385c-.021-1.409-.229-1.85-.787-2.079a3.8,3.8,0,0,0-1.228-.138c-.277,0-.372-.069-.372-.207,0-.186.255-.207.6-.207,1.2,0,2.313.069,2.8.069.255,0,1.133-.069,2.265-.069.3,0,.532.021.532.207q0,.207-.415.207a2.518,2.518,0,0,0-.691.069c-.649.186-.835.67-.856,1.967l-.255,14.6c0,.51-.09.718-.3.718-.255,0-.532-.255-.787-.51-1.457-1.388-4.419-4.419-6.822-6.8-2.52-2.5-5.089-5.387-5.5-5.828h-.069l.255,9.715Z" transform="translate(-105.035 -174.264)" fill="#020000"/>
        <path id="Path_86" data-name="Path 86" d="M265.144,386.885c.048,1.8.346,2.4.808,2.568a3.691,3.691,0,0,0,1.2.159c.255,0,.393.048.393.186,0,.186-.207.234-.532.234-1.5,0-2.43-.069-2.866-.069-.207,0-1.3.069-2.5.069-.3,0-.51-.021-.51-.234,0-.138.138-.186.372-.186a3.968,3.968,0,0,0,1.042-.117c.6-.186.7-.856.718-2.866l.207-13.692c0-.463.069-.787.3-.787.255,0,.463.3.856.718.276.3,3.791,4.073,7.168,7.423,1.574,1.574,4.7,4.9,5.089,5.275h.117l-.229-10.385c-.021-1.409-.234-1.85-.787-2.079a3.8,3.8,0,0,0-1.228-.138c-.276,0-.372-.069-.372-.207,0-.186.255-.207.6-.207,1.2,0,2.313.069,2.8.069.255,0,1.133-.069,2.265-.069.3,0,.532.021.532.207q0,.207-.415.207a2.518,2.518,0,0,0-.691.069c-.649.186-.835.67-.856,1.967l-.255,14.6c0,.51-.09.718-.3.718-.255,0-.532-.255-.787-.51-1.457-1.388-4.419-4.419-6.822-6.8-2.521-2.5-5.089-5.387-5.5-5.828h-.069l.255,9.715Z" transform="translate(-122.29 -174.264)" fill="#020000"/>
        <path id="Path_87" data-name="Path 87" d="M302.76,379.446c0-3.515,0-4.164-.048-4.9-.048-.787-.234-1.154-.994-1.319a4.662,4.662,0,0,0-.9-.069c-.255,0-.393-.048-.393-.207s.159-.207.51-.207c.622,0,1.3.021,1.872.021.6.021,1.133.048,1.457.048.739,0,5.344,0,5.785-.021a9.241,9.241,0,0,0,.994-.138,2.367,2.367,0,0,1,.372-.09c.117,0,.138.09.138.207a14.485,14.485,0,0,0-.186,1.5c-.021.234-.069,1.25-.117,1.526-.021.117-.069.255-.234.255s-.207-.117-.207-.324a2.482,2.482,0,0,0-.138-.835c-.16-.415-.394-.7-1.547-.835-.394-.048-2.824-.09-3.286-.09-.117,0-.16.069-.16.229v5.855c0,.159.021.255.16.255.51,0,3.169,0,3.7-.048a1.643,1.643,0,0,0,1.111-.346c.159-.186.255-.3.372-.3.09,0,.16.048.16.186s-.09.51-.186,1.691c-.021.463-.09,1.388-.09,1.547,0,.186,0,.441-.207.441a.183.183,0,0,1-.207-.207,5.838,5.838,0,0,0-.09-.835c-.117-.463-.441-.808-1.3-.9-.441-.048-2.728-.069-3.286-.069-.117,0-.138.09-.138.229v1.829c0,.787-.021,2.914,0,3.584.048,1.6.415,1.941,2.776,1.941a5.892,5.892,0,0,0,2.175-.276c.6-.277.877-.766,1.042-1.712.048-.255.09-.346.255-.346.186,0,.186.186.186.415a17.951,17.951,0,0,1-.3,2.568c-.16.6-.372.6-1.25.6-1.734,0-3.01-.048-4-.069-.994-.048-1.712-.069-2.4-.069-.255,0-.766,0-1.319.021-.532,0-1.133.048-1.6.048-.3,0-.463-.069-.463-.234,0-.117.09-.186.372-.186a4.109,4.109,0,0,0,.835-.09c.463-.09.58-.6.67-1.271.117-.973.117-2.8.117-4.929v-4.073Z" transform="translate(-140.684 -174.456)" fill="#020000"/>
        <path id="Path_88" data-name="Path 88" d="M327.64,379.605c0-3.515,0-4.164-.048-4.9-.048-.787-.229-1.154-.994-1.319a4.656,4.656,0,0,0-.9-.069c-.255,0-.394-.048-.394-.207s.16-.207.51-.207c1.228,0,2.685.069,3.169.069.787,0,2.547-.069,3.26-.069a7.378,7.378,0,0,1,4.254.994,4,4,0,0,1,1.574,3.169c0,1.712-.718,3.286-3.052,5.179,2.058,2.59,3.653,4.647,5.02,6.083a4.63,4.63,0,0,0,2.59,1.574,3.512,3.512,0,0,0,.649.069c.186,0,.276.069.276.186,0,.186-.159.234-.441.234h-2.2a4.682,4.682,0,0,1-2.473-.441c-.994-.532-1.872-1.622-3.169-3.4-.925-1.271-1.989-2.845-2.292-3.191a.483.483,0,0,0-.415-.159l-2.01-.048c-.117,0-.186.048-.186.186v.324c0,2.148,0,3.978.117,4.951.069.67.207,1.18.9,1.271a10.2,10.2,0,0,0,1.133.09c.186,0,.277.069.277.186,0,.16-.16.234-.463.234-1.34,0-3.052-.069-3.4-.069-.441,0-1.9.069-2.824.069-.3,0-.463-.069-.463-.234,0-.117.09-.186.372-.186a4.105,4.105,0,0,0,.835-.09c.463-.09.58-.6.67-1.271.117-.973.117-2.8.117-4.929v-4.073Zm2.728,1.829c0,.255.048.346.207.415a6.183,6.183,0,0,0,1.76.229,2.31,2.31,0,0,0,1.643-.393,4.07,4.07,0,0,0,1.367-3.467c0-3.286-2.175-4.233-3.541-4.233a5.149,5.149,0,0,0-1.228.09c-.16.048-.207.138-.207.324v7.03Z" transform="translate(-152.334 -174.615)" fill="#020000"/>
        <path id="Path_89" data-name="Path 89" d="M260,263.726a4.786,4.786,0,0,0-4.786-4.786H130.786A4.786,4.786,0,0,0,126,263.726V292.44H260Z" transform="translate(-59.011 -121.253)" fill="#d1a32c"/>
        <path id="Path_90" data-name="Path 90" d="M172.85,282.694v-.059c0-5.966,4.679-10.646,11.028-10.646a11.936,11.936,0,0,1,8.306,2.983l-3.334,4.009a7.224,7.224,0,0,0-4.945-1.93,5.379,5.379,0,0,0-5.232,5.615v.059a5.407,5.407,0,0,0,5.557,5.674,5.777,5.777,0,0,0,3.276-.851v-2.483h-4.036v-4.153h9.417v9.215A13.85,13.85,0,0,1,184,293.286c-6.376,0-11.145-4.387-11.145-10.587Z" transform="translate(-80.948 -127.364)" fill="#fff"/>
        <path id="Path_91" data-name="Path 91" d="M214.65,282.694v-.059a11.034,11.034,0,0,1,22.052-.058v.058a11.034,11.034,0,0,1-22.052.059Zm16.261,0v-.059a5.323,5.323,0,0,0-5.264-5.53,5.2,5.2,0,0,0-5.174,5.466v.058a5.32,5.32,0,0,0,5.232,5.53,5.245,5.245,0,0,0,5.206-5.472Z" transform="translate(-100.521 -127.364)" fill="#fff"/>
        <path id="Path_92" data-name="Path 92" d="M261.18,272.76h5.674v15.5h9.917v4.972H261.18Z" transform="translate(-122.309 -127.724)" fill="#fff"/>
        <path id="Path_93" data-name="Path 93" d="M294.565,272.76h7.9c7.311,0,11.55,4.211,11.55,10.119v.058c0,5.908-4.3,10.295-11.672,10.295H294.56V272.76Zm7.982,15.442c3.393,0,5.642-1.872,5.642-5.179v-.059c0-3.276-2.249-5.174-5.642-5.174h-2.308V288.2Z" transform="translate(-137.94 -127.724)" fill="#fff"/>
        <g id="Group_11" data-name="Group 11" transform="translate(123.454 225.08)">
          <path id="Path_94" data-name="Path 94" d="M179.745,423.625h5.488V425.5h-3.292v4.3h2.914v1.877h-2.914v6.083h-2.2V423.62Z" transform="translate(-179.74 -423.444)" fill="#fff"/>
          <path id="Path_95" data-name="Path 95" d="M191.7,430.846v-.606c0-4.77,1.643-6.95,4-6.95s4,2.18,4,6.95v.606c0,4.77-1.643,6.95-4,6.95S191.7,435.616,191.7,430.846Zm5.78,0v-.606c0-3.658-.734-5.131-1.776-5.131s-1.776,1.473-1.776,5.131v.606c0,3.658.734,5.131,1.776,5.131S197.48,434.5,197.48,430.846Z" transform="translate(-185.34 -423.29)" fill="#fff"/>
          <path id="Path_96" data-name="Path 96" d="M209.68,423.63h2.536c2.754,0,4.711,1.393,4.711,4.4v.144a4.05,4.05,0,0,1-2.09,3.781l2.356,5.817h-2.356l-2.09-5.174c-.09,0-.2.021-.287.021h-.58v5.153h-2.2V423.63Zm2.579,7.195a2.3,2.3,0,0,0,2.467-2.627v-.122a2.261,2.261,0,0,0-2.536-2.584h-.314v5.333h.378Z" transform="translate(-193.759 -423.449)" fill="#fff"/>
        </g>
        <g id="Group_12" data-name="Group 12" transform="translate(76.111 242.627)">
          <path id="Path_103" data-name="Path 103" d="M139.81,463.827v-.447c0-4.892,2-6.95,4.424-6.95a3.688,3.688,0,0,1,1.712.346v2.063a3.039,3.039,0,0,0-1.51-.463c-1.356,0-2.4,1.313-2.4,4.993v.484c0,3.818,1.042,4.993,2.425,4.993a3.207,3.207,0,0,0,1.531-.447v1.962a3.725,3.725,0,0,1-1.888.425c-2.425,0-4.291-2.1-4.291-6.95Z" transform="translate(-139.81 -456.356)" fill="#fff"/>
          <path id="Path_104" data-name="Path 104" d="M154.27,466.792V456.63h2.18v10.348c0,1.473.622,2.143,1.531,2.143s1.558-.665,1.558-2.143V456.63h2.154v10.162c0,2.786-1.531,4.164-3.712,4.164S154.27,469.583,154.27,466.792Z" transform="translate(-146.581 -456.449)" fill="#fff"/>
          <path id="Path_105" data-name="Path 105" d="M170.833,470.138v-2.1a5.271,5.271,0,0,0,2.536.83,1.444,1.444,0,0,0,1.643-1.457v-.042c0-.808-.287-1.393-1.712-2.951-1.909-2.079-2.6-2.972-2.6-4.568v-.042a3.384,3.384,0,0,1,3.557-3.456,5.159,5.159,0,0,1,2.4.505v2.1a4.31,4.31,0,0,0-2.154-.686,1.464,1.464,0,0,0-1.6,1.436v.042c0,.787.287,1.212,1.712,2.749,2.068,2.223,2.6,3.174,2.6,4.77v.042a3.46,3.46,0,0,1-3.642,3.478,6.291,6.291,0,0,1-2.733-.649Z" transform="translate(-154.274 -456.318)" fill="#fff"/>
          <path id="Path_106" data-name="Path 106" d="M185.691,458.507H183.58V456.63h6.381v1.877h-2.09v12.267h-2.18Z" transform="translate(-160.305 -456.449)" fill="#fff"/>
          <path id="Path_107" data-name="Path 107" d="M196.57,463.846v-.606c0-4.77,1.643-6.95,4-6.95s4,2.18,4,6.95v.606c0,4.77-1.643,6.95-4,6.95S196.57,468.616,196.57,463.846Zm5.78,0v-.606c0-3.658-.734-5.131-1.776-5.131s-1.776,1.473-1.776,5.131v.606c0,3.658.734,5.131,1.776,5.131S202.35,467.5,202.35,463.846Z" transform="translate(-166.388 -456.29)" fill="#fff"/>
          <path id="Path_108" data-name="Path 108" d="M214.545,456.63h2.244l2.2,6,2.2-6h2.244v14.145h-2.111v-9.641l-2.313,6.221h-.069l-2.313-6.221v9.641h-2.09V456.63Z" transform="translate(-174.803 -456.449)" fill="#fff"/>
          <path id="Path_109" data-name="Path 109" d="M234.78,456.621h5.759V458.5h-3.557v4.2h3.18v1.877h-3.18v4.3H240.6v1.877H234.78V456.61Z" transform="translate(-184.28 -456.44)" fill="#fff"/>
          <path id="Path_110" data-name="Path 110" d="M248.49,456.63h2.536c2.754,0,4.711,1.393,4.711,4.4v.144a4.049,4.049,0,0,1-2.09,3.781L256,470.774h-2.356l-2.09-5.174c-.09,0-.2.021-.287.021h-.58v5.153h-2.2Zm2.579,7.195a2.3,2.3,0,0,0,2.467-2.627v-.122a2.26,2.26,0,0,0-2.531-2.584h-.314v5.333Z" transform="translate(-190.7 -456.449)" fill="#fff"/>
          <path id="Path_111" data-name="Path 111" d="M270.818,470.138v-2.1a5.27,5.27,0,0,0,2.531.83,1.444,1.444,0,0,0,1.643-1.457v-.042c0-.808-.287-1.393-1.712-2.951-1.909-2.079-2.6-2.972-2.6-4.568v-.042a3.384,3.384,0,0,1,3.557-3.456,5.159,5.159,0,0,1,2.4.505v2.1a4.31,4.31,0,0,0-2.154-.686,1.464,1.464,0,0,0-1.6,1.436v.042c0,.787.287,1.212,1.712,2.749,2.069,2.223,2.6,3.174,2.6,4.77v.042a3.461,3.461,0,0,1-3.648,3.478,6.291,6.291,0,0,1-2.733-.649Z" transform="translate(-201.09 -456.318)" fill="#fff"/>
          <path id="Path_112" data-name="Path 112" d="M285.31,456.621h5.759V458.5h-3.557v4.2h3.18v1.877h-3.18v4.3h3.621v1.877H285.31V456.61Z" transform="translate(-207.941 -456.44)" fill="#fff"/>
          <path id="Path_113" data-name="Path 113" d="M299.02,456.63h2.536c2.754,0,4.711,1.393,4.711,4.4v.144a4.049,4.049,0,0,1-2.09,3.781l2.356,5.817h-2.356l-2.09-5.174c-.09,0-.2.021-.287.021h-.58v5.153h-2.2Zm2.579,7.195a2.3,2.3,0,0,0,2.467-2.627v-.122a2.26,2.26,0,0,0-2.531-2.584h-.308v5.333h.378Z" transform="translate(-214.361 -456.449)" fill="#fff"/>
          <path id="Path_114" data-name="Path 114" d="M313.985,456.63h2.244l1.845,10.226,1.845-10.226h2.154l-2.914,14.2h-2.265l-2.914-14.2Z" transform="translate(-221.366 -456.449)" fill="#fff"/>
          <path id="Path_115" data-name="Path 115" d="M331.5,456.63h2.18v14.145H331.5Z" transform="translate(-229.57 -456.449)" fill="#fff"/>
          <path id="Path_116" data-name="Path 116" d="M338.69,463.827v-.447c0-4.892,2-6.95,4.424-6.95a3.689,3.689,0,0,1,1.712.346v2.063a3.039,3.039,0,0,0-1.51-.463c-1.356,0-2.4,1.313-2.4,4.993v.484c0,3.818,1.042,4.993,2.425,4.993a3.206,3.206,0,0,0,1.531-.447v1.962a3.724,3.724,0,0,1-1.888.425c-2.425,0-4.291-2.1-4.291-6.95Z" transform="translate(-232.936 -456.356)" fill="#fff"/>
          <path id="Path_117" data-name="Path 117" d="M353.24,456.621H359V458.5h-3.557v4.2h3.18v1.877h-3.18v4.3h3.621v1.877H353.24V456.61Z" transform="translate(-239.75 -456.44)" fill="#fff"/>
        </g>
      </g>
    </g>
  </g>
</svg>
