<svg xmlns="http://www.w3.org/2000/svg" xmlns:xlink="http://www.w3.org/1999/xlink" width="906" height="450" viewBox="0 0 906 450">
  <defs>
    <linearGradient id="linear-gradient" x1="0.5" y1="1" x2="0.5" gradientUnits="objectBoundingBox">
      <stop offset="0" stop-color="#f9a51a"/>
      <stop offset="0.52" stop-color="#fdbf0f"/>
    </linearGradient>
  </defs>
  <g id="Group_44" data-name="Group 44" transform="translate(-57 -2527)">
    <rect id="Rectangle_15" data-name="Rectangle 15" width="906" height="450" transform="translate(57 2527)" fill="#fff"/>
    <g id="TOCRegister_-Art" data-name="TOCRegister -Art" transform="translate(306.909 2641.964)">
      <g id="Group_43" data-name="Group 43" transform="translate(26.091 20.036)">
        <rect id="Rectangle_22" data-name="Rectangle 22" width="238.06" height="67.719" transform="translate(115.004 54.745)" fill="#17194e"/>
        <path id="Path_204" data-name="Path 204" d="M141.182,39.341l-57.544-19.3h0l-57.543,19.3v160.1l57.545-26.061,57.545,26.061Z" transform="translate(-26.091 -20.036)" fill="url(#linear-gradient)"/>
        <g id="Group_42" data-name="Group 42" transform="translate(19.19 43.44)">
          <g id="Group_39" data-name="Group 39" transform="translate(0.191)">
            <path id="Path_205" data-name="Path 205" d="M84.532,140.707H76.75v-5.316H98.323v5.316H90.542v21.958h-6.01Z" transform="translate(-76.75 -134.697)" fill="#1d234e"/>
            <path id="Path_206" data-name="Path 206" d="M137.84,147.908a15.4,15.4,0,0,1,1.1-5.932A13.013,13.013,0,0,1,142,137.449a13.508,13.508,0,0,1,4.662-2.87,17.846,17.846,0,0,1,11.789,0,13.526,13.526,0,0,1,4.662,2.87,13,13,0,0,1,3.062,4.527,16.569,16.569,0,0,1,0,11.865,13,13,0,0,1-3.062,4.527,13.5,13.5,0,0,1-4.662,2.87,17.852,17.852,0,0,1-11.789,0,13.485,13.485,0,0,1-4.662-2.87,13.011,13.011,0,0,1-3.062-4.527A15.4,15.4,0,0,1,137.84,147.908Zm6.241,0a9.993,9.993,0,0,0,.6,3.525,8.063,8.063,0,0,0,1.714,2.774,7.819,7.819,0,0,0,2.677,1.83,9.614,9.614,0,0,0,6.974,0,7.826,7.826,0,0,0,2.677-1.83,8.056,8.056,0,0,0,1.714-2.774,10.656,10.656,0,0,0,0-7.03,8.031,8.031,0,0,0-1.714-2.793,7.848,7.848,0,0,0-2.677-1.83,9.614,9.614,0,0,0-6.974,0,7.84,7.84,0,0,0-2.677,1.83,8.037,8.037,0,0,0-1.714,2.793A10.042,10.042,0,0,0,144.081,147.908Z" transform="translate(-114.467 -133.578)" fill="#1d234e"/>
            <path id="Path_207" data-name="Path 207" d="M223.621,135.391h10.131a20.032,20.032,0,0,1,4.007.385,9.132,9.132,0,0,1,3.294,1.329,6.738,6.738,0,0,1,2.234,2.542,8.713,8.713,0,0,1,.828,4.026,9.3,9.3,0,0,1-.77,4.007,6.569,6.569,0,0,1-2.119,2.581,8.59,8.59,0,0,1-3.2,1.368,18.747,18.747,0,0,1-4.007.4H229.63v10.632h-6.009Zm6.009,11.557h4.007a7.7,7.7,0,0,0,1.559-.154,4.133,4.133,0,0,0,1.349-.52,2.785,2.785,0,0,0,.963-1,3.175,3.175,0,0,0,.366-1.6,2.709,2.709,0,0,0-.482-1.676,3.208,3.208,0,0,0-1.233-.982,5.282,5.282,0,0,0-1.676-.443,17.114,17.114,0,0,0-1.773-.1H229.63Z" transform="translate(-167.429 -134.697)" fill="#1d234e"/>
          </g>
          <g id="Group_40" data-name="Group 40" transform="translate(0.49 32.847)">
            <path id="Path_208" data-name="Path 208" d="M77.53,220.19h2.389l4.135,15.1H84.1l4.469-15.1h2.414l4.443,15.1h.051l4.212-15.1h2.26l-5.341,18.183H94.275L89.78,222.964h-.051l-4.52,15.409H82.846Z" transform="translate(-77.53 -219.9)" fill="#1d234e"/>
            <path id="Path_209" data-name="Path 209" d="M151.065,238.54a9.856,9.856,0,0,1-3.813-.719,9.164,9.164,0,0,1-3-1.99,8.936,8.936,0,0,1-1.978-3.03,10.651,10.651,0,0,1,0-7.628,8.933,8.933,0,0,1,1.978-3.031,9.164,9.164,0,0,1,3-1.99,10.47,10.47,0,0,1,7.627,0,9.158,9.158,0,0,1,3.005,1.99,8.944,8.944,0,0,1,1.978,3.031,10.656,10.656,0,0,1,0,7.628,8.946,8.946,0,0,1-1.978,3.03,9.158,9.158,0,0,1-3.005,1.99A9.858,9.858,0,0,1,151.065,238.54Zm0-2a7.068,7.068,0,0,0,2.916-.591,6.88,6.88,0,0,0,2.273-1.618,7.4,7.4,0,0,0,1.476-2.4,8.47,8.47,0,0,0,0-5.881,7.407,7.407,0,0,0-1.476-2.4,6.9,6.9,0,0,0-2.273-1.618,7.489,7.489,0,0,0-5.83,0,6.88,6.88,0,0,0-2.273,1.618,7.389,7.389,0,0,0-1.476,2.4,8.47,8.47,0,0,0,0,5.881,7.379,7.379,0,0,0,1.476,2.4,6.862,6.862,0,0,0,2.273,1.618A7.062,7.062,0,0,0,151.065,236.537Z" transform="translate(-117.064 -219.432)" fill="#1d234e"/>
            <path id="Path_210" data-name="Path 210" d="M197.687,220.64h4.649a21.937,21.937,0,0,1,2.607.155,7.006,7.006,0,0,1,2.324.667,4.212,4.212,0,0,1,1.669,1.5,4.881,4.881,0,0,1,.642,2.684,4.429,4.429,0,0,1-1.207,3.236,5.77,5.77,0,0,1-3.339,1.567l5.162,8.372h-2.645l-4.931-8.167h-2.773v8.167h-2.158Zm2.158,8.013h1.926q.9,0,1.862-.052a6.363,6.363,0,0,0,1.772-.334,3.088,3.088,0,0,0,1.336-.886,2.56,2.56,0,0,0,.526-1.734,2.837,2.837,0,0,0-.385-1.566,2.612,2.612,0,0,0-1.015-.912,4.322,4.322,0,0,0-1.413-.424,12.139,12.139,0,0,0-1.579-.1h-3.03Z" transform="translate(-151.716 -220.178)" fill="#1d234e"/>
            <path id="Path_211" data-name="Path 211" d="M239.084,220.64h2.158V228.5h.308l8.269-7.859h3.107l-8.989,8.3,9.426,9.887H250.2l-8.654-9.246h-.308v9.246h-2.158Z" transform="translate(-177.274 -220.178)" fill="#1d234e"/>
          </g>
          <g id="Group_41" data-name="Group 41" transform="translate(0 55.942)">
            <path id="Path_212" data-name="Path 212" d="M76.25,280.874h4.815a10.263,10.263,0,0,1,2.144.218,5.321,5.321,0,0,1,1.812.733,3.771,3.771,0,0,1,1.261,1.376,5.04,5.04,0,0,1-.034,4.322,3.929,3.929,0,0,1-1.3,1.376,5.316,5.316,0,0,1-1.732.711,8.366,8.366,0,0,1-1.788.206H78.176v7.292H76.25Zm1.926,7.155h3.256a3.925,3.925,0,0,0,2.35-.654,2.727,2.727,0,0,0,0-4.059,3.923,3.923,0,0,0-2.35-.653H78.176Z" transform="translate(-76.25 -280.462)" fill="#1d234e"/>
            <path id="Path_213" data-name="Path 213" d="M109.992,280.874h1.926V295.32h7.43v1.789h-9.356Z" transform="translate(-97.083 -280.462)" fill="#1d234e"/>
            <path id="Path_214" data-name="Path 214" d="M143.2,280.874h1.811l6.9,16.235h-2.247l-1.651-3.99H139.9l-1.674,3.99h-2.178Zm.871,2.477h-.046l-3.371,7.98h6.627Z" transform="translate(-113.167 -280.462)" fill="#1d234e"/>
            <path id="Path_215" data-name="Path 215" d="M186.816,283.557a4.638,4.638,0,0,0-1.811-1.479,5.349,5.349,0,0,0-2.247-.493,5.619,5.619,0,0,0-2.487.551,6.215,6.215,0,0,0-1.961,1.479,6.78,6.78,0,0,0-1.285,2.155,7.255,7.255,0,0,0-.458,2.557,7.514,7.514,0,0,0,.458,2.649,6.615,6.615,0,0,0,1.273,2.132,5.957,5.957,0,0,0,1.949,1.433,6.29,6.29,0,0,0,5.171-.057,6.034,6.034,0,0,0,2.041-1.685l1.445,1.215a6.676,6.676,0,0,1-2.649,2.156,8.52,8.52,0,0,1-3.5.688,8.246,8.246,0,0,1-3.256-.642,8.018,8.018,0,0,1-2.625-1.777,8.18,8.18,0,0,1-1.743-2.695,9.01,9.01,0,0,1-.63-3.416,9.146,9.146,0,0,1,.607-3.348,8.063,8.063,0,0,1,7.648-5.182,8.654,8.654,0,0,1,3.176.6,5.851,5.851,0,0,1,2.556,1.949Z" transform="translate(-136.912 -279.796)" fill="#1d234e"/>
            <path id="Path_216" data-name="Path 216" d="M217.755,280.874h10.2v1.789h-8.278v5.09h7.727v1.789h-7.727v5.778h8.691v1.789H217.755Z" transform="translate(-163.616 -280.462)" fill="#1d234e"/>
            <path id="Path_217" data-name="Path 217" d="M258.55,283.075a2.837,2.837,0,0,0-1.284-1.135,4.1,4.1,0,0,0-1.674-.355,5,5,0,0,0-1.261.161,3.742,3.742,0,0,0-1.113.482,2.413,2.413,0,0,0-.791.848,2.474,2.474,0,0,0-.3,1.238,2.577,2.577,0,0,0,.172.975,2.045,2.045,0,0,0,.562.768,4.159,4.159,0,0,0,1.054.642,14.5,14.5,0,0,0,1.628.6q.939.3,1.823.642a6.177,6.177,0,0,1,1.559.871,3.882,3.882,0,0,1,1.078,1.318,4.5,4.5,0,0,1-1.352,5.573,5.53,5.53,0,0,1-1.824.872,7.934,7.934,0,0,1-2.132.287,8.112,8.112,0,0,1-1.422-.126,6.854,6.854,0,0,1-1.364-.389,5.538,5.538,0,0,1-1.226-.688,4.14,4.14,0,0,1-.986-1.044l1.65-1.352a3.391,3.391,0,0,0,1.467,1.352,4.482,4.482,0,0,0,3.245.275,3.8,3.8,0,0,0,1.135-.538,2.955,2.955,0,0,0,.826-.883,2.294,2.294,0,0,0,.321-1.215,2.587,2.587,0,0,0-.253-1.226,2.259,2.259,0,0,0-.779-.814,6.052,6.052,0,0,0-1.33-.619l-1.88-.642a11.906,11.906,0,0,1-1.605-.631,4.935,4.935,0,0,1-1.273-.872,3.727,3.727,0,0,1-.848-1.238,4.387,4.387,0,0,1-.31-1.731,4.177,4.177,0,0,1,1.7-3.5,5.623,5.623,0,0,1,1.765-.883,7.489,7.489,0,0,1,4.575.126,4.925,4.925,0,0,1,2.03,1.479Z" transform="translate(-183.339 -279.796)" fill="#1d234e"/>
          </g>
          <rect id="Rectangle_23" data-name="Rectangle 23" width="76.894" height="0.917" transform="translate(0.087 76.959)" fill="#1d234e"/>
        </g>
        <path id="REGISTER" d="M536.244,256.218H512.2v-1.571c2.779,0,3.384-1.33,3.384-3.625V231.444c0-2.3-.362-3.5-3.384-3.625v-1.45H534.31l1.329,8.339h-1.571c-.846-3.625-2.417-5.8-5.2-5.8h-7.13V239.42h2.3c2.175,0,3.5-.725,3.867-3.867h1.45v10.393h-1.45c-.363-3.142-1.45-3.867-3.867-3.867h-2.3V252.35c0,.967.121,1.209,1.209,1.209h7.129c3.142,0,4.351-1.329,6.043-5.8h1.329l-1.208,8.459Zm-26.466-21.631h1.45l-1.33-8.218H484.4l-1.209,8.339h1.571c.846-3.746,2.417-5.8,5.921-5.8h3.384v22.115c0,2.3-.483,3.384-3.384,3.625v1.571h13.172v-1.571c-3.021-.121-3.625-1.33-3.625-3.625V228.907h3.625c3.5,0,5.076,1.813,5.921,5.68ZM473.4,256.459c6.042,0,11.239-3.988,11.239-9.184,0-4.592-3.384-6.889-8.338-8.822-2.055-.846-4.351-1.571-6.284-2.417-1.691-.6-3.021-1.813-3.021-3.5,0-2.055,2.175-3.867,5.559-3.867,5.2,0,7.371,2.055,8.58,6.042h1.45l-1.329-8.339h-1.087c-.363.725-.484.846-.725.846a10.027,10.027,0,0,1-2.538-.725,13.328,13.328,0,0,0-4.23-.725c-6.042,0-11.359,2.9-11.359,8.459,0,6.405,5.8,7.976,10.513,9.668,5.559,1.934,6.4,2.9,6.4,5.317s-1.691,4.472-5.8,4.472c-4.955,0-8.58-1.571-10.151-7.614h-1.45l1.45,10.151h1.329c.242-1.208.6-1.208.6-1.208a8.3,8.3,0,0,1,1.571.241,12.383,12.383,0,0,0,1.692.484,23.81,23.81,0,0,0,5.921.725Zm-27.19-.242h13.051v-1.571c-2.9-.121-3.5-1.209-3.5-3.625V231.565c0-2.538.6-3.625,3.5-3.746v-1.45H446.214v1.45c3.021.121,3.384,1.329,3.384,3.746v19.456c0,2.3-.362,3.5-3.384,3.625v1.571ZM442.951,245.7c0-2.9.6-3.5,3.625-3.625v-1.571H433.284v1.571c3.021,0,3.5.725,3.5,3.625V250.3c0,2.779-1.692,4.35-6.767,4.35-5.8,0-8.822-5.317-8.822-13.776,0-7.493,2.3-13.051,9.185-13.051,5.68,0,8.338,2.9,9.546,6.768h1.45l-1.088-8.339H439.2a1.544,1.544,0,0,1-1.571.725,6.264,6.264,0,0,1-1.33-.242c-1.933-.484-3.867-1.33-5.8-1.33-10.514,0-15.952,7.13-15.952,16.193,0,8.943,6.163,15.347,16.193,15.347a23.3,23.3,0,0,0,7.13-1.329,24.1,24.1,0,0,1,5.075-1.329V245.7Zm122.9,11.843a10.749,10.749,0,0,0,5.2-1.087v-1.692a8.145,8.145,0,0,1-2.055.362c-.967,0-1.933-1.329-2.417-2.055-1.571-2.054-3.142-4.109-4.713-6.284-1.209-1.571-2.659-3.746-4.471-4.713,3.746-1.209,6.767-4.592,6.767-8.1,0-5.075-4.592-7.614-10.514-7.614H538.661v1.45c2.779.121,3.5,1.45,3.5,3.746v19.456c0,2.3-.725,3.5-3.5,3.625v1.571h13.293v-1.571c-2.78-.121-3.625-1.33-3.625-3.625v-7.855h1.813a3.583,3.583,0,0,1,3.625,1.813c1.087,1.692,2.416,3.625,4.35,6.4,1.934,2.9,3.625,6.163,7.734,6.163Zm-13.776-28.64c3.625,0,5.68,1.813,5.68,5.559,0,4.109-2.78,6.042-5.8,6.042h-3.625v-11.6ZM413.344,256.218l1.45-8.459h-1.33c-1.571,4.471-3.142,5.8-6.163,5.8h-7.009c-1.329,0-1.329-.242-1.329-.846V242.079h2.416c2.417,0,3.625.725,3.867,3.867h1.33V235.553h-1.209c-.362,3.142-1.812,3.867-3.988,3.867h-2.416V228.907h7.13c2.779,0,4.471,2.055,5.438,5.8h1.329l-1.329-8.339H389.416v1.45c3.021.121,3.384,1.329,3.384,3.625v19.7c0,2.3-.6,3.384-2.538,3.384s-3.746-2.538-5.921-5.8c-.966-1.33-2.175-3.142-3.263-4.834a10.187,10.187,0,0,0-4.109-3.384c3.5-1.087,6.888-3.625,6.888-8.7,0-6.284-6.4-8.7-13.414-8.7a74.246,74.246,0,0,0-15.952,1.812l-.725,4.23,1.208.363c1.209-1.692,2.055-2.3,5.559-3.021v24.532c0,2.175-.725,3.5-3.867,3.625v1.571h14.018v-1.571c-3.142-.121-3.867-1.45-3.867-3.625v-9.547h2.538c2.417,0,3.5.846,4.35,2.417.966,1.692,2.417,4.23,4.35,7.493,2.055,3.5,4.109,5.921,8.1,5.921a15.891,15.891,0,0,0,6.042-1.087Zm-42.9-30.574c3.5,0,6.647,1.813,6.647,6.768,0,4.35-2.659,6.4-6.284,6.4h-3.988V225.764c.846,0,2.055-.121,3.626-.121Z" transform="translate(-228.4 -145.413)" fill="#fff" fill-rule="evenodd"/>
        <path id="THE_ORANGE_COUNTY" data-name="THE ORANGE COUNTY" d="M587.973,194.472a2.136,2.136,0,0,0-.79.4c-.132.131-.263.394-.394.526l-2.5,3.685v2.633c0,.79.394,1.316,1.185,1.316v.263h-4.212v-.263c.921,0,1.184-.526,1.184-1.316v-2.5l-2.106-3.422a4.606,4.606,0,0,0-.658-1.053c-.132-.132-.263-.132-.79-.263v-.263h4.08v.263h-.263c-.526,0-.658.263-.658.526,0,.132.263.395.263.526l1.448,2.764h0l1.579-2.5a1.75,1.75,0,0,0,.395-.658c0-.395-.263-.658-.79-.658v-.263h3.027v.263Zm-9.871,2.237-.132-2.5h-8.292l-.263,2.5h.395c.264-1.185.658-1.842,1.843-1.842h1.185v6.844a1.047,1.047,0,0,1-1.185,1.185v.395h4.212V202.9c-.921,0-1.185-.395-1.185-1.185v-6.844H576c1.053,0,1.579.658,1.711,1.842Zm-9.477-2.237v-.263h-3.159v.263c.79,0,1.184.526,1.184,1.448v4.212l-4.87-5.923h-2.9v.263a1.7,1.7,0,0,1,1.448.921v6.186c0,.921-.395,1.448-1.185,1.448v.263h3.027v-.263c-.658,0-1.185-.526-1.185-1.448v-5.4l6.055,7.371h.395V195.92c0-.921.526-1.448,1.185-1.448Zm-10.793,8.818v-.263a1.1,1.1,0,0,1-1.185-1.185v-6.055c0-.79.395-1.316,1.185-1.316v-.263h-4.212v.263c.922,0,1.185.526,1.185,1.316v5.923a3.159,3.159,0,0,1-2.237,1.185c-1.579,0-1.975-.79-1.975-2.369v-4.738c0-.79.4-1.316,1.185-1.316v-.263H547.7v.263c.79,0,1.053.526,1.053,1.316v4.606c0,2.369,1.184,3.159,3.29,3.159a4.109,4.109,0,0,0,2.764-1.053v.79Zm-10.793-4.606a4.7,4.7,0,0,0-4.87-4.87,4.629,4.629,0,0,0-4.87,4.87,4.7,4.7,0,0,0,4.87,4.87,4.778,4.778,0,0,0,4.87-4.87Zm-1.975.131c0,2.5-1.184,4.212-2.9,4.212-1.842,0-2.9-1.711-2.9-4.343,0-2.5,1.053-4.212,2.9-4.212s2.9,1.711,2.9,4.343Zm-9.213,2.369-.263-.526c-.79,1.185-1.711,2.106-3.159,2.106-1.843,0-3.027-1.843-3.027-4.344,0-2.369,1.053-3.817,2.9-3.817a2.923,2.923,0,0,1,3.027,2.369h.395l-.263-2.9h-.4c-.131.263-.263.263-.394.263a20.248,20.248,0,0,0-2.5-.263,4.6,4.6,0,0,0-4.87,4.738,4.49,4.49,0,0,0,4.738,4.738,4.177,4.177,0,0,0,3.817-2.369Zm-14.239-.263-.394-.132c-.527,1.448-1.053,1.843-1.975,1.843h-1.711c-.394,0-.526,0-.526-.395v-3.159h1.185c.79,0,1.053.132,1.185,1.053h.394v-3.159h-.394c-.132,1.053-.395,1.185-1.185,1.185h-1.185V195h2.5c.921,0,1.316.658,1.579,1.711h.395l-.263-2.5h-7.239v.263c.79,0,1.053.526,1.053,1.316v6.055c0,.79-.264,1.185-1.053,1.185v.395h7.239l.394-2.5Zm-8.292-1.843v-.526h-3.948v.526c.79,0,1.053.132,1.053,1.053v1.579c0,.921-.79,1.316-2.369,1.316-1.711,0-2.764-1.843-2.764-4.343,0-2.369.921-4.212,3.027-4.212,1.843,0,2.633,1.053,3.028,2.633h.394l-.263-2.9h-.263c-.263.132-.132.263-.526.263a9.107,9.107,0,0,0-2.369-.526,4.7,4.7,0,0,0-5,5c0,2.764,1.974,4.607,5,4.607a5.5,5.5,0,0,0,2.369-.395c.526-.132.921-.263,1.448-.395v-2.632c0-.921.263-1.053,1.185-1.053Zm-28.956,4.344h1.974v-.395c-.658,0-.79-.263-.79-.395v-.263c.263-.658.4-1.185.658-1.843H489.5l.658,1.58a.791.791,0,0,1,.132.526c0,.132-.132.395-.658.395v.395h6.712v-.395c-.658,0-1.184-.395-1.184-1.316v-5.4l5.923,7.37h.526v-7.634c0-.921.395-1.448,1.053-1.448v-.395h-3.027v.395c.658,0,1.053.526,1.053,1.448v4.212l-4.87-6.055h-2.9v.395a1.4,1.4,0,0,1,1.448.79v6.318c0,.79-.4,1.316-1.053,1.316a1.2,1.2,0,0,1-.921-.395,6.423,6.423,0,0,1-.395-.921l-3.027-7.9h-.132a4.987,4.987,0,0,1-1.711.79v.264c.264.131.264.131.264.263l-2.5,6.844a1.13,1.13,0,0,1-.921,1.053,4.831,4.831,0,0,1-1.448-1.843,5.145,5.145,0,0,0-1.843-2.238,2.646,2.646,0,0,0,1.843-2.237c0-1.579-1.316-2.5-3.159-2.5h-4.08v.395a1.1,1.1,0,0,1,1.184,1.184v6.055a1.047,1.047,0,0,1-1.184,1.185v.395H479.5v-.395c-.922,0-1.185-.395-1.185-1.185v-2.5h.132a1.608,1.608,0,0,1,1.184.526c.132.395.658,1.053,1.185,1.974.658,1.053,1.448,1.711,2.238,1.711.526,0,1.052-.132,1.316-.132Zm4.87-3.686H486.6l1.316-3.685,1.316,3.685Zm-8.555-2.9c0,1.053-.79,1.579-1.843,1.579h-.526V195h.658c1.053,0,1.711.526,1.711,1.843Zm-6.186,1.843a4.562,4.562,0,0,0-4.738-4.738c-2.9,0-5,1.843-5,4.738a4.888,4.888,0,0,0,4.87,5,4.809,4.809,0,0,0,4.87-5Zm-1.975.131c0,2.633-1.053,4.212-2.9,4.212-1.711,0-2.9-1.711-2.9-4.343,0-2.5,1.053-4.212,2.9-4.212s2.9,1.711,2.9,4.343Zm-33.242-4.433h-8.432l-.269,2.544h.4c.267-1.2.669-1.874,1.874-1.874h1.2v6.96a1.065,1.065,0,0,1-1.2,1.2v.4h4.283v-.4c-.937,0-1.2-.4-1.2-1.2v-6.96h1.338c1.07,0,1.606.669,1.74,1.874h.4Zm20.1,6.626c-.536,1.472-1.071,1.873-2.008,1.873h-1.74c-.4,0-.535,0-.535-.4v-3.212h1.2c.8,0,1.071.134,1.2,1.071h.4v-3.213h-.4c-.134,1.071-.4,1.2-1.2,1.2h-1.2v-3.212h2.544c.937,0,1.338.67,1.606,1.74h.4l-.267-2.544h-7.362v.268c.8,0,1.071.535,1.071,1.338v6.157c0,.8-.268,1.2-1.071,1.2v.4h7.362l.4-2.543Zm-8.672,2.239a3.3,3.3,0,0,1-.668-.132.862.862,0,0,1-.445-.308.69.69,0,0,1-.083-.353c-.014-.2-.021-.422-.021-.66q0-.451-.007-.827c0-.249-.008-.489-.008-.722v-4.085c0-.13.005-.258.015-.385a3.058,3.058,0,0,1,.042-.337.551.551,0,0,1,.07-.2.873.873,0,0,1,.433-.333,2.5,2.5,0,0,1,.646-.161l.107-.012v-.354h-4.58v.362l.116,0a3.189,3.189,0,0,1,.639.09.958.958,0,0,1,.521.371.727.727,0,0,1,.115.359c.015.17.026.334.036.488.009.273.014.518.014.733v1.891h-4.407v-1.141c0-.307,0-.63.006-.967s.012-.65.022-.939a.785.785,0,0,1,.123-.412.84.84,0,0,1,.277-.257,1.374,1.374,0,0,1,.385-.143q.224-.049.421-.073l.106-.013v-.352h-4.537v.355l.108.011a3.206,3.206,0,0,1,.645.126,1.045,1.045,0,0,1,.448.276.43.43,0,0,1,.1.191,2.086,2.086,0,0,1,.061.331,3.571,3.571,0,0,1,.021.4v3.611q0,.373-.007.728l-.015.655q-.008.3-.007.478,0,.2-.014.411c-.01.144-.021.277-.036.4a2.361,2.361,0,0,1-.055.315.37.37,0,0,1-.062.151,1.222,1.222,0,0,1-.46.265,3.363,3.363,0,0,1-.667.163l-.1.014v.351H444.5v-.357l-.111-.009a2.317,2.317,0,0,1-.589-.131.958.958,0,0,1-.438-.288.676.676,0,0,1-.1-.4q-.014-.335-.014-.694v-2.566h4.407v1.853c0,.291,0,.572-.014.85q0,.147-.007.307c0,.106-.012.208-.021.307s-.021.179-.034.251a.3.3,0,0,1-.031.1.866.866,0,0,1-.418.25,3.2,3.2,0,0,1-.86.161l-.112.008v.358h4.667v-.355Z" transform="translate(-275.823 -127.328)" fill="#fff" fill-rule="evenodd"/>
      </g>
    </g>
  </g>
</svg>
