<?xml version="1.0" encoding="utf-8"?>
<!-- Generator: Adobe Illustrator 29.7.1, SVG Export Plug-In . SVG Version: 9.03 Build 0)  -->
<svg version="1.1" id="Layer_1" xmlns="http://www.w3.org/2000/svg" xmlns:xlink="http://www.w3.org/1999/xlink" x="0px" y="0px"
	 viewBox="0 0 49.5 61.4" enable-background="new 0 0 49.5 61.4" xml:space="preserve">
<g>
	<path fill-rule="evenodd" clip-rule="evenodd" fill="#2B74B9" d="M31.8,0.1c-3.4-0.8-6.6,1.9-6.2,5.6h2.2c0,0,1,0,1.3,0.7
		c0,0-3.3,1.3-3,3.3l2,15.1l7.2-17.4C36.4,4.8,35.2,0.9,31.8,0.1z"/>
	<path fill-rule="evenodd" clip-rule="evenodd" fill="#2B74B9" d="M22,30.4l-14-9.9c-3.6-2.5-7.1,0-7.8,2.7
		c-1.1,3.9,1.4,7.2,5.2,7.2H22z"/>
	<path fill-rule="evenodd" clip-rule="evenodd" fill="#2B74B9" d="M23.9,6c0.5-3.8-2.7-6.7-6.2-5.8c-3.4,0.8-4.6,4.7-3.5,7.3
		l7.2,17.4L23.9,6z"/>
	<path fill-rule="evenodd" clip-rule="evenodd" fill="#2B74B9" d="M20.7,27.7L13.9,11C12.3,7.2,8,6.7,5.6,9
		c-1.7,1.6-2.9,5.9,0.8,8.6L20.7,27.7z"/>
	<path fill-rule="evenodd" clip-rule="evenodd" fill="#2B74B9" d="M27.5,30.4l14-9.9c3.6-2.5,7.1,0,7.8,2.7c1.1,3.9-1.4,7.2-5.2,7.2
		H27.5z"/>
	<path fill-rule="evenodd" clip-rule="evenodd" fill="#2B74B9" d="M28.8,27.7L35.6,11c1.6-3.9,5.9-4.3,8.2-2.1
		c1.7,1.6,2.9,5.9-0.8,8.6L28.8,27.7z"/>
	<path fill="#2B74B9" d="M6.3,45.6c-3.5,0-6.2-2.7-6.2-6c0-3.3,2.8-5.9,6.2-5.9c2.9,0,4.5,1.9,4.7,2.1l-1.7,1.7
		C9,37.1,8.1,36,6.3,36c-2.1,0-3.8,1.6-3.8,3.6c0,2.1,1.8,3.6,3.8,3.6c1.8,0,2.5-0.6,3.6-1.5l1.5,1.8C10.2,44.5,8.9,45.6,6.3,45.6z"
		/>
	<path fill="#2B74B9" d="M13.3,45.3V33.9h2.4l5.5,7.3v-7.3h2.4v11.3h-2.4l-5.5-7.3v7.3H13.3z"/>
	<path fill="#2B74B9" d="M35.3,39.2c0.6,0.6,1,1.5,1,2.5c0,3.1-2.7,3.6-3.6,3.6h-6.7V33.9h6.6c1.6,0,3.3,1.1,3.3,3.3
		C35.9,38.1,35.6,38.7,35.3,39.2z M32.6,36.3h-4.2v1.8h4.2c0,0,0.9,0,0.9-0.9C33.5,36.4,32.7,36.3,32.6,36.3z M32.6,42.8
		c0.4,0,1.2-0.1,1.2-1.1c0-1.1-0.9-1.2-1.2-1.2h-4.3v2.3H32.6z"/>
	<path fill="#2B74B9" d="M44.2,45.6c-3.5,0-6.2-2.7-6.2-6c0-3.3,2.8-5.9,6.2-5.9c2.9,0,4.5,1.9,4.7,2.1l-1.7,1.7
		c-0.4-0.4-1.3-1.4-3-1.4c-2.1,0-3.8,1.6-3.8,3.6c0,2.1,1.8,3.6,3.8,3.6c1.8,0,2.5-0.6,3.6-1.5l1.5,1.8
		C48.1,44.5,46.8,45.6,44.2,45.6z"/>
</g>
<path fill="#2B74B9" d="M0,60l1.4-1.9c0.7,0.7,1.5,1.1,2.4,1.1c0.6,0,0.9-0.2,0.9-0.5c0-0.3-0.3-0.5-1.4-0.9c-1.5-0.5-2.8-1.3-2.8-3
	c0-1.9,1.5-3,3.4-3c1.4,0,2.4,0.4,3.4,1.2l-1.4,2c-0.6-0.6-1.4-1-2-1c-0.3,0-0.7,0.2-0.7,0.5c0,0.3,0.3,0.5,1.2,0.8
	c2,0.7,3.1,1.3,3.1,3.1c0,1.7-1.2,3-3.7,3C2.3,61.3,1,60.9,0,60z"/>
<path fill-rule="evenodd" clip-rule="evenodd" fill="#2B74B9" d="M11.3,57.4h6.2c0-0.1,0-0.1,0-0.2c0-0.2,0-0.5,0-0.6
	c0-2.7-1.8-4.7-4.4-4.7c-2.7,0-4.7,2-4.7,4.8c0,2.9,2,4.8,4.7,4.8c2,0,3.3-0.7,4.1-1.7L15.5,58c-0.6,0.7-1.4,1-2.1,1
	C12.3,59,11.5,58.4,11.3,57.4z M14.7,55.6h-3.4c0.2-0.9,0.8-1.5,1.8-1.5C13.9,54.1,14.5,54.7,14.7,55.6z"/>
<path fill="#2B74B9" d="M19.1,47.7H22v13.5h-2.9V47.7z"/>
<path fill-rule="evenodd" clip-rule="evenodd" fill="#2B74B9" d="M26.5,57.4h6.2c0-0.1,0-0.1,0-0.2c0-0.2,0-0.5,0-0.6
	c0-2.7-1.8-4.7-4.4-4.7c-2.7,0-4.7,2-4.7,4.8c0,2.9,2,4.8,4.7,4.8c2,0,3.3-0.7,4.1-1.7L30.7,58c-0.6,0.7-1.4,1-2.1,1
	C27.5,59,26.7,58.4,26.5,57.4z M29.9,55.6h-3.4c0.2-0.9,0.8-1.5,1.8-1.5C29.2,54.1,29.7,54.7,29.9,55.6z"/>
<path fill="#2B74B9" d="M33.8,56.6c0-2.9,1.9-4.8,4.8-4.8c1.4,0,2.9,0.5,3.9,1.6l-1.9,1.9c-0.4-0.6-1.1-0.9-1.8-0.9
	c-1.3,0-2.1,0.9-2.1,2.2c0,1.3,0.9,2.2,2.1,2.2c0.8,0,1.4-0.3,1.9-0.9l1.8,1.9c-0.8,0.9-2.1,1.6-4,1.6
	C35.8,61.4,33.8,59.4,33.8,56.6z"/>
<path fill="#2B74B9" d="M44.2,58.2v-4h-1v-2.4h1v-3l2.9-0.3v3.3h2.2v2.4h-2.2v3.4c0,0.6,0.1,1.1,0.7,1.1c0.2,0,0.6,0,0.9-0.2
	l0.7,2.2c-0.6,0.3-1.3,0.6-2.5,0.6C45.3,61.3,44.2,60.3,44.2,58.2z"/>
</svg>
