<?xml version="1.0" encoding="UTF-8"?><svg id="a" xmlns="http://www.w3.org/2000/svg" viewBox="0 0 216 216"><path d="M121.22,169.01c4.59,0,6.91,5.57,3.66,8.84-3.25,3.25-8.84.92-8.84-3.66,0-2.86,2.32-5.18,5.18-5.18h0ZM122.35,173.06c-1.01-1.01-2.74-.3-2.74,1.13s1.73,2.14,2.74,1.13c.63-.63.63-1.64,0-2.26h0ZM161.95,153.32c0,.77.09,1.25-.33,1.88l-7.62,12.27c-2.35,3.81-7.92,3.75-10.21-.12l-7.29-12.3c-.18-.3-.24-.6-.24-.89v-11.64h-5.39v11.02c0,4.32-3.51,7.86-7.86,7.86H51.25c-4.32,0-7.86-3.51-7.86-7.86v-44.37c0-4.32,3.54-7.86,7.86-7.86h13.7l3.81-8.72c1.7-3.9,3.75-8.19,8.75-8.19h5.98v-34.18c0-4.62,3.78-8.4,8.4-8.4h55.56c.48,0,.92.21,1.28.54l23.34,23.34c.36.36.54.8.54,1.31v67.14c0,4.62-3.78,8.4-8.4,8.4h-2.26v10.78ZM150.97,165.59l6.88-11.08c-4.91-1.25-10.18-1.43-15.16-.51l-2.35.51,6.55,11.02c.95,1.67,3.22,1.52,4.08.06h0ZM142.24,78.2h13.76c3.31,0,5.98,2.68,5.98,5.98v54.79c2.17,0,3.99.27,5.66-1.43.86-.86,1.43-2.08,1.43-3.39v-65.39h-14.98c-4.62,0-8.4-3.78-8.4-8.4v-14.98h-53.83c-2.65,0-4.82,2.17-4.82,4.82v34.21h34.9c4.88,0,8.87,3.99,8.87,8.9v45.64h5.39v-54.79c.06-3.31,2.74-5.98,6.04-5.98h0ZM68.85,101.3h54.16c1.58,0,3.07.48,4.29,1.28v-9.29c0-2.92-2.41-5.33-5.33-5.33h-44.48c-3.01,0-4.32,3.39-5.48,6.01l-3.16,7.32ZM123.01,104.91H51.25c-2.35,0-4.29,1.94-4.29,4.29v44.37c0,2.35,1.94,4.29,4.29,4.29h71.73c2.35,0,4.29-1.94,4.29-4.29v-44.37c.03-2.38-1.91-4.29-4.26-4.29h0ZM66.35,59.95c4.59,0,6.91,5.57,3.66,8.84-3.25,3.25-8.84.92-8.84-3.66,0-2.89,2.32-5.18,5.18-5.18h0ZM67.51,63.97c-1.01-1.01-2.74-.3-2.74,1.13s1.73,2.14,2.74,1.13c.6-.63.6-1.64,0-2.26h0ZM54.41,66.86c6.28,0,9.44,7.62,5,12.06s-12.06,1.28-12.06-5c0-3.9,3.16-7.06,7.06-7.06h0ZM56.88,71.44c-2.2-2.2-5.95-.63-5.95,2.47s3.75,4.64,5.95,2.47c1.37-1.37,1.37-3.57,0-4.94ZM98.23,76.95c-.98,0-1.79-.8-1.79-1.79s.8-1.79,1.79-1.79h34.12c.98,0,1.79.8,1.79,1.79s-.8,1.79-1.79,1.79h-34.12ZM98.23,56.08c-.98,0-1.79-.8-1.79-1.79s.8-1.79,1.79-1.79h38.38c.98,0,1.79.8,1.79,1.79s-.8,1.79-1.79,1.79h-38.38ZM98.23,66.53c-.98,0-1.79-.8-1.79-1.79s.8-1.79,1.79-1.79h38.38c.98,0,1.79.8,1.79,1.79s-.8,1.79-1.79,1.79h-38.38ZM149.24,47.92v12.45c0,2.65,2.17,4.82,4.82,4.82h12.45l-17.27-17.27Z" fill="#0e71c3" stroke="#0e71c3" stroke-miterlimit="10" stroke-width=".24"/></svg>