<?xml version="1.0" encoding="UTF-8"?><svg id="a" xmlns="http://www.w3.org/2000/svg" viewBox="0 0 216 216"><path d="M88.28,61.47h42.54c.89,0,1.6.71,1.6,1.6v9.49c0,.89-.71,1.6-1.6,1.6h-42.54c-.89,0-1.6-.71-1.6-1.6v-9.49c0-.87.71-1.6,1.6-1.6ZM129.22,64.67h-39.36v6.29h39.34v-6.29h.02ZM104.03,86.69c-.89,0-1.6-.71-1.6-1.6s.71-1.6,1.6-1.6h36.53c.89,0,1.6.71,1.6,1.6s-.71,1.6-1.6,1.6h-36.53ZM120.67,118.97c-.89,0-1.6-.71-1.6-1.6s.71-1.6,1.6-1.6h19.89c.89,0,1.6.71,1.6,1.6s-.71,1.6-1.6,1.6h-19.89ZM111.48,107.56c-.89,0-1.6-.71-1.6-1.6s.71-1.6,1.6-1.6h29.08c.89,0,1.6.71,1.6,1.6s-.71,1.6-1.6,1.6h-29.08ZM104.03,97.2c-.89,0-1.6-.71-1.6-1.6s.71-1.6,1.6-1.6h36.53c.89,0,1.6.71,1.6,1.6s-.71,1.6-1.6,1.6h-36.53ZM104.85,155.91c9.58,0,17.35-7.77,17.35-17.35s-7.77-17.35-17.35-17.35-17.35,7.77-17.35,17.35c.02,9.58,7.77,17.35,17.35,17.35ZM119.39,153.09c-7.54,7.54-19.64,8.07-27.77,1.17-12.55,6.31-28.19,4.3-38.4-5.1-10.33-9.49-12.66-24.3-5.26-36.14,2.54-4.07,6.08-7.52,10.31-10.1-.85-1.92-.46-4.11.91-5.65-3.31-3.31-5.97-7.27-7.38-10.79-1.49-3.75-1.58-7.13.34-9.05,1.76-1.76,4.62-1.97,7.96-.89,2.29.75,4.85,2.13,7.41,4.05.46-3.13,1.3-5.9,2.38-8.02,1.58-3.11,3.75-4.98,6.24-4.98,1.28,0,2.49.5,3.57,1.42v-16.46c0-.89.71-1.6,1.6-1.6h54.54c.41,0,.8.16,1.1.43l12.48,11.91c.23.3.3.59.32.96v70.98c0,.89-.71,1.6-1.6,1.6h-22.77c.5,6.24-1.81,12.09-5.97,16.28h0ZM89.22,151.86c-2.01-2.35-3.5-5.19-4.27-8.3-7.02,3.98-15.82,2.77-21.53-2.93-6.99-7.02-6.99-18.38,0-25.37,6.49-6.49,16.85-7.04,23.98-1.26,2.51,2.03,4.46,4.71,5.58,7.82,2.97-2.1,6.51-3.45,10.36-3.75-2.47-5.67-6.97-10.31-12.48-13.24-.91.78-2.13,1.26-3.41,1.26h-24.35c-.98,0-1.9-.27-2.67-.73-15.75,9.17-18.29,29.31-5.05,41.44,8.96,8.23,22.65,10.2,33.85,5.05h0ZM84.37,140.16c-.48-6.17,1.83-11.98,5.97-16.12-1.74-6.35-7.52-10.84-14.22-10.84-8.14,0-14.74,6.61-14.74,14.74-.02,11.86,13.3,18.79,23,12.21h0ZM106.78,118.1c8.73.8,15.96,7.11,18.04,15.52h21.69v-67.78h-10.7c-.89,0-1.6-.71-1.6-1.6v-10.1h-51.32v19.54c.85,1.97,1.49,4.34,1.87,6.97,2.56-1.87,5.1-3.25,7.38-4,3.31-1.07,6.15-.87,7.91.89,1.97,1.97,1.87,5.42.3,9.26-1.65,4-4.53,7.91-8.27,11.5.62,1.14.8,2.51.46,3.82,6.49,3.52,11.64,9.12,14.24,15.98h0ZM74.59,86.03c0-.89.71-1.6,1.6-1.6s1.6.71,1.6,1.6v6.29c0,.89-.71,1.6-1.6,1.6s-1.6-.71-1.6-1.6v-6.29ZM86.04,86.85c.43-.75,1.42-1.03,2.17-.59.75.43,1.03,1.42.59,2.17l-2.88,5.01c-.43.75-1.42,1.03-2.17.59-.75-.43-1.03-1.42-.59-2.17l2.88-5.01ZM65.33,88.43c-.43-.75-.18-1.74.59-2.17.75-.43,1.74-.18,2.17.57l2.88,5.01c.43.75.18,1.74-.59,2.19-.75.43-1.74.18-2.17-.59l-2.88-5.01ZM79.39,120.18c.89,0,1.6.71,1.6,1.6s-.71,1.6-1.6,1.6h-3.98c-.98,0-1.94.62-1.94,1.58,0,1.03,1.42,1.21,2.86,1.42,2.81.37,5.62.75,5.62,4.57,0,2.4-1.9,4.3-4.23,4.71v.78c0,.89-.71,1.6-1.6,1.6s-1.6-.71-1.6-1.6v-.69h-2.4c-.89,0-1.6-.71-1.6-1.6s.71-1.6,1.6-1.6h4.66c.98,0,1.94-.62,1.94-1.58,0-1.03-1.42-1.21-2.83-1.42-2.81-.39-5.62-.75-5.62-4.57,0-2.4,1.9-4.3,4.23-4.71v-.78c0-.89.71-1.6,1.6-1.6s1.6.71,1.6,1.6v.71h1.69v-.02ZM63.09,95.54h24.32c.85,0,1.65.21,2.35.55,3.41-3.27,6.08-6.81,7.61-10.49,1.1-2.63,1.35-4.82.39-5.78-.82-.82-2.51-.8-4.66-.11-2.58.85-5.6,2.65-8.6,5.21-1.01.87-2.54.21-2.63-1.1-.25-3.7-1.05-7.25-2.35-9.83-2.17-4.3-4.59-4.32-6.79-.02-1.23,2.42-2.1,5.85-2.38,9.76-.09,1.3-1.65,2.01-2.7,1.03-2.97-2.56-5.99-4.37-8.55-5.21-2.15-.71-3.86-.73-4.71.11-.91.91-.66,3.04.37,5.6,1.42,3.52,4.05,7.18,7.31,10.33.32-.02.66-.05,1.01-.05h0ZM87.41,98.74h-24.32c-1.81,0-2.79,2.22-1.46,3.54.39.37.89.62,1.46.62h24.32c1.81,0,2.79-2.22,1.46-3.54-.37-.39-.89-.62-1.46-.62ZM137.41,62.64h6.7l-6.7-6.38v6.38ZM149.18,63.07s.02.02.02.02M149.29,63.17s.02.02.02.02" fill="#0e71c3" stroke="#0e71c3" stroke-miterlimit="10" stroke-width=".25"/><path d="M104.85,120.08c-9.91,0-17.95,8.04-17.95,17.95s8.04,17.95,17.95,17.95,17.95-8.04,17.95-17.95-8.04-17.95-17.95-17.95ZM115.83,139.51c0,.5-.41.91-.91.91h-20.14c-.5,0-.91-.41-.91-.91v-2.95c0-.5.41-.91.91-.91h20.14c.5,0,.91.41.91.91v2.95Z" fill="#0e71c3"/></svg>