<?xml version="1.0" encoding="UTF-8"?><svg id="a" xmlns="http://www.w3.org/2000/svg" viewBox="0 0 216 216"><path d="M103.4,56.27c-.61-.61-1.46-.99-2.4-.99s-1.78.38-2.4.99c-.61.61-.99,1.46-.99,2.4s.38,1.78.99,2.4c.61.61,1.46.99,2.4.99s1.78-.38,2.4-.99c.61-.61.99-1.46.99-2.4s-.38-1.78-.99-2.4ZM101,51.59c1.96,0,3.73.79,5.01,2.08,1.28,1.28,2.08,3.05,2.08,5.01s-.79,3.73-2.08,5.01c-1.28,1.28-3.05,2.08-5.01,2.08s-3.73-.79-5.01-2.08c-1.28-1.28-2.08-3.05-2.08-5.01s.79-3.73,2.08-5.01c1.28-1.28,3.05-2.08,5.01-2.08ZM117.39,71.93c-.61-.61-1.46-.99-2.4-.99s-1.78.38-2.4.99c-.61.61-.99,1.46-.99,2.4s.38,1.78.99,2.4c.61.61,1.46.99,2.4.99s1.78-.38,2.4-.99c.61-.61.99-1.46.99-2.4s-.38-1.78-.99-2.4ZM115,67.25c1.96,0,3.73.79,5.01,2.08s2.08,3.05,2.08,5.01-.79,3.73-2.08,5.01-3.05,2.08-5.01,2.08-3.73-.79-5.01-2.08-2.08-3.05-2.08-5.01.79-3.73,2.08-5.01,3.05-2.08,5.01-2.08ZM113.62,57.45c.67-.76,1.84-.82,2.6-.14.76.67.82,1.84.14,2.6l-13.99,15.66c-.67.76-1.84.82-2.6.14s-.82-1.84-.14-2.6l13.99-15.66ZM119.84,125.13l-9.99-5.77s-.07-.04-.1-.05c-.32-.18-.69-.22-1.02-.13s-.64.31-.82.63l-2.02,3.5h0c-.18.31-.22.69-.13,1.02.09.34.31.64.63.83h0s10.08,5.82,10.08,5.82c.32.18.69.22,1.03.13s.64-.31.83-.63h0l1.96-3.4s.04-.07.05-.1c.18-.32.22-.69.13-1.02-.09-.34-.31-.64-.62-.83h0ZM133.49,101.48l-10.09-5.82h0c-.31-.19-.69-.22-1.02-.13-.34.09-.64.31-.83.63l-2.02,3.5c-.18.32-.22.69-.13,1.02.08.32.28.6.56.79l.07.04,10.09,5.82c.32.18.69.22,1.02.13.32-.08.6-.28.79-.56l.04-.07,2.02-3.5c.18-.32.22-.69.13-1.02s-.31-.64-.63-.82ZM116.23,146.67h-19.52c-.49,0-.94.2-1.26.53s-.53.78-.53,1.26v1.79h23.11v-1.79c0-.49-.2-.94-.53-1.26-.33-.33-.78-.53-1.26-.53h0ZM117.83,143.22c.87.26,1.65.74,2.28,1.37.99.99,1.61,2.37,1.61,3.88v3.64c0,1.02-.83,1.85-1.85,1.85h-26.8c-1.02,0-1.85-.83-1.85-1.85v-3.64c0-1.51.61-2.88,1.61-3.88.63-.63,1.41-1.11,2.28-1.37v-2.04c0-1.51.61-2.88,1.61-3.88.99-.99,2.37-1.61,3.88-1.61h11.74c1.51,0,2.88.61,3.88,1.61.99.99,1.61,2.37,1.61,3.88v2.04h-.01ZM98.8,142.98h15.33v-1.79c0-.49-.2-.94-.53-1.26-.33-.33-.78-.53-1.26-.53h-11.74c-.49,0-.94.2-1.26.53-.33.33-.53.78-.53,1.26v1.79ZM132.35,116.12s.04-.07.05-.1.04-.07.06-.1l.15-.25.04-.07-2.27-1.31-4.38,7.59,2.28,1.31.23-.41h.01s3.84-6.66,3.84-6.66h-.01ZM122.04,52.45c3.6,3.6,5.82,8.56,5.82,14.05s-2.22,10.45-5.82,14.05c-3.6,3.6-8.56,5.82-14.05,5.82s-10.45-2.22-14.05-5.82-5.82-8.56-5.82-14.05,2.22-10.45,5.82-14.05c3.6-3.6,8.56-5.82,14.05-5.82s10.45,2.22,14.05,5.82ZM85.25,60.34l-37.25,21.96h42.52c-3.78-4.18-6.09-9.72-6.09-15.8,0-2.13.28-4.2.81-6.16h0ZM125.47,82.3h42.52l-37.25-21.96c.53,1.96.81,4.03.81,6.16,0,6.08-2.31,11.62-6.09,15.8h0ZM52.96,85.99v7.9h19.5v-7.9h-19.5ZM143.53,85.99v7.9h19.5v-7.9h-19.5ZM56.96,97.59v46.89h11.51v-46.89h-11.51ZM147.53,97.59v25.03l11.51,6.64v-31.67h-11.51ZM147.53,135.87v8.61h11.51v-2.07c-.31-.11-.62-.25-.92-.43l-10.59-6.11h0ZM146.45,131l-13.83-7.99,2.06-3.57,9.97,5.76c.07.05.15.09.23.13l14.97,8.64c.07.05.15.09.23.13l1.93,1.11c.49.28.82.74.95,1.25.13.48.09.99-.14,1.45-.05.07-.09.14-.13.22-.28.42-.71.72-1.19.84-.17.04-.34.07-.51.07-.04,0-.08,0-.12,0h-.04c-.26-.02-.53-.08-.78-.2-.08-.05-.17-.1-.26-.14l-13.05-7.53c-.1-.07-.2-.13-.3-.17h0ZM143.53,156.08h19.5v-7.9h-19.5v7.9ZM76.16,156.08v-9.75c0-1.02-.83-1.85-1.85-1.85h-2.15v-46.89h2.15c1.02,0,1.85-.83,1.85-1.85v-9.75h18.61c3.77,2.57,8.32,4.07,13.23,4.07s9.46-1.5,13.23-4.07h18.61v9.75c0,1.02.83,1.85,1.85,1.85h2.15v22.9l-7.53-4.35c.08-.51.05-1.01-.08-1.5-.23-.85-.76-1.61-1.56-2.13-.04-.03-.09-.06-.14-.09l-2.31-1.33.08-.14c1.11-.35,2.11-1.09,2.77-2.16.03-.04.05-.08.08-.12l1.96-3.39c.05-.08.1-.17.14-.26.62-1.17.74-2.48.42-3.67-.32-1.2-1.08-2.28-2.2-2.98-.08-.05-.16-.11-.25-.15l-9.97-5.76h0s0,0,0,0c-1.2-.69-2.58-.84-3.82-.5-1.25.33-2.37,1.14-3.06,2.34l-2.02,3.5c-.69,1.2-.84,2.58-.5,3.82,0,.02.01.05.02.08l-8.02,13.89-.07.02c-1.2.32-2.28,1.08-2.98,2.2-.05.08-.11.16-.15.25l-1.95,3.38h0,0c-.69,1.21-.84,2.58-.5,3.82.33,1.25,1.14,2.37,2.34,3.06h0s10.09,5.82,10.09,5.82c1.2.69,2.58.84,3.82.5,1.25-.33,2.37-1.14,3.06-2.34h0l1.96-3.41s.04-.06.06-.1c.66-1.14.82-2.43.55-3.61l.08-.14,2.31,1.33h0s0,0,0,0c.87.5,1.86.61,2.76.37.49-.13.95-.36,1.34-.68l13.26,7.66v10.74h-2.15c-1.02,0-1.85.83-1.85,1.85v9.75h-63.7s0,0,0,0ZM52.96,156.08h19.5v-7.9h-19.5v7.9ZM48.77,161.89h118.45v-2.13H48.77v2.13h0ZM42.1,165.73c0-1.02-.74-3.83,1.85-3.83h1.14v-3.97c0-1.02.83-1.85,1.85-1.85h2.34v-9.75c0-1.02.83-1.85,1.85-1.85h2.15v-46.89h-2.15c-1.02,0-1.85-.83-1.85-1.85v-9.75h-8.03c-.63,0-1.24-.33-1.58-.91-.52-.87-.23-2.01.65-2.52l47.32-27.9c1.03-1.76,2.28-3.38,3.71-4.82,4.26-4.26,10.15-6.9,16.66-6.9s12.39,2.64,16.66,6.9c1.43,1.43,2.69,3.05,3.71,4.82l47.22,27.84c.6.31,1.01.93,1.01,1.64,0,1.02-.83,1.85-1.85,1.85h-8.03v9.75c0,1.02-.83,1.85-1.85,1.85h-2.15v33.8l1.13.65c1.37.79,2.29,2.07,2.67,3.49.38,1.42.22,2.98-.57,4.35h0c-.75,1.29-1.91,2.18-3.22,2.6v2.01h2.15c1.02,0,1.85.83,1.85,1.85v9.75h2.34c1.02,0,1.85.83,1.85,1.85v3.97h1.14c2.67,0,1.85,2.81,1.85,3.83" fill="#0e71c3" fill-rule="evenodd"/></svg>