<?xml version="1.0" encoding="UTF-8"?><svg id="a" xmlns="http://www.w3.org/2000/svg" viewBox="0 0 216 216"><path d="M96.85,78.86c-.8-.8-2.05-.92-2.98-.29-.94.63-1.3,1.83-.87,2.87.43,1.04,1.54,1.63,2.64,1.41,1.11-.22,1.9-1.19,1.91-2.31,0-.63-.25-1.23-.7-1.68h0ZM95.18,75.02c2.64,0,4.91,1.86,5.42,4.45.52,2.58-.87,5.17-3.3,6.18-2.43,1.01-5.24.16-6.71-2.03-1.46-2.19-1.17-5.11.69-6.98,1.04-1.04,2.44-1.62,3.9-1.62h0ZM111.73,94.33c-.8-.8-2.06-.92-3-.3-.94.63-1.31,1.84-.88,2.88s1.54,1.64,2.66,1.42c1.11-.22,1.91-1.2,1.91-2.33,0-.63-.25-1.23-.69-1.68h0ZM110.06,90.48c2.64,0,4.91,1.86,5.42,4.45.51,2.59-.87,5.17-3.31,6.18-2.43,1.01-5.24.16-6.71-2.04-1.46-2.19-1.17-5.12.69-6.98,1.04-1.04,2.44-1.62,3.91-1.62h0ZM96.87,101.11c-.2.38-.55.67-.96.79-.42.12-.86.06-1.24-.16-.37-.22-.64-.58-.73-1.01-.1-.42-.02-.86.23-1.23l14.21-24.06c.46-.7,1.4-.92,2.12-.49.72.43.99,1.35.6,2.09l-14.22,24.06h0ZM118.95,71.95h0c5.08,5.07,7.51,12.23,6.57,19.34-.93,7.12-5.13,13.4-11.35,16.99-6.22,3.59-13.75,4.08-20.39,1.33-6.63-2.74-11.61-8.42-13.47-15.36-1.86-6.94-.38-14.34,3.99-20.04,4.37-5.7,11.14-9.04,18.32-9.04,6.13,0,12.01,2.43,16.33,6.76h0ZM102.62,62.02c8.16,0,15.85,3.8,20.82,10.27,4.97,6.47,6.64,14.89,4.53,22.77-2.11,7.88-7.77,14.33-15.31,17.46-7.54,3.12-16.1,2.56-23.17-1.52-7.07-4.08-11.84-11.22-12.9-19.31-1.07-8.09,1.69-16.21,7.46-21.99,4.92-4.93,11.6-7.7,18.56-7.69h0ZM131.26,49.72v8.89c0,1.14.93,2.06,2.07,2.07h8.89l-10.95-10.96ZM85.8,124.72c-.87,0-1.58-.71-1.58-1.58s.7-1.58,1.58-1.58h36.35c.87,0,1.58.7,1.58,1.58s-.71,1.58-1.58,1.58h-36.35ZM73.33,124.72c-.87,0-1.58-.71-1.58-1.58s.7-1.58,1.58-1.58h5.17c.87,0,1.58.7,1.58,1.58s-.7,1.58-1.58,1.58h-5.17ZM115.28,139.33c-.87,0-1.58-.7-1.58-1.58s.7-1.58,1.58-1.58h9.64c.87,0,1.58.7,1.58,1.58s-.7,1.58-1.58,1.58h-9.64ZM73.33,139.33c-.87,0-1.58-.7-1.58-1.58s.7-1.58,1.58-1.58h34.64c.87,0,1.58.7,1.58,1.58s-.7,1.58-1.58,1.58h-34.64ZM147.44,93.55h16.25c.87,0,1.58.71,1.58,1.58v26.43h9.3c.6,0,1.15.34,1.42.89.26.54.19,1.18-.17,1.66l-21.73,27.98h0c-.3.4-.76.63-1.25.63-.49,0-.95-.22-1.26-.61l-4.03-5.19.06,9.18h0c0,2.87-2.34,5.21-5.22,5.21H62.85c-2.87,0-5.21-2.33-5.22-5.21V49.56c0-2.88,2.34-5.22,5.22-5.22h66.83c.42,0,.83.17,1.12.47l16.33,16.33c.33.33.5.79.46,1.26l-.15,31.15h0ZM140.37,121.56h-9.29c-.62,0-1.17.35-1.43.91-.26.55-.17,1.21.22,1.68l14.51,18.69.08,13.26h-.01c0,1.13-.93,2.06-2.07,2.06H62.85c-1.14,0-2.06-.93-2.07-2.07V49.56c.01-1.14.93-2.06,2.07-2.07h65.25v11.12c.01,2.88,2.34,5.21,5.22,5.22h11.12l-.14,29.72h-2.37c-.87,0-1.58.7-1.58,1.58v26.43h0Z" fill="#0e71c3" fill-rule="evenodd" stroke="#0e71c3" stroke-miterlimit="10" stroke-width=".93"/></svg>